<svg width="1021" height="1119" viewBox="0 0 1021 1119" fill="none" xmlns="http://www.w3.org/2000/svg">
<path d="M223.42 3.0001L223.42 1.5001L224.92 1.5001L438 1.50008L439.5 1.50008L439.5 3.00008L439.5 44.4083C439.5 60.1484 452.26 72.9083 468 72.9083L1017.5 72.9083L1019 72.9083L1019 74.4083L1019 1115.5L1019 1117L1017.5 1117L3.0001 1117L1.5001 1117L1.5001 1115.5L1.50001 74.4084L1.50001 72.9084L3.00001 72.9084L194.92 72.9083C210.66 72.9083 223.42 60.1484 223.42 44.4083L223.42 3.0001Z" fill="#3F4AB3" stroke="#101415" stroke-width="3"/>
<path d="M142.46 200.35H150.82V281.97C150.82 288.13 151.92 289.45 158.08 289.45C161.05 289.45 176.01 289.45 179.75 289.45C185.8 289.45 186.68 285.38 187.45 269.32C189.54 270.86 192.95 272.4 195.37 272.95C194.05 290.99 191.63 297.26 180.19 297.26C177.33 297.26 160.06 297.26 157.53 297.26C145.98 297.26 142.46 293.96 142.46 281.86V200.35ZM183.71 218.61L189.76 225.65C178.65 234.78 162.48 243.69 147.96 251.28C147.41 249.41 145.76 246.55 144.55 244.79C158.63 237.42 174.36 227.19 183.71 218.61ZM123.32 199.36L131.35 202C123.1 221.36 109.9 240.17 96.26 252.38C95.38 250.4 92.85 246.11 91.2 244.13C103.96 233.46 116.06 216.74 123.32 199.36ZM110.78 228.07L118.81 220.04L118.92 220.15V298.69H110.78V228.07ZM246.41 211.35H302.18V218.61H246.41V211.35ZM222.98 228.95H229.03V265.14H222.98V228.95ZM270.72 197.71H278.64V216.19H270.72V197.71ZM256.64 265.36L263.9 266.9C261.04 276.47 255.98 285.93 250.81 292.09C249.27 290.99 245.86 289.23 243.99 288.46C249.38 282.63 253.89 273.94 256.64 265.36ZM237.17 273.06L242.23 271.19C244.65 275.15 247.07 280.43 248.17 283.73L242.78 286.04C241.79 282.41 239.48 277.13 237.17 273.06ZM284.91 267.56L291.4 265.03C295.91 272.51 300.86 282.41 302.95 288.79L296.02 291.76C294.04 285.16 289.31 275.04 284.91 267.56ZM227.27 273.94L232.55 272.84C234.97 278.45 236.84 285.93 237.39 290.88L231.78 292.2C231.34 287.25 229.58 279.66 227.27 273.94ZM217.7 274.16L223.31 273.39C224.63 279.77 225.18 288.13 224.96 293.41L219.02 294.29C219.46 288.9 218.91 280.65 217.7 274.16ZM213.96 249.96V261.29H238.49V249.96H213.96ZM213.96 232.36V243.47H238.49V232.36H213.96ZM207.36 225.54H245.31V268.11H207.36V225.54ZM208.35 273.17L214.18 274.6C213.19 283.84 211.32 293.41 205.82 299.02L200.32 295.61C205.27 290.66 207.36 281.86 208.35 273.17ZM270.72 255.79H278.64V290.44C278.64 294.29 277.87 296.49 275.01 297.7C272.15 298.91 267.97 299.02 261.37 299.02C261.04 296.82 259.94 293.85 258.84 291.76C263.68 291.87 267.75 291.87 269.07 291.76C270.39 291.76 270.72 291.43 270.72 290.22V255.79ZM260.05 235.22V251.83H289.97V235.22H260.05ZM252.57 228.29H297.89V258.76H252.57V228.29ZM216.27 207.61H234.75V214.1H216.27V207.61ZM232.22 207.61H233.87L235.3 207.17L240.14 210.36C237.06 217.51 232.66 225.76 228.81 231.04C227.71 229.72 225.62 227.63 224.3 226.64C227.27 221.91 230.57 214.32 232.22 208.93V207.61ZM216.16 197.71L223.64 198.7C220.45 210.69 215.17 224.99 206.26 236.32C204.83 234.78 202.3 232.58 200.43 231.7C208.68 221.47 213.63 208.05 216.16 197.71ZM98.13 345.22H124.64C131.607 345.22 136.997 347.017 140.81 350.61C144.697 354.203 146.64 359.117 146.64 365.35C146.64 369.823 145.54 373.38 143.34 376.02C141.14 378.66 138.17 380.53 134.43 381.63V382.18C138.903 383.207 142.497 385.187 145.21 388.12C147.923 390.98 149.28 395.05 149.28 400.33C149.28 403.483 148.767 406.38 147.74 409.02C146.713 411.66 145.247 413.97 143.34 415.95C141.433 417.857 139.123 419.36 136.41 420.46C133.77 421.487 130.837 422 127.61 422H98.13V345.22ZM123.87 412.54C127.977 412.54 131.13 411.697 133.33 410.01C135.53 408.323 136.63 405.61 136.63 401.87V397.91C136.63 394.17 135.53 391.457 133.33 389.77C131.13 388.083 127.977 387.24 123.87 387.24H110.23V412.54H123.87ZM122.11 378.22C125.997 378.22 128.93 377.487 130.91 376.02C132.963 374.48 133.99 371.95 133.99 368.43V364.47C133.99 360.95 132.963 358.457 130.91 356.99C128.93 355.45 125.997 354.68 122.11 354.68H110.23V378.22H122.11ZM206.657 422C203.21 422 200.607 421.12 198.847 419.36C197.16 417.6 196.134 415.29 195.767 412.43H195.217C194.117 415.877 192.1 418.553 189.167 420.46C186.307 422.367 182.64 423.32 178.167 423.32C172.374 423.32 167.754 421.817 164.307 418.81C160.86 415.73 159.137 411.513 159.137 406.16C159.137 400.66 161.154 396.48 165.187 393.62C169.294 390.687 175.564 389.22 183.997 389.22H194.887V384.82C194.887 377.12 190.817 373.27 182.677 373.27C179.01 373.27 176.04 374.003 173.767 375.47C171.494 376.863 169.587 378.733 168.047 381.08L160.897 375.25C162.51 372.17 165.224 369.53 169.037 367.33C172.85 365.057 177.764 363.92 183.777 363.92C190.964 363.92 196.61 365.643 200.717 369.09C204.824 372.537 206.877 377.523 206.877 384.05V412.54H214.027V422H206.657ZM181.577 414.52C185.464 414.52 188.654 413.64 191.147 411.88C193.64 410.12 194.887 407.847 194.887 405.06V396.81H184.217C175.564 396.81 171.237 399.413 171.237 404.62V406.82C171.237 409.387 172.154 411.33 173.987 412.65C175.82 413.897 178.35 414.52 181.577 414.52ZM225.754 340.6H237.744V389.77H238.294L247.204 380.64L263.154 365.24H277.344L254.354 387.57L279.874 422H265.464L245.664 394.39L237.744 401.76V422H225.754V340.6ZM313.821 423.32C309.494 423.32 305.608 422.623 302.161 421.23C298.714 419.837 295.818 417.857 293.471 415.29C291.124 412.723 289.328 409.643 288.081 406.05C286.834 402.383 286.211 398.277 286.211 393.73C286.211 389.183 286.834 385.077 288.081 381.41C289.401 377.743 291.198 374.627 293.471 372.06C295.818 369.42 298.641 367.403 301.941 366.01C305.241 364.617 308.908 363.92 312.941 363.92C316.901 363.92 320.494 364.617 323.721 366.01C326.948 367.33 329.698 369.237 331.971 371.73C334.244 374.223 335.968 377.193 337.141 380.64C338.388 384.087 339.011 387.9 339.011 392.08V396.59H298.311V398.46C298.311 402.933 299.704 406.6 302.491 409.46C305.278 412.247 309.128 413.64 314.041 413.64C317.708 413.64 320.824 412.87 323.391 411.33C326.031 409.717 328.158 407.59 329.771 404.95L337.251 411.55C335.344 414.85 332.411 417.637 328.451 419.91C324.564 422.183 319.688 423.32 313.821 423.32ZM312.941 373.05C310.814 373.05 308.834 373.417 307.001 374.15C305.241 374.883 303.701 375.947 302.381 377.34C301.134 378.66 300.144 380.237 299.411 382.07C298.678 383.903 298.311 385.92 298.311 388.12V388.89H326.801V387.79C326.801 383.317 325.518 379.76 322.951 377.12C320.458 374.407 317.121 373.05 312.941 373.05ZM352.828 340.6H364.818V389.77H365.368L374.278 380.64L390.228 365.24H404.418L381.428 387.57L406.948 422H392.538L372.738 394.39L364.818 401.76V422H352.828V340.6ZM451.455 412.32H450.905C450.318 413.787 449.548 415.217 448.595 416.61C447.715 417.93 446.615 419.103 445.295 420.13C443.975 421.083 442.435 421.853 440.675 422.44C438.915 423.027 436.862 423.32 434.515 423.32C428.795 423.32 424.175 421.45 420.655 417.71C417.135 413.97 415.375 408.653 415.375 401.76V365.24H427.365V400C427.365 409.02 431.288 413.53 439.135 413.53C440.675 413.53 442.178 413.347 443.645 412.98C445.112 412.54 446.432 411.917 447.605 411.11C448.778 410.303 449.695 409.313 450.355 408.14C451.088 406.893 451.455 405.427 451.455 403.74V365.24H463.445V422H451.455V412.32ZM481.002 434.32H506.082V374.92H480.342V365.24H518.072V429.59C518.072 433.843 516.862 437.29 514.442 439.93C512.096 442.643 508.429 444 503.442 444H481.002V434.32ZM512.132 354.9C509.052 354.9 506.889 354.277 505.642 353.03C504.469 351.783 503.882 350.243 503.882 348.41V346.1C503.882 344.267 504.469 342.727 505.642 341.48C506.889 340.233 509.016 339.61 512.022 339.61C515.102 339.61 517.229 340.233 518.402 341.48C519.649 342.727 520.272 344.267 520.272 346.1V348.41C520.272 350.243 519.649 351.783 518.402 353.03C517.229 354.277 515.139 354.9 512.132 354.9ZM570.279 354.9C567.199 354.9 565.036 354.277 563.789 353.03C562.616 351.783 562.029 350.243 562.029 348.41V346.1C562.029 344.267 562.616 342.727 563.789 341.48C565.036 340.233 567.163 339.61 570.169 339.61C573.249 339.61 575.376 340.233 576.549 341.48C577.796 342.727 578.419 344.267 578.419 346.1V348.41C578.419 350.243 577.796 351.783 576.549 353.03C575.376 354.277 573.286 354.9 570.279 354.9ZM544.869 412.32H564.229V374.92H544.869V365.24H576.219V412.32H594.369V422H544.869V412.32ZM605.656 412.32H620.726V374.92H605.656V365.24H632.716V380.31H633.376C633.89 378.33 634.623 376.423 635.576 374.59C636.53 372.757 637.74 371.18 639.206 369.86C640.673 368.467 642.47 367.367 644.596 366.56C646.723 365.68 649.216 365.24 652.076 365.24H658.896V376.68H647.676C643.276 376.68 639.683 378 636.896 380.64C634.11 383.207 632.716 386.69 632.716 391.09V412.32H653.286V422H605.656V412.32ZM714.953 422C711.507 422 708.903 421.12 707.143 419.36C705.457 417.6 704.43 415.29 704.063 412.43H703.513C702.413 415.877 700.397 418.553 697.463 420.46C694.603 422.367 690.937 423.32 686.463 423.32C680.67 423.32 676.05 421.817 672.603 418.81C669.157 415.73 667.433 411.513 667.433 406.16C667.433 400.66 669.45 396.48 673.483 393.62C677.59 390.687 683.86 389.22 692.293 389.22H703.183V384.82C703.183 377.12 699.113 373.27 690.973 373.27C687.307 373.27 684.337 374.003 682.063 375.47C679.79 376.863 677.883 378.733 676.343 381.08L669.193 375.25C670.807 372.17 673.52 369.53 677.333 367.33C681.147 365.057 686.06 363.92 692.073 363.92C699.26 363.92 704.907 365.643 709.013 369.09C713.12 372.537 715.173 377.523 715.173 384.05V412.54H722.323V422H714.953ZM689.873 414.52C693.76 414.52 696.95 413.64 699.443 411.88C701.937 410.12 703.183 407.847 703.183 405.06V396.81H692.513C683.86 396.81 679.533 399.413 679.533 404.62V406.82C679.533 409.387 680.45 411.33 682.283 412.65C684.117 413.897 686.647 414.52 689.873 414.52Z" fill="#FCFAF2"/>
<path d="M326.336 19.58L335.976 19.58C338.509 19.58 340.469 20.2333 341.856 21.54C343.269 22.8467 343.976 24.6333 343.976 26.9C343.976 28.5267 343.576 29.82 342.776 30.78C341.976 31.74 340.896 32.42 339.536 32.82V33.02C341.162 33.3933 342.469 34.1133 343.456 35.18C344.442 36.22 344.936 37.7 344.936 39.62C344.936 40.7667 344.749 41.82 344.376 42.78C344.002 43.74 343.469 44.58 342.776 45.3C342.082 45.9933 341.242 46.54 340.256 46.94C339.296 47.3133 338.229 47.5 337.056 47.5L326.336 47.5L326.336 19.58ZM335.696 44.06C337.189 44.06 338.336 43.7533 339.136 43.14C339.936 42.5267 340.336 41.54 340.336 40.18V38.74C340.336 37.38 339.936 36.3933 339.136 35.78C338.336 35.1667 337.189 34.86 335.696 34.86L330.736 34.86V44.06L335.696 44.06ZM335.056 31.58C336.469 31.58 337.536 31.3133 338.256 30.78C339.002 30.22 339.376 29.3 339.376 28.02V26.58C339.376 25.3 339.002 24.3933 338.256 23.86C337.536 23.3 336.469 23.02 335.056 23.02L330.736 23.02L330.736 31.58L335.056 31.58Z" fill="#FCFAF2"/>
<path d="M104.6 545.65C95.2 545.65 90.55 540.35 90.15 533.4H93.5C93.85 539.45 97.95 542.85 104.65 542.85C109.9 542.85 113.8 540.2 113.8 535.35C113.8 530.3 110.45 529.1 102.8 527.55C96.2 526.25 91.55 524.25 91.55 518C91.55 512.3 96.35 508.55 103.5 508.55C111.45 508.55 115.45 512.85 116.1 519H112.85C112.25 513.95 108.65 511.35 103.55 511.35C98.1 511.35 94.8 513.95 94.8 517.9C94.8 522.15 98.1 523.45 104.5 524.65C111.45 526 117.2 527.7 117.2 535.2C117.2 541.55 112.1 545.65 104.6 545.65ZM120.432 545V509.25H123.532V531.6L136.382 519.15H140.332L130.432 528.5L141.532 545H137.932L128.282 530.5L123.532 535.05V545H120.432ZM152.053 545.65C144.303 545.65 140.003 539.85 140.003 532.1C140.003 524.35 144.653 518.55 151.803 518.55C160.103 518.55 162.953 525.4 162.903 532.65H143.203C143.353 538.45 146.153 543 152.053 543C156.353 543 158.603 540.7 159.603 537.2H162.603C161.503 542.3 157.853 545.65 152.053 545.65ZM143.253 530.2H159.653C159.503 525.1 157.103 521.1 151.803 521.1C146.553 521.1 143.803 525.05 143.253 530.2ZM165.794 545V509.25H168.894V545H165.794ZM183.837 545.65C176.087 545.65 171.787 539.85 171.787 532.1C171.787 524.35 176.437 518.55 183.587 518.55C191.887 518.55 194.737 525.4 194.687 532.65H174.987C175.137 538.45 177.937 543 183.837 543C188.137 543 190.387 540.7 191.387 537.2H194.387C193.287 542.3 189.637 545.65 183.837 545.65ZM175.037 530.2H191.437C191.287 525.1 188.887 521.1 183.587 521.1C178.337 521.1 175.587 525.05 175.037 530.2ZM203.796 545.2C200.846 545.2 198.846 543.85 198.846 540.55V521.7H194.946V519.15H198.846V511.2H201.946V519.15H206.746V521.7H201.946V540.05C201.946 541.9 202.796 542.5 204.446 542.5C205.146 542.5 206.046 542.3 206.496 542.1H206.646V544.75C205.796 545.05 204.896 545.2 203.796 545.2ZM219.869 543.05C225.619 543.05 228.619 538.15 228.619 532.1C228.619 526.05 225.619 521.15 219.869 521.15C214.069 521.15 211.069 526.05 211.069 532.1C211.069 538.15 214.069 543.05 219.869 543.05ZM219.869 545.65C212.419 545.65 207.869 539.8 207.869 532.1C207.869 524.4 212.419 518.55 219.869 518.55C227.319 518.55 231.769 524.4 231.769 532.1C231.769 539.8 227.319 545.65 219.869 545.65ZM234.584 545V519.15H237.684V523.1H237.784C239.534 520.5 242.334 518.6 246.434 518.6C251.234 518.6 254.684 521.45 254.684 526.65V545H251.584V526.95C251.584 523.05 249.334 521.25 245.684 521.25C241.284 521.25 237.684 524.35 237.684 528.6V545H234.584ZM275.651 543.05C281.401 543.05 284.401 538.15 284.401 532.1C284.401 526.05 281.401 521.15 275.651 521.15C269.851 521.15 266.851 526.05 266.851 532.1C266.851 538.15 269.851 543.05 275.651 543.05ZM275.651 545.65C268.201 545.65 263.651 539.8 263.651 532.1C263.651 524.4 268.201 518.55 275.651 518.55C283.101 518.55 287.551 524.4 287.551 532.1C287.551 539.8 283.101 545.65 275.651 545.65ZM291.583 545V521.7H287.833V519.15H291.583V514.55C291.583 510.7 293.683 509 297.633 509C297.983 509 299.183 509.05 299.383 509.05V511.7H298.033C295.433 511.7 294.633 512.7 294.633 514.65V519.15H299.433V521.7H294.633V545H291.583ZM315.38 545.6C310.58 545.6 306.93 543.2 306.93 538.4C306.93 532.25 311.73 531 317.58 530.3C322.68 529.7 324.53 529.4 324.53 526.8V526.3C324.53 522.8 322.33 521.1 318.33 521.1C313.73 521.1 311.33 523 311.08 526.85H308.03C308.38 521.85 311.68 518.6 318.33 518.6C323.98 518.6 327.48 520.95 327.48 526.6V540.65C327.48 542.2 328.08 542.85 329.18 542.9C329.53 542.9 329.88 542.8 330.33 542.7H330.48V544.95C330.03 545.15 329.38 545.35 328.38 545.35C326.13 545.35 324.73 544.2 324.58 541.7V541.15H324.43C322.98 543.2 320.33 545.6 315.38 545.6ZM315.93 543.1C321.58 543.1 324.58 539.2 324.58 535.65V531C322.93 531.9 320.38 532.35 317.88 532.7C313.53 533.3 310.18 533.95 310.18 538.4C310.18 542 312.88 543.1 315.93 543.1ZM344.251 545L336.551 519.15H339.801L344.301 535.15C345.001 537.7 345.951 541.9 345.951 541.9H346.051C346.051 541.9 347.051 537.75 347.701 535.4L352.101 519.15H355.451L359.701 535.4C360.301 537.75 361.251 541.9 361.251 541.9H361.351C361.351 541.9 362.401 537.65 363.151 535.15L367.951 519.15H371.101L362.951 545H359.551L355.101 528.5C354.451 526.05 353.751 522.65 353.751 522.65H353.651C353.651 522.65 352.951 526.05 352.301 528.5L347.751 545H344.251ZM373.248 545V509.25H376.348V523.1H376.448C378.198 520.5 380.998 518.6 385.098 518.6C389.898 518.6 393.348 521.45 393.348 526.65V545H390.248V526.95C390.248 523.05 387.998 521.25 384.348 521.25C379.948 521.25 376.348 524.35 376.348 528.6V545H373.248ZM404.242 545.6C399.442 545.6 395.792 543.2 395.792 538.4C395.792 532.25 400.592 531 406.442 530.3C411.542 529.7 413.392 529.4 413.392 526.8V526.3C413.392 522.8 411.192 521.1 407.192 521.1C402.592 521.1 400.192 523 399.942 526.85H396.892C397.242 521.85 400.542 518.6 407.192 518.6C412.842 518.6 416.342 520.95 416.342 526.6V540.65C416.342 542.2 416.942 542.85 418.042 542.9C418.392 542.9 418.742 542.8 419.192 542.7H419.342V544.95C418.892 545.15 418.242 545.35 417.242 545.35C414.992 545.35 413.592 544.2 413.442 541.7V541.15H413.292C411.842 543.2 409.192 545.6 404.242 545.6ZM404.792 543.1C410.442 543.1 413.442 539.2 413.442 535.65V531C411.792 531.9 409.242 532.35 406.742 532.7C402.392 533.3 399.042 533.95 399.042 538.4C399.042 542 401.742 543.1 404.792 543.1ZM421.243 545V509.25H424.343V545H421.243ZM439.287 545.65C431.537 545.65 427.237 539.85 427.237 532.1C427.237 524.35 431.887 518.55 439.037 518.55C447.337 518.55 450.187 525.4 450.137 532.65H430.437C430.587 538.45 433.387 543 439.287 543C443.587 543 445.837 540.7 446.837 537.2H449.837C448.737 542.3 445.087 545.65 439.287 545.65ZM430.487 530.2H446.887C446.737 525.1 444.337 521.1 439.037 521.1C433.787 521.1 431.037 525.05 430.487 530.2ZM466.397 545.2C463.447 545.2 461.447 543.85 461.447 540.55V521.7H457.547V519.15H461.447V511.2H464.547V519.15H469.347V521.7H464.547V540.05C464.547 541.9 465.397 542.5 467.047 542.5C467.747 542.5 468.647 542.3 469.097 542.1H469.247V544.75C468.397 545.05 467.497 545.2 466.397 545.2ZM472.459 545V509.25H475.559V523.1H475.659C477.409 520.5 480.209 518.6 484.309 518.6C489.109 518.6 492.559 521.45 492.559 526.65V545H489.459V526.95C489.459 523.05 487.209 521.25 483.559 521.25C479.159 521.25 475.559 524.35 475.559 528.6V545H472.459ZM503.453 545.6C498.653 545.6 495.003 543.2 495.003 538.4C495.003 532.25 499.803 531 505.653 530.3C510.753 529.7 512.603 529.4 512.603 526.8V526.3C512.603 522.8 510.403 521.1 506.403 521.1C501.803 521.1 499.403 523 499.153 526.85H496.103C496.453 521.85 499.753 518.6 506.403 518.6C512.053 518.6 515.553 520.95 515.553 526.6V540.65C515.553 542.2 516.153 542.85 517.253 542.9C517.603 542.9 517.953 542.8 518.403 542.7H518.553V544.95C518.103 545.15 517.453 545.35 516.453 545.35C514.203 545.35 512.803 544.2 512.653 541.7V541.15H512.503C511.053 543.2 508.403 545.6 503.453 545.6ZM504.003 543.1C509.653 543.1 512.653 539.2 512.653 535.65V531C511.003 531.9 508.453 532.35 505.953 532.7C501.603 533.3 498.253 533.95 498.253 538.4C498.253 542 500.953 543.1 504.003 543.1ZM526.671 545.2C523.721 545.2 521.721 543.85 521.721 540.55V521.7H517.821V519.15H521.721V511.2H524.821V519.15H529.621V521.7H524.821V540.05C524.821 541.9 525.671 542.5 527.321 542.5C528.021 542.5 528.921 542.3 529.371 542.1H529.521V544.75C528.671 545.05 527.771 545.2 526.671 545.2ZM546.002 545.6C541.202 545.6 537.552 543.2 537.552 538.4C537.552 532.25 542.352 531 548.202 530.3C553.302 529.7 555.152 529.4 555.152 526.8V526.3C555.152 522.8 552.952 521.1 548.952 521.1C544.352 521.1 541.952 523 541.702 526.85H538.652C539.002 521.85 542.302 518.6 548.952 518.6C554.602 518.6 558.102 520.95 558.102 526.6V540.65C558.102 542.2 558.702 542.85 559.802 542.9C560.152 542.9 560.502 542.8 560.952 542.7H561.102V544.95C560.652 545.15 560.002 545.35 559.002 545.35C556.752 545.35 555.352 544.2 555.202 541.7V541.15H555.052C553.602 543.2 550.952 545.6 546.002 545.6ZM546.552 543.1C552.202 543.1 555.202 539.2 555.202 535.65V531C553.552 531.9 551.002 532.35 548.502 532.7C544.152 533.3 540.802 533.95 540.802 538.4C540.802 542 543.502 543.1 546.552 543.1ZM562.854 553.3V519.15H565.954V523.6H566.054C567.854 520.55 570.704 518.6 574.804 518.6C581.004 518.6 585.504 523.5 585.504 532.1C585.504 540.05 581.404 545.65 574.604 545.65C570.654 545.65 568.004 544.1 566.054 541.25H565.954V553.3H562.854ZM574.454 543.05C579.754 543.05 582.354 538.15 582.354 532.15C582.354 525.7 579.554 521.2 574.404 521.2C568.704 521.2 565.704 526.05 565.704 532.2C565.704 538.55 568.554 543.05 574.454 543.05ZM588.267 553.3V519.15H591.367V523.6H591.467C593.267 520.55 596.117 518.6 600.217 518.6C606.417 518.6 610.917 523.5 610.917 532.1C610.917 540.05 606.817 545.65 600.017 545.65C596.067 545.65 593.417 544.1 591.467 541.25H591.367V553.3H588.267ZM599.867 543.05C605.167 543.05 607.767 538.15 607.767 532.15C607.767 525.7 604.967 521.2 599.817 521.2C594.117 521.2 591.117 526.05 591.117 532.2C591.117 538.55 593.967 543.05 599.867 543.05ZM624.381 545.65C616.631 545.65 612.331 539.85 612.331 532.1C612.331 524.35 616.981 518.55 624.131 518.55C632.431 518.55 635.281 525.4 635.231 532.65H615.531C615.681 538.45 618.481 543 624.381 543C628.681 543 630.931 540.7 631.931 537.2H634.931C633.831 542.3 630.181 545.65 624.381 545.65ZM615.581 530.2H631.981C631.831 525.1 629.431 521.1 624.131 521.1C618.881 521.1 616.131 525.05 615.581 530.2ZM644.971 545.6C640.171 545.6 636.521 543.2 636.521 538.4C636.521 532.25 641.321 531 647.171 530.3C652.271 529.7 654.121 529.4 654.121 526.8V526.3C654.121 522.8 651.921 521.1 647.921 521.1C643.321 521.1 640.921 523 640.671 526.85H637.621C637.971 521.85 641.271 518.6 647.921 518.6C653.571 518.6 657.071 520.95 657.071 526.6V540.65C657.071 542.2 657.671 542.85 658.771 542.9C659.121 542.9 659.471 542.8 659.921 542.7H660.071V544.95C659.621 545.15 658.971 545.35 657.971 545.35C655.721 545.35 654.321 544.2 654.171 541.7V541.15H654.021C652.571 543.2 649.921 545.6 644.971 545.6ZM645.521 543.1C651.171 543.1 654.171 539.2 654.171 535.65V531C652.521 531.9 649.971 532.35 647.471 532.7C643.121 533.3 639.771 533.95 639.771 538.4C639.771 542 642.471 543.1 645.521 543.1ZM661.823 545V519.15H664.923V523.95H665.023C666.623 520.95 669.323 518.95 672.923 518.95C673.323 518.95 673.573 519 673.773 519.05V522.1C671.923 521.8 669.873 522.2 668.273 523.35C666.273 524.85 664.923 527.25 664.923 530.3V545H661.823ZM684.909 545.7C678.009 545.7 674.509 541.95 674.209 536.95H677.359C677.809 541.3 680.809 543.05 684.959 543.05C689.259 543.05 691.509 541.05 691.509 538.05C691.509 535.2 689.909 534.25 684.609 533.05C679.359 531.85 675.159 530.6 675.159 525.6C675.159 521.3 678.859 518.6 684.159 518.6C690.309 518.6 693.159 521.7 693.759 526.25H690.659C690.309 522.9 688.009 521.15 684.159 521.15C680.159 521.15 678.259 523.05 678.259 525.45C678.259 528.4 680.709 529.1 685.659 530.25C690.859 531.35 694.609 532.65 694.609 538C694.609 542.6 690.909 545.7 684.909 545.7ZM703.838 545V519.15H706.938V545H703.838ZM703.838 513.65V509.25H706.938V513.65H703.838ZM711.085 545V519.15H714.185V523.1H714.285C716.035 520.5 718.835 518.6 722.935 518.6C727.735 518.6 731.185 521.45 731.185 526.65V545H728.085V526.95C728.085 523.05 725.835 521.25 722.185 521.25C717.785 521.25 714.185 524.35 714.185 528.6V545H711.085ZM748.602 545.2C745.652 545.2 743.652 543.85 743.652 540.55V521.7H739.752V519.15H743.652V511.2H746.752V519.15H751.552V521.7H746.752V540.05C746.752 541.9 747.602 542.5 749.252 542.5C749.952 542.5 750.852 542.3 751.302 542.1H751.452V544.75C750.602 545.05 749.702 545.2 748.602 545.2ZM754.663 545V509.25H757.763V523.1H757.863C759.613 520.5 762.413 518.6 766.513 518.6C771.313 518.6 774.763 521.45 774.763 526.65V545H771.663V526.95C771.663 523.05 769.413 521.25 765.763 521.25C761.363 521.25 757.763 524.35 757.763 528.6V545H754.663ZM789.357 545.65C781.607 545.65 777.307 539.85 777.307 532.1C777.307 524.35 781.957 518.55 789.107 518.55C797.407 518.55 800.257 525.4 800.207 532.65H780.507C780.657 538.45 783.457 543 789.357 543C793.657 543 795.907 540.7 796.907 537.2H799.907C798.807 542.3 795.157 545.65 789.357 545.65ZM780.557 530.2H796.957C796.807 525.1 794.407 521.1 789.107 521.1C783.857 521.1 781.107 525.05 780.557 530.2ZM100.65 600.7C93.75 600.7 90.25 596.95 89.95 591.95H93.1C93.55 596.3 96.55 598.05 100.7 598.05C105 598.05 107.25 596.05 107.25 593.05C107.25 590.2 105.65 589.25 100.35 588.05C95.1 586.85 90.9 585.6 90.9 580.6C90.9 576.3 94.6 573.6 99.9 573.6C106.05 573.6 108.9 576.7 109.5 581.25H106.4C106.05 577.9 103.75 576.15 99.9 576.15C95.9 576.15 94 578.05 94 580.45C94 583.4 96.45 584.1 101.4 585.25C106.6 586.35 110.35 587.65 110.35 593C110.35 597.6 106.65 600.7 100.65 600.7ZM124.003 600.65C116.253 600.65 111.953 594.85 111.953 587.1C111.953 579.35 116.603 573.55 123.753 573.55C132.053 573.55 134.903 580.4 134.853 587.65H115.153C115.303 593.45 118.103 598 124.003 598C128.303 598 130.553 595.7 131.553 592.2H134.553C133.453 597.3 129.803 600.65 124.003 600.65ZM115.203 585.2H131.603C131.453 580.1 129.053 576.1 123.753 576.1C118.503 576.1 115.753 580.05 115.203 585.2ZM144.593 600.6C139.793 600.6 136.143 598.2 136.143 593.4C136.143 587.25 140.943 586 146.793 585.3C151.893 584.7 153.743 584.4 153.743 581.8V581.3C153.743 577.8 151.543 576.1 147.543 576.1C142.943 576.1 140.543 578 140.293 581.85H137.243C137.593 576.85 140.893 573.6 147.543 573.6C153.193 573.6 156.693 575.95 156.693 581.6V595.65C156.693 597.2 157.293 597.85 158.393 597.9C158.743 597.9 159.093 597.8 159.543 597.7H159.693V599.95C159.243 600.15 158.593 600.35 157.593 600.35C155.343 600.35 153.943 599.2 153.793 596.7V596.15H153.643C152.193 598.2 149.543 600.6 144.593 600.6ZM145.143 598.1C150.793 598.1 153.793 594.2 153.793 590.65V586C152.143 586.9 149.593 587.35 147.093 587.7C142.743 588.3 139.393 588.95 139.393 593.4C139.393 597 142.093 598.1 145.143 598.1ZM161.677 605.4V603.6C162.627 603.25 163.377 602.5 163.377 600.2V600H161.677V595.65H165.477V600.15C165.477 603.45 163.977 604.95 161.677 605.4ZM177.454 600V576.7H173.704V574.15H177.454V569.55C177.454 565.7 179.554 564 183.504 564C183.854 564 185.054 564.05 185.254 564.05V566.7H183.904C181.304 566.7 180.504 567.7 180.504 569.65V574.15H185.304V576.7H180.504V600H177.454ZM197.213 598.05C202.963 598.05 205.963 593.15 205.963 587.1C205.963 581.05 202.963 576.15 197.213 576.15C191.413 576.15 188.413 581.05 188.413 587.1C188.413 593.15 191.413 598.05 197.213 598.05ZM197.213 600.65C189.763 600.65 185.213 594.8 185.213 587.1C185.213 579.4 189.763 573.55 197.213 573.55C204.663 573.55 209.113 579.4 209.113 587.1C209.113 594.8 204.663 600.65 197.213 600.65ZM212.077 600V564.25H215.177V600H212.077ZM219.571 600V564.25H222.671V600H219.571ZM237.565 598.05C243.315 598.05 246.315 593.15 246.315 587.1C246.315 581.05 243.315 576.15 237.565 576.15C231.765 576.15 228.765 581.05 228.765 587.1C228.765 593.15 231.765 598.05 237.565 598.05ZM237.565 600.65C230.115 600.65 225.565 594.8 225.565 587.1C225.565 579.4 230.115 573.55 237.565 573.55C245.015 573.55 249.465 579.4 249.465 587.1C249.465 594.8 245.015 600.65 237.565 600.65ZM257.147 600L249.447 574.15H252.697L257.197 590.15C257.897 592.7 258.847 596.9 258.847 596.9H258.947C258.947 596.9 259.947 592.75 260.597 590.4L264.997 574.15H268.347L272.597 590.4C273.197 592.75 274.147 596.9 274.147 596.9H274.247C274.247 596.9 275.297 592.65 276.047 590.15L280.847 574.15H283.997L275.847 600H272.447L267.997 583.5C267.347 581.05 266.647 577.65 266.647 577.65H266.547C266.547 577.65 265.847 581.05 265.197 583.5L260.647 600H257.147ZM295.962 600.65C288.212 600.65 283.912 594.85 283.912 587.1C283.912 579.35 288.562 573.55 295.712 573.55C304.012 573.55 306.862 580.4 306.812 587.65H287.112C287.262 593.45 290.062 598 295.962 598C300.262 598 302.512 595.7 303.512 592.2H306.512C305.412 597.3 301.762 600.65 295.962 600.65ZM287.162 585.2H303.562C303.412 580.1 301.012 576.1 295.712 576.1C290.462 576.1 287.712 580.05 287.162 585.2ZM319.352 600.7C312.402 600.7 308.202 595.1 308.202 587.15C308.202 578.55 313.102 573.6 319.252 573.6C323.202 573.6 326.102 575.45 327.752 578.45H327.852V564.25H330.952V600H327.852V596.15H327.752C325.852 599.1 323.252 600.7 319.352 600.7ZM319.452 598.1C325.102 598.1 328.102 593.65 328.102 587.2C328.102 580.85 325.052 576.2 319.452 576.2C314.352 576.2 311.402 580.75 311.402 587.2C311.402 593.25 314.002 598.1 319.452 598.1ZM353.233 600.7C349.283 600.7 346.683 599.15 344.683 596.1H344.583V600H341.483V564.25H344.583V578.6H344.683C346.483 575.6 349.333 573.6 353.433 573.6C359.633 573.6 364.083 578.55 364.083 587.15C364.083 595.1 360.033 600.7 353.233 600.7ZM353.083 598.1C358.383 598.1 360.933 593.25 360.933 587.2C360.933 580.75 358.183 576.2 353.033 576.2C347.333 576.2 344.333 581.05 344.333 587.2C344.333 593.65 347.333 598.1 353.083 598.1ZM368.864 608.55C367.714 608.55 367.014 608.4 366.214 608.15V605.4H366.364C366.814 605.55 367.514 605.75 368.714 605.75C370.664 605.75 372.064 604.9 373.014 602.25L373.864 599.95L363.914 574.15H367.214L373.414 590.85C374.314 593.25 375.464 596.75 375.464 596.75H375.564C375.564 596.75 376.664 593.25 377.514 590.85L383.464 574.15H386.664L376.014 602.7C374.264 607.35 372.214 608.55 368.864 608.55ZM403.971 600.7C397.071 600.7 393.571 596.95 393.271 591.95H396.421C396.871 596.3 399.871 598.05 404.021 598.05C408.321 598.05 410.571 596.05 410.571 593.05C410.571 590.2 408.971 589.25 403.671 588.05C398.421 586.85 394.221 585.6 394.221 580.6C394.221 576.3 397.921 573.6 403.221 573.6C409.371 573.6 412.221 576.7 412.821 581.25H409.721C409.371 577.9 407.071 576.15 403.221 576.15C399.221 576.15 397.321 578.05 397.321 580.45C397.321 583.4 399.771 584.1 404.721 585.25C409.921 586.35 413.671 587.65 413.671 593C413.671 597.6 409.971 600.7 403.971 600.7ZM422.748 600.2C419.798 600.2 417.798 598.85 417.798 595.55V576.7H413.898V574.15H417.798V566.2H420.898V574.15H425.698V576.7H420.898V595.05C420.898 596.9 421.748 597.5 423.398 597.5C424.098 597.5 424.998 597.3 425.448 597.1H425.598V599.75C424.748 600.05 423.848 600.2 422.748 600.2ZM428.659 600V574.15H431.759V578.95H431.859C433.459 575.95 436.159 573.95 439.759 573.95C440.159 573.95 440.409 574 440.609 574.05V577.1C438.759 576.8 436.709 577.2 435.109 578.35C433.109 579.85 431.759 582.25 431.759 585.3V600H428.659ZM448.67 600.6C443.87 600.6 440.22 598.2 440.22 593.4C440.22 587.25 445.02 586 450.87 585.3C455.97 584.7 457.82 584.4 457.82 581.8V581.3C457.82 577.8 455.62 576.1 451.62 576.1C447.02 576.1 444.62 578 444.37 581.85H441.32C441.67 576.85 444.97 573.6 451.62 573.6C457.27 573.6 460.77 575.95 460.77 581.6V595.65C460.77 597.2 461.37 597.85 462.47 597.9C462.82 597.9 463.17 597.8 463.62 597.7H463.77V599.95C463.32 600.15 462.67 600.35 461.67 600.35C459.42 600.35 458.02 599.2 457.87 596.7V596.15H457.72C456.27 598.2 453.62 600.6 448.67 600.6ZM449.22 598.1C454.87 598.1 457.87 594.2 457.87 590.65V586C456.22 586.9 453.67 587.35 451.17 587.7C446.82 588.3 443.47 588.95 443.47 593.4C443.47 597 446.17 598.1 449.22 598.1ZM465.521 600V574.15H468.621V578.1H468.721C470.471 575.5 473.271 573.6 477.371 573.6C482.171 573.6 485.621 576.45 485.621 581.65V600H482.521V581.95C482.521 578.05 480.271 576.25 476.621 576.25C472.221 576.25 468.621 579.35 468.621 583.6V600H465.521ZM499.619 609.05C493.269 609.05 489.719 606.15 489.269 602.3H492.269C492.819 605.3 495.769 606.5 499.519 606.5C505.019 606.5 507.619 603.65 507.619 599.1V595H507.469C505.569 597.9 503.169 599.5 499.269 599.5C492.469 599.5 488.169 594.2 488.169 586.6C488.169 578.2 493.269 573.6 499.269 573.6C503.269 573.6 505.769 575.35 507.469 578.15H507.619V574.15H510.669V599C510.669 601.9 509.819 604.25 508.269 605.95C506.319 608 503.469 609.05 499.619 609.05ZM499.419 596.9C505.169 596.9 507.819 592.75 507.819 586.55C507.819 580.45 505.119 576.2 499.469 576.2C494.369 576.2 491.369 580.35 491.369 586.65C491.369 592.55 493.969 596.9 499.419 596.9ZM525.486 600.65C517.736 600.65 513.436 594.85 513.436 587.1C513.436 579.35 518.086 573.55 525.236 573.55C533.536 573.55 536.386 580.4 536.336 587.65H516.636C516.786 593.45 519.586 598 525.486 598C529.786 598 532.036 595.7 533.036 592.2H536.036C534.936 597.3 531.286 600.65 525.486 600.65ZM516.686 585.2H533.086C532.936 580.1 530.536 576.1 525.236 576.1C519.986 576.1 517.236 580.05 516.686 585.2ZM547.446 600V576.7H543.696V574.15H547.446V569.55C547.446 565.7 549.546 564 553.496 564C553.846 564 555.046 564.05 555.246 564.05V566.7H553.896C551.296 566.7 550.496 567.7 550.496 569.65V574.15H555.296V576.7H550.496V600H547.446ZM558.646 600V574.15H561.746V600H558.646ZM558.646 568.65V564.25H561.746V568.65H558.646ZM574.98 600.7C568.08 600.7 564.58 596.95 564.28 591.95H567.43C567.88 596.3 570.88 598.05 575.03 598.05C579.33 598.05 581.58 596.05 581.58 593.05C581.58 590.2 579.98 589.25 574.68 588.05C569.43 586.85 565.23 585.6 565.23 580.6C565.23 576.3 568.93 573.6 574.23 573.6C580.38 573.6 583.23 576.7 583.83 581.25H580.73C580.38 577.9 578.08 576.15 574.23 576.15C570.23 576.15 568.33 578.05 568.33 580.45C568.33 583.4 570.78 584.1 575.73 585.25C580.93 586.35 584.68 587.65 584.68 593C584.68 597.6 580.98 600.7 574.98 600.7ZM587.538 600V564.25H590.638V578.1H590.738C592.488 575.5 595.288 573.6 599.388 573.6C604.188 573.6 607.638 576.45 607.638 581.65V600H604.538V581.95C604.538 578.05 602.288 576.25 598.638 576.25C594.238 576.25 590.638 579.35 590.638 583.6V600H587.538ZM622.232 600.65C614.482 600.65 610.182 594.85 610.182 587.1C610.182 579.35 614.832 573.55 621.982 573.55C630.282 573.55 633.132 580.4 633.082 587.65H613.382C613.532 593.45 616.332 598 622.232 598C626.532 598 628.782 595.7 629.782 592.2H632.782C631.682 597.3 628.032 600.65 622.232 600.65ZM613.432 585.2H629.832C629.682 580.1 627.282 576.1 621.982 576.1C616.732 576.1 613.982 580.05 613.432 585.2ZM644.873 600.7C637.973 600.7 634.473 596.95 634.173 591.95H637.323C637.773 596.3 640.773 598.05 644.923 598.05C649.223 598.05 651.473 596.05 651.473 593.05C651.473 590.2 649.873 589.25 644.573 588.05C639.323 586.85 635.123 585.6 635.123 580.6C635.123 576.3 638.823 573.6 644.123 573.6C650.273 573.6 653.123 576.7 653.723 581.25H650.623C650.273 577.9 647.973 576.15 644.123 576.15C640.123 576.15 638.223 578.05 638.223 580.45C638.223 583.4 640.673 584.1 645.623 585.25C650.823 586.35 654.573 587.65 654.573 593C654.573 597.6 650.873 600.7 644.873 600.7ZM670.701 600.6C665.901 600.6 662.251 598.2 662.251 593.4C662.251 587.25 667.051 586 672.901 585.3C678.001 584.7 679.851 584.4 679.851 581.8V581.3C679.851 577.8 677.651 576.1 673.651 576.1C669.051 576.1 666.651 578 666.401 581.85H663.351C663.701 576.85 667.001 573.6 673.651 573.6C679.301 573.6 682.801 575.95 682.801 581.6V595.65C682.801 597.2 683.401 597.85 684.501 597.9C684.851 597.9 685.201 597.8 685.651 597.7H685.801V599.95C685.351 600.15 684.701 600.35 683.701 600.35C681.451 600.35 680.051 599.2 679.901 596.7V596.15H679.751C678.301 598.2 675.651 600.6 670.701 600.6ZM671.251 598.1C676.901 598.1 679.901 594.2 679.901 590.65V586C678.251 586.9 675.701 587.35 673.201 587.7C668.851 588.3 665.501 588.95 665.501 593.4C665.501 597 668.201 598.1 671.251 598.1ZM687.552 600V574.15H690.652V578.1H690.752C692.502 575.5 695.302 573.6 699.402 573.6C704.202 573.6 707.652 576.45 707.652 581.65V600H704.552V581.95C704.552 578.05 702.302 576.25 698.652 576.25C694.252 576.25 690.652 579.35 690.652 583.6V600H687.552ZM721.35 600.7C714.4 600.7 710.2 595.1 710.2 587.15C710.2 578.55 715.1 573.6 721.25 573.6C725.2 573.6 728.1 575.45 729.75 578.45H729.85V564.25H732.95V600H729.85V596.15H729.75C727.85 599.1 725.25 600.7 721.35 600.7ZM721.45 598.1C727.1 598.1 730.1 593.65 730.1 587.2C730.1 580.85 727.05 576.2 721.45 576.2C716.35 576.2 713.4 580.75 713.4 587.2C713.4 593.25 716 598.1 721.45 598.1ZM755.231 600.7C751.281 600.7 748.681 599.15 746.681 596.1H746.581V600H743.481V564.25H746.581V578.6H746.681C748.481 575.6 751.331 573.6 755.431 573.6C761.631 573.6 766.081 578.55 766.081 587.15C766.081 595.1 762.031 600.7 755.231 600.7ZM755.081 598.1C760.381 598.1 762.931 593.25 762.931 587.2C762.931 580.75 760.181 576.2 755.031 576.2C749.331 576.2 746.331 581.05 746.331 587.2C746.331 593.65 749.331 598.1 755.081 598.1ZM768.995 600V574.15H772.095V600H768.995ZM768.995 568.65V564.25H772.095V568.65H768.995ZM776.242 600V574.15H779.342V578.95H779.442C781.042 575.95 783.742 573.95 787.342 573.95C787.742 573.95 787.992 574 788.192 574.05V577.1C786.342 576.8 784.292 577.2 782.692 578.35C780.692 579.85 779.342 582.25 779.342 585.3V600H776.242ZM799.053 600.7C792.103 600.7 787.903 595.1 787.903 587.15C787.903 578.55 792.803 573.6 798.953 573.6C802.903 573.6 805.803 575.45 807.453 578.45H807.553V564.25H810.653V600H807.553V596.15H807.453C805.553 599.1 802.953 600.7 799.053 600.7ZM799.153 598.1C804.803 598.1 807.803 593.65 807.803 587.2C807.803 580.85 804.753 576.2 799.153 576.2C794.053 576.2 791.103 580.75 791.103 587.2C791.103 593.25 793.703 598.1 799.153 598.1ZM823.814 600.7C816.914 600.7 813.414 596.95 813.114 591.95H816.264C816.714 596.3 819.714 598.05 823.864 598.05C828.164 598.05 830.414 596.05 830.414 593.05C830.414 590.2 828.814 589.25 823.514 588.05C818.264 586.85 814.064 585.6 814.064 580.6C814.064 576.3 817.764 573.6 823.064 573.6C829.214 573.6 832.064 576.7 832.664 581.25H829.564C829.214 577.9 826.914 576.15 823.064 576.15C819.064 576.15 817.164 578.05 817.164 580.45C817.164 583.4 819.614 584.1 824.564 585.25C829.764 586.35 833.514 587.65 833.514 593C833.514 597.6 829.814 600.7 823.814 600.7Z" fill="#FCFAF2"/>
<path d="M513.7 991V970.06H526.6V972.25H516.22V979.3H526.24V981.49H516.22V988.81H526.6V991H513.7ZM530.158 991L535.918 983.14L530.308 975.52H533.188L535.528 978.79L537.388 981.37H537.508L539.308 978.79L541.618 975.52H544.378L538.708 983.11L544.528 991H541.648L539.038 987.37L537.268 984.91H537.148L535.438 987.37L532.918 991H530.158ZM548.507 975.52H550.907V978.04H551.027C552.027 976.12 553.617 975.16 555.797 975.16C557.697 975.16 559.177 975.87 560.237 977.29C561.317 978.71 561.857 980.7 561.857 983.26C561.857 985.82 561.317 987.81 560.237 989.23C559.177 990.65 557.697 991.36 555.797 991.36C553.617 991.36 552.027 990.4 551.027 988.48H550.907V997H548.507V975.52ZM554.867 989.23C556.267 989.23 557.347 988.81 558.107 987.97C558.887 987.11 559.277 985.98 559.277 984.58V981.94C559.277 980.54 558.887 979.42 558.107 978.58C557.347 977.72 556.267 977.29 554.867 977.29C554.327 977.29 553.817 977.36 553.337 977.5C552.857 977.64 552.437 977.85 552.077 978.13C551.717 978.39 551.427 978.72 551.207 979.12C551.007 979.5 550.907 979.95 550.907 980.47V986.05C550.907 986.57 551.007 987.03 551.207 987.43C551.427 987.81 551.717 988.14 552.077 988.42C552.437 988.68 552.857 988.88 553.337 989.02C553.817 989.16 554.327 989.23 554.867 989.23ZM565.385 988.96H570.785V970.84H565.385V968.8H573.185V988.96H578.585V991H565.385V988.96ZM590.273 972.1C589.573 972.1 589.083 971.96 588.803 971.68C588.523 971.38 588.383 971.01 588.383 970.57V970.09C588.383 969.65 588.523 969.29 588.803 969.01C589.083 968.71 589.573 968.56 590.273 968.56C590.973 968.56 591.463 968.71 591.743 969.01C592.023 969.29 592.163 969.65 592.163 970.09V970.57C592.163 971.01 592.023 971.38 591.743 971.68C591.463 971.96 590.973 972.1 590.273 972.1ZM583.493 988.96H589.073V977.56H583.493V975.52H591.473V988.96H596.693V991H583.493V988.96ZM607.181 991.36C606.061 991.36 605.061 991.17 604.181 990.79C603.321 990.39 602.591 989.84 601.991 989.14C601.391 988.44 600.931 987.59 600.611 986.59C600.311 985.59 600.161 984.48 600.161 983.26C600.161 982.04 600.321 980.93 600.641 979.93C600.961 978.93 601.421 978.08 602.021 977.38C602.621 976.66 603.351 976.11 604.211 975.73C605.071 975.35 606.051 975.16 607.151 975.16C608.651 975.16 609.871 975.49 610.811 976.15C611.751 976.81 612.441 977.67 612.881 978.73L610.961 979.75C610.681 978.95 610.211 978.33 609.551 977.89C608.911 977.45 608.111 977.23 607.151 977.23C606.451 977.23 605.821 977.35 605.261 977.59C604.721 977.81 604.261 978.13 603.881 978.55C603.501 978.97 603.211 979.47 603.011 980.05C602.831 980.63 602.741 981.26 602.741 981.94V984.58C602.741 985.26 602.831 985.89 603.011 986.47C603.211 987.05 603.501 987.55 603.881 987.97C604.261 988.39 604.731 988.72 605.291 988.96C605.851 989.18 606.491 989.29 607.211 989.29C608.251 989.29 609.111 989.05 609.791 988.57C610.471 988.09 611.011 987.43 611.411 986.59L613.121 987.76C612.661 988.8 611.941 989.66 610.961 990.34C610.001 991.02 608.741 991.36 607.181 991.36ZM624.93 972.1C624.23 972.1 623.74 971.96 623.46 971.68C623.18 971.38 623.04 971.01 623.04 970.57V970.09C623.04 969.65 623.18 969.29 623.46 969.01C623.74 968.71 624.23 968.56 624.93 968.56C625.63 968.56 626.12 968.71 626.4 969.01C626.68 969.29 626.82 969.65 626.82 970.09V970.57C626.82 971.01 626.68 971.38 626.4 971.68C626.12 971.96 625.63 972.1 624.93 972.1ZM618.15 988.96H623.73V977.56H618.15V975.52H626.13V988.96H631.35V991H618.15V988.96ZM642.048 991C640.868 991 639.998 990.67 639.438 990.01C638.898 989.35 638.628 988.5 638.628 987.46V977.56H633.468V975.52H637.308C637.828 975.52 638.188 975.42 638.388 975.22C638.608 975 638.718 974.63 638.718 974.11V970.06H641.028V975.52H648.078V977.56H641.028V988.96H648.078V991H642.048ZM669.265 988.96H673.795V977.56H669.265V975.52H676.195V979.42H676.345C676.665 978.2 677.265 977.25 678.145 976.57C679.045 975.87 680.185 975.52 681.565 975.52H683.725V977.92H680.815C679.435 977.92 678.315 978.32 677.455 979.12C676.615 979.92 676.195 980.97 676.195 982.27V988.96H682.195V991H669.265V988.96ZM693.553 991.36C692.433 991.36 691.423 991.17 690.523 990.79C689.643 990.41 688.883 989.87 688.243 989.17C687.623 988.45 687.143 987.6 686.803 986.62C686.463 985.62 686.293 984.51 686.293 983.29C686.293 982.05 686.463 980.93 686.803 979.93C687.163 978.93 687.653 978.08 688.273 977.38C688.893 976.66 689.633 976.11 690.493 975.73C691.373 975.35 692.343 975.16 693.403 975.16C694.443 975.16 695.383 975.35 696.223 975.73C697.083 976.11 697.813 976.64 698.413 977.32C699.013 977.98 699.473 978.77 699.793 979.69C700.113 980.61 700.273 981.62 700.273 982.72V983.86H688.813V984.58C688.813 985.26 688.923 985.89 689.143 986.47C689.363 987.05 689.673 987.55 690.073 987.97C690.493 988.39 690.993 988.72 691.573 988.96C692.173 989.18 692.833 989.29 693.553 989.29C694.593 989.29 695.493 989.05 696.253 988.57C697.013 988.09 697.593 987.43 697.993 986.59L699.763 987.79C699.303 988.83 698.533 989.69 697.453 990.37C696.393 991.03 695.093 991.36 693.553 991.36ZM693.403 977.14C692.743 977.14 692.133 977.26 691.573 977.5C691.013 977.74 690.523 978.07 690.103 978.49C689.703 978.91 689.383 979.41 689.143 979.99C688.923 980.55 688.813 981.17 688.813 981.85V982.06H697.693V981.73C697.693 981.05 697.583 980.43 697.363 979.87C697.163 979.31 696.873 978.83 696.493 978.43C696.133 978.01 695.683 977.69 695.143 977.47C694.623 977.25 694.043 977.14 693.403 977.14ZM704.101 988.96H709.321V977.56H703.801V975.52H709.321V972.34C709.321 971.3 709.591 970.45 710.131 969.79C710.691 969.13 711.561 968.8 712.741 968.8H717.931V970.84H711.721V975.52H717.931V977.56H711.721V988.96H717.241V991H704.101V988.96ZM727.939 991.27C727.119 991.27 726.539 991.1 726.199 990.76C725.879 990.42 725.719 989.99 725.719 989.47V988.93C725.719 988.41 725.879 987.98 726.199 987.64C726.539 987.3 727.119 987.13 727.939 987.13C728.759 987.13 729.329 987.3 729.649 987.64C729.989 987.98 730.159 988.41 730.159 988.93V989.47C730.159 989.99 729.989 990.42 729.649 990.76C729.329 991.1 728.759 991.27 727.939 991.27Z" fill="#FCFAF2"/>
<path d="M203.62 1039V1023.52H205.84V1025.32H205.96C206.2 1024.72 206.54 1024.21 206.98 1023.79C207.42 1023.37 208.07 1023.16 208.93 1023.16C209.83 1023.16 210.5 1023.39 210.94 1023.85C211.38 1024.29 211.65 1024.87 211.75 1025.59H211.84C212.12 1024.89 212.52 1024.31 213.04 1023.85C213.56 1023.39 214.28 1023.16 215.2 1023.16C216.46 1023.16 217.3 1023.6 217.72 1024.48C218.16 1025.36 218.38 1026.62 218.38 1028.26V1039H216.16V1028.65C216.16 1027.33 216.02 1026.42 215.74 1025.92C215.48 1025.4 214.99 1025.14 214.27 1025.14C213.63 1025.14 213.11 1025.35 212.71 1025.77C212.31 1026.17 212.11 1026.79 212.11 1027.63V1039H209.89V1028.65C209.89 1027.33 209.75 1026.42 209.47 1025.92C209.21 1025.4 208.73 1025.14 208.03 1025.14C207.39 1025.14 206.86 1025.35 206.44 1025.77C206.04 1026.17 205.84 1026.79 205.84 1027.63V1039H203.62ZM228.328 1039.36C227.248 1039.36 226.268 1039.17 225.388 1038.79C224.528 1038.41 223.788 1037.87 223.168 1037.17C222.568 1036.45 222.108 1035.6 221.788 1034.62C221.468 1033.62 221.308 1032.5 221.308 1031.26C221.308 1030.04 221.468 1028.93 221.788 1027.93C222.108 1026.93 222.568 1026.08 223.168 1025.38C223.788 1024.66 224.528 1024.11 225.388 1023.73C226.268 1023.35 227.248 1023.16 228.328 1023.16C229.408 1023.16 230.378 1023.35 231.238 1023.73C232.118 1024.11 232.858 1024.66 233.458 1025.38C234.078 1026.08 234.548 1026.93 234.868 1027.93C235.188 1028.93 235.348 1030.04 235.348 1031.26C235.348 1032.5 235.188 1033.62 234.868 1034.62C234.548 1035.6 234.078 1036.45 233.458 1037.17C232.858 1037.87 232.118 1038.41 231.238 1038.79C230.378 1039.17 229.408 1039.36 228.328 1039.36ZM228.328 1037.29C229.668 1037.29 230.748 1036.89 231.568 1036.09C232.388 1035.29 232.798 1034.05 232.798 1032.37V1030.15C232.798 1028.47 232.388 1027.23 231.568 1026.43C230.748 1025.63 229.668 1025.23 228.328 1025.23C226.988 1025.23 225.908 1025.63 225.088 1026.43C224.268 1027.23 223.858 1028.47 223.858 1030.15V1032.37C223.858 1034.05 224.268 1035.29 225.088 1036.09C225.908 1036.89 226.988 1037.29 228.328 1037.29ZM244.127 1039L238.577 1023.52H241.007L243.227 1030L245.627 1036.99H245.747L248.147 1030L250.367 1023.52H252.737L247.187 1039H244.127ZM263.945 1020.1C263.245 1020.1 262.755 1019.96 262.475 1019.68C262.195 1019.38 262.055 1019.01 262.055 1018.57V1018.09C262.055 1017.65 262.195 1017.29 262.475 1017.01C262.755 1016.71 263.245 1016.56 263.945 1016.56C264.645 1016.56 265.135 1016.71 265.415 1017.01C265.695 1017.29 265.835 1017.65 265.835 1018.09V1018.57C265.835 1019.01 265.695 1019.38 265.415 1019.68C265.135 1019.96 264.645 1020.1 263.945 1020.1ZM257.165 1036.96H262.745V1025.56H257.165V1023.52H265.145V1036.96H270.365V1039H257.165V1036.96ZM280.583 1039.36C279.463 1039.36 278.453 1039.17 277.553 1038.79C276.673 1038.41 275.913 1037.87 275.273 1037.17C274.653 1036.45 274.173 1035.6 273.833 1034.62C273.493 1033.62 273.323 1032.51 273.323 1031.29C273.323 1030.05 273.493 1028.93 273.833 1027.93C274.193 1026.93 274.683 1026.08 275.303 1025.38C275.923 1024.66 276.663 1024.11 277.523 1023.73C278.403 1023.35 279.373 1023.16 280.433 1023.16C281.473 1023.16 282.413 1023.35 283.253 1023.73C284.113 1024.11 284.843 1024.64 285.443 1025.32C286.043 1025.98 286.503 1026.77 286.823 1027.69C287.143 1028.61 287.303 1029.62 287.303 1030.72V1031.86H275.843V1032.58C275.843 1033.26 275.953 1033.89 276.173 1034.47C276.393 1035.05 276.703 1035.55 277.103 1035.97C277.523 1036.39 278.023 1036.72 278.603 1036.96C279.203 1037.18 279.863 1037.29 280.583 1037.29C281.623 1037.29 282.523 1037.05 283.283 1036.57C284.043 1036.09 284.623 1035.43 285.023 1034.59L286.793 1035.79C286.333 1036.83 285.563 1037.69 284.483 1038.37C283.423 1039.03 282.123 1039.36 280.583 1039.36ZM280.433 1025.14C279.773 1025.14 279.163 1025.26 278.603 1025.5C278.043 1025.74 277.553 1026.07 277.133 1026.49C276.733 1026.91 276.413 1027.41 276.173 1027.99C275.953 1028.55 275.843 1029.17 275.843 1029.85V1030.06H284.723V1029.73C284.723 1029.05 284.613 1028.43 284.393 1027.87C284.193 1027.31 283.903 1026.83 283.523 1026.43C283.163 1026.01 282.713 1025.69 282.173 1025.47C281.653 1025.25 281.073 1025.14 280.433 1025.14ZM297.821 1039.36C296.201 1039.36 294.801 1039.09 293.621 1038.55C292.461 1037.99 291.471 1037.25 290.651 1036.33L292.271 1034.92C293.011 1035.7 293.821 1036.3 294.701 1036.72C295.581 1037.14 296.641 1037.35 297.881 1037.35C299.081 1037.35 300.061 1037.14 300.821 1036.72C301.601 1036.28 301.991 1035.6 301.991 1034.68C301.991 1034.28 301.911 1033.95 301.751 1033.69C301.611 1033.41 301.411 1033.19 301.151 1033.03C300.891 1032.87 300.601 1032.75 300.281 1032.67C299.961 1032.57 299.621 1032.49 299.261 1032.43L296.831 1032.07C296.291 1031.99 295.701 1031.88 295.061 1031.74C294.441 1031.6 293.871 1031.38 293.351 1031.08C292.831 1030.76 292.391 1030.34 292.031 1029.82C291.691 1029.3 291.521 1028.62 291.521 1027.78C291.521 1027 291.671 1026.33 291.971 1025.77C292.291 1025.19 292.731 1024.71 293.291 1024.33C293.851 1023.93 294.511 1023.64 295.271 1023.46C296.031 1023.26 296.861 1023.16 297.761 1023.16C299.161 1023.16 300.371 1023.38 301.391 1023.82C302.431 1024.26 303.321 1024.87 304.061 1025.65L302.501 1027.12C302.321 1026.9 302.091 1026.68 301.811 1026.46C301.551 1026.22 301.221 1026.01 300.821 1025.83C300.441 1025.63 299.991 1025.47 299.471 1025.35C298.951 1025.23 298.351 1025.17 297.671 1025.17C296.451 1025.17 295.511 1025.38 294.851 1025.8C294.211 1026.22 293.891 1026.83 293.891 1027.63C293.891 1028.03 293.961 1028.37 294.101 1028.65C294.261 1028.91 294.471 1029.12 294.731 1029.28C294.991 1029.44 295.281 1029.57 295.601 1029.67C295.941 1029.75 296.281 1029.82 296.621 1029.88L299.051 1030.24C299.611 1030.32 300.201 1030.43 300.821 1030.57C301.441 1030.71 302.011 1030.94 302.531 1031.26C303.051 1031.56 303.481 1031.97 303.821 1032.49C304.181 1033.01 304.361 1033.69 304.361 1034.53C304.361 1036.07 303.761 1037.26 302.561 1038.1C301.381 1038.94 299.801 1039.36 297.821 1039.36Z" fill="#FCFAF2"/>
<path d="M91.7 991V970.06H99.32C101.26 970.06 102.74 970.59 103.76 971.65C104.78 972.71 105.29 974.19 105.29 976.09C105.29 977.99 104.78 979.47 103.76 980.53C102.74 981.59 101.26 982.12 99.32 982.12H94.22V991H91.7ZM94.22 979.93H99.26C100.32 979.93 101.14 979.67 101.72 979.15C102.32 978.61 102.62 977.85 102.62 976.87V975.31C102.62 974.33 102.32 973.58 101.72 973.06C101.14 972.52 100.32 972.25 99.26 972.25H94.22V979.93ZM108.638 988.96H113.168V977.56H108.638V975.52H115.568V979.42H115.718C116.038 978.2 116.638 977.25 117.518 976.57C118.418 975.87 119.558 975.52 120.938 975.52H123.098V977.92H120.188C118.808 977.92 117.688 978.32 116.828 979.12C115.988 979.92 115.568 980.97 115.568 982.27V988.96H121.568V991H108.638V988.96ZM132.927 991.36C131.807 991.36 130.797 991.17 129.897 990.79C129.017 990.41 128.257 989.87 127.617 989.17C126.997 988.45 126.517 987.6 126.177 986.62C125.837 985.62 125.667 984.51 125.667 983.29C125.667 982.05 125.837 980.93 126.177 979.93C126.537 978.93 127.027 978.08 127.647 977.38C128.267 976.66 129.007 976.11 129.867 975.73C130.747 975.35 131.717 975.16 132.777 975.16C133.817 975.16 134.757 975.35 135.597 975.73C136.457 976.11 137.187 976.64 137.787 977.32C138.387 977.98 138.847 978.77 139.167 979.69C139.487 980.61 139.647 981.62 139.647 982.72V983.86H128.187V984.58C128.187 985.26 128.297 985.89 128.517 986.47C128.737 987.05 129.047 987.55 129.447 987.97C129.867 988.39 130.367 988.72 130.947 988.96C131.547 989.18 132.207 989.29 132.927 989.29C133.967 989.29 134.867 989.05 135.627 988.57C136.387 988.09 136.967 987.43 137.367 986.59L139.137 987.79C138.677 988.83 137.907 989.69 136.827 990.37C135.767 991.03 134.467 991.36 132.927 991.36ZM132.777 977.14C132.117 977.14 131.507 977.26 130.947 977.5C130.387 977.74 129.897 978.07 129.477 978.49C129.077 978.91 128.757 979.41 128.517 979.99C128.297 980.55 128.187 981.17 128.187 981.85V982.06H137.067V981.73C137.067 981.05 136.957 980.43 136.737 979.87C136.537 979.31 136.247 978.83 135.867 978.43C135.507 978.01 135.057 977.69 134.517 977.47C133.997 977.25 133.417 977.14 132.777 977.14ZM150.165 991.36C148.545 991.36 147.145 991.09 145.965 990.55C144.805 989.99 143.815 989.25 142.995 988.33L144.615 986.92C145.355 987.7 146.165 988.3 147.045 988.72C147.925 989.14 148.985 989.35 150.225 989.35C151.425 989.35 152.405 989.14 153.165 988.72C153.945 988.28 154.335 987.6 154.335 986.68C154.335 986.28 154.255 985.95 154.095 985.69C153.955 985.41 153.755 985.19 153.495 985.03C153.235 984.87 152.945 984.75 152.625 984.67C152.305 984.57 151.965 984.49 151.605 984.43L149.175 984.07C148.635 983.99 148.045 983.88 147.405 983.74C146.785 983.6 146.215 983.38 145.695 983.08C145.175 982.76 144.735 982.34 144.375 981.82C144.035 981.3 143.865 980.62 143.865 979.78C143.865 979 144.015 978.33 144.315 977.77C144.635 977.19 145.075 976.71 145.635 976.33C146.195 975.93 146.855 975.64 147.615 975.46C148.375 975.26 149.205 975.16 150.105 975.16C151.505 975.16 152.715 975.38 153.735 975.82C154.775 976.26 155.665 976.87 156.405 977.65L154.845 979.12C154.665 978.9 154.435 978.68 154.155 978.46C153.895 978.22 153.565 978.01 153.165 977.83C152.785 977.63 152.335 977.47 151.815 977.35C151.295 977.23 150.695 977.17 150.015 977.17C148.795 977.17 147.855 977.38 147.195 977.8C146.555 978.22 146.235 978.83 146.235 979.63C146.235 980.03 146.305 980.37 146.445 980.65C146.605 980.91 146.815 981.12 147.075 981.28C147.335 981.44 147.625 981.57 147.945 981.67C148.285 981.75 148.625 981.82 148.965 981.88L151.395 982.24C151.955 982.32 152.545 982.43 153.165 982.57C153.785 982.71 154.355 982.94 154.875 983.26C155.395 983.56 155.825 983.97 156.165 984.49C156.525 985.01 156.705 985.69 156.705 986.53C156.705 988.07 156.105 989.26 154.905 990.1C153.725 990.94 152.145 991.36 150.165 991.36ZM167.583 991.36C166.463 991.36 165.453 991.17 164.553 990.79C163.673 990.41 162.913 989.87 162.273 989.17C161.653 988.45 161.173 987.6 160.833 986.62C160.493 985.62 160.323 984.51 160.323 983.29C160.323 982.05 160.493 980.93 160.833 979.93C161.193 978.93 161.683 978.08 162.303 977.38C162.923 976.66 163.663 976.11 164.523 975.73C165.403 975.35 166.373 975.16 167.433 975.16C168.473 975.16 169.413 975.35 170.253 975.73C171.113 976.11 171.843 976.64 172.443 977.32C173.043 977.98 173.503 978.77 173.823 979.69C174.143 980.61 174.303 981.62 174.303 982.72V983.86H162.843V984.58C162.843 985.26 162.953 985.89 163.173 986.47C163.393 987.05 163.703 987.55 164.103 987.97C164.523 988.39 165.023 988.72 165.603 988.96C166.203 989.18 166.863 989.29 167.583 989.29C168.623 989.29 169.523 989.05 170.283 988.57C171.043 988.09 171.623 987.43 172.023 986.59L173.793 987.79C173.333 988.83 172.563 989.69 171.483 990.37C170.423 991.03 169.123 991.36 167.583 991.36ZM167.433 977.14C166.773 977.14 166.163 977.26 165.603 977.5C165.043 977.74 164.553 978.07 164.133 978.49C163.733 978.91 163.413 979.41 163.173 979.99C162.953 980.55 162.843 981.17 162.843 981.85V982.06H171.723V981.73C171.723 981.05 171.613 980.43 171.393 979.87C171.193 979.31 170.903 978.83 170.523 978.43C170.163 978.01 169.713 977.69 169.173 977.47C168.653 977.25 168.073 977.14 167.433 977.14ZM178.581 991V975.52H180.981V978.04H181.101C181.261 977.66 181.461 977.3 181.701 976.96C181.941 976.6 182.231 976.29 182.571 976.03C182.931 975.77 183.351 975.56 183.831 975.4C184.311 975.24 184.871 975.16 185.511 975.16C187.131 975.16 188.431 975.68 189.411 976.72C190.391 977.74 190.881 979.19 190.881 981.07V991H188.481V981.49C188.481 980.07 188.171 979.02 187.551 978.34C186.931 977.64 186.021 977.29 184.821 977.29C184.341 977.29 183.871 977.35 183.411 977.47C182.951 977.59 182.541 977.77 182.181 978.01C181.821 978.25 181.531 978.56 181.311 978.94C181.091 979.32 180.981 979.76 180.981 980.26V991H178.581ZM202.72 991C201.54 991 200.67 990.67 200.11 990.01C199.57 989.35 199.3 988.5 199.3 987.46V977.56H194.14V975.52H197.98C198.5 975.52 198.86 975.42 199.06 975.22C199.28 975 199.39 974.63 199.39 974.11V970.06H201.7V975.52H208.75V977.56H201.7V988.96H208.75V991H202.72ZM237.586 972.1C236.886 972.1 236.396 971.96 236.116 971.68C235.836 971.38 235.696 971.01 235.696 970.57V970.09C235.696 969.65 235.836 969.29 236.116 969.01C236.396 968.71 236.886 968.56 237.586 968.56C238.286 968.56 238.776 968.71 239.056 969.01C239.336 969.29 239.476 969.65 239.476 970.09V970.57C239.476 971.01 239.336 971.38 239.056 971.68C238.776 971.96 238.286 972.1 237.586 972.1ZM230.806 988.96H236.386V977.56H230.806V975.52H238.786V988.96H244.006V991H230.806V988.96ZM247.895 991V975.52H250.295V978.04H250.415C250.575 977.66 250.775 977.3 251.015 976.96C251.255 976.6 251.545 976.29 251.885 976.03C252.245 975.77 252.665 975.56 253.145 975.4C253.625 975.24 254.185 975.16 254.825 975.16C256.445 975.16 257.745 975.68 258.725 976.72C259.705 977.74 260.195 979.19 260.195 981.07V991H257.795V981.49C257.795 980.07 257.485 979.02 256.865 978.34C256.245 977.64 255.335 977.29 254.135 977.29C253.655 977.29 253.185 977.35 252.725 977.47C252.265 977.59 251.855 977.77 251.495 978.01C251.135 978.25 250.845 978.56 250.625 978.94C250.405 979.32 250.295 979.76 250.295 980.26V991H247.895Z" fill="#FCFAF2"/>
<path d="M101 1039.48C99.1867 1039.48 97.6133 1039.16 96.28 1038.52C94.9467 1037.85 93.84 1036.91 92.96 1035.68C92.1067 1034.45 91.4667 1032.95 91.04 1031.16C90.64 1029.37 90.44 1027.33 90.44 1025.04C90.44 1022.77 90.64 1020.75 91.04 1018.96C91.4667 1017.15 92.1067 1015.63 92.96 1014.4C93.84 1013.17 94.9467 1012.24 96.28 1011.6C97.6133 1010.93 99.1867 1010.6 101 1010.6C104.627 1010.6 107.293 1011.87 109 1014.4C110.707 1016.93 111.56 1020.48 111.56 1025.04C111.56 1029.6 110.707 1033.15 109 1035.68C107.293 1038.21 104.627 1039.48 101 1039.48ZM101 1035.28C102.92 1035.28 104.267 1034.6 105.04 1033.24C105.84 1031.85 106.24 1029.95 106.24 1027.52V1022.56C106.24 1020.13 105.84 1018.24 105.04 1016.88C104.267 1015.49 102.92 1014.8 101 1014.8C99.08 1014.8 97.72 1015.49 96.92 1016.88C96.1467 1018.24 95.76 1020.13 95.76 1022.56V1027.52C95.76 1029.95 96.1467 1031.85 96.92 1033.24C97.72 1034.6 99.08 1035.28 101 1035.28ZM101 1027.4C100.067 1027.4 99.4133 1027.21 99.04 1026.84C98.6933 1026.47 98.52 1026.01 98.52 1025.48V1024.6C98.52 1024.07 98.6933 1023.61 99.04 1023.24C99.4133 1022.87 100.067 1022.68 101 1022.68C101.933 1022.68 102.573 1022.87 102.92 1023.24C103.293 1023.61 103.48 1024.07 103.48 1024.6V1025.48C103.48 1026.01 103.293 1026.47 102.92 1026.84C102.573 1027.21 101.933 1027.4 101 1027.4ZM124.224 1039.48C122.598 1039.48 121.144 1039.23 119.864 1038.72C118.611 1038.19 117.544 1037.45 116.664 1036.52C115.784 1035.56 115.104 1034.41 114.624 1033.08C114.171 1031.72 113.944 1030.2 113.944 1028.52C113.944 1026.52 114.251 1024.64 114.864 1022.88C115.478 1021.09 116.264 1019.47 117.224 1018C118.211 1016.51 119.304 1015.17 120.504 1014C121.704 1012.83 122.904 1011.85 124.104 1011.08H131.224C129.544 1012.25 128.038 1013.39 126.704 1014.48C125.398 1015.55 124.251 1016.64 123.264 1017.76C122.304 1018.88 121.491 1020.05 120.824 1021.28C120.184 1022.48 119.704 1023.8 119.384 1025.24L119.704 1025.32C119.971 1024.79 120.291 1024.28 120.664 1023.8C121.038 1023.29 121.478 1022.85 121.984 1022.48C122.518 1022.08 123.118 1021.77 123.784 1021.56C124.478 1021.32 125.278 1021.2 126.184 1021.2C127.358 1021.2 128.451 1021.4 129.464 1021.8C130.478 1022.2 131.344 1022.79 132.064 1023.56C132.811 1024.31 133.398 1025.21 133.824 1026.28C134.251 1027.35 134.464 1028.55 134.464 1029.88C134.464 1031.29 134.224 1032.59 133.744 1033.76C133.264 1034.93 132.571 1035.95 131.664 1036.8C130.784 1037.65 129.704 1038.32 128.424 1038.8C127.171 1039.25 125.771 1039.48 124.224 1039.48ZM124.184 1035.36C125.784 1035.36 126.998 1034.95 127.824 1034.12C128.651 1033.27 129.064 1032.07 129.064 1030.52V1030.04C129.064 1028.49 128.638 1027.31 127.784 1026.48C126.958 1025.65 125.758 1025.24 124.184 1025.24C122.664 1025.24 121.478 1025.65 120.624 1026.48C119.771 1027.31 119.344 1028.49 119.344 1030.04V1030.52C119.344 1032.07 119.758 1033.27 120.584 1034.12C121.411 1034.95 122.611 1035.36 124.184 1035.36ZM137.549 1043.14L147.419 1016.2H150.869L140.999 1043.14H137.549ZM160.697 1026.52C161.957 1026.52 162.877 1026.27 163.457 1025.77C164.057 1025.27 164.357 1024.64 164.357 1023.88V1023.67C164.357 1022.81 164.067 1022.14 163.487 1021.66C162.927 1021.18 162.147 1020.94 161.147 1020.94C160.187 1020.94 159.347 1021.16 158.627 1021.6C157.907 1022.04 157.287 1022.66 156.767 1023.46L154.217 1021.18C154.577 1020.7 154.977 1020.25 155.417 1019.83C155.877 1019.39 156.387 1019.02 156.947 1018.72C157.527 1018.4 158.167 1018.15 158.867 1017.97C159.567 1017.79 160.367 1017.7 161.267 1017.7C162.327 1017.7 163.297 1017.83 164.177 1018.09C165.077 1018.33 165.837 1018.69 166.457 1019.17C167.097 1019.65 167.587 1020.23 167.927 1020.91C168.287 1021.57 168.467 1022.32 168.467 1023.16C168.467 1023.82 168.357 1024.42 168.137 1024.96C167.917 1025.5 167.617 1025.97 167.237 1026.37C166.877 1026.77 166.447 1027.1 165.947 1027.36C165.467 1027.62 164.947 1027.81 164.387 1027.93V1028.08C165.007 1028.2 165.587 1028.4 166.127 1028.68C166.667 1028.94 167.137 1029.28 167.537 1029.7C167.937 1030.12 168.257 1030.63 168.497 1031.23C168.737 1031.81 168.857 1032.47 168.857 1033.21C168.857 1034.13 168.667 1034.97 168.287 1035.73C167.907 1036.49 167.367 1037.14 166.667 1037.68C165.987 1038.22 165.157 1038.64 164.177 1038.94C163.217 1039.22 162.137 1039.36 160.937 1039.36C159.937 1039.36 159.047 1039.25 158.267 1039.03C157.487 1038.83 156.797 1038.55 156.197 1038.19C155.597 1037.83 155.077 1037.42 154.637 1036.96C154.197 1036.48 153.807 1035.99 153.467 1035.49L156.377 1033.24C156.877 1034.08 157.467 1034.77 158.147 1035.31C158.847 1035.85 159.797 1036.12 160.997 1036.12C162.197 1036.12 163.117 1035.85 163.757 1035.31C164.417 1034.75 164.747 1033.98 164.747 1033V1032.76C164.747 1031.8 164.397 1031.07 163.697 1030.57C162.997 1030.05 162.007 1029.79 160.727 1029.79H158.627V1026.52H160.697ZM178.025 1026.52C179.285 1026.52 180.205 1026.27 180.785 1025.77C181.385 1025.27 181.685 1024.64 181.685 1023.88V1023.67C181.685 1022.81 181.395 1022.14 180.815 1021.66C180.255 1021.18 179.475 1020.94 178.475 1020.94C177.515 1020.94 176.675 1021.16 175.955 1021.6C175.235 1022.04 174.615 1022.66 174.095 1023.46L171.545 1021.18C171.905 1020.7 172.305 1020.25 172.745 1019.83C173.205 1019.39 173.715 1019.02 174.275 1018.72C174.855 1018.4 175.495 1018.15 176.195 1017.97C176.895 1017.79 177.695 1017.7 178.595 1017.7C179.655 1017.7 180.625 1017.83 181.505 1018.09C182.405 1018.33 183.165 1018.69 183.785 1019.17C184.425 1019.65 184.915 1020.23 185.255 1020.91C185.615 1021.57 185.795 1022.32 185.795 1023.16C185.795 1023.82 185.685 1024.42 185.465 1024.96C185.245 1025.5 184.945 1025.97 184.565 1026.37C184.205 1026.77 183.775 1027.1 183.275 1027.36C182.795 1027.62 182.275 1027.81 181.715 1027.93V1028.08C182.335 1028.2 182.915 1028.4 183.455 1028.68C183.995 1028.94 184.465 1029.28 184.865 1029.7C185.265 1030.12 185.585 1030.63 185.825 1031.23C186.065 1031.81 186.185 1032.47 186.185 1033.21C186.185 1034.13 185.995 1034.97 185.615 1035.73C185.235 1036.49 184.695 1037.14 183.995 1037.68C183.315 1038.22 182.485 1038.64 181.505 1038.94C180.545 1039.22 179.465 1039.36 178.265 1039.36C177.265 1039.36 176.375 1039.25 175.595 1039.03C174.815 1038.83 174.125 1038.55 173.525 1038.19C172.925 1037.83 172.405 1037.42 171.965 1036.96C171.525 1036.48 171.135 1035.99 170.795 1035.49L173.705 1033.24C174.205 1034.08 174.795 1034.77 175.475 1035.31C176.175 1035.85 177.125 1036.12 178.325 1036.12C179.525 1036.12 180.445 1035.85 181.085 1035.31C181.745 1034.75 182.075 1033.98 182.075 1033V1032.76C182.075 1031.8 181.725 1031.07 181.025 1030.57C180.325 1030.05 179.335 1029.79 178.055 1029.79H175.955V1026.52H178.025Z" fill="#FCFAF2"/>
<path d="M523 1039.48C521.187 1039.48 519.613 1039.16 518.28 1038.52C516.947 1037.85 515.84 1036.91 514.96 1035.68C514.107 1034.45 513.467 1032.95 513.04 1031.16C512.64 1029.37 512.44 1027.33 512.44 1025.04C512.44 1022.77 512.64 1020.75 513.04 1018.96C513.467 1017.15 514.107 1015.63 514.96 1014.4C515.84 1013.17 516.947 1012.24 518.28 1011.6C519.613 1010.93 521.187 1010.6 523 1010.6C526.627 1010.6 529.293 1011.87 531 1014.4C532.707 1016.93 533.56 1020.48 533.56 1025.04C533.56 1029.6 532.707 1033.15 531 1035.68C529.293 1038.21 526.627 1039.48 523 1039.48ZM523 1035.28C524.92 1035.28 526.267 1034.6 527.04 1033.24C527.84 1031.85 528.24 1029.95 528.24 1027.52V1022.56C528.24 1020.13 527.84 1018.24 527.04 1016.88C526.267 1015.49 524.92 1014.8 523 1014.8C521.08 1014.8 519.72 1015.49 518.92 1016.88C518.147 1018.24 517.76 1020.13 517.76 1022.56V1027.52C517.76 1029.95 518.147 1031.85 518.92 1033.24C519.72 1034.6 521.08 1035.28 523 1035.28ZM523 1027.4C522.067 1027.4 521.413 1027.21 521.04 1026.84C520.693 1026.47 520.52 1026.01 520.52 1025.48V1024.6C520.52 1024.07 520.693 1023.61 521.04 1023.24C521.413 1022.87 522.067 1022.68 523 1022.68C523.933 1022.68 524.573 1022.87 524.92 1023.24C525.293 1023.61 525.48 1024.07 525.48 1024.6V1025.48C525.48 1026.01 525.293 1026.47 524.92 1026.84C524.573 1027.21 523.933 1027.4 523 1027.4ZM554.824 1015.64H542.024L541.344 1025H541.664C541.984 1024.41 542.331 1023.88 542.704 1023.4C543.078 1022.89 543.504 1022.47 543.984 1022.12C544.491 1021.77 545.051 1021.51 545.664 1021.32C546.304 1021.13 547.038 1021.04 547.864 1021.04C549.038 1021.04 550.144 1021.24 551.184 1021.64C552.224 1022.04 553.131 1022.61 553.904 1023.36C554.678 1024.11 555.278 1025.03 555.704 1026.12C556.158 1027.21 556.384 1028.45 556.384 1029.84C556.384 1031.23 556.144 1032.51 555.664 1033.68C555.211 1034.85 554.531 1035.88 553.624 1036.76C552.744 1037.61 551.651 1038.28 550.344 1038.76C549.064 1039.24 547.584 1039.48 545.904 1039.48C544.598 1039.48 543.424 1039.33 542.384 1039.04C541.371 1038.77 540.478 1038.4 539.704 1037.92C538.931 1037.44 538.251 1036.89 537.664 1036.28C537.078 1035.64 536.571 1034.99 536.144 1034.32L539.944 1031.32C540.264 1031.85 540.611 1032.36 540.984 1032.84C541.384 1033.29 541.824 1033.69 542.304 1034.04C542.784 1034.39 543.318 1034.67 543.904 1034.88C544.518 1035.07 545.211 1035.16 545.984 1035.16C547.584 1035.16 548.798 1034.73 549.624 1033.88C550.478 1033 550.904 1031.8 550.904 1030.28V1029.96C550.904 1028.49 550.478 1027.35 549.624 1026.52C548.771 1025.69 547.571 1025.28 546.024 1025.28C544.851 1025.28 543.891 1025.51 543.144 1025.96C542.424 1026.39 541.838 1026.85 541.384 1027.36L537.104 1026.76L538.144 1011.08H554.824V1015.64Z" fill="#FCFAF2"/>
</svg>
