<svg width="1017" height="1115" viewBox="0 0 1017 1115" fill="none" xmlns="http://www.w3.org/2000/svg">
<path d="M101.92 1.00008L101.92 0.50008L102.42 0.50008L315.5 0.500061L316 0.500061L316 1.00006L316 42.4082C316 58.7007 329.208 71.9083 345.5 71.9083L1015.5 71.9076L1016 71.9076L1016 72.4076L1016 1113.5L1016 1114L1015.5 1114L1.00004 1114L0.500036 1114L0.500036 1113.5L0.499945 72.4077L0.499945 71.9077L0.999945 71.9077L72.42 71.9081C88.7125 71.9082 101.92 58.7006 101.92 42.4081L101.92 1.00008Z" fill="#FA9542" stroke="#101415"/>
<path d="M127.14 213.08L190.28 213.08V219.79L127.14 219.79L127.14 213.08ZM147.82 231.89L147.82 241.46L168.72 241.46L168.72 231.89L147.82 231.89ZM140.78 226.39L176.09 226.39L176.09 246.96L140.78 246.96L140.78 226.39ZM128.57 252.13L184.23 252.13V258.62L136.16 258.62L136.16 295.91L128.57 295.91L128.57 252.13ZM180.71 252.13H188.41L188.41 287.22C188.41 291.18 187.75 293.27 184.78 294.48C181.81 295.69 177.3 295.69 170.37 295.69C170.04 293.71 168.83 290.74 167.84 288.76C173.01 288.98 177.52 288.98 178.95 288.87C180.38 288.76 180.71 288.43 180.71 287.22L180.71 252.13ZM178.95 196.25L183.9 201.75C170.48 204.94 148.59 206.59 131.1 206.81C130.88 205.27 130 202.63 129.23 201.09C146.39 200.54 167.73 198.89 178.95 196.25ZM169.49 215.39C174.22 223.86 183.79 232.33 192.92 236.4C191.16 237.72 188.85 240.47 187.64 242.34C178.29 237.39 168.61 227.38 163.44 217.59L169.49 215.39ZM150.68 204.06L158.38 205.16C154.42 219.02 145.51 233.1 129.01 242.67C127.8 240.8 125.49 238.27 123.73 237.28C139.35 228.81 147.6 215.83 150.68 204.06ZM147.82 264.56H172.57L172.57 285.13H147.82V279.74H166.3V269.95H147.82L147.82 264.56ZM144.3 264.56H150.57L150.57 290.08H144.3L144.3 264.56ZM91.6102 218.47L126.04 218.47L126.04 226.28L91.6102 226.28L91.6102 218.47ZM106.35 194.6L113.94 194.6L113.94 295.69L106.35 295.69L106.35 194.6ZM106.24 223.09L111.3 224.85C108.11 242.23 101.18 264.01 93.5902 275.01C92.6002 272.81 90.6202 269.73 89.3002 267.86C96.3402 257.85 103.38 238.82 106.24 223.09ZM113.28 233.87C115.7 236.84 124.72 250.7 126.7 253.78L122.3 259.83C119.99 254.44 112.51 241.46 109.87 237.17L113.28 233.87ZM131.76 385.23L106.24 385.23L106.24 419H93.9202L93.9202 342.22H106.24L106.24 374.89L131.76 374.89L131.76 342.22H144.08L144.08 419H131.76L131.76 385.23ZM203.657 419C200.211 419 197.607 418.12 195.847 416.36C194.161 414.6 193.134 412.29 192.767 409.43H192.217C191.117 412.877 189.101 415.553 186.167 417.46C183.307 419.367 179.641 420.32 175.167 420.32C169.374 420.32 164.754 418.817 161.307 415.81C157.861 412.73 156.137 408.513 156.137 403.16C156.137 397.66 158.154 393.48 162.187 390.62C166.294 387.687 172.564 386.22 180.997 386.22H191.887V381.82C191.887 374.12 187.817 370.27 179.677 370.27C176.011 370.27 173.041 371.003 170.767 372.47C168.494 373.863 166.587 375.733 165.047 378.08L157.897 372.25C159.511 369.17 162.224 366.53 166.037 364.33C169.851 362.057 174.764 360.92 180.777 360.92C187.964 360.92 193.611 362.643 197.717 366.09C201.824 369.537 203.877 374.523 203.877 381.05L203.877 409.54H211.027V419H203.657ZM178.577 411.52C182.464 411.52 185.654 410.64 188.147 408.88C190.641 407.12 191.887 404.847 191.887 402.06L191.887 393.81H181.217C172.564 393.81 168.237 396.413 168.237 401.62V403.82C168.237 406.387 169.154 408.33 170.987 409.65C172.821 410.897 175.351 411.52 178.577 411.52ZM246.184 420.32C240.024 420.32 234.708 419.33 230.234 417.35C225.834 415.37 222.278 412.73 219.564 409.43L226.934 402.83C229.428 405.543 232.214 407.633 235.294 409.1C238.448 410.493 242.151 411.19 246.404 411.19C250.291 411.19 253.408 410.53 255.754 409.21C258.174 407.89 259.384 405.837 259.384 403.05C259.384 401.877 259.164 400.887 258.724 400.08C258.284 399.273 257.661 398.613 256.854 398.1C256.048 397.587 255.094 397.183 253.994 396.89C252.968 396.597 251.868 396.377 250.694 396.23L241.674 394.8C239.474 394.507 237.238 394.03 234.964 393.37C232.691 392.71 230.638 391.793 228.804 390.62C227.044 389.373 225.578 387.797 224.404 385.89C223.304 383.983 222.754 381.563 222.754 378.63C222.754 372.837 224.954 368.437 229.354 365.43C233.828 362.423 239.694 360.92 246.954 360.92C252.234 360.92 256.781 361.727 260.594 363.34C264.481 364.88 267.708 367.043 270.274 369.83L263.564 376.87C262.098 375.183 260.008 373.643 257.294 372.25C254.581 370.783 250.988 370.05 246.514 370.05C238.521 370.05 234.524 372.58 234.524 377.64C234.524 380.06 235.368 381.747 237.054 382.7C238.814 383.58 240.868 384.167 243.214 384.46L252.234 385.89C254.508 386.257 256.744 386.733 258.944 387.32C261.218 387.907 263.234 388.823 264.994 390.07C266.828 391.243 268.294 392.783 269.394 394.69C270.568 396.597 271.154 399.017 271.154 401.95C271.154 407.67 268.918 412.18 264.444 415.48C260.044 418.707 253.958 420.32 246.184 420.32ZM285.851 337.6H297.841L297.841 371.92H298.391C298.978 370.453 299.711 369.06 300.591 367.74C301.545 366.347 302.681 365.173 304.001 364.22C305.321 363.193 306.861 362.387 308.621 361.8C310.381 361.213 312.435 360.92 314.781 360.92C320.501 360.92 325.121 362.79 328.641 366.53C332.161 370.27 333.921 375.587 333.921 382.48L333.921 419L321.931 419L321.931 384.24C321.931 375.22 318.008 370.71 310.161 370.71C308.621 370.71 307.118 370.93 305.651 371.37C304.185 371.737 302.865 372.323 301.691 373.13C300.518 373.937 299.565 374.963 298.831 376.21C298.171 377.457 297.841 378.887 297.841 380.5L297.841 419H285.851L285.851 337.6ZM376.668 351.9C373.588 351.9 371.425 351.277 370.178 350.03C369.005 348.783 368.418 347.243 368.418 345.41V343.1C368.418 341.267 369.005 339.727 370.178 338.48C371.425 337.233 373.552 336.61 376.558 336.61C379.638 336.61 381.765 337.233 382.938 338.48C384.185 339.727 384.808 341.267 384.808 343.1V345.41C384.808 347.243 384.185 348.783 382.938 350.03C381.765 351.277 379.675 351.9 376.668 351.9ZM351.258 409.32H370.618L370.618 371.92H351.258L351.258 362.24L382.608 362.24L382.608 409.32L400.758 409.32V419L351.258 419V409.32Z" fill="#101415"/>
<path d="M213.656 33.221L204.376 33.221L204.376 45.501L199.896 45.501L199.896 17.581L204.376 17.581L204.376 29.461L213.656 29.461L213.656 17.581L218.136 17.581L218.136 45.501L213.656 45.501V33.221Z" fill="#101415"/>
<path d="M89.2002 542L89.2002 506.25H92.5502L92.5502 521.7H112.8L112.8 506.25H116.15L116.15 542H112.8L112.8 524.5H92.5502L92.5502 542H89.2002ZM131.5 540.05C137.25 540.05 140.25 535.15 140.25 529.1C140.25 523.05 137.25 518.15 131.5 518.15C125.7 518.15 122.7 523.05 122.7 529.1C122.7 535.15 125.7 540.05 131.5 540.05ZM131.5 542.65C124.05 542.65 119.5 536.8 119.5 529.1C119.5 521.4 124.05 515.55 131.5 515.55C138.95 515.55 143.4 521.4 143.4 529.1C143.4 536.8 138.95 542.65 131.5 542.65ZM146.215 542L146.215 516.15H149.315L149.315 520.05H149.415C151.065 517.45 153.565 515.6 157.265 515.6C160.415 515.6 163.115 517.2 164.165 520.3H164.265C165.965 517.35 168.915 515.6 172.565 515.6C176.965 515.6 180.365 518.45 180.365 523.65V542H177.315V523.9C177.315 520.05 175.015 518.25 171.865 518.25C168.065 518.25 164.865 520.95 164.865 525.55V542H161.765V523.9C161.765 520.05 159.565 518.25 156.565 518.25C152.865 518.25 149.315 521.35 149.315 525.55L149.315 542H146.215ZM194.974 540.05C200.724 540.05 203.724 535.15 203.724 529.1C203.724 523.05 200.724 518.15 194.974 518.15C189.174 518.15 186.174 523.05 186.174 529.1C186.174 535.15 189.174 540.05 194.974 540.05ZM194.974 542.65C187.524 542.65 182.974 536.8 182.974 529.1C182.974 521.4 187.524 515.55 194.974 515.55C202.424 515.55 206.874 521.4 206.874 529.1C206.874 536.8 202.424 542.65 194.974 542.65ZM209.688 542L209.688 516.15H212.788L212.788 520.1H212.888C214.638 517.5 217.438 515.6 221.538 515.6C226.338 515.6 229.788 518.45 229.788 523.65L229.788 542H226.688L226.688 523.95C226.688 520.05 224.438 518.25 220.788 518.25C216.388 518.25 212.788 521.35 212.788 525.6V542H209.688ZM235.898 550.55C234.748 550.55 234.048 550.4 233.248 550.15V547.4H233.398C233.848 547.55 234.548 547.75 235.748 547.75C237.698 547.75 239.098 546.9 240.048 544.25L240.898 541.95L230.948 516.15H234.248L240.448 532.85C241.348 535.25 242.498 538.75 242.498 538.75H242.598C242.598 538.75 243.698 535.25 244.548 532.85L250.498 516.15L253.698 516.15L243.048 544.7C241.298 549.35 239.248 550.55 235.898 550.55ZM255.535 542L255.535 516.15H258.635V520.05H258.735C260.385 517.45 262.885 515.6 266.585 515.6C269.735 515.6 272.435 517.2 273.485 520.3H273.585C275.285 517.35 278.235 515.6 281.885 515.6C286.285 515.6 289.685 518.45 289.685 523.65L289.685 542H286.635L286.635 523.9C286.635 520.05 284.335 518.25 281.185 518.25C277.385 518.25 274.185 520.95 274.185 525.55L274.185 542H271.085L271.085 523.9C271.085 520.05 268.885 518.25 265.885 518.25C262.185 518.25 258.635 521.35 258.635 525.55L258.635 542H255.535ZM302.014 542L302.014 518.7H298.264V516.15H302.014V511.55C302.014 507.7 304.114 506 308.064 506C308.414 506 309.614 506.05 309.814 506.05V508.7H308.464C305.864 508.7 305.064 509.7 305.064 511.65V516.15H309.864V518.7H305.064L305.064 542H302.014ZM321.772 540.05C327.522 540.05 330.522 535.15 330.522 529.1C330.522 523.05 327.522 518.15 321.772 518.15C315.972 518.15 312.972 523.05 312.972 529.1C312.972 535.15 315.972 540.05 321.772 540.05ZM321.772 542.65C314.322 542.65 309.772 536.8 309.772 529.1C309.772 521.4 314.322 515.55 321.772 515.55C329.222 515.55 333.672 521.4 333.672 529.1C333.672 536.8 329.222 542.65 321.772 542.65ZM336.487 542L336.487 516.15H339.587V520.95H339.687C341.287 517.95 343.987 515.95 347.587 515.95C347.987 515.95 348.237 516 348.437 516.05V519.1C346.587 518.8 344.537 519.2 342.937 520.35C340.937 521.85 339.587 524.25 339.587 527.3L339.587 542H336.487ZM364.287 542.2C361.337 542.2 359.337 540.85 359.337 537.55V518.7H355.437V516.15H359.337L359.337 508.2H362.437L362.437 516.15H367.237V518.7H362.437V537.05C362.437 538.9 363.287 539.5 364.937 539.5C365.637 539.5 366.537 539.3 366.987 539.1H367.137V541.75C366.287 542.05 365.387 542.2 364.287 542.2ZM370.349 542L370.349 506.25H373.449L373.449 520.1H373.549C375.299 517.5 378.099 515.6 382.199 515.6C386.999 515.6 390.449 518.45 390.449 523.65V542H387.349V523.95C387.349 520.05 385.099 518.25 381.449 518.25C377.049 518.25 373.449 521.35 373.449 525.6V542H370.349ZM405.043 542.65C397.293 542.65 392.993 536.85 392.993 529.1C392.993 521.35 397.643 515.55 404.793 515.55C413.093 515.55 415.943 522.4 415.893 529.65H396.193C396.343 535.45 399.143 540 405.043 540C409.343 540 411.593 537.7 412.593 534.2H415.593C414.493 539.3 410.843 542.65 405.043 542.65ZM396.243 527.2H412.643C412.493 522.1 410.093 518.1 404.793 518.1C399.543 518.1 396.793 522.05 396.243 527.2ZM430.653 542L422.953 516.15H426.203L430.703 532.15C431.403 534.7 432.353 538.9 432.353 538.9H432.453C432.453 538.9 433.453 534.75 434.103 532.4L438.503 516.15H441.853L446.103 532.4C446.703 534.75 447.653 538.9 447.653 538.9H447.753C447.753 538.9 448.803 534.65 449.553 532.15L454.353 516.15H457.503L449.353 542L445.953 542L441.503 525.5C440.853 523.05 440.153 519.65 440.153 519.65H440.053C440.053 519.65 439.353 523.05 438.703 525.5L434.153 542H430.653ZM469.417 540.05C475.167 540.05 478.167 535.15 478.167 529.1C478.167 523.05 475.167 518.15 469.417 518.15C463.617 518.15 460.617 523.05 460.617 529.1C460.617 535.15 463.617 540.05 469.417 540.05ZM469.417 542.65C461.967 542.65 457.417 536.8 457.417 529.1C457.417 521.4 461.967 515.55 469.417 515.55C476.867 515.55 481.317 521.4 481.317 529.1C481.317 536.8 476.867 542.65 469.417 542.65ZM484.132 542V516.15H487.232V520.95H487.332C488.932 517.95 491.632 515.95 495.232 515.95C495.632 515.95 495.882 516 496.082 516.05V519.1C494.232 518.8 492.182 519.2 490.582 520.35C488.582 521.85 487.232 524.25 487.232 527.3V542H484.132ZM506.944 542.7C499.994 542.7 495.794 537.1 495.794 529.15C495.794 520.55 500.694 515.6 506.844 515.6C510.794 515.6 513.694 517.45 515.344 520.45H515.444V506.25H518.544V542H515.444V538.15H515.344C513.444 541.1 510.844 542.7 506.944 542.7ZM507.044 540.1C512.694 540.1 515.694 535.65 515.694 529.2C515.694 522.85 512.644 518.2 507.044 518.2C501.944 518.2 498.994 522.75 498.994 529.2C498.994 535.25 501.594 540.1 507.044 540.1ZM528.574 515.5V510.95C528.574 508 529.924 506.5 532.074 506.15V507.8C531.124 508.2 530.474 508.95 530.474 510.8V511.2H532.024V515.5H528.574ZM534.974 515.5V510.95C534.974 508 536.324 506.5 538.474 506.15V507.8C537.524 508.2 536.874 508.95 536.874 510.8V511.2H538.474V515.5H534.974ZM550.295 542.65C542.545 542.65 538.245 536.85 538.245 529.1C538.245 521.35 542.895 515.55 550.045 515.55C558.345 515.55 561.195 522.4 561.145 529.65H541.445C541.595 535.45 544.395 540 550.295 540C554.595 540 556.845 537.7 557.845 534.2H560.845C559.745 539.3 556.095 542.65 550.295 542.65ZM541.495 527.2H557.895C557.745 522.1 555.345 518.1 550.045 518.1C544.795 518.1 542.045 522.05 541.495 527.2ZM573.686 542.7C566.736 542.7 562.536 537.1 562.536 529.15C562.536 520.55 567.436 515.6 573.586 515.6C577.536 515.6 580.436 517.45 582.086 520.45L582.186 520.45V506.25H585.286V542H582.186V538.15H582.086C580.186 541.1 577.586 542.7 573.686 542.7ZM573.786 540.1C579.436 540.1 582.436 535.65 582.436 529.2C582.436 522.85 579.386 518.2 573.786 518.2C568.686 518.2 565.736 522.75 565.736 529.2C565.736 535.25 568.336 540.1 573.786 540.1ZM599.497 551.05C593.147 551.05 589.597 548.15 589.147 544.3H592.147C592.697 547.3 595.647 548.5 599.397 548.5C604.897 548.5 607.497 545.65 607.497 541.1V537H607.347C605.447 539.9 603.047 541.5 599.147 541.5C592.347 541.5 588.047 536.2 588.047 528.6C588.047 520.2 593.147 515.6 599.147 515.6C603.147 515.6 605.647 517.35 607.347 520.15H607.497V516.15H610.547L610.547 541C610.547 543.9 609.697 546.25 608.147 547.95C606.197 550 603.347 551.05 599.497 551.05ZM599.297 538.9C605.047 538.9 607.697 534.75 607.697 528.55C607.697 522.45 604.997 518.2 599.347 518.2C594.247 518.2 591.247 522.35 591.247 528.65C591.247 534.55 593.847 538.9 599.297 538.9ZM625.365 542.65C617.615 542.65 613.315 536.85 613.315 529.1C613.315 521.35 617.965 515.55 625.115 515.55C633.415 515.55 636.265 522.4 636.215 529.65H616.515C616.665 535.45 619.465 540 625.365 540C629.665 540 631.915 537.7 632.915 534.2H635.915C634.815 539.3 631.165 542.65 625.365 542.65ZM616.565 527.2H632.965C632.815 522.1 630.415 518.1 625.115 518.1C619.865 518.1 617.115 522.05 616.565 527.2ZM637.967 547.4V545.6C638.917 545.25 639.667 544.5 639.667 542.2V542H637.967V537.65H641.767V542.15C641.767 545.45 640.267 546.95 637.967 547.4ZM644.825 515.6V513.95C645.825 513.55 646.425 512.75 646.425 510.9V510.55H644.875V506.25H648.325V510.8C648.325 513.75 647.025 515.25 644.825 515.6ZM651.225 515.6V513.95C652.225 513.55 652.825 512.75 652.825 510.9V510.55H651.275V506.25H654.775V510.8C654.775 513.75 653.425 515.25 651.225 515.6ZM664.906 542L664.906 516.15H668.006L668.006 542H664.906ZM664.906 510.65V506.25L668.006 506.25V510.65L664.906 510.65ZM679.253 542.2C676.303 542.2 674.303 540.85 674.303 537.55L674.303 518.7H670.403V516.15H674.303V508.2H677.403V516.15H682.203V518.7H677.403L677.403 537.05C677.403 538.9 678.253 539.5 679.903 539.5C680.603 539.5 681.503 539.3 681.953 539.1H682.103V541.75C681.253 542.05 680.353 542.2 679.253 542.2ZM684.37 515.6V513.95C685.37 513.55 685.97 512.75 685.97 510.9V510.55H684.42V506.25H687.87V510.8C687.87 513.75 686.57 515.25 684.37 515.6ZM697.802 542.7C690.902 542.7 687.402 538.95 687.102 533.95H690.252C690.702 538.3 693.702 540.05 697.852 540.05C702.152 540.05 704.402 538.05 704.402 535.05C704.402 532.2 702.802 531.25 697.502 530.05C692.252 528.85 688.052 527.6 688.052 522.6C688.052 518.3 691.752 515.6 697.052 515.6C703.202 515.6 706.052 518.7 706.652 523.25H703.552C703.202 519.9 700.902 518.15 697.052 518.15C693.052 518.15 691.152 520.05 691.152 522.45C691.152 525.4 693.602 526.1 698.552 527.25C703.752 528.35 707.502 529.65 707.502 535C707.502 539.6 703.802 542.7 697.802 542.7ZM723.73 542.2C720.78 542.2 718.78 540.85 718.78 537.55L718.78 518.7H714.88V516.15H718.78V508.2H721.88V516.15H726.68V518.7H721.88L721.88 537.05C721.88 538.9 722.73 539.5 724.38 539.5C725.08 539.5 725.98 539.3 726.43 539.1H726.58V541.75C725.73 542.05 724.83 542.2 723.73 542.2ZM729.791 542L729.791 506.25L732.891 506.25V520.1H732.991C734.741 517.5 737.541 515.6 741.641 515.6C746.441 515.6 749.891 518.45 749.891 523.65L749.891 542H746.791L746.791 523.95C746.791 520.05 744.541 518.25 740.891 518.25C736.491 518.25 732.891 521.35 732.891 525.6L732.891 542H729.791ZM764.485 542.65C756.735 542.65 752.435 536.85 752.435 529.1C752.435 521.35 757.085 515.55 764.235 515.55C772.535 515.55 775.385 522.4 775.335 529.65H755.635C755.785 535.45 758.585 540 764.485 540C768.785 540 771.035 537.7 772.035 534.2H775.035C773.935 539.3 770.285 542.65 764.485 542.65ZM755.685 527.2H772.085C771.935 522.1 769.535 518.1 764.235 518.1C758.985 518.1 756.235 522.05 755.685 527.2ZM88.6002 597L88.6002 571.15H91.7002V575.05H91.8002C93.4502 572.45 95.9502 570.6 99.6502 570.6C102.8 570.6 105.5 572.2 106.55 575.3H106.65C108.35 572.35 111.3 570.6 114.95 570.6C119.35 570.6 122.75 573.45 122.75 578.65L122.75 597H119.7L119.7 578.9C119.7 575.05 117.4 573.25 114.25 573.25C110.45 573.25 107.25 575.95 107.25 580.55L107.25 597H104.15L104.15 578.9C104.15 575.05 101.95 573.25 98.9502 573.25C95.2502 573.25 91.7002 576.35 91.7002 580.55L91.7002 597H88.6002ZM137.409 597.65C129.659 597.65 125.359 591.85 125.359 584.1C125.359 576.35 130.009 570.55 137.159 570.55C145.459 570.55 148.309 577.4 148.259 584.65H128.559C128.709 590.45 131.509 595 137.409 595C141.709 595 143.959 592.7 144.959 589.2H147.959C146.859 594.3 143.209 597.65 137.409 597.65ZM128.609 582.2H145.009C144.859 577.1 142.459 573.1 137.159 573.1C131.909 573.1 129.159 577.05 128.609 582.2ZM157.367 597.2C154.417 597.2 152.417 595.85 152.417 592.55L152.417 573.7H148.517L148.517 571.15H152.417V563.2H155.517V571.15H160.317V573.7H155.517L155.517 592.05C155.517 593.9 156.367 594.5 158.017 594.5C158.717 594.5 159.617 594.3 160.067 594.1H160.217V596.75C159.367 597.05 158.467 597.2 157.367 597.2ZM170.035 597.6C165.235 597.6 161.585 595.2 161.585 590.4C161.585 584.25 166.385 583 172.235 582.3C177.335 581.7 179.185 581.4 179.185 578.8V578.3C179.185 574.8 176.985 573.1 172.985 573.1C168.385 573.1 165.985 575 165.735 578.85H162.685C163.035 573.85 166.335 570.6 172.985 570.6C178.635 570.6 182.135 572.95 182.135 578.6L182.135 592.65C182.135 594.2 182.735 594.85 183.835 594.9C184.185 594.9 184.535 594.8 184.985 594.7H185.135V596.95C184.685 597.15 184.035 597.35 183.035 597.35C180.785 597.35 179.385 596.2 179.235 593.7V593.15H179.085C177.635 595.2 174.985 597.6 170.035 597.6ZM170.585 595.1C176.235 595.1 179.235 591.2 179.235 587.65L179.235 583C177.585 583.9 175.035 584.35 172.535 584.7C168.185 585.3 164.835 585.95 164.835 590.4C164.835 594 167.535 595.1 170.585 595.1ZM186.886 605.3L186.886 571.15H189.986V575.6H190.086C191.886 572.55 194.736 570.6 198.836 570.6C205.036 570.6 209.536 575.5 209.536 584.1C209.536 592.05 205.436 597.65 198.636 597.65C194.686 597.65 192.036 596.1 190.086 593.25H189.986V605.3H186.886ZM198.486 595.05C203.786 595.05 206.386 590.15 206.386 584.15C206.386 577.7 203.586 573.2 198.436 573.2C192.736 573.2 189.736 578.05 189.736 584.2C189.736 590.55 192.586 595.05 198.486 595.05ZM212.449 597L212.449 561.25H215.549L215.549 575.1H215.649C217.399 572.5 220.199 570.6 224.299 570.6C229.099 570.6 232.549 573.45 232.549 578.65L232.549 597H229.449L229.449 578.95C229.449 575.05 227.199 573.25 223.549 573.25C219.149 573.25 215.549 576.35 215.549 580.6L215.549 597H212.449ZM247.094 595.05C252.844 595.05 255.844 590.15 255.844 584.1C255.844 578.05 252.844 573.15 247.094 573.15C241.294 573.15 238.294 578.05 238.294 584.1C238.294 590.15 241.294 595.05 247.094 595.05ZM247.094 597.65C239.644 597.65 235.094 591.8 235.094 584.1C235.094 576.4 239.644 570.55 247.094 570.55C254.544 570.55 258.994 576.4 258.994 584.1C258.994 591.8 254.544 597.65 247.094 597.65ZM261.808 597L261.808 571.15H264.908V575.95H265.008C266.608 572.95 269.308 570.95 272.908 570.95C273.308 570.95 273.558 571 273.758 571.05V574.1C271.908 573.8 269.858 574.2 268.258 575.35C266.258 576.85 264.908 579.25 264.908 582.3L264.908 597H261.808ZM276.189 597L276.189 571.15H279.289L279.289 597H276.189ZM276.189 565.65V561.25H279.289V565.65H276.189ZM293.837 597.65C286.287 597.65 282.087 591.8 282.087 584.1C282.087 576.4 286.387 570.55 293.887 570.55C299.587 570.55 303.437 573.65 304.287 578.95H301.187C300.437 575.1 297.887 573.15 293.887 573.15C287.937 573.15 285.287 578.1 285.287 584.1C285.287 590.1 287.987 595 293.837 595C298.237 595 300.987 592.25 301.487 588.1H304.437C303.837 593.95 299.987 597.65 293.837 597.65ZM314.385 597.6C309.585 597.6 305.935 595.2 305.935 590.4C305.935 584.25 310.735 583 316.585 582.3C321.685 581.7 323.535 581.4 323.535 578.8V578.3C323.535 574.8 321.335 573.1 317.335 573.1C312.735 573.1 310.335 575 310.085 578.85H307.035C307.385 573.85 310.685 570.6 317.335 570.6C322.985 570.6 326.485 572.95 326.485 578.6L326.485 592.65C326.485 594.2 327.085 594.85 328.185 594.9C328.535 594.9 328.885 594.8 329.335 594.7H329.485V596.95C329.035 597.15 328.385 597.35 327.385 597.35C325.135 597.35 323.735 596.2 323.585 593.7V593.15H323.435C321.985 595.2 319.335 597.6 314.385 597.6ZM314.935 595.1C320.585 595.1 323.585 591.2 323.585 587.65V583C321.935 583.9 319.385 584.35 316.885 584.7C312.535 585.3 309.185 585.95 309.185 590.4C309.185 594 311.885 595.1 314.935 595.1ZM331.387 597L331.387 561.25H334.487L334.487 597H331.387ZM355.55 597.65C348 597.65 343.8 591.8 343.8 584.1C343.8 576.4 348.1 570.55 355.6 570.55C361.3 570.55 365.15 573.65 366 578.95H362.9C362.15 575.1 359.6 573.15 355.6 573.15C349.65 573.15 347 578.1 347 584.1C347 590.1 349.7 595 355.55 595C359.95 595 362.7 592.25 363.2 588.1H366.15C365.55 593.95 361.7 597.65 355.55 597.65ZM379.26 595.05C385.01 595.05 388.01 590.15 388.01 584.1C388.01 578.05 385.01 573.15 379.26 573.15C373.46 573.15 370.46 578.05 370.46 584.1C370.46 590.15 373.46 595.05 379.26 595.05ZM379.26 597.65C371.81 597.65 367.26 591.8 367.26 584.1C367.26 576.4 371.81 570.55 379.26 570.55C386.71 570.55 391.16 576.4 391.16 584.1C391.16 591.8 386.71 597.65 379.26 597.65ZM393.975 597L393.975 571.15H397.075V575.1H397.175C398.925 572.5 401.725 570.6 405.825 570.6C410.625 570.6 414.075 573.45 414.075 578.65L414.075 597H410.975L410.975 578.95C410.975 575.05 408.725 573.25 405.075 573.25C400.675 573.25 397.075 576.35 397.075 580.6V597H393.975ZM417.973 597L417.973 571.15H421.073V575.1H421.173C422.923 572.5 425.723 570.6 429.823 570.6C434.623 570.6 438.073 573.45 438.073 578.65L438.073 597H434.973L434.973 578.95C434.973 575.05 432.723 573.25 429.073 573.25C424.673 573.25 421.073 576.35 421.073 580.6V597H417.973ZM452.67 597.65C444.92 597.65 440.62 591.85 440.62 584.1C440.62 576.35 445.27 570.55 452.42 570.55C460.72 570.55 463.57 577.4 463.52 584.65L443.82 584.65C443.97 590.45 446.77 595 452.67 595C456.97 595 459.22 592.7 460.22 589.2H463.22C462.12 594.3 458.47 597.65 452.67 597.65ZM443.87 582.2L460.27 582.2C460.12 577.1 457.72 573.1 452.42 573.1C447.17 573.1 444.42 577.05 443.87 582.2ZM476.661 597.65C469.111 597.65 464.911 591.8 464.911 584.1C464.911 576.4 469.211 570.55 476.711 570.55C482.411 570.55 486.261 573.65 487.111 578.95H484.011C483.261 575.1 480.711 573.15 476.711 573.15C470.761 573.15 468.111 578.1 468.111 584.1C468.111 590.1 470.811 595 476.661 595C481.061 595 483.811 592.25 484.311 588.1H487.261C486.661 593.95 482.811 597.65 476.661 597.65ZM496.822 597.2C493.872 597.2 491.872 595.85 491.872 592.55L491.872 573.7H487.972V571.15H491.872V563.2H494.972V571.15H499.772V573.7H494.972L494.972 592.05C494.972 593.9 495.822 594.5 497.472 594.5C498.172 594.5 499.072 594.3 499.522 594.1H499.672V596.75C498.822 597.05 497.922 597.2 496.822 597.2ZM502.833 597L502.833 571.15H505.933L505.933 597H502.833ZM502.833 565.65V561.25H505.933V565.65H502.833ZM520.73 595.05C526.48 595.05 529.48 590.15 529.48 584.1C529.48 578.05 526.48 573.15 520.73 573.15C514.93 573.15 511.93 578.05 511.93 584.1C511.93 590.15 514.93 595.05 520.73 595.05ZM520.73 597.65C513.28 597.65 508.73 591.8 508.73 584.1C508.73 576.4 513.28 570.55 520.73 570.55C528.18 570.55 532.63 576.4 532.63 584.1C532.63 591.8 528.18 597.65 520.73 597.65ZM535.445 597L535.445 571.15H538.545V575.1H538.645C540.395 572.5 543.195 570.6 547.295 570.6C552.095 570.6 555.545 573.45 555.545 578.65L555.545 597H552.445L552.445 578.95C552.445 575.05 550.195 573.25 546.545 573.25C542.145 573.25 538.545 576.35 538.545 580.6V597H535.445ZM577.612 597.7C573.662 597.7 571.062 596.15 569.062 593.1H568.962V597H565.862L565.862 561.25H568.962V575.6H569.062C570.862 572.6 573.712 570.6 577.812 570.6C584.012 570.6 588.462 575.55 588.462 584.15C588.462 592.1 584.412 597.7 577.612 597.7ZM577.462 595.1C582.762 595.1 585.312 590.25 585.312 584.2C585.312 577.75 582.562 573.2 577.412 573.2C571.712 573.2 568.712 578.05 568.712 584.2C568.712 590.65 571.712 595.1 577.462 595.1ZM601.976 597.65C594.226 597.65 589.926 591.85 589.926 584.1C589.926 576.35 594.576 570.55 601.726 570.55C610.026 570.55 612.876 577.4 612.826 584.65H593.126C593.276 590.45 596.076 595 601.976 595C606.276 595 608.526 592.7 609.526 589.2H612.526C611.426 594.3 607.776 597.65 601.976 597.65ZM593.176 582.2H609.576C609.426 577.1 607.026 573.1 601.726 573.1C596.476 573.1 593.726 577.05 593.176 582.2ZM621.934 597.2C618.984 597.2 616.984 595.85 616.984 592.55V573.7H613.084V571.15H616.984V563.2H620.084V571.15H624.884V573.7H620.084V592.05C620.084 593.9 620.934 594.5 622.584 594.5C623.284 594.5 624.184 594.3 624.634 594.1H624.784L624.784 596.75C623.934 597.05 623.034 597.2 621.934 597.2ZM633.69 597L625.99 571.15H629.24L633.74 587.15C634.44 589.7 635.39 593.9 635.39 593.9H635.49C635.49 593.9 636.49 589.75 637.14 587.4L641.54 571.15H644.89L649.14 587.4C649.74 589.75 650.69 593.9 650.69 593.9H650.79C650.79 593.9 651.84 589.65 652.59 587.15L657.39 571.15H660.54L652.39 597H648.99L644.54 580.5C643.89 578.05 643.19 574.65 643.19 574.65H643.09C643.09 574.65 642.39 578.05 641.74 580.5L637.19 597H633.69ZM672.504 597.65C664.754 597.65 660.454 591.85 660.454 584.1C660.454 576.35 665.104 570.55 672.254 570.55C680.554 570.55 683.404 577.4 683.354 584.65H663.654C663.804 590.45 666.604 595 672.504 595C676.804 595 679.054 592.7 680.054 589.2H683.054C681.954 594.3 678.304 597.65 672.504 597.65ZM663.704 582.2H680.104C679.954 577.1 677.554 573.1 672.254 573.1C667.004 573.1 664.254 577.05 663.704 582.2ZM696.795 597.65C689.045 597.65 684.745 591.85 684.745 584.1C684.745 576.35 689.395 570.55 696.545 570.55C704.845 570.55 707.695 577.4 707.645 584.65H687.945C688.095 590.45 690.895 595 696.795 595C701.095 595 703.345 592.7 704.345 589.2H707.345C706.245 594.3 702.595 597.65 696.795 597.65ZM687.995 582.2H704.395C704.245 577.1 701.845 573.1 696.545 573.1C691.295 573.1 688.545 577.05 687.995 582.2ZM710.385 597L710.385 571.15L713.485 571.15V575.1H713.585C715.335 572.5 718.135 570.6 722.235 570.6C727.035 570.6 730.485 573.45 730.485 578.65L730.485 597H727.385L727.385 578.95C727.385 575.05 725.135 573.25 721.485 573.25C717.085 573.25 713.485 576.35 713.485 580.6L713.485 597L710.385 597ZM747.903 597.2C744.953 597.2 742.953 595.85 742.953 592.55V573.7H739.053V571.15H742.953V563.2H746.053V571.15H750.853V573.7H746.053V592.05C746.053 593.9 746.903 594.5 748.553 594.5C749.253 594.5 750.153 594.3 750.603 594.1H750.753L750.753 596.75C749.903 597.05 749.003 597.2 747.903 597.2ZM753.964 597L753.964 561.25H757.064V575.1H757.164C758.914 572.5 761.714 570.6 765.814 570.6C770.614 570.6 774.064 573.45 774.064 578.65L774.064 597H770.964L770.964 578.95C770.964 575.05 768.714 573.25 765.064 573.25C760.664 573.25 757.064 576.35 757.064 580.6L757.064 597H753.964ZM788.658 597.65C780.908 597.65 776.608 591.85 776.608 584.1C776.608 576.35 781.258 570.55 788.408 570.55C796.708 570.55 799.558 577.4 799.508 584.65L779.808 584.65C779.958 590.45 782.758 595 788.658 595C792.958 595 795.208 592.7 796.208 589.2H799.208C798.108 594.3 794.458 597.65 788.658 597.65ZM779.858 582.2L796.258 582.2C796.108 577.1 793.708 573.1 788.408 573.1C783.158 573.1 780.408 577.05 779.858 582.2ZM99.3002 652.65C91.5502 652.65 87.2502 646.85 87.2502 639.1C87.2502 631.35 91.9002 625.55 99.0502 625.55C107.35 625.55 110.2 632.4 110.15 639.65H90.4502C90.6002 645.45 93.4002 650 99.3002 650C103.6 650 105.85 647.7 106.85 644.2H109.85C108.75 649.3 105.1 652.65 99.3002 652.65ZM90.5002 637.2H106.9C106.75 632.1 104.35 628.1 99.0502 628.1C93.8002 628.1 91.0502 632.05 90.5002 637.2ZM119.891 652.6C115.091 652.6 111.441 650.2 111.441 645.4C111.441 639.25 116.241 638 122.091 637.3C127.191 636.7 129.041 636.4 129.041 633.8V633.3C129.041 629.8 126.841 628.1 122.841 628.1C118.241 628.1 115.841 630 115.591 633.85H112.541C112.891 628.85 116.191 625.6 122.841 625.6C128.491 625.6 131.991 627.95 131.991 633.6L131.991 647.65C131.991 649.2 132.591 649.85 133.691 649.9C134.041 649.9 134.391 649.8 134.841 649.7H134.991V651.95C134.541 652.15 133.891 652.35 132.891 652.35C130.641 652.35 129.241 651.2 129.091 648.7V648.15H128.941C127.491 650.2 124.841 652.6 119.891 652.6ZM120.441 650.1C126.091 650.1 129.091 646.2 129.091 642.65L129.091 638C127.441 638.9 124.891 639.35 122.391 639.7C118.041 640.3 114.691 640.95 114.691 645.4C114.691 649 117.391 650.1 120.441 650.1ZM136.742 652L136.742 626.15H139.842V630.95H139.942C141.542 627.95 144.242 625.95 147.842 625.95C148.242 625.95 148.492 626 148.692 626.05V629.1C146.842 628.8 144.792 629.2 143.192 630.35C141.192 631.85 139.842 634.25 139.842 637.3L139.842 652H136.742ZM158.367 652.2C155.417 652.2 153.417 650.85 153.417 647.55L153.417 628.7H149.517V626.15H153.417V618.2H156.517V626.15H161.317V628.7H156.517L156.517 647.05C156.517 648.9 157.367 649.5 159.017 649.5C159.717 649.5 160.617 649.3 161.067 649.1H161.217L161.217 651.75C160.367 652.05 159.467 652.2 158.367 652.2ZM164.428 652L164.428 616.25H167.528L167.528 630.1H167.628C169.378 627.5 172.178 625.6 176.278 625.6C181.078 625.6 184.528 628.45 184.528 633.65L184.528 652H181.428L181.428 633.95C181.428 630.05 179.178 628.25 175.528 628.25C171.128 628.25 167.528 631.35 167.528 635.6L167.528 652H164.428ZM188.572 652L188.572 616.25H191.672L191.672 652H188.572ZM198.616 660.55C197.466 660.55 196.766 660.4 195.966 660.15V657.4H196.116C196.566 657.55 197.266 657.75 198.466 657.75C200.416 657.75 201.816 656.9 202.766 654.25L203.616 651.95L193.666 626.15H196.966L203.166 642.85C204.066 645.25 205.216 648.75 205.216 648.75H205.316C205.316 648.75 206.416 645.25 207.266 642.85L213.216 626.15H216.416L205.766 654.7C204.016 659.35 201.966 660.55 198.616 660.55ZM230.273 652L222.573 626.15H225.823L230.323 642.15C231.023 644.7 231.973 648.9 231.973 648.9H232.073C232.073 648.9 233.073 644.75 233.723 642.4L238.123 626.15H241.473L245.723 642.4C246.323 644.75 247.273 648.9 247.273 648.9H247.373C247.373 648.9 248.423 644.65 249.173 642.15L253.973 626.15H257.123L248.973 652H245.573L241.123 635.5C240.473 633.05 239.773 629.65 239.773 629.65H239.673C239.673 629.65 238.973 633.05 238.323 635.5L233.773 652H230.273ZM269.038 650.05C274.788 650.05 277.788 645.15 277.788 639.1C277.788 633.05 274.788 628.15 269.038 628.15C263.238 628.15 260.238 633.05 260.238 639.1C260.238 645.15 263.238 650.05 269.038 650.05ZM269.038 652.65C261.588 652.65 257.038 646.8 257.038 639.1C257.038 631.4 261.588 625.55 269.038 625.55C276.488 625.55 280.938 631.4 280.938 639.1C280.938 646.8 276.488 652.65 269.038 652.65ZM283.753 652V626.15H286.853V630.95H286.953C288.553 627.95 291.253 625.95 294.853 625.95C295.253 625.95 295.503 626 295.703 626.05V629.1C293.853 628.8 291.803 629.2 290.203 630.35C288.203 631.85 286.853 634.25 286.853 637.3V652H283.753ZM298.183 652V616.25H301.283V652H298.183ZM315.327 652.7C308.377 652.7 304.177 647.1 304.177 639.15C304.177 630.55 309.077 625.6 315.227 625.6C319.177 625.6 322.077 627.45 323.727 630.45H323.827V616.25H326.927V652H323.827V648.15H323.727C321.827 651.1 319.227 652.7 315.327 652.7ZM315.427 650.1C321.077 650.1 324.077 645.65 324.077 639.2C324.077 632.85 321.027 628.2 315.427 628.2C310.327 628.2 307.377 632.75 307.377 639.2C307.377 645.25 309.977 650.1 315.427 650.1ZM344.458 652.6C339.658 652.6 336.008 650.2 336.008 645.4C336.008 639.25 340.808 638 346.658 637.3C351.758 636.7 353.608 636.4 353.608 633.8V633.3C353.608 629.8 351.408 628.1 347.408 628.1C342.808 628.1 340.408 630 340.158 633.85H337.108C337.458 628.85 340.758 625.6 347.408 625.6C353.058 625.6 356.558 627.95 356.558 633.6L356.558 647.65C356.558 649.2 357.158 649.85 358.258 649.9C358.608 649.9 358.958 649.8 359.408 649.7H359.558V651.95C359.108 652.15 358.458 652.35 357.458 652.35C355.208 652.35 353.808 651.2 353.658 648.7V648.15H353.508C352.058 650.2 349.408 652.6 344.458 652.6ZM345.008 650.1C350.658 650.1 353.658 646.2 353.658 642.65V638C352.008 638.9 349.458 639.35 346.958 639.7C342.608 640.3 339.258 640.95 339.258 645.4C339.258 649 341.958 650.1 345.008 650.1ZM361.309 652L361.309 626.15H364.409V630.1H364.509C366.259 627.5 369.059 625.6 373.159 625.6C377.959 625.6 381.409 628.45 381.409 633.65L381.409 652H378.309L378.309 633.95C378.309 630.05 376.059 628.25 372.409 628.25C368.009 628.25 364.409 631.35 364.409 635.6L364.409 652H361.309ZM395.107 652.7C388.157 652.7 383.957 647.1 383.957 639.15C383.957 630.55 388.857 625.6 395.007 625.6C398.957 625.6 401.857 627.45 403.507 630.45H403.607V616.25H406.707L406.707 652H403.607V648.15H403.507C401.607 651.1 399.007 652.7 395.107 652.7ZM395.207 650.1C400.857 650.1 403.857 645.65 403.857 639.2C403.857 632.85 400.807 628.2 395.207 628.2C390.107 628.2 387.157 632.75 387.157 639.2C387.157 645.25 389.757 650.1 395.207 650.1ZM424.338 652.2C421.388 652.2 419.388 650.85 419.388 647.55L419.388 628.7H415.488V626.15H419.388V618.2H422.488V626.15H427.288V628.7H422.488L422.488 647.05C422.488 648.9 423.338 649.5 424.988 649.5C425.688 649.5 426.588 649.3 427.038 649.1H427.188V651.75C426.338 652.05 425.438 652.2 424.338 652.2ZM430.399 652L430.399 616.25H433.499V630.1H433.599C435.349 627.5 438.149 625.6 442.249 625.6C447.049 625.6 450.499 628.45 450.499 633.65L450.499 652H447.399L447.399 633.95C447.399 630.05 445.149 628.25 441.499 628.25C437.099 628.25 433.499 631.35 433.499 635.6L433.499 652H430.399ZM465.093 652.65C457.343 652.65 453.043 646.85 453.043 639.1C453.043 631.35 457.693 625.55 464.843 625.55C473.143 625.55 475.993 632.4 475.943 639.65H456.243C456.393 645.45 459.193 650 465.093 650C469.393 650 471.643 647.7 472.643 644.2H475.643C474.543 649.3 470.893 652.65 465.093 652.65ZM456.293 637.2H472.693C472.543 632.1 470.143 628.1 464.843 628.1C459.593 628.1 456.843 632.05 456.293 637.2ZM494.153 652.7C487.253 652.7 483.753 648.95 483.453 643.95H486.603C487.053 648.3 490.053 650.05 494.203 650.05C498.503 650.05 500.753 648.05 500.753 645.05C500.753 642.2 499.153 641.25 493.853 640.05C488.603 638.85 484.403 637.6 484.403 632.6C484.403 628.3 488.103 625.6 493.403 625.6C499.553 625.6 502.403 628.7 503.003 633.25H499.903C499.553 629.9 497.253 628.15 493.403 628.15C489.403 628.15 487.503 630.05 487.503 632.45C487.503 635.4 489.953 636.1 494.903 637.25C500.103 638.35 503.853 639.65 503.853 645C503.853 649.6 500.153 652.7 494.153 652.7ZM506.562 660.3L506.562 626.15H509.662V630.6H509.762C511.562 627.55 514.412 625.6 518.512 625.6C524.712 625.6 529.212 630.5 529.212 639.1C529.212 647.05 525.112 652.65 518.312 652.65C514.362 652.65 511.712 651.1 509.762 648.25H509.662V660.3H506.562ZM518.162 650.05C523.462 650.05 526.062 645.15 526.062 639.15C526.062 632.7 523.262 628.2 518.112 628.2C512.412 628.2 509.412 633.05 509.412 639.2C509.412 645.55 512.262 650.05 518.162 650.05ZM532.076 652V626.15H535.176V652H532.076ZM532.076 620.65V616.25H535.176V620.65H532.076ZM539.323 652V626.15H542.423V630.95H542.523C544.123 627.95 546.823 625.95 550.423 625.95C550.823 625.95 551.073 626 551.273 626.05V629.1C549.423 628.8 547.373 629.2 545.773 630.35C543.773 631.85 542.423 634.25 542.423 637.3V652H539.323ZM553.704 652V626.15H556.804V652H553.704ZM553.704 620.65V616.25H556.804V620.65H553.704ZM568.051 652.2C565.101 652.2 563.101 650.85 563.101 647.55V628.7H559.201V626.15H563.101V618.2H566.201V626.15H571.001V628.7H566.201V647.05C566.201 648.9 567.051 649.5 568.701 649.5C569.401 649.5 570.301 649.3 570.751 649.1H570.901V651.75C570.051 652.05 569.151 652.2 568.051 652.2ZM582.262 652.6C577.262 652.6 573.762 649.6 573.762 644.4V626.15L576.862 626.15V644.2C576.862 648.1 579.212 650 582.962 650C587.362 650 590.462 646.7 590.462 642.3V626.15H593.512V652H590.462V648.2H590.362C588.562 650.7 586.362 652.6 582.262 652.6ZM604.618 652.6C599.818 652.6 596.168 650.2 596.168 645.4C596.168 639.25 600.968 638 606.818 637.3C611.918 636.7 613.768 636.4 613.768 633.8V633.3C613.768 629.8 611.568 628.1 607.568 628.1C602.968 628.1 600.568 630 600.318 633.85H597.268C597.618 628.85 600.918 625.6 607.568 625.6C613.218 625.6 616.718 627.95 616.718 633.6V647.65C616.718 649.2 617.318 649.85 618.418 649.9C618.768 649.9 619.118 649.8 619.568 649.7H619.718V651.95C619.268 652.15 618.618 652.35 617.618 652.35C615.368 652.35 613.968 651.2 613.818 648.7V648.15H613.668C612.218 650.2 609.568 652.6 604.618 652.6ZM605.168 650.1C610.818 650.1 613.818 646.2 613.818 642.65V638C612.168 638.9 609.618 639.35 607.118 639.7C602.768 640.3 599.418 640.95 599.418 645.4C599.418 649 602.118 650.1 605.168 650.1ZM621.619 652V616.25H624.719V652H621.619ZM640.983 652L633.283 626.15H636.533L641.033 642.15C641.733 644.7 642.683 648.9 642.683 648.9H642.783C642.783 648.9 643.783 644.75 644.433 642.4L648.833 626.15H652.183L656.433 642.4C657.033 644.75 657.983 648.9 657.983 648.9H658.083C658.083 648.9 659.133 644.65 659.883 642.15L664.683 626.15H667.833L659.683 652L656.283 652L651.833 635.5C651.183 633.05 650.483 629.65 650.483 629.65H650.383C650.383 629.65 649.683 633.05 649.033 635.5L644.483 652H640.983ZM679.747 650.05C685.497 650.05 688.497 645.15 688.497 639.1C688.497 633.05 685.497 628.15 679.747 628.15C673.947 628.15 670.947 633.05 670.947 639.1C670.947 645.15 673.947 650.05 679.747 650.05ZM679.747 652.65C672.297 652.65 667.747 646.8 667.747 639.1C667.747 631.4 672.297 625.55 679.747 625.55C687.197 625.55 691.647 631.4 691.647 639.1C691.647 646.8 687.197 652.65 679.747 652.65ZM694.462 652V626.15H697.562V630.95H697.662C699.262 627.95 701.962 625.95 705.562 625.95C705.962 625.95 706.212 626 706.412 626.05V629.1C704.562 628.8 702.512 629.2 700.912 630.35C698.912 631.85 697.562 634.25 697.562 637.3V652H694.462ZM708.893 652V616.25L711.993 616.25V652H708.893ZM726.037 652.7C719.087 652.7 714.887 647.1 714.887 639.15C714.887 630.55 719.787 625.6 725.937 625.6C729.887 625.6 732.787 627.45 734.437 630.45H734.537V616.25H737.637V652H734.537V648.15H734.437C732.537 651.1 729.937 652.7 726.037 652.7ZM726.137 650.1C731.787 650.1 734.787 645.65 734.787 639.2C734.787 632.85 731.737 628.2 726.137 628.2C721.037 628.2 718.087 632.75 718.087 639.2C718.087 645.25 720.687 650.1 726.137 650.1Z" fill="#101415"/>
<path d="M202.62 1036V1020.52H204.84V1022.32H204.96C205.2 1021.72 205.54 1021.21 205.98 1020.79C206.42 1020.37 207.07 1020.16 207.93 1020.16C208.83 1020.16 209.5 1020.39 209.94 1020.85C210.38 1021.29 210.65 1021.87 210.75 1022.59H210.84C211.12 1021.89 211.52 1021.31 212.04 1020.85C212.56 1020.39 213.28 1020.16 214.2 1020.16C215.46 1020.16 216.3 1020.6 216.72 1021.48C217.16 1022.36 217.38 1023.62 217.38 1025.26V1036H215.16V1025.65C215.16 1024.33 215.02 1023.42 214.74 1022.92C214.48 1022.4 213.99 1022.14 213.27 1022.14C212.63 1022.14 212.11 1022.35 211.71 1022.77C211.31 1023.17 211.11 1023.79 211.11 1024.63V1036H208.89V1025.65C208.89 1024.33 208.75 1023.42 208.47 1022.92C208.21 1022.4 207.73 1022.14 207.03 1022.14C206.39 1022.14 205.86 1022.35 205.44 1022.77C205.04 1023.17 204.84 1023.79 204.84 1024.63V1036H202.62ZM227.328 1036.36C226.248 1036.36 225.268 1036.17 224.388 1035.79C223.528 1035.41 222.788 1034.87 222.168 1034.17C221.568 1033.45 221.108 1032.6 220.788 1031.62C220.468 1030.62 220.308 1029.5 220.308 1028.26C220.308 1027.04 220.468 1025.93 220.788 1024.93C221.108 1023.93 221.568 1023.08 222.168 1022.38C222.788 1021.66 223.528 1021.11 224.388 1020.73C225.268 1020.35 226.248 1020.16 227.328 1020.16C228.408 1020.16 229.378 1020.35 230.238 1020.73C231.118 1021.11 231.858 1021.66 232.458 1022.38C233.078 1023.08 233.548 1023.93 233.868 1024.93C234.188 1025.93 234.348 1027.04 234.348 1028.26C234.348 1029.5 234.188 1030.62 233.868 1031.62C233.548 1032.6 233.078 1033.45 232.458 1034.17C231.858 1034.87 231.118 1035.41 230.238 1035.79C229.378 1036.17 228.408 1036.36 227.328 1036.36ZM227.328 1034.29C228.668 1034.29 229.748 1033.89 230.568 1033.09C231.388 1032.29 231.798 1031.05 231.798 1029.37V1027.15C231.798 1025.47 231.388 1024.23 230.568 1023.43C229.748 1022.63 228.668 1022.23 227.328 1022.23C225.988 1022.23 224.908 1022.63 224.088 1023.43C223.268 1024.23 222.858 1025.47 222.858 1027.15V1029.37C222.858 1031.05 223.268 1032.29 224.088 1033.09C224.908 1033.89 225.988 1034.29 227.328 1034.29ZM243.127 1036L237.577 1020.52H240.007L242.227 1027L244.627 1033.99H244.747L247.147 1027L249.367 1020.52H251.737L246.187 1036H243.127ZM262.945 1017.1C262.245 1017.1 261.755 1016.96 261.475 1016.68C261.195 1016.38 261.055 1016.01 261.055 1015.57V1015.09C261.055 1014.65 261.195 1014.29 261.475 1014.01C261.755 1013.71 262.245 1013.56 262.945 1013.56C263.645 1013.56 264.135 1013.71 264.415 1014.01C264.695 1014.29 264.835 1014.65 264.835 1015.09V1015.57C264.835 1016.01 264.695 1016.38 264.415 1016.68C264.135 1016.96 263.645 1017.1 262.945 1017.1ZM256.165 1033.96H261.745V1022.56H256.165V1020.52H264.145V1033.96H269.365V1036H256.165V1033.96ZM279.583 1036.36C278.463 1036.36 277.453 1036.17 276.553 1035.79C275.673 1035.41 274.913 1034.87 274.273 1034.17C273.653 1033.45 273.173 1032.6 272.833 1031.62C272.493 1030.62 272.323 1029.51 272.323 1028.29C272.323 1027.05 272.493 1025.93 272.833 1024.93C273.193 1023.93 273.683 1023.08 274.303 1022.38C274.923 1021.66 275.663 1021.11 276.523 1020.73C277.403 1020.35 278.373 1020.16 279.433 1020.16C280.473 1020.16 281.413 1020.35 282.253 1020.73C283.113 1021.11 283.843 1021.64 284.443 1022.32C285.043 1022.98 285.503 1023.77 285.823 1024.69C286.143 1025.61 286.303 1026.62 286.303 1027.72V1028.86H274.843V1029.58C274.843 1030.26 274.953 1030.89 275.173 1031.47C275.393 1032.05 275.703 1032.55 276.103 1032.97C276.523 1033.39 277.023 1033.72 277.603 1033.96C278.203 1034.18 278.863 1034.29 279.583 1034.29C280.623 1034.29 281.523 1034.05 282.283 1033.57C283.043 1033.09 283.623 1032.43 284.023 1031.59L285.793 1032.79C285.333 1033.83 284.563 1034.69 283.483 1035.37C282.423 1036.03 281.123 1036.36 279.583 1036.36ZM279.433 1022.14C278.773 1022.14 278.163 1022.26 277.603 1022.5C277.043 1022.74 276.553 1023.07 276.133 1023.49C275.733 1023.91 275.413 1024.41 275.173 1024.99C274.953 1025.55 274.843 1026.17 274.843 1026.85V1027.06H283.723V1026.73C283.723 1026.05 283.613 1025.43 283.393 1024.87C283.193 1024.31 282.903 1023.83 282.523 1023.43C282.163 1023.01 281.713 1022.69 281.173 1022.47C280.653 1022.25 280.073 1022.14 279.433 1022.14ZM296.822 1036.36C295.202 1036.36 293.802 1036.09 292.622 1035.55C291.462 1034.99 290.472 1034.25 289.652 1033.33L291.272 1031.92C292.012 1032.7 292.822 1033.3 293.702 1033.72C294.582 1034.14 295.642 1034.35 296.882 1034.35C298.082 1034.35 299.062 1034.14 299.822 1033.72C300.602 1033.28 300.992 1032.6 300.992 1031.68C300.992 1031.28 300.912 1030.95 300.752 1030.69C300.612 1030.41 300.412 1030.19 300.152 1030.03C299.892 1029.87 299.602 1029.75 299.282 1029.67C298.962 1029.57 298.622 1029.49 298.262 1029.43L295.832 1029.07C295.292 1028.99 294.702 1028.88 294.062 1028.74C293.442 1028.6 292.872 1028.38 292.352 1028.08C291.832 1027.76 291.392 1027.34 291.032 1026.82C290.692 1026.3 290.522 1025.62 290.522 1024.78C290.522 1024 290.672 1023.33 290.972 1022.77C291.292 1022.19 291.732 1021.71 292.292 1021.33C292.852 1020.93 293.512 1020.64 294.272 1020.46C295.032 1020.26 295.862 1020.16 296.762 1020.16C298.162 1020.16 299.372 1020.38 300.392 1020.82C301.432 1021.26 302.322 1021.87 303.062 1022.65L301.502 1024.12C301.322 1023.9 301.092 1023.68 300.812 1023.46C300.552 1023.22 300.222 1023.01 299.822 1022.83C299.442 1022.63 298.992 1022.47 298.472 1022.35C297.952 1022.23 297.352 1022.17 296.672 1022.17C295.452 1022.17 294.512 1022.38 293.852 1022.8C293.212 1023.22 292.892 1023.83 292.892 1024.63C292.892 1025.03 292.962 1025.37 293.102 1025.65C293.262 1025.91 293.472 1026.12 293.732 1026.28C293.992 1026.44 294.282 1026.57 294.602 1026.67C294.942 1026.75 295.282 1026.82 295.622 1026.88L298.052 1027.24C298.612 1027.32 299.202 1027.43 299.822 1027.57C300.442 1027.71 301.012 1027.94 301.532 1028.26C302.052 1028.56 302.482 1028.97 302.822 1029.49C303.182 1030.01 303.362 1030.69 303.362 1031.53C303.362 1033.07 302.762 1034.26 301.562 1035.1C300.382 1035.94 298.802 1036.36 296.822 1036.36Z" fill="#101415"/>
<path d="M90.7002 988V967.06H98.3202C100.26 967.06 101.74 967.59 102.76 968.65C103.78 969.71 104.29 971.19 104.29 973.09C104.29 974.99 103.78 976.47 102.76 977.53C101.74 978.59 100.26 979.12 98.3202 979.12H93.2202V988H90.7002ZM93.2202 976.93H98.2602C99.3202 976.93 100.14 976.67 100.72 976.15C101.32 975.61 101.62 974.85 101.62 973.87V972.31C101.62 971.33 101.32 970.58 100.72 970.06C100.14 969.52 99.3202 969.25 98.2602 969.25H93.2202V976.93ZM107.638 985.96H112.168V974.56H107.638V972.52H114.568V976.42H114.718C115.038 975.2 115.638 974.25 116.518 973.57C117.418 972.87 118.558 972.52 119.938 972.52H122.098V974.92H119.188C117.808 974.92 116.688 975.32 115.828 976.12C114.988 976.92 114.568 977.97 114.568 979.27V985.96H120.568V988H107.638V985.96ZM131.927 988.36C130.807 988.36 129.797 988.17 128.897 987.79C128.017 987.41 127.257 986.87 126.617 986.17C125.997 985.45 125.517 984.6 125.177 983.62C124.837 982.62 124.667 981.51 124.667 980.29C124.667 979.05 124.837 977.93 125.177 976.93C125.537 975.93 126.027 975.08 126.647 974.38C127.267 973.66 128.007 973.11 128.867 972.73C129.747 972.35 130.717 972.16 131.777 972.16C132.817 972.16 133.757 972.35 134.597 972.73C135.457 973.11 136.187 973.64 136.787 974.32C137.387 974.98 137.847 975.77 138.167 976.69C138.487 977.61 138.647 978.62 138.647 979.72V980.86H127.187V981.58C127.187 982.26 127.297 982.89 127.517 983.47C127.737 984.05 128.047 984.55 128.447 984.97C128.867 985.39 129.367 985.72 129.947 985.96C130.547 986.18 131.207 986.29 131.927 986.29C132.967 986.29 133.867 986.05 134.627 985.57C135.387 985.09 135.967 984.43 136.367 983.59L138.137 984.79C137.677 985.83 136.907 986.69 135.827 987.37C134.767 988.03 133.467 988.36 131.927 988.36ZM131.777 974.14C131.117 974.14 130.507 974.26 129.947 974.5C129.387 974.74 128.897 975.07 128.477 975.49C128.077 975.91 127.757 976.41 127.517 976.99C127.297 977.55 127.187 978.17 127.187 978.85V979.06H136.067V978.73C136.067 978.05 135.957 977.43 135.737 976.87C135.537 976.31 135.247 975.83 134.867 975.43C134.507 975.01 134.057 974.69 133.517 974.47C132.997 974.25 132.417 974.14 131.777 974.14ZM149.165 988.36C147.545 988.36 146.145 988.09 144.965 987.55C143.805 986.99 142.815 986.25 141.995 985.33L143.615 983.92C144.355 984.7 145.165 985.3 146.045 985.72C146.925 986.14 147.985 986.35 149.225 986.35C150.425 986.35 151.405 986.14 152.165 985.72C152.945 985.28 153.335 984.6 153.335 983.68C153.335 983.28 153.255 982.95 153.095 982.69C152.955 982.41 152.755 982.19 152.495 982.03C152.235 981.87 151.945 981.75 151.625 981.67C151.305 981.57 150.965 981.49 150.605 981.43L148.175 981.07C147.635 980.99 147.045 980.88 146.405 980.74C145.785 980.6 145.215 980.38 144.695 980.08C144.175 979.76 143.735 979.34 143.375 978.82C143.035 978.3 142.865 977.62 142.865 976.78C142.865 976 143.015 975.33 143.315 974.77C143.635 974.19 144.075 973.71 144.635 973.33C145.195 972.93 145.855 972.64 146.615 972.46C147.375 972.26 148.205 972.16 149.105 972.16C150.505 972.16 151.715 972.38 152.735 972.82C153.775 973.26 154.665 973.87 155.405 974.65L153.845 976.12C153.665 975.9 153.435 975.68 153.155 975.46C152.895 975.22 152.565 975.01 152.165 974.83C151.785 974.63 151.335 974.47 150.815 974.35C150.295 974.23 149.695 974.17 149.015 974.17C147.795 974.17 146.855 974.38 146.195 974.8C145.555 975.22 145.235 975.83 145.235 976.63C145.235 977.03 145.305 977.37 145.445 977.65C145.605 977.91 145.815 978.12 146.075 978.28C146.335 978.44 146.625 978.57 146.945 978.67C147.285 978.75 147.625 978.82 147.965 978.88L150.395 979.24C150.955 979.32 151.545 979.43 152.165 979.57C152.785 979.71 153.355 979.94 153.875 980.26C154.395 980.56 154.825 980.97 155.165 981.49C155.525 982.01 155.705 982.69 155.705 983.53C155.705 985.07 155.105 986.26 153.905 987.1C152.725 987.94 151.145 988.36 149.165 988.36ZM166.583 988.36C165.463 988.36 164.453 988.17 163.553 987.79C162.673 987.41 161.913 986.87 161.273 986.17C160.653 985.45 160.173 984.6 159.833 983.62C159.493 982.62 159.323 981.51 159.323 980.29C159.323 979.05 159.493 977.93 159.833 976.93C160.193 975.93 160.683 975.08 161.303 974.38C161.923 973.66 162.663 973.11 163.523 972.73C164.403 972.35 165.373 972.16 166.433 972.16C167.473 972.16 168.413 972.35 169.253 972.73C170.113 973.11 170.843 973.64 171.443 974.32C172.043 974.98 172.503 975.77 172.823 976.69C173.143 977.61 173.303 978.62 173.303 979.72V980.86H161.843V981.58C161.843 982.26 161.953 982.89 162.173 983.47C162.393 984.05 162.703 984.55 163.103 984.97C163.523 985.39 164.023 985.72 164.603 985.96C165.203 986.18 165.863 986.29 166.583 986.29C167.623 986.29 168.523 986.05 169.283 985.57C170.043 985.09 170.623 984.43 171.023 983.59L172.793 984.79C172.333 985.83 171.563 986.69 170.483 987.37C169.423 988.03 168.123 988.36 166.583 988.36ZM166.433 974.14C165.773 974.14 165.163 974.26 164.603 974.5C164.043 974.74 163.553 975.07 163.133 975.49C162.733 975.91 162.413 976.41 162.173 976.99C161.953 977.55 161.843 978.17 161.843 978.85V979.06H170.723V978.73C170.723 978.05 170.613 977.43 170.393 976.87C170.193 976.31 169.903 975.83 169.523 975.43C169.163 975.01 168.713 974.69 168.173 974.47C167.653 974.25 167.073 974.14 166.433 974.14ZM177.582 988V972.52H179.982V975.04H180.102C180.262 974.66 180.462 974.3 180.702 973.96C180.942 973.6 181.232 973.29 181.572 973.03C181.932 972.77 182.352 972.56 182.832 972.4C183.312 972.24 183.872 972.16 184.512 972.16C186.132 972.16 187.432 972.68 188.412 973.72C189.392 974.74 189.882 976.19 189.882 978.07V988H187.482V978.49C187.482 977.07 187.172 976.02 186.552 975.34C185.932 974.64 185.022 974.29 183.822 974.29C183.342 974.29 182.872 974.35 182.412 974.47C181.952 974.59 181.542 974.77 181.182 975.01C180.822 975.25 180.532 975.56 180.312 975.94C180.092 976.32 179.982 976.76 179.982 977.26V988H177.582ZM201.72 988C200.54 988 199.67 987.67 199.11 987.01C198.57 986.35 198.3 985.5 198.3 984.46V974.56H193.14V972.52H196.98C197.5 972.52 197.86 972.42 198.06 972.22C198.28 972 198.39 971.63 198.39 971.11V967.06H200.7V972.52H207.75V974.56H200.7V985.96H207.75V988H201.72ZM236.586 969.1C235.886 969.1 235.396 968.96 235.116 968.68C234.836 968.38 234.696 968.01 234.696 967.57V967.09C234.696 966.65 234.836 966.29 235.116 966.01C235.396 965.71 235.886 965.56 236.586 965.56C237.286 965.56 237.776 965.71 238.056 966.01C238.336 966.29 238.476 966.65 238.476 967.09V967.57C238.476 968.01 238.336 968.38 238.056 968.68C237.776 968.96 237.286 969.1 236.586 969.1ZM229.806 985.96H235.386V974.56H229.806V972.52H237.786V985.96H243.006V988H229.806V985.96ZM246.895 988V972.52H249.295V975.04H249.415C249.575 974.66 249.775 974.3 250.015 973.96C250.255 973.6 250.545 973.29 250.885 973.03C251.245 972.77 251.665 972.56 252.145 972.4C252.625 972.24 253.185 972.16 253.825 972.16C255.445 972.16 256.745 972.68 257.725 973.72C258.705 974.74 259.195 976.19 259.195 978.07V988H256.795V978.49C256.795 977.07 256.485 976.02 255.865 975.34C255.245 974.64 254.335 974.29 253.135 974.29C252.655 974.29 252.185 974.35 251.725 974.47C251.265 974.59 250.855 974.77 250.495 975.01C250.135 975.25 249.845 975.56 249.625 975.94C249.405 976.32 249.295 976.76 249.295 977.26V988H246.895Z" fill="#101415"/>
<path d="M91.6402 1036V1031.72H99.3202V1011.88H98.9602L92.8802 1019.08L89.6002 1016.32L96.5202 1008.08H104.56V1031.72H110.88V1036H91.6402ZM123.105 1036.48C121.291 1036.48 119.718 1036.16 118.385 1035.52C117.051 1034.85 115.945 1033.91 115.065 1032.68C114.211 1031.45 113.571 1029.95 113.145 1028.16C112.745 1026.37 112.545 1024.33 112.545 1022.04C112.545 1019.77 112.745 1017.75 113.145 1015.96C113.571 1014.15 114.211 1012.63 115.065 1011.4C115.945 1010.17 117.051 1009.24 118.385 1008.6C119.718 1007.93 121.291 1007.6 123.105 1007.6C126.731 1007.6 129.398 1008.87 131.105 1011.4C132.811 1013.93 133.665 1017.48 133.665 1022.04C133.665 1026.6 132.811 1030.15 131.105 1032.68C129.398 1035.21 126.731 1036.48 123.105 1036.48ZM123.105 1032.28C125.025 1032.28 126.371 1031.6 127.145 1030.24C127.945 1028.85 128.345 1026.95 128.345 1024.52V1019.56C128.345 1017.13 127.945 1015.24 127.145 1013.88C126.371 1012.49 125.025 1011.8 123.105 1011.8C121.185 1011.8 119.825 1012.49 119.025 1013.88C118.251 1015.24 117.865 1017.13 117.865 1019.56V1024.52C117.865 1026.95 118.251 1028.85 119.025 1030.24C119.825 1031.6 121.185 1032.28 123.105 1032.28ZM123.105 1024.4C122.171 1024.4 121.518 1024.21 121.145 1023.84C120.798 1023.47 120.625 1023.01 120.625 1022.48V1021.6C120.625 1021.07 120.798 1020.61 121.145 1020.24C121.518 1019.87 122.171 1019.68 123.105 1019.68C124.038 1019.68 124.678 1019.87 125.025 1020.24C125.398 1020.61 125.585 1021.07 125.585 1021.6V1022.48C125.585 1023.01 125.398 1023.47 125.025 1023.84C124.678 1024.21 124.038 1024.4 123.105 1024.4ZM136.549 1040.14L146.419 1013.2H149.869L139.999 1040.14H136.549ZM159.697 1023.52C160.957 1023.52 161.877 1023.27 162.457 1022.77C163.057 1022.27 163.357 1021.64 163.357 1020.88V1020.67C163.357 1019.81 163.067 1019.14 162.487 1018.66C161.927 1018.18 161.147 1017.94 160.147 1017.94C159.187 1017.94 158.347 1018.16 157.627 1018.6C156.907 1019.04 156.287 1019.66 155.767 1020.46L153.217 1018.18C153.577 1017.7 153.977 1017.25 154.417 1016.83C154.877 1016.39 155.387 1016.02 155.947 1015.72C156.527 1015.4 157.167 1015.15 157.867 1014.97C158.567 1014.79 159.367 1014.7 160.267 1014.7C161.327 1014.7 162.297 1014.83 163.177 1015.09C164.077 1015.33 164.837 1015.69 165.457 1016.17C166.097 1016.65 166.587 1017.23 166.927 1017.91C167.287 1018.57 167.467 1019.32 167.467 1020.16C167.467 1020.82 167.357 1021.42 167.137 1021.96C166.917 1022.5 166.617 1022.97 166.237 1023.37C165.877 1023.77 165.447 1024.1 164.947 1024.36C164.467 1024.62 163.947 1024.81 163.387 1024.93V1025.08C164.007 1025.2 164.587 1025.4 165.127 1025.68C165.667 1025.94 166.137 1026.28 166.537 1026.7C166.937 1027.12 167.257 1027.63 167.497 1028.23C167.737 1028.81 167.857 1029.47 167.857 1030.21C167.857 1031.13 167.667 1031.97 167.287 1032.73C166.907 1033.49 166.367 1034.14 165.667 1034.68C164.987 1035.22 164.157 1035.64 163.177 1035.94C162.217 1036.22 161.137 1036.36 159.937 1036.36C158.937 1036.36 158.047 1036.25 157.267 1036.03C156.487 1035.83 155.797 1035.55 155.197 1035.19C154.597 1034.83 154.077 1034.42 153.637 1033.96C153.197 1033.48 152.807 1032.99 152.467 1032.49L155.377 1030.24C155.877 1031.08 156.467 1031.77 157.147 1032.31C157.847 1032.85 158.797 1033.12 159.997 1033.12C161.197 1033.12 162.117 1032.85 162.757 1032.31C163.417 1031.75 163.747 1030.98 163.747 1030V1029.76C163.747 1028.8 163.397 1028.07 162.697 1027.57C161.997 1027.05 161.007 1026.79 159.727 1026.79H157.627V1023.52H159.697ZM177.025 1023.52C178.285 1023.52 179.205 1023.27 179.785 1022.77C180.385 1022.27 180.685 1021.64 180.685 1020.88V1020.67C180.685 1019.81 180.395 1019.14 179.815 1018.66C179.255 1018.18 178.475 1017.94 177.475 1017.94C176.515 1017.94 175.675 1018.16 174.955 1018.6C174.235 1019.04 173.615 1019.66 173.095 1020.46L170.545 1018.18C170.905 1017.7 171.305 1017.25 171.745 1016.83C172.205 1016.39 172.715 1016.02 173.275 1015.72C173.855 1015.4 174.495 1015.15 175.195 1014.97C175.895 1014.79 176.695 1014.7 177.595 1014.7C178.655 1014.7 179.625 1014.83 180.505 1015.09C181.405 1015.33 182.165 1015.69 182.785 1016.17C183.425 1016.65 183.915 1017.23 184.255 1017.91C184.615 1018.57 184.795 1019.32 184.795 1020.16C184.795 1020.82 184.685 1021.42 184.465 1021.96C184.245 1022.5 183.945 1022.97 183.565 1023.37C183.205 1023.77 182.775 1024.1 182.275 1024.36C181.795 1024.62 181.275 1024.81 180.715 1024.93V1025.08C181.335 1025.2 181.915 1025.4 182.455 1025.68C182.995 1025.94 183.465 1026.28 183.865 1026.7C184.265 1027.12 184.585 1027.63 184.825 1028.23C185.065 1028.81 185.185 1029.47 185.185 1030.21C185.185 1031.13 184.995 1031.97 184.615 1032.73C184.235 1033.49 183.695 1034.14 182.995 1034.68C182.315 1035.22 181.485 1035.64 180.505 1035.94C179.545 1036.22 178.465 1036.36 177.265 1036.36C176.265 1036.36 175.375 1036.25 174.595 1036.03C173.815 1035.83 173.125 1035.55 172.525 1035.19C171.925 1034.83 171.405 1034.42 170.965 1033.96C170.525 1033.48 170.135 1032.99 169.795 1032.49L172.705 1030.24C173.205 1031.08 173.795 1031.77 174.475 1032.31C175.175 1032.85 176.125 1033.12 177.325 1033.12C178.525 1033.12 179.445 1032.85 180.085 1032.31C180.745 1031.75 181.075 1030.98 181.075 1030V1029.76C181.075 1028.8 180.725 1028.07 180.025 1027.57C179.325 1027.05 178.335 1026.79 177.055 1026.79H174.955V1023.52H177.025Z" fill="#101415"/>
<path d="M510.7 988L510.7 967.06H523.6V969.25H513.22V976.3H523.24V978.49H513.22V985.81H523.6V988H510.7ZM527.158 988L532.918 980.14L527.308 972.52H530.188L532.528 975.79L534.388 978.37H534.508L536.308 975.79L538.618 972.52H541.378L535.708 980.11L541.528 988H538.648L536.038 984.37L534.268 981.91H534.148L532.438 984.37L529.918 988H527.158ZM545.507 972.52H547.907V975.04H548.027C549.027 973.12 550.617 972.16 552.797 972.16C554.697 972.16 556.177 972.87 557.237 974.29C558.317 975.71 558.857 977.7 558.857 980.26C558.857 982.82 558.317 984.81 557.237 986.23C556.177 987.65 554.697 988.36 552.797 988.36C550.617 988.36 549.027 987.4 548.027 985.48H547.907V994H545.507V972.52ZM551.867 986.23C553.267 986.23 554.347 985.81 555.107 984.97C555.887 984.11 556.277 982.98 556.277 981.58V978.94C556.277 977.54 555.887 976.42 555.107 975.58C554.347 974.72 553.267 974.29 551.867 974.29C551.327 974.29 550.817 974.36 550.337 974.5C549.857 974.64 549.437 974.85 549.077 975.13C548.717 975.39 548.427 975.72 548.207 976.12C548.007 976.5 547.907 976.95 547.907 977.47V983.05C547.907 983.57 548.007 984.03 548.207 984.43C548.427 984.81 548.717 985.14 549.077 985.42C549.437 985.68 549.857 985.88 550.337 986.02C550.817 986.16 551.327 986.23 551.867 986.23ZM562.385 985.96H567.785V967.84H562.385V965.8H570.185V985.96H575.585V988H562.385V985.96ZM587.273 969.1C586.573 969.1 586.083 968.96 585.803 968.68C585.523 968.38 585.383 968.01 585.383 967.57V967.09C585.383 966.65 585.523 966.29 585.803 966.01C586.083 965.71 586.573 965.56 587.273 965.56C587.973 965.56 588.463 965.71 588.743 966.01C589.023 966.29 589.163 966.65 589.163 967.09V967.57C589.163 968.01 589.023 968.38 588.743 968.68C588.463 968.96 587.973 969.1 587.273 969.1ZM580.493 985.96H586.073V974.56H580.493V972.52H588.473V985.96H593.693V988H580.493V985.96ZM604.182 988.36C603.062 988.36 602.062 988.17 601.182 987.79C600.322 987.39 599.592 986.84 598.992 986.14C598.392 985.44 597.932 984.59 597.612 983.59C597.312 982.59 597.162 981.48 597.162 980.26C597.162 979.04 597.322 977.93 597.642 976.93C597.962 975.93 598.422 975.08 599.022 974.38C599.622 973.66 600.352 973.11 601.212 972.73C602.072 972.35 603.052 972.16 604.152 972.16C605.652 972.16 606.872 972.49 607.812 973.15C608.752 973.81 609.442 974.67 609.882 975.73L607.962 976.75C607.682 975.95 607.212 975.33 606.552 974.89C605.912 974.45 605.112 974.23 604.152 974.23C603.452 974.23 602.822 974.35 602.262 974.59C601.722 974.81 601.262 975.13 600.882 975.55C600.502 975.97 600.212 976.47 600.012 977.05C599.832 977.63 599.742 978.26 599.742 978.94V981.58C599.742 982.26 599.832 982.89 600.012 983.47C600.212 984.05 600.502 984.55 600.882 984.97C601.262 985.39 601.732 985.72 602.292 985.96C602.852 986.18 603.492 986.29 604.212 986.29C605.252 986.29 606.112 986.05 606.792 985.57C607.472 985.09 608.012 984.43 608.412 983.59L610.122 984.76C609.662 985.8 608.942 986.66 607.962 987.34C607.002 988.02 605.742 988.36 604.182 988.36ZM621.93 969.1C621.23 969.1 620.74 968.96 620.46 968.68C620.18 968.38 620.04 968.01 620.04 967.57V967.09C620.04 966.65 620.18 966.29 620.46 966.01C620.74 965.71 621.23 965.56 621.93 965.56C622.63 965.56 623.12 965.71 623.4 966.01C623.68 966.29 623.82 966.65 623.82 967.09V967.57C623.82 968.01 623.68 968.38 623.4 968.68C623.12 968.96 622.63 969.1 621.93 969.1ZM615.15 985.96H620.73V974.56H615.15V972.52H623.13V985.96H628.35V988H615.15V985.96ZM639.048 988C637.868 988 636.998 987.67 636.438 987.01C635.898 986.35 635.628 985.5 635.628 984.46V974.56H630.468V972.52H634.308C634.828 972.52 635.188 972.42 635.388 972.22C635.608 972 635.718 971.63 635.718 971.11V967.06H638.028V972.52H645.078V974.56H638.028V985.96H645.078V988H639.048ZM666.265 985.96H670.795V974.56H666.265V972.52H673.195V976.42H673.345C673.665 975.2 674.265 974.25 675.145 973.57C676.045 972.87 677.185 972.52 678.565 972.52H680.725V974.92H677.815C676.435 974.92 675.315 975.32 674.455 976.12C673.615 976.92 673.195 977.97 673.195 979.27V985.96L679.195 985.96V988L666.265 988V985.96ZM690.553 988.36C689.433 988.36 688.423 988.17 687.523 987.79C686.643 987.41 685.883 986.87 685.243 986.17C684.623 985.45 684.143 984.6 683.803 983.62C683.463 982.62 683.293 981.51 683.293 980.29C683.293 979.05 683.463 977.93 683.803 976.93C684.163 975.93 684.653 975.08 685.273 974.38C685.893 973.66 686.633 973.11 687.493 972.73C688.373 972.35 689.343 972.16 690.403 972.16C691.443 972.16 692.383 972.35 693.223 972.73C694.083 973.11 694.813 973.64 695.413 974.32C696.013 974.98 696.473 975.77 696.793 976.69C697.113 977.61 697.273 978.62 697.273 979.72V980.86H685.813V981.58C685.813 982.26 685.923 982.89 686.143 983.47C686.363 984.05 686.673 984.55 687.073 984.97C687.493 985.39 687.993 985.72 688.573 985.96C689.173 986.18 689.833 986.29 690.553 986.29C691.593 986.29 692.493 986.05 693.253 985.57C694.013 985.09 694.593 984.43 694.993 983.59L696.763 984.79C696.303 985.83 695.533 986.69 694.453 987.37C693.393 988.03 692.093 988.36 690.553 988.36ZM690.403 974.14C689.743 974.14 689.133 974.26 688.573 974.5C688.013 974.74 687.523 975.07 687.103 975.49C686.703 975.91 686.383 976.41 686.143 976.99C685.923 977.55 685.813 978.17 685.813 978.85V979.06H694.693V978.73C694.693 978.05 694.583 977.43 694.363 976.87C694.163 976.31 693.873 975.83 693.493 975.43C693.133 975.01 692.683 974.69 692.143 974.47C691.623 974.25 691.043 974.14 690.403 974.14ZM701.101 985.96H706.321V974.56H700.801V972.52H706.321V969.34C706.321 968.3 706.591 967.45 707.131 966.79C707.691 966.13 708.561 965.8 709.741 965.8H714.931V967.84H708.721V972.52H714.931V974.56H708.721V985.96H714.241V988H701.101V985.96ZM724.94 988.27C724.12 988.27 723.54 988.1 723.2 987.76C722.88 987.42 722.72 986.99 722.72 986.47V985.93C722.72 985.41 722.88 984.98 723.2 984.64C723.54 984.3 724.12 984.13 724.94 984.13C725.76 984.13 726.33 984.3 726.65 984.64C726.99 984.98 727.16 985.41 727.16 985.93V986.47C727.16 986.99 726.99 987.42 726.65 987.76C726.33 988.1 725.76 988.27 724.94 988.27Z" fill="#101415"/>
<path d="M520 1036.48C518.187 1036.48 516.614 1036.16 515.28 1035.52C513.947 1034.85 512.84 1033.91 511.96 1032.68C511.107 1031.45 510.467 1029.95 510.04 1028.16C509.64 1026.37 509.44 1024.33 509.44 1022.04C509.44 1019.77 509.64 1017.75 510.04 1015.96C510.467 1014.15 511.107 1012.63 511.96 1011.4C512.84 1010.17 513.947 1009.24 515.28 1008.6C516.614 1007.93 518.187 1007.6 520 1007.6C523.627 1007.6 526.294 1008.87 528 1011.4C529.707 1013.93 530.56 1017.48 530.56 1022.04C530.56 1026.6 529.707 1030.15 528 1032.68C526.294 1035.21 523.627 1036.48 520 1036.48ZM520 1032.28C521.92 1032.28 523.267 1031.6 524.04 1030.24C524.84 1028.85 525.24 1026.95 525.24 1024.52V1019.56C525.24 1017.13 524.84 1015.24 524.04 1013.88C523.267 1012.49 521.92 1011.8 520 1011.8C518.08 1011.8 516.72 1012.49 515.92 1013.88C515.147 1015.24 514.76 1017.13 514.76 1019.56V1024.52C514.76 1026.95 515.147 1028.85 515.92 1030.24C516.72 1031.6 518.08 1032.28 520 1032.28ZM520 1024.4C519.067 1024.4 518.414 1024.21 518.04 1023.84C517.694 1023.47 517.52 1023.01 517.52 1022.48V1021.6C517.52 1021.07 517.694 1020.61 518.04 1020.24C518.414 1019.87 519.067 1019.68 520 1019.68C520.934 1019.68 521.574 1019.87 521.92 1020.24C522.294 1020.61 522.48 1021.07 522.48 1021.6V1022.48C522.48 1023.01 522.294 1023.47 521.92 1023.84C521.574 1024.21 520.934 1024.4 520 1024.4ZM551.825 1012.64L539.025 1012.64L538.345 1022H538.665C538.985 1021.41 539.331 1020.88 539.705 1020.4C540.078 1019.89 540.505 1019.47 540.985 1019.12C541.491 1018.77 542.051 1018.51 542.665 1018.32C543.305 1018.13 544.038 1018.04 544.865 1018.04C546.038 1018.04 547.145 1018.24 548.185 1018.64C549.225 1019.04 550.131 1019.61 550.905 1020.36C551.678 1021.11 552.278 1022.03 552.705 1023.12C553.158 1024.21 553.385 1025.45 553.385 1026.84C553.385 1028.23 553.145 1029.51 552.665 1030.68C552.211 1031.85 551.531 1032.88 550.625 1033.76C549.745 1034.61 548.651 1035.28 547.345 1035.76C546.065 1036.24 544.585 1036.48 542.905 1036.48C541.598 1036.48 540.425 1036.33 539.385 1036.04C538.371 1035.77 537.478 1035.4 536.705 1034.92C535.931 1034.44 535.251 1033.89 534.665 1033.28C534.078 1032.64 533.571 1031.99 533.145 1031.32L536.945 1028.32C537.265 1028.85 537.611 1029.36 537.985 1029.84C538.385 1030.29 538.825 1030.69 539.305 1031.04C539.785 1031.39 540.318 1031.67 540.905 1031.88C541.518 1032.07 542.211 1032.16 542.985 1032.16C544.585 1032.16 545.798 1031.73 546.625 1030.88C547.478 1030 547.905 1028.8 547.905 1027.28V1026.96C547.905 1025.49 547.478 1024.35 546.625 1023.52C545.771 1022.69 544.571 1022.28 543.025 1022.28C541.851 1022.28 540.891 1022.51 540.145 1022.96C539.425 1023.39 538.838 1023.85 538.385 1024.36L534.105 1023.76L535.145 1008.08L551.825 1008.08V1012.64Z" fill="#101415"/>
</svg>
