<svg width="1017" height="1115" viewBox="0 0 1017 1115" fill="none" xmlns="http://www.w3.org/2000/svg">
<path d="M101.92 1.00008L101.92 0.50008L102.42 0.50008L315.5 0.500061L316 0.500061L316 1.00006L316 42.4082C316 58.7007 329.208 71.9083 345.5 71.9083L1015.5 71.9076L1016 71.9076L1016 72.4076L1016 1113.5L1016 1114L1015.5 1114L0.999914 1114L0.499914 1114L0.499914 1113.5L0.499823 72.4077L0.499823 71.9077L0.999823 71.9077L72.4199 71.9081C88.7123 71.9082 101.92 58.7006 101.92 42.4081L101.92 1.00008Z" fill="#FA9542" stroke="#101415"/>
<path d="M125.49 254.33L180.05 254.33L180.05 260.16L125.49 260.16L125.49 254.33ZM127.91 241.57L177.52 241.57V247.62L127.91 247.62V241.57ZM138.69 203.29L171.36 203.29V209.67L138.69 209.67V203.29ZM120.54 266.98L186.1 266.98L186.1 273.03L120.54 273.03L120.54 266.98ZM148.81 233.98H156.84L156.84 282.71H148.81L148.81 233.98ZM169.38 203.29H170.92L172.35 202.96L177.41 205.82C166.41 224.74 141.77 235.74 118.89 240.69C118.23 238.71 116.47 235.96 115.04 234.31C136.49 230.46 160.14 220.12 169.38 204.5V203.29ZM143.64 194.6L151.12 196.69C144.3 207.69 133.19 217.37 122.85 223.53C121.42 222.32 118.23 219.9 116.47 218.8C127.36 213.19 137.81 204.28 143.64 194.6ZM139.35 208.46C149.03 221.44 169.93 229.91 192.92 232.99C191.16 234.64 189.18 237.72 188.19 239.81C164.76 235.85 143.86 226.06 132.75 211.1L139.35 208.46ZM113.39 245.86L113.39 277.98L105.47 277.98L105.47 253.45L90.95 253.45L90.95 245.86L113.39 245.86ZM113.39 273.58C118.78 281.61 128.46 285.46 141.44 286.01C153.54 286.34 178.73 286.12 191.93 285.24C190.94 287.11 189.62 290.96 189.18 293.49C176.97 293.93 153.76 294.15 141.44 293.82C126.92 293.16 116.91 289.31 109.76 280.62C104.81 285.35 99.53 290.08 93.92 294.92L89.63 286.67C94.58 283.15 100.74 278.31 106.02 273.58L113.39 273.58ZM95.79 201.09L101.29 196.03C107.78 199.44 115.59 204.83 119.33 209.01L113.5 214.62C109.98 210.44 102.39 204.72 95.79 201.09ZM91.5 223.53L96.89 218.03C103.6 221.22 111.85 226.28 115.81 230.46L110.2 236.4C106.46 232.22 98.43 226.83 91.5 223.53ZM218.11 217.7L256.06 217.7L256.06 223.31L218.11 223.31L218.11 217.7ZM259.03 217.7L296.87 217.7L296.87 223.31L259.03 223.31L259.03 217.7ZM234.28 211.21H240.55L240.55 239.59H234.28L234.28 211.21ZM252.21 245.64H259.58V268.96H252.21L252.21 245.64ZM273.66 211.21L280.04 211.21L280.04 239.59L273.66 239.59L273.66 211.21ZM230.54 259.94V266.65L281.58 266.65V259.94L230.54 259.94ZM230.54 248.61L230.54 255.32L281.58 255.32V248.61L230.54 248.61ZM223.28 243.33L289.17 243.33L289.17 272.04L223.28 272.04L223.28 243.33ZM266.29 280.18C272.56 279.96 280.26 279.63 288.95 279.19V283.26C280.81 284.03 273.66 284.58 267.06 285.02L266.29 280.18ZM234.17 220.12L238.79 221.99C234.72 228.7 226.8 235.74 219.54 239.26C218.55 237.72 216.68 235.63 215.25 234.42C222.4 231.67 230.1 225.73 234.17 220.12ZM273.44 220.12L278.17 221.99C274.1 228.7 266.18 235.74 259.14 239.26C258.15 237.72 256.28 235.63 254.96 234.42C261.89 231.67 269.48 225.73 273.44 220.12ZM280.81 220.78C284.99 225.95 292.8 231.78 299.29 234.53C297.86 235.74 295.88 237.94 294.78 239.48C288.29 236.07 280.26 228.92 276.08 222.87L280.81 220.78ZM237.25 270.61L245.39 270.61C242.64 283.81 235.49 291.62 216.02 296.13C215.25 294.26 213.05 291.18 211.51 289.75C229.11 286.34 235.05 280.51 237.25 270.61ZM255.84 270.61H263.1L263.1 286.45C263.1 288.98 263.98 289.42 269.37 289.42C271.9 289.42 284.99 289.42 288.29 289.42C292.25 289.42 293.02 288.43 293.35 281.06C295 282.16 297.86 283.04 299.95 283.48C298.96 293.05 296.87 295.36 289.06 295.36C286.86 295.36 271.02 295.36 268.93 295.36C258.48 295.36 255.84 293.71 255.84 286.45L255.84 270.61ZM249.79 236.84L257.71 238.27C255.29 241.68 252.54 244.54 250.56 246.85L244.51 245.09C246.27 242.56 248.58 239.15 249.79 236.84ZM273.44 269.29L279.05 271.05C277.4 275.23 275.97 279.52 274.76 282.49L270.14 281.06C271.35 277.65 272.78 272.59 273.44 269.29ZM281.69 275.01L286.53 273.25C289.61 276.55 292.8 281.28 294.01 284.47L289.06 286.56C287.96 283.15 284.77 278.42 281.69 275.01ZM240.11 223.97C243.08 225.29 253.2 230.35 255.62 231.89L251.55 236.51C248.8 234.2 240 228.81 236.48 226.72L240.11 223.97ZM247.26 194.71H255.73L255.73 207.8H247.26L247.26 194.71ZM210.85 203.4L298.3 203.4L298.3 210.44L210.85 210.44V203.4ZM206.12 203.4L213.82 203.4L213.82 237.83C213.82 254.77 212.39 279.52 203.15 296.13C201.72 294.59 198.53 292.06 196.77 291.18C205.35 275.56 206.12 253.78 206.12 237.83L206.12 203.4ZM347.47 207.8L402.47 207.8V215.06L347.47 215.06V207.8ZM342.74 229.14L407.2 229.14L407.2 236.51L342.74 236.51L342.74 229.14ZM343.29 249.05L405.99 249.05V256.42L343.29 256.42V249.05ZM370.57 194.6L378.71 194.6L378.71 233.65L370.57 233.65L370.57 194.6ZM385.09 235.41H393.12L393.12 286.01C393.12 290.74 392.02 293.16 388.61 294.37C385.2 295.58 379.59 295.69 370.79 295.69C370.46 293.49 369.14 290.19 367.93 287.99C374.75 288.21 380.91 288.21 382.67 288.1C384.54 287.99 385.09 287.55 385.09 285.9L385.09 235.41ZM350 264.12L356.6 260.16C362.32 265.88 368.48 273.69 371.12 279.08L363.97 283.48C361.55 278.09 355.61 269.84 350 264.12ZM313.37 201.86L340.87 201.86L340.87 274.13L313.37 274.13L313.37 266.65L333.17 266.65L333.17 209.34L313.37 209.34L313.37 201.86ZM313.7 233.87L336.8 233.87V241.24L313.7 241.24V233.87ZM309.41 201.86H317.22L317.22 283.15H309.41L309.41 201.86ZM119 420.32C114.16 420.32 109.943 419.44 106.35 417.68C102.83 415.847 99.8967 413.243 97.55 409.87C95.2767 406.497 93.59 402.353 92.49 397.44C91.39 392.527 90.84 386.917 90.84 380.61C90.84 374.377 91.39 368.803 92.49 363.89C93.59 358.903 95.2767 354.723 97.55 351.35C99.8967 347.977 102.83 345.41 106.35 343.65C109.943 341.817 114.16 340.9 119 340.9C123.84 340.9 128.02 341.817 131.54 343.65C135.133 345.41 138.067 347.977 140.34 351.35C142.687 354.723 144.41 358.903 145.51 363.89C146.61 368.803 147.16 374.377 147.16 380.61C147.16 386.917 146.61 392.527 145.51 397.44C144.41 402.353 142.687 406.497 140.34 409.87C138.067 413.243 135.133 415.847 131.54 417.68C128.02 419.44 123.84 420.32 119 420.32ZM119 410.09C124.5 410.09 128.387 408.037 130.66 403.93C132.933 399.75 134.07 394.103 134.07 386.99V374.12C134.07 367.08 132.933 361.507 130.66 357.4C128.387 353.22 124.5 351.13 119 351.13C113.5 351.13 109.613 353.22 107.34 357.4C105.067 361.507 103.93 367.08 103.93 374.12L103.93 387.1C103.93 394.14 105.067 399.75 107.34 403.93C109.613 408.037 113.5 410.09 119 410.09ZM103.05 322.2L134.95 322.2L134.95 331.22L103.05 331.22L103.05 322.2ZM154.377 419L154.377 362.24H164.607L164.607 369.61H165.157C166.037 367.19 167.284 365.137 168.897 363.45C170.584 361.763 172.967 360.92 176.047 360.92C179.054 360.92 181.364 361.763 182.977 363.45C184.664 365.063 185.727 367.3 186.167 370.16H186.607C187.634 367.593 189.064 365.43 190.897 363.67C192.73 361.837 195.37 360.92 198.817 360.92C203.217 360.92 206.26 362.46 207.947 365.54C209.707 368.62 210.587 373.13 210.587 379.07L210.587 419H200.357L200.357 380.61C200.357 376.65 199.88 373.937 198.927 372.47C197.974 370.93 196.434 370.16 194.307 370.16C192.4 370.16 190.787 370.82 189.467 372.14C188.22 373.387 187.597 375.293 187.597 377.86L187.597 419H177.367L177.367 380.61C177.367 376.65 176.89 373.937 175.937 372.47C175.057 370.93 173.554 370.16 171.427 370.16C169.447 370.16 167.797 370.82 166.477 372.14C165.23 373.387 164.607 375.293 164.607 377.86L164.607 419H154.377ZM267.194 419C263.747 419 261.144 418.12 259.384 416.36C257.697 414.6 256.671 412.29 256.304 409.43H255.754C254.654 412.877 252.637 415.553 249.704 417.46C246.844 419.367 243.177 420.32 238.704 420.32C232.911 420.32 228.291 418.817 224.844 415.81C221.397 412.73 219.674 408.513 219.674 403.16C219.674 397.66 221.691 393.48 225.724 390.62C229.831 387.687 236.101 386.22 244.534 386.22H255.424V381.82C255.424 374.12 251.354 370.27 243.214 370.27C239.547 370.27 236.577 371.003 234.304 372.47C232.031 373.863 230.124 375.733 228.584 378.08L221.434 372.25C223.047 369.17 225.761 366.53 229.574 364.33C233.387 362.057 238.301 360.92 244.314 360.92C251.501 360.92 257.147 362.643 261.254 366.09C265.361 369.537 267.414 374.523 267.414 381.05L267.414 409.54H274.564V419H267.194ZM242.114 411.52C246.001 411.52 249.191 410.64 251.684 408.88C254.177 407.12 255.424 404.847 255.424 402.06V393.81H244.754C236.101 393.81 231.774 396.413 231.774 401.62L231.774 403.82C231.774 406.387 232.691 408.33 234.524 409.65C236.357 410.897 238.887 411.52 242.114 411.52ZM339.311 425.16C339.311 431.027 336.854 435.353 331.941 438.14C327.028 440.927 319.548 442.32 309.501 442.32C304.588 442.32 300.444 441.99 297.071 441.33C293.771 440.743 291.058 439.863 288.931 438.69C286.878 437.517 285.374 436.087 284.421 434.4C283.541 432.713 283.101 430.807 283.101 428.68C283.101 425.6 283.944 423.18 285.631 421.42C287.391 419.733 289.848 418.487 293.001 417.68V416.58C291.094 415.847 289.554 414.82 288.381 413.5C287.281 412.18 286.731 410.457 286.731 408.33C286.731 405.543 287.684 403.453 289.591 402.06C291.498 400.593 293.954 399.493 296.961 398.76V398.21C293.514 396.597 290.838 394.323 288.931 391.39C287.024 388.457 286.071 384.937 286.071 380.83C286.071 377.823 286.621 375.11 287.721 372.69C288.821 370.197 290.361 368.107 292.341 366.42C294.394 364.66 296.814 363.303 299.601 362.35C302.461 361.397 305.651 360.92 309.171 360.92C313.131 360.92 316.688 361.543 319.841 362.79V360.92C319.841 358.72 320.464 356.887 321.711 355.42C322.958 353.953 324.864 353.22 327.431 353.22H337.771L337.771 362.68L324.571 362.68V365.32C327.064 367.007 328.971 369.17 330.291 371.81C331.611 374.377 332.271 377.383 332.271 380.83C332.271 383.837 331.721 386.587 330.621 389.08C329.521 391.5 327.944 393.59 325.891 395.35C323.911 397.037 321.491 398.357 318.631 399.31C315.844 400.19 312.691 400.63 309.171 400.63C306.678 400.63 304.331 400.41 302.131 399.97C300.811 400.337 299.491 400.96 298.171 401.84C296.851 402.72 296.191 403.93 296.191 405.47C296.191 407.23 297.034 408.33 298.721 408.77C300.408 409.21 302.498 409.43 304.991 409.43L317.751 409.43C325.378 409.43 330.878 410.897 334.251 413.83C337.624 416.69 339.311 420.467 339.311 425.16ZM328.091 425.93C328.091 424.023 327.321 422.483 325.781 421.31C324.241 420.21 321.454 419.66 317.421 419.66L297.731 419.66C294.944 420.98 293.551 423.107 293.551 426.04C293.551 428.167 294.431 430 296.191 431.54C298.024 433.08 301.031 433.85 305.211 433.85L314.121 433.85C318.668 433.85 322.114 433.153 324.461 431.76C326.881 430.44 328.091 428.497 328.091 425.93ZM309.171 392.38C313.058 392.38 315.918 391.463 317.751 389.63C319.584 387.797 320.501 385.34 320.501 382.26V379.29C320.501 376.21 319.584 373.753 317.751 371.92C315.918 370.087 313.058 369.17 309.171 369.17C305.284 369.17 302.424 370.087 300.591 371.92C298.758 373.753 297.841 376.21 297.841 379.29V382.26C297.841 385.34 298.758 387.797 300.591 389.63C302.424 391.463 305.284 392.38 309.171 392.38ZM394.268 419C390.821 419 388.218 418.12 386.458 416.36C384.771 414.6 383.745 412.29 383.378 409.43H382.828C381.728 412.877 379.711 415.553 376.778 417.46C373.918 419.367 370.251 420.32 365.778 420.32C359.985 420.32 355.365 418.817 351.918 415.81C348.471 412.73 346.748 408.513 346.748 403.16C346.748 397.66 348.765 393.48 352.798 390.62C356.905 387.687 363.175 386.22 371.608 386.22L382.498 386.22V381.82C382.498 374.12 378.428 370.27 370.288 370.27C366.621 370.27 363.651 371.003 361.378 372.47C359.105 373.863 357.198 375.733 355.658 378.08L348.508 372.25C350.121 369.17 352.835 366.53 356.648 364.33C360.461 362.057 365.375 360.92 371.388 360.92C378.575 360.92 384.221 362.643 388.328 366.09C392.435 369.537 394.488 374.523 394.488 381.05L394.488 409.54H401.638V419H394.268ZM369.188 411.52C373.075 411.52 376.265 410.64 378.758 408.88C381.251 407.12 382.498 404.847 382.498 402.06L382.498 393.81L371.828 393.81C363.175 393.81 358.848 396.413 358.848 401.62V403.82C358.848 406.387 359.765 408.33 361.598 409.65C363.431 410.897 365.961 411.52 369.188 411.52ZM440.095 419C435.108 419 431.442 417.68 429.095 415.04C426.748 412.327 425.575 408.843 425.575 404.59L425.575 371.92H408.085L408.085 362.24H420.515C422.642 362.24 424.145 361.837 425.025 361.03C425.905 360.15 426.345 358.61 426.345 356.41V342.22H437.565V362.24L461.765 362.24L461.765 371.92L437.565 371.92L437.565 409.32L461.765 409.32V419L440.095 419ZM500.222 420.32C496.042 420.32 492.266 419.623 488.892 418.23C485.592 416.837 482.769 414.857 480.422 412.29C478.149 409.723 476.389 406.607 475.142 402.94C473.896 399.273 473.272 395.167 473.272 390.62C473.272 386.073 473.896 381.967 475.142 378.3C476.389 374.633 478.149 371.517 480.422 368.95C482.769 366.383 485.592 364.403 488.892 363.01C492.266 361.617 496.042 360.92 500.222 360.92C504.402 360.92 508.142 361.617 511.442 363.01C514.816 364.403 517.639 366.383 519.912 368.95C522.259 371.517 524.056 374.633 525.302 378.3C526.549 381.967 527.172 386.073 527.172 390.62C527.172 395.167 526.549 399.273 525.302 402.94C524.056 406.607 522.259 409.723 519.912 412.29C517.639 414.857 514.816 416.837 511.442 418.23C508.142 419.623 504.402 420.32 500.222 420.32ZM500.222 410.86C504.622 410.86 508.106 409.54 510.672 406.9C513.312 404.187 514.632 400.19 514.632 394.91V386.33C514.632 381.05 513.312 377.09 510.672 374.45C508.106 371.737 504.622 370.38 500.222 370.38C495.822 370.38 492.302 371.737 489.662 374.45C487.096 377.09 485.812 381.05 485.812 386.33V394.91C485.812 400.19 487.096 404.187 489.662 406.9C492.302 409.54 495.822 410.86 500.222 410.86ZM540.439 337.6H552.429L552.429 386.77H552.979L561.889 377.64L577.839 362.24L592.029 362.24L569.039 384.57L594.559 419L580.149 419L560.349 391.39L552.429 398.76V419H540.439L540.439 337.6ZM630.816 351.9C627.736 351.9 625.573 351.277 624.326 350.03C623.153 348.783 622.566 347.243 622.566 345.41V343.1C622.566 341.267 623.153 339.727 624.326 338.48C625.573 337.233 627.7 336.61 630.706 336.61C633.786 336.61 635.913 337.233 637.086 338.48C638.333 339.727 638.956 341.267 638.956 343.1V345.41C638.956 347.243 638.333 348.783 637.086 350.03C635.913 351.277 633.823 351.9 630.816 351.9ZM605.406 409.32H624.766V371.92H605.406V362.24H636.756V409.32L654.906 409.32L654.906 419L605.406 419L605.406 409.32Z" fill="#101415"/>
<path d="M209.016 45.981C207.256 45.981 205.722 45.661 204.416 45.021C203.136 44.3543 202.069 43.4076 201.216 42.181C200.389 40.9543 199.776 39.4476 199.376 37.661C198.976 35.8743 198.776 33.8343 198.776 31.541C198.776 29.2743 198.976 27.2476 199.376 25.461C199.776 23.6476 200.389 22.1276 201.216 20.901C202.069 19.6743 203.136 18.741 204.416 18.101C205.722 17.4343 207.256 17.101 209.016 17.101C210.776 17.101 212.296 17.4343 213.576 18.101C214.882 18.741 215.949 19.6743 216.776 20.901C217.629 22.1276 218.256 23.6476 218.656 25.461C219.056 27.2476 219.256 29.2743 219.256 31.541C219.256 33.8343 219.056 35.8743 218.656 37.661C218.256 39.4476 217.629 40.9543 216.776 42.181C215.949 43.4076 214.882 44.3543 213.576 45.021C212.296 45.661 210.776 45.981 209.016 45.981ZM209.016 42.261C211.016 42.261 212.429 41.5143 213.256 40.021C214.082 38.501 214.496 36.4476 214.496 33.861V29.181C214.496 26.621 214.082 24.5943 213.256 23.101C212.429 21.581 211.016 20.821 209.016 20.821C207.016 20.821 205.602 21.581 204.776 23.101C203.949 24.5943 203.536 26.621 203.536 29.181L203.536 33.901C203.536 36.461 203.949 38.501 204.776 40.021C205.602 41.5143 207.016 42.261 209.016 42.261Z" fill="#101415"/>
<path d="M101.6 542.65C92.2 542.65 87.55 537.35 87.15 530.4H90.5C90.85 536.45 94.95 539.85 101.65 539.85C106.9 539.85 110.8 537.2 110.8 532.35C110.8 527.3 107.45 526.1 99.8 524.55C93.2 523.25 88.55 521.25 88.55 515C88.55 509.3 93.35 505.55 100.5 505.55C108.45 505.55 112.45 509.85 113.1 516H109.85C109.25 510.95 105.65 508.35 100.55 508.35C95.1 508.35 91.8 510.95 91.8 514.9C91.8 519.15 95.1 520.45 101.5 521.65C108.45 523 114.2 524.7 114.2 532.2C114.2 538.55 109.1 542.65 101.6 542.65ZM125.732 542.6C120.732 542.6 117.232 539.6 117.232 534.4L117.232 516.15L120.332 516.15L120.332 534.2C120.332 538.1 122.682 540 126.432 540C130.832 540 133.932 536.7 133.932 532.3L133.932 516.15H136.982L136.982 542H133.932L133.932 538.2H133.832C132.032 540.7 129.832 542.6 125.732 542.6ZM141.087 542L141.087 516.15H144.187L144.187 520.1H144.287C146.037 517.5 148.838 515.6 152.937 515.6C157.738 515.6 161.188 518.45 161.188 523.65V542H158.088V523.95C158.088 520.05 155.837 518.25 152.188 518.25C147.787 518.25 144.187 521.35 144.187 525.6L144.187 542H141.087ZM174.135 542.7C167.235 542.7 163.735 538.95 163.435 533.95H166.585C167.035 538.3 170.035 540.05 174.185 540.05C178.485 540.05 180.735 538.05 180.735 535.05C180.735 532.2 179.135 531.25 173.835 530.05C168.585 528.85 164.385 527.6 164.385 522.6C164.385 518.3 168.085 515.6 173.385 515.6C179.535 515.6 182.385 518.7 182.985 523.25H179.885C179.535 519.9 177.235 518.15 173.385 518.15C169.385 518.15 167.485 520.05 167.485 522.45C167.485 525.4 169.935 526.1 174.885 527.25C180.085 528.35 183.835 529.65 183.835 535C183.835 539.6 180.135 542.7 174.135 542.7ZM197.488 542.65C189.738 542.65 185.438 536.85 185.438 529.1C185.438 521.35 190.088 515.55 197.238 515.55C205.538 515.55 208.388 522.4 208.338 529.65H188.638C188.788 535.45 191.588 540 197.488 540C201.788 540 204.038 537.7 205.038 534.2H208.038C206.938 539.3 203.288 542.65 197.488 542.65ZM188.688 527.2H205.088C204.938 522.1 202.538 518.1 197.238 518.1C191.988 518.1 189.238 522.05 188.688 527.2ZM217.446 542.2C214.496 542.2 212.496 540.85 212.496 537.55V518.7H208.596L208.596 516.15H212.496L212.496 508.2H215.596V516.15H220.396V518.7H215.596L215.596 537.05C215.596 538.9 216.446 539.5 218.096 539.5C218.796 539.5 219.696 539.3 220.146 539.1H220.296V541.75C219.446 542.05 218.546 542.2 217.446 542.2ZM229.877 542L229.877 516.15H232.977L232.977 542H229.877ZM229.877 510.65V506.25H232.977V510.65H229.877ZM246.174 542.7C239.274 542.7 235.774 538.95 235.474 533.95H238.624C239.074 538.3 242.074 540.05 246.224 540.05C250.524 540.05 252.774 538.05 252.774 535.05C252.774 532.2 251.174 531.25 245.874 530.05C240.624 528.85 236.424 527.6 236.424 522.6C236.424 518.3 240.124 515.6 245.424 515.6C251.574 515.6 254.424 518.7 255.024 523.25L251.924 523.25C251.574 519.9 249.274 518.15 245.424 518.15C241.424 518.15 239.524 520.05 239.524 522.45C239.524 525.4 241.974 526.1 246.924 527.25C252.124 528.35 255.874 529.65 255.874 535C255.874 539.6 252.174 542.7 246.174 542.7ZM272.002 542.6C267.202 542.6 263.552 540.2 263.552 535.4C263.552 529.25 268.352 528 274.202 527.3C279.302 526.7 281.152 526.4 281.152 523.8V523.3C281.152 519.8 278.952 518.1 274.952 518.1C270.352 518.1 267.952 520 267.702 523.85H264.652C265.002 518.85 268.302 515.6 274.952 515.6C280.602 515.6 284.102 517.95 284.102 523.6V537.65C284.102 539.2 284.702 539.85 285.802 539.9C286.152 539.9 286.502 539.8 286.952 539.7H287.102V541.95C286.652 542.15 286.002 542.35 285.002 542.35C282.752 542.35 281.352 541.2 281.202 538.7L281.202 538.15H281.052C279.602 540.2 276.952 542.6 272.002 542.6ZM272.552 540.1C278.202 540.1 281.202 536.2 281.202 532.65V528C279.552 528.9 277.002 529.35 274.502 529.7C270.152 530.3 266.802 530.95 266.802 535.4C266.802 539 269.502 540.1 272.552 540.1ZM299.009 542.65C291.459 542.65 287.259 536.8 287.259 529.1C287.259 521.4 291.559 515.55 299.059 515.55C304.759 515.55 308.609 518.65 309.459 523.95H306.359C305.609 520.1 303.059 518.15 299.059 518.15C293.109 518.15 290.459 523.1 290.459 529.1C290.459 535.1 293.159 540 299.009 540C303.409 540 306.159 537.25 306.659 533.1H309.609C309.009 538.95 305.159 542.65 299.009 542.65ZM312.07 542L312.07 506.25H315.17L315.17 528.6L328.02 516.15H331.97L322.07 525.5L333.17 542H329.57L319.92 527.5L315.17 532.05L315.17 542H312.07ZM334.749 542L334.749 516.15H337.849V520.1H337.949C339.699 517.5 342.499 515.6 346.599 515.6C351.399 515.6 354.849 518.45 354.849 523.65V542H351.749V523.95C351.749 520.05 349.499 518.25 345.849 518.25C341.449 518.25 337.849 521.35 337.849 525.6L337.849 542H334.749ZM369.397 540.05C375.147 540.05 378.147 535.15 378.147 529.1C378.147 523.05 375.147 518.15 369.397 518.15C363.597 518.15 360.597 523.05 360.597 529.1C360.597 535.15 363.597 540.05 369.397 540.05ZM369.397 542.65C361.947 542.65 357.397 536.8 357.397 529.1C357.397 521.4 361.947 515.55 369.397 515.55C376.847 515.55 381.297 521.4 381.297 529.1C381.297 536.8 376.847 542.65 369.397 542.65ZM388.979 542L381.279 516.15H384.529L389.029 532.15C389.729 534.7 390.679 538.9 390.679 538.9H390.779C390.779 538.9 391.779 534.75 392.429 532.4L396.829 516.15H400.179L404.429 532.4C405.029 534.75 405.979 538.9 405.979 538.9H406.079C406.079 538.9 407.129 534.65 407.879 532.15L412.679 516.15H415.829L407.679 542H404.279L399.829 525.5C399.179 523.05 398.479 519.65 398.479 519.65H398.379C398.379 519.65 397.679 523.05 397.029 525.5L392.479 542H388.979ZM417.976 542L417.976 506.25H421.076L421.076 542H417.976ZM436.02 542.65C428.27 542.65 423.97 536.85 423.97 529.1C423.97 521.35 428.62 515.55 435.77 515.55C444.07 515.55 446.92 522.4 446.87 529.65H427.17C427.32 535.45 430.12 540 436.02 540C440.32 540 442.57 537.7 443.57 534.2H446.57C445.47 539.3 441.82 542.65 436.02 542.65ZM427.22 527.2H443.62C443.47 522.1 441.07 518.1 435.77 518.1C430.52 518.1 427.77 522.05 427.22 527.2ZM459.411 542.7C452.461 542.7 448.261 537.1 448.261 529.15C448.261 520.55 453.161 515.6 459.311 515.6C463.261 515.6 466.161 517.45 467.811 520.45H467.911L467.911 506.25H471.011L471.011 542H467.911V538.15H467.811C465.911 541.1 463.311 542.7 459.411 542.7ZM459.511 540.1C465.161 540.1 468.161 535.65 468.161 529.2C468.161 522.85 465.111 518.2 459.511 518.2C454.411 518.2 451.461 522.75 451.461 529.2C451.461 535.25 454.061 540.1 459.511 540.1ZM485.222 551.05C478.872 551.05 475.322 548.15 474.872 544.3H477.872C478.422 547.3 481.372 548.5 485.122 548.5C490.622 548.5 493.222 545.65 493.222 541.1V537H493.072C491.172 539.9 488.772 541.5 484.872 541.5C478.072 541.5 473.772 536.2 473.772 528.6C473.772 520.2 478.872 515.6 484.872 515.6C488.872 515.6 491.372 517.35 493.072 520.15H493.222V516.15H496.272V541C496.272 543.9 495.422 546.25 493.872 547.95C491.922 550 489.072 551.05 485.222 551.05ZM485.022 538.9C490.772 538.9 493.422 534.75 493.422 528.55C493.422 522.45 490.722 518.2 485.072 518.2C479.972 518.2 476.972 522.35 476.972 528.65C476.972 534.55 479.572 538.9 485.022 538.9ZM511.089 542.65C503.339 542.65 499.039 536.85 499.039 529.1C499.039 521.35 503.689 515.55 510.839 515.55C519.139 515.55 521.989 522.4 521.939 529.65L502.239 529.65C502.389 535.45 505.189 540 511.089 540C515.389 540 517.639 537.7 518.639 534.2L521.639 534.2C520.539 539.3 516.889 542.65 511.089 542.65ZM502.289 527.2L518.689 527.2C518.539 522.1 516.139 518.1 510.839 518.1C505.589 518.1 502.839 522.05 502.289 527.2ZM534.48 542.7C527.53 542.7 523.33 537.1 523.33 529.15C523.33 520.55 528.23 515.6 534.38 515.6C538.33 515.6 541.23 517.45 542.88 520.45H542.98V506.25H546.08V542H542.98V538.15H542.88C540.98 541.1 538.38 542.7 534.48 542.7ZM534.58 540.1C540.23 540.1 543.23 535.65 543.23 529.2C543.23 522.85 540.18 518.2 534.58 518.2C529.48 518.2 526.53 522.75 526.53 529.2C526.53 535.25 529.13 540.1 534.58 540.1ZM563.611 542.6C558.811 542.6 555.161 540.2 555.161 535.4C555.161 529.25 559.961 528 565.811 527.3C570.911 526.7 572.761 526.4 572.761 523.8V523.3C572.761 519.8 570.561 518.1 566.561 518.1C561.961 518.1 559.561 520 559.311 523.85H556.261C556.611 518.85 559.911 515.6 566.561 515.6C572.211 515.6 575.711 517.95 575.711 523.6V537.65C575.711 539.2 576.311 539.85 577.411 539.9C577.761 539.9 578.111 539.8 578.561 539.7H578.711V541.95C578.261 542.15 577.611 542.35 576.611 542.35C574.361 542.35 572.961 541.2 572.811 538.7V538.15H572.661C571.211 540.2 568.561 542.6 563.611 542.6ZM564.161 540.1C569.811 540.1 572.811 536.2 572.811 532.65V528C571.161 528.9 568.611 529.35 566.111 529.7C561.761 530.3 558.411 530.95 558.411 535.4C558.411 539 561.111 540.1 564.161 540.1ZM589.268 542.7C582.368 542.7 578.868 538.95 578.568 533.95L581.718 533.95C582.168 538.3 585.168 540.05 589.318 540.05C593.618 540.05 595.868 538.05 595.868 535.05C595.868 532.2 594.268 531.25 588.968 530.05C583.718 528.85 579.518 527.6 579.518 522.6C579.518 518.3 583.218 515.6 588.518 515.6C594.668 515.6 597.518 518.7 598.118 523.25H595.018C594.668 519.9 592.368 518.15 588.518 518.15C584.518 518.15 582.618 520.05 582.618 522.45C582.618 525.4 585.068 526.1 590.018 527.25C595.218 528.35 598.968 529.65 598.968 535C598.968 539.6 595.268 542.7 589.268 542.7ZM615.196 542.2C612.246 542.2 610.246 540.85 610.246 537.55L610.246 518.7H606.346V516.15H610.246V508.2H613.346V516.15H618.146V518.7H613.346L613.346 537.05C613.346 538.9 614.196 539.5 615.846 539.5C616.546 539.5 617.446 539.3 617.896 539.1H618.046V541.75C617.196 542.05 616.296 542.2 615.196 542.2ZM621.257 542L621.257 506.25H624.357V520.1H624.457C626.207 517.5 629.007 515.6 633.107 515.6C637.907 515.6 641.357 518.45 641.357 523.65L641.357 542H638.257L638.257 523.95C638.257 520.05 636.007 518.25 632.357 518.25C627.957 518.25 624.357 521.35 624.357 525.6L624.357 542H621.257ZM655.951 542.65C648.201 542.65 643.901 536.85 643.901 529.1C643.901 521.35 648.551 515.55 655.701 515.55C664.001 515.55 666.851 522.4 666.801 529.65L647.101 529.65C647.251 535.45 650.051 540 655.951 540C660.251 540 662.501 537.7 663.501 534.2H666.501C665.401 539.3 661.751 542.65 655.951 542.65ZM647.151 527.2L663.551 527.2C663.401 522.1 661.001 518.1 655.701 518.1C650.451 518.1 647.701 522.05 647.151 527.2ZM676.111 542L676.111 506.25H679.211V520.1H679.311C681.061 517.5 683.861 515.6 687.961 515.6C692.761 515.6 696.211 518.45 696.211 523.65L696.211 542H693.111L693.111 523.95C693.111 520.05 690.861 518.25 687.211 518.25C682.811 518.25 679.211 521.35 679.211 525.6L679.211 542H676.111ZM710.755 540.05C716.505 540.05 719.505 535.15 719.505 529.1C719.505 523.05 716.505 518.15 710.755 518.15C704.955 518.15 701.955 523.05 701.955 529.1C701.955 535.15 704.955 540.05 710.755 540.05ZM710.755 542.65C703.305 542.65 698.755 536.8 698.755 529.1C698.755 521.4 703.305 515.55 710.755 515.55C718.205 515.55 722.655 521.4 722.655 529.1C722.655 536.8 718.205 542.65 710.755 542.65ZM733.77 542.6C728.77 542.6 725.27 539.6 725.27 534.4L725.27 516.15H728.37L728.37 534.2C728.37 538.1 730.72 540 734.47 540C738.87 540 741.97 536.7 741.97 532.3L741.97 516.15H745.02L745.02 542H741.97V538.2H741.87C740.07 540.7 737.87 542.6 733.77 542.6ZM749.126 542L749.126 516.15H752.226V520.95H752.326C753.926 517.95 756.626 515.95 760.226 515.95C760.626 515.95 760.876 516 761.076 516.05V519.1C759.226 518.8 757.176 519.2 755.576 520.35C753.576 521.85 752.226 524.25 752.226 527.3L752.226 542H749.126ZM780.477 540.05C786.227 540.05 789.227 535.15 789.227 529.1C789.227 523.05 786.227 518.15 780.477 518.15C774.677 518.15 771.677 523.05 771.677 529.1C771.677 535.15 774.677 540.05 780.477 540.05ZM780.477 542.65C773.027 542.65 768.477 536.8 768.477 529.1C768.477 521.4 773.027 515.55 780.477 515.55C787.927 515.55 792.377 521.4 792.377 529.1C792.377 536.8 787.927 542.65 780.477 542.65ZM796.409 542L796.409 518.7H792.659V516.15H796.409V511.55C796.409 507.7 798.509 506 802.459 506C802.809 506 804.009 506.05 804.209 506.05V508.7H802.859C800.259 508.7 799.459 509.7 799.459 511.65V516.15H804.259V518.7H799.459L799.459 542H796.409ZM88.6 597L88.6 571.15H91.7V575.05H91.8C93.45 572.45 95.95 570.6 99.65 570.6C102.8 570.6 105.5 572.2 106.55 575.3H106.65C108.35 572.35 111.3 570.6 114.95 570.6C119.35 570.6 122.75 573.45 122.75 578.65L122.75 597H119.7L119.7 578.9C119.7 575.05 117.4 573.25 114.25 573.25C110.45 573.25 107.25 575.95 107.25 580.55L107.25 597H104.15L104.15 578.9C104.15 575.05 101.95 573.25 98.95 573.25C95.25 573.25 91.7 576.35 91.7 580.55L91.7 597H88.6ZM137.409 597.65C129.659 597.65 125.359 591.85 125.359 584.1C125.359 576.35 130.009 570.55 137.159 570.55C145.459 570.55 148.309 577.4 148.259 584.65H128.559C128.709 590.45 131.509 595 137.409 595C141.709 595 143.959 592.7 144.959 589.2H147.959C146.859 594.3 143.209 597.65 137.409 597.65ZM128.609 582.2H145.009C144.859 577.1 142.459 573.1 137.159 573.1C131.909 573.1 129.159 577.05 128.609 582.2ZM161.7 597.65C153.95 597.65 149.65 591.85 149.65 584.1C149.65 576.35 154.3 570.55 161.45 570.55C169.75 570.55 172.6 577.4 172.55 584.65H152.85C153 590.45 155.8 595 161.7 595C166 595 168.25 592.7 169.25 589.2H172.25C171.15 594.3 167.5 597.65 161.7 597.65ZM152.9 582.2H169.3C169.15 577.1 166.75 573.1 161.45 573.1C156.2 573.1 153.45 577.05 152.9 582.2ZM181.658 597.2C178.708 597.2 176.708 595.85 176.708 592.55L176.708 573.7H172.808V571.15H176.708V563.2H179.808V571.15L184.608 571.15V573.7L179.808 573.7L179.808 592.05C179.808 593.9 180.658 594.5 182.308 594.5C183.008 594.5 183.908 594.3 184.358 594.1H184.508V596.75C183.658 597.05 182.758 597.2 181.658 597.2ZM187.669 597L187.669 571.15H190.769L190.769 597H187.669ZM187.669 565.65V561.25H190.769V565.65H187.669ZM194.916 597L194.916 571.15H198.016V575.1H198.116C199.866 572.5 202.666 570.6 206.766 570.6C211.566 570.6 215.016 573.45 215.016 578.65L215.016 597H211.916L211.916 578.95C211.916 575.05 209.666 573.25 206.016 573.25C201.616 573.25 198.016 576.35 198.016 580.6L198.016 597H194.916ZM229.014 606.05C222.664 606.05 219.114 603.15 218.664 599.3H221.664C222.214 602.3 225.164 603.5 228.914 603.5C234.414 603.5 237.014 600.65 237.014 596.1V592H236.864C234.964 594.9 232.564 596.5 228.664 596.5C221.864 596.5 217.564 591.2 217.564 583.6C217.564 575.2 222.664 570.6 228.664 570.6C232.664 570.6 235.164 572.35 236.864 575.15H237.014L237.014 571.15H240.064L240.064 596C240.064 598.9 239.214 601.25 237.664 602.95C235.714 605 232.864 606.05 229.014 606.05ZM228.814 593.9C234.564 593.9 237.214 589.75 237.214 583.55C237.214 577.45 234.514 573.2 228.864 573.2C223.764 573.2 220.764 577.35 220.764 583.65C220.764 589.55 223.364 593.9 228.814 593.9ZM261.301 597.65C253.551 597.65 249.251 591.85 249.251 584.1C249.251 576.35 253.901 570.55 261.051 570.55C269.351 570.55 272.201 577.4 272.151 584.65L252.451 584.65C252.601 590.45 255.401 595 261.301 595C265.601 595 267.851 592.7 268.851 589.2H271.851C270.751 594.3 267.101 597.65 261.301 597.65ZM252.501 582.2L268.901 582.2C268.751 577.1 266.351 573.1 261.051 573.1C255.801 573.1 253.051 577.05 252.501 582.2ZM281.009 597L271.859 571.15H275.159L280.709 587.55C281.559 590.05 282.809 594.1 282.809 594.1H282.909C282.909 594.1 284.209 590.05 285.059 587.55L290.859 571.15H294.009L284.659 597H281.009ZM295.962 597L295.962 571.15H299.062L299.062 597H295.962ZM295.962 565.65V561.25H299.062V565.65H295.962ZM303.359 597L303.359 561.25H306.459L306.459 597H303.359ZM326.172 597.7C319.272 597.7 315.772 593.95 315.472 588.95H318.622C319.072 593.3 322.072 595.05 326.222 595.05C330.522 595.05 332.772 593.05 332.772 590.05C332.772 587.2 331.172 586.25 325.872 585.05C320.622 583.85 316.422 582.6 316.422 577.6C316.422 573.3 320.122 570.6 325.422 570.6C331.572 570.6 334.422 573.7 335.022 578.25H331.922C331.572 574.9 329.272 573.15 325.422 573.15C321.422 573.15 319.522 575.05 319.522 577.45C319.522 580.4 321.972 581.1 326.922 582.25C332.122 583.35 335.872 584.65 335.872 590C335.872 594.6 332.172 597.7 326.172 597.7ZM338.581 605.3L338.581 571.15H341.681V575.6H341.781C343.581 572.55 346.431 570.6 350.531 570.6C356.731 570.6 361.231 575.5 361.231 584.1C361.231 592.05 357.131 597.65 350.331 597.65C346.381 597.65 343.731 596.1 341.781 593.25H341.681L341.681 605.3H338.581ZM350.181 595.05C355.481 595.05 358.081 590.15 358.081 584.15C358.081 577.7 355.281 573.2 350.131 573.2C344.431 573.2 341.431 578.05 341.431 584.2C341.431 590.55 344.281 595.05 350.181 595.05ZM364.095 597L364.095 571.15H367.195L367.195 597H364.095ZM364.095 565.65V561.25H367.195V565.65H364.095ZM371.342 597L371.342 571.15H374.442V575.95H374.542C376.142 572.95 378.842 570.95 382.442 570.95C382.842 570.95 383.092 571 383.292 571.05V574.1C381.442 573.8 379.392 574.2 377.792 575.35C375.792 576.85 374.442 579.25 374.442 582.3V597H371.342ZM385.723 597L385.723 571.15L388.823 571.15L388.823 597L385.723 597ZM385.723 565.65V561.25L388.823 561.25V565.65L385.723 565.65ZM400.07 597.2C397.12 597.2 395.12 595.85 395.12 592.55L395.12 573.7H391.22V571.15H395.12V563.2H398.22V571.15H403.02V573.7H398.22L398.22 592.05C398.22 593.9 399.07 594.5 400.72 594.5C401.42 594.5 402.32 594.3 402.77 594.1H402.92V596.75C402.07 597.05 401.17 597.2 400.07 597.2ZM414.787 597.7C407.887 597.7 404.387 593.95 404.087 588.95H407.237C407.687 593.3 410.687 595.05 414.837 595.05C419.137 595.05 421.387 593.05 421.387 590.05C421.387 587.2 419.787 586.25 414.487 585.05C409.237 583.85 405.037 582.6 405.037 577.6C405.037 573.3 408.737 570.6 414.037 570.6C420.187 570.6 423.037 573.7 423.637 578.25H420.537C420.187 574.9 417.887 573.15 414.037 573.15C410.037 573.15 408.137 575.05 408.137 577.45C408.137 580.4 410.587 581.1 415.537 582.25C420.737 583.35 424.487 584.65 424.487 590C424.487 594.6 420.787 597.7 414.787 597.7Z" fill="#101415"/>
<path d="M202.62 1036V1020.52H204.84V1022.32H204.96C205.2 1021.72 205.54 1021.21 205.98 1020.79C206.42 1020.37 207.07 1020.16 207.93 1020.16C208.83 1020.16 209.5 1020.39 209.94 1020.85C210.38 1021.29 210.65 1021.87 210.75 1022.59H210.84C211.12 1021.89 211.52 1021.31 212.04 1020.85C212.56 1020.39 213.28 1020.16 214.2 1020.16C215.46 1020.16 216.3 1020.6 216.72 1021.48C217.16 1022.36 217.38 1023.62 217.38 1025.26V1036H215.16V1025.65C215.16 1024.33 215.02 1023.42 214.74 1022.92C214.48 1022.4 213.99 1022.14 213.27 1022.14C212.63 1022.14 212.11 1022.35 211.71 1022.77C211.31 1023.17 211.11 1023.79 211.11 1024.63V1036H208.89V1025.65C208.89 1024.33 208.75 1023.42 208.47 1022.92C208.21 1022.4 207.73 1022.14 207.03 1022.14C206.39 1022.14 205.86 1022.35 205.44 1022.77C205.04 1023.17 204.84 1023.79 204.84 1024.63V1036H202.62ZM227.328 1036.36C226.248 1036.36 225.268 1036.17 224.388 1035.79C223.528 1035.41 222.788 1034.87 222.168 1034.17C221.568 1033.45 221.108 1032.6 220.788 1031.62C220.468 1030.62 220.308 1029.5 220.308 1028.26C220.308 1027.04 220.468 1025.93 220.788 1024.93C221.108 1023.93 221.568 1023.08 222.168 1022.38C222.788 1021.66 223.528 1021.11 224.388 1020.73C225.268 1020.35 226.248 1020.16 227.328 1020.16C228.408 1020.16 229.378 1020.35 230.238 1020.73C231.118 1021.11 231.858 1021.66 232.458 1022.38C233.078 1023.08 233.548 1023.93 233.868 1024.93C234.188 1025.93 234.348 1027.04 234.348 1028.26C234.348 1029.5 234.188 1030.62 233.868 1031.62C233.548 1032.6 233.078 1033.45 232.458 1034.17C231.858 1034.87 231.118 1035.41 230.238 1035.79C229.378 1036.17 228.408 1036.36 227.328 1036.36ZM227.328 1034.29C228.668 1034.29 229.748 1033.89 230.568 1033.09C231.388 1032.29 231.798 1031.05 231.798 1029.37V1027.15C231.798 1025.47 231.388 1024.23 230.568 1023.43C229.748 1022.63 228.668 1022.23 227.328 1022.23C225.988 1022.23 224.908 1022.63 224.088 1023.43C223.268 1024.23 222.858 1025.47 222.858 1027.15V1029.37C222.858 1031.05 223.268 1032.29 224.088 1033.09C224.908 1033.89 225.988 1034.29 227.328 1034.29ZM243.127 1036L237.577 1020.52H240.007L242.227 1027L244.627 1033.99H244.747L247.147 1027L249.367 1020.52H251.737L246.187 1036H243.127ZM262.945 1017.1C262.245 1017.1 261.755 1016.96 261.475 1016.68C261.195 1016.38 261.055 1016.01 261.055 1015.57V1015.09C261.055 1014.65 261.195 1014.29 261.475 1014.01C261.755 1013.71 262.245 1013.56 262.945 1013.56C263.645 1013.56 264.135 1013.71 264.415 1014.01C264.695 1014.29 264.835 1014.65 264.835 1015.09V1015.57C264.835 1016.01 264.695 1016.38 264.415 1016.68C264.135 1016.96 263.645 1017.1 262.945 1017.1ZM256.165 1033.96H261.745V1022.56H256.165V1020.52H264.145V1033.96H269.365V1036H256.165V1033.96ZM279.583 1036.36C278.463 1036.36 277.453 1036.17 276.553 1035.79C275.673 1035.41 274.913 1034.87 274.273 1034.17C273.653 1033.45 273.173 1032.6 272.833 1031.62C272.493 1030.62 272.323 1029.51 272.323 1028.29C272.323 1027.05 272.493 1025.93 272.833 1024.93C273.193 1023.93 273.683 1023.08 274.303 1022.38C274.923 1021.66 275.663 1021.11 276.523 1020.73C277.403 1020.35 278.373 1020.16 279.433 1020.16C280.473 1020.16 281.413 1020.35 282.253 1020.73C283.113 1021.11 283.843 1021.64 284.443 1022.32C285.043 1022.98 285.503 1023.77 285.823 1024.69C286.143 1025.61 286.303 1026.62 286.303 1027.72V1028.86H274.843V1029.58C274.843 1030.26 274.953 1030.89 275.173 1031.47C275.393 1032.05 275.703 1032.55 276.103 1032.97C276.523 1033.39 277.023 1033.72 277.603 1033.96C278.203 1034.18 278.863 1034.29 279.583 1034.29C280.623 1034.29 281.523 1034.05 282.283 1033.57C283.043 1033.09 283.623 1032.43 284.023 1031.59L285.793 1032.79C285.333 1033.83 284.563 1034.69 283.483 1035.37C282.423 1036.03 281.123 1036.36 279.583 1036.36ZM279.433 1022.14C278.773 1022.14 278.163 1022.26 277.603 1022.5C277.043 1022.74 276.553 1023.07 276.133 1023.49C275.733 1023.91 275.413 1024.41 275.173 1024.99C274.953 1025.55 274.843 1026.17 274.843 1026.85V1027.06H283.723V1026.73C283.723 1026.05 283.613 1025.43 283.393 1024.87C283.193 1024.31 282.903 1023.83 282.523 1023.43C282.163 1023.01 281.713 1022.69 281.173 1022.47C280.653 1022.25 280.073 1022.14 279.433 1022.14ZM296.821 1036.36C295.201 1036.36 293.801 1036.09 292.621 1035.55C291.461 1034.99 290.471 1034.25 289.651 1033.33L291.271 1031.92C292.011 1032.7 292.821 1033.3 293.701 1033.72C294.581 1034.14 295.641 1034.35 296.881 1034.35C298.081 1034.35 299.061 1034.14 299.821 1033.72C300.601 1033.28 300.991 1032.6 300.991 1031.68C300.991 1031.28 300.911 1030.95 300.751 1030.69C300.611 1030.41 300.411 1030.19 300.151 1030.03C299.891 1029.87 299.601 1029.75 299.281 1029.67C298.961 1029.57 298.621 1029.49 298.261 1029.43L295.831 1029.07C295.291 1028.99 294.701 1028.88 294.061 1028.74C293.441 1028.6 292.871 1028.38 292.351 1028.08C291.831 1027.76 291.391 1027.34 291.031 1026.82C290.691 1026.3 290.521 1025.62 290.521 1024.78C290.521 1024 290.671 1023.33 290.971 1022.77C291.291 1022.19 291.731 1021.71 292.291 1021.33C292.851 1020.93 293.511 1020.64 294.271 1020.46C295.031 1020.26 295.861 1020.16 296.761 1020.16C298.161 1020.16 299.371 1020.38 300.391 1020.82C301.431 1021.26 302.321 1021.87 303.061 1022.65L301.501 1024.12C301.321 1023.9 301.091 1023.68 300.811 1023.46C300.551 1023.22 300.221 1023.01 299.821 1022.83C299.441 1022.63 298.991 1022.47 298.471 1022.35C297.951 1022.23 297.351 1022.17 296.671 1022.17C295.451 1022.17 294.511 1022.38 293.851 1022.8C293.211 1023.22 292.891 1023.83 292.891 1024.63C292.891 1025.03 292.961 1025.37 293.101 1025.65C293.261 1025.91 293.471 1026.12 293.731 1026.28C293.991 1026.44 294.281 1026.57 294.601 1026.67C294.941 1026.75 295.281 1026.82 295.621 1026.88L298.051 1027.24C298.611 1027.32 299.201 1027.43 299.821 1027.57C300.441 1027.71 301.011 1027.94 301.531 1028.26C302.051 1028.56 302.481 1028.97 302.821 1029.49C303.181 1030.01 303.361 1030.69 303.361 1031.53C303.361 1033.07 302.761 1034.26 301.561 1035.1C300.381 1035.94 298.801 1036.36 296.821 1036.36Z" fill="#101415"/>
<path d="M90.7 988V967.06H98.32C100.26 967.06 101.74 967.59 102.76 968.65C103.78 969.71 104.29 971.19 104.29 973.09C104.29 974.99 103.78 976.47 102.76 977.53C101.74 978.59 100.26 979.12 98.32 979.12H93.22V988H90.7ZM93.22 976.93H98.26C99.32 976.93 100.14 976.67 100.72 976.15C101.32 975.61 101.62 974.85 101.62 973.87V972.31C101.62 971.33 101.32 970.58 100.72 970.06C100.14 969.52 99.32 969.25 98.26 969.25H93.22V976.93ZM107.638 985.96H112.168V974.56H107.638V972.52H114.568V976.42H114.718C115.038 975.2 115.638 974.25 116.518 973.57C117.418 972.87 118.558 972.52 119.938 972.52H122.098V974.92H119.188C117.808 974.92 116.688 975.32 115.828 976.12C114.988 976.92 114.568 977.97 114.568 979.27V985.96H120.568V988H107.638V985.96ZM131.927 988.36C130.807 988.36 129.797 988.17 128.897 987.79C128.017 987.41 127.257 986.87 126.617 986.17C125.997 985.45 125.517 984.6 125.177 983.62C124.837 982.62 124.667 981.51 124.667 980.29C124.667 979.05 124.837 977.93 125.177 976.93C125.537 975.93 126.027 975.08 126.647 974.38C127.267 973.66 128.007 973.11 128.867 972.73C129.747 972.35 130.717 972.16 131.777 972.16C132.817 972.16 133.757 972.35 134.597 972.73C135.457 973.11 136.187 973.64 136.787 974.32C137.387 974.98 137.847 975.77 138.167 976.69C138.487 977.61 138.647 978.62 138.647 979.72V980.86H127.187V981.58C127.187 982.26 127.297 982.89 127.517 983.47C127.737 984.05 128.047 984.55 128.447 984.97C128.867 985.39 129.367 985.72 129.947 985.96C130.547 986.18 131.207 986.29 131.927 986.29C132.967 986.29 133.867 986.05 134.627 985.57C135.387 985.09 135.967 984.43 136.367 983.59L138.137 984.79C137.677 985.83 136.907 986.69 135.827 987.37C134.767 988.03 133.467 988.36 131.927 988.36ZM131.777 974.14C131.117 974.14 130.507 974.26 129.947 974.5C129.387 974.74 128.897 975.07 128.477 975.49C128.077 975.91 127.757 976.41 127.517 976.99C127.297 977.55 127.187 978.17 127.187 978.85V979.06H136.067V978.73C136.067 978.05 135.957 977.43 135.737 976.87C135.537 976.31 135.247 975.83 134.867 975.43C134.507 975.01 134.057 974.69 133.517 974.47C132.997 974.25 132.417 974.14 131.777 974.14ZM149.165 988.36C147.545 988.36 146.145 988.09 144.965 987.55C143.805 986.99 142.815 986.25 141.995 985.33L143.615 983.92C144.355 984.7 145.165 985.3 146.045 985.72C146.925 986.14 147.985 986.35 149.225 986.35C150.425 986.35 151.405 986.14 152.165 985.72C152.945 985.28 153.335 984.6 153.335 983.68C153.335 983.28 153.255 982.95 153.095 982.69C152.955 982.41 152.755 982.19 152.495 982.03C152.235 981.87 151.945 981.75 151.625 981.67C151.305 981.57 150.965 981.49 150.605 981.43L148.175 981.07C147.635 980.99 147.045 980.88 146.405 980.74C145.785 980.6 145.215 980.38 144.695 980.08C144.175 979.76 143.735 979.34 143.375 978.82C143.035 978.3 142.865 977.62 142.865 976.78C142.865 976 143.015 975.33 143.315 974.77C143.635 974.19 144.075 973.71 144.635 973.33C145.195 972.93 145.855 972.64 146.615 972.46C147.375 972.26 148.205 972.16 149.105 972.16C150.505 972.16 151.715 972.38 152.735 972.82C153.775 973.26 154.665 973.87 155.405 974.65L153.845 976.12C153.665 975.9 153.435 975.68 153.155 975.46C152.895 975.22 152.565 975.01 152.165 974.83C151.785 974.63 151.335 974.47 150.815 974.35C150.295 974.23 149.695 974.17 149.015 974.17C147.795 974.17 146.855 974.38 146.195 974.8C145.555 975.22 145.235 975.83 145.235 976.63C145.235 977.03 145.305 977.37 145.445 977.65C145.605 977.91 145.815 978.12 146.075 978.28C146.335 978.44 146.625 978.57 146.945 978.67C147.285 978.75 147.625 978.82 147.965 978.88L150.395 979.24C150.955 979.32 151.545 979.43 152.165 979.57C152.785 979.71 153.355 979.94 153.875 980.26C154.395 980.56 154.825 980.97 155.165 981.49C155.525 982.01 155.705 982.69 155.705 983.53C155.705 985.07 155.105 986.26 153.905 987.1C152.725 987.94 151.145 988.36 149.165 988.36ZM166.583 988.36C165.463 988.36 164.453 988.17 163.553 987.79C162.673 987.41 161.913 986.87 161.273 986.17C160.653 985.45 160.173 984.6 159.833 983.62C159.493 982.62 159.323 981.51 159.323 980.29C159.323 979.05 159.493 977.93 159.833 976.93C160.193 975.93 160.683 975.08 161.303 974.38C161.923 973.66 162.663 973.11 163.523 972.73C164.403 972.35 165.373 972.16 166.433 972.16C167.473 972.16 168.413 972.35 169.253 972.73C170.113 973.11 170.843 973.64 171.443 974.32C172.043 974.98 172.503 975.77 172.823 976.69C173.143 977.61 173.303 978.62 173.303 979.72V980.86H161.843V981.58C161.843 982.26 161.953 982.89 162.173 983.47C162.393 984.05 162.703 984.55 163.103 984.97C163.523 985.39 164.023 985.72 164.603 985.96C165.203 986.18 165.863 986.29 166.583 986.29C167.623 986.29 168.523 986.05 169.283 985.57C170.043 985.09 170.623 984.43 171.023 983.59L172.793 984.79C172.333 985.83 171.563 986.69 170.483 987.37C169.423 988.03 168.123 988.36 166.583 988.36ZM166.433 974.14C165.773 974.14 165.163 974.26 164.603 974.5C164.043 974.74 163.553 975.07 163.133 975.49C162.733 975.91 162.413 976.41 162.173 976.99C161.953 977.55 161.843 978.17 161.843 978.85V979.06H170.723V978.73C170.723 978.05 170.613 977.43 170.393 976.87C170.193 976.31 169.903 975.83 169.523 975.43C169.163 975.01 168.713 974.69 168.173 974.47C167.653 974.25 167.073 974.14 166.433 974.14ZM177.581 988V972.52H179.981V975.04H180.101C180.261 974.66 180.461 974.3 180.701 973.96C180.941 973.6 181.231 973.29 181.571 973.03C181.931 972.77 182.351 972.56 182.831 972.4C183.311 972.24 183.871 972.16 184.511 972.16C186.131 972.16 187.431 972.68 188.411 973.72C189.391 974.74 189.881 976.19 189.881 978.07V988H187.481V978.49C187.481 977.07 187.171 976.02 186.551 975.34C185.931 974.64 185.021 974.29 183.821 974.29C183.341 974.29 182.871 974.35 182.411 974.47C181.951 974.59 181.541 974.77 181.181 975.01C180.821 975.25 180.531 975.56 180.311 975.94C180.091 976.32 179.981 976.76 179.981 977.26V988H177.581ZM201.72 988C200.54 988 199.67 987.67 199.11 987.01C198.57 986.35 198.3 985.5 198.3 984.46V974.56H193.14V972.52H196.98C197.5 972.52 197.86 972.42 198.06 972.22C198.28 972 198.39 971.63 198.39 971.11V967.06H200.7V972.52H207.75V974.56H200.7V985.96H207.75V988H201.72ZM236.586 969.1C235.886 969.1 235.396 968.96 235.116 968.68C234.836 968.38 234.696 968.01 234.696 967.57V967.09C234.696 966.65 234.836 966.29 235.116 966.01C235.396 965.71 235.886 965.56 236.586 965.56C237.286 965.56 237.776 965.71 238.056 966.01C238.336 966.29 238.476 966.65 238.476 967.09V967.57C238.476 968.01 238.336 968.38 238.056 968.68C237.776 968.96 237.286 969.1 236.586 969.1ZM229.806 985.96H235.386V974.56H229.806V972.52H237.786V985.96H243.006V988H229.806V985.96ZM246.895 988V972.52H249.295V975.04H249.415C249.575 974.66 249.775 974.3 250.015 973.96C250.255 973.6 250.545 973.29 250.885 973.03C251.245 972.77 251.665 972.56 252.145 972.4C252.625 972.24 253.185 972.16 253.825 972.16C255.445 972.16 256.745 972.68 257.725 973.72C258.705 974.74 259.195 976.19 259.195 978.07V988H256.795V978.49C256.795 977.07 256.485 976.02 255.865 975.34C255.245 974.64 254.335 974.29 253.135 974.29C252.655 974.29 252.185 974.35 251.725 974.47C251.265 974.59 250.855 974.77 250.495 975.01C250.135 975.25 249.845 975.56 249.625 975.94C249.405 976.32 249.295 976.76 249.295 977.26V988H246.895Z" fill="#101415"/>
<path d="M110 1036H90.32V1031.12L99.28 1023.48C100.773 1022.2 101.88 1021.04 102.6 1020C103.32 1018.93 103.68 1017.8 103.68 1016.6V1016.2C103.68 1014.87 103.307 1013.85 102.56 1013.16C101.813 1012.47 100.773 1012.12 99.44 1012.12C97.9733 1012.12 96.8533 1012.52 96.08 1013.32C95.3067 1014.12 94.7467 1015.11 94.4 1016.28L89.84 1014.56C90.1333 1013.65 90.5467 1012.79 91.08 1011.96C91.64 1011.11 92.32 1010.36 93.12 1009.72C93.9467 1009.08 94.92 1008.57 96.04 1008.2C97.16 1007.8 98.44 1007.6 99.88 1007.6C101.373 1007.6 102.693 1007.81 103.84 1008.24C105.013 1008.64 106 1009.21 106.8 1009.96C107.6 1010.68 108.2 1011.55 108.6 1012.56C109.027 1013.57 109.24 1014.68 109.24 1015.88C109.24 1017.03 109.053 1018.08 108.68 1019.04C108.333 1020 107.84 1020.92 107.2 1021.8C106.56 1022.65 105.8 1023.48 104.92 1024.28C104.067 1025.08 103.133 1025.88 102.12 1026.68L96.04 1031.6H110V1036ZM131.824 1012.64H119.024L118.344 1022H118.664C118.984 1021.41 119.331 1020.88 119.704 1020.4C120.078 1019.89 120.504 1019.47 120.984 1019.12C121.491 1018.77 122.051 1018.51 122.664 1018.32C123.304 1018.13 124.038 1018.04 124.864 1018.04C126.038 1018.04 127.144 1018.24 128.184 1018.64C129.224 1019.04 130.131 1019.61 130.904 1020.36C131.678 1021.11 132.278 1022.03 132.704 1023.12C133.158 1024.21 133.384 1025.45 133.384 1026.84C133.384 1028.23 133.144 1029.51 132.664 1030.68C132.211 1031.85 131.531 1032.88 130.624 1033.76C129.744 1034.61 128.651 1035.28 127.344 1035.76C126.064 1036.24 124.584 1036.48 122.904 1036.48C121.598 1036.48 120.424 1036.33 119.384 1036.04C118.371 1035.77 117.478 1035.4 116.704 1034.92C115.931 1034.44 115.251 1033.89 114.664 1033.28C114.078 1032.64 113.571 1031.99 113.144 1031.32L116.944 1028.32C117.264 1028.85 117.611 1029.36 117.984 1029.84C118.384 1030.29 118.824 1030.69 119.304 1031.04C119.784 1031.39 120.318 1031.67 120.904 1031.88C121.518 1032.07 122.211 1032.16 122.984 1032.16C124.584 1032.16 125.798 1031.73 126.624 1030.88C127.478 1030 127.904 1028.8 127.904 1027.28V1026.96C127.904 1025.49 127.478 1024.35 126.624 1023.52C125.771 1022.69 124.571 1022.28 123.024 1022.28C121.851 1022.28 120.891 1022.51 120.144 1022.96C119.424 1023.39 118.838 1023.85 118.384 1024.36L114.104 1023.76L115.144 1008.08H131.824V1012.64ZM136.549 1040.14L146.419 1013.2H149.869L139.999 1040.14H136.549ZM159.697 1023.52C160.957 1023.52 161.877 1023.27 162.457 1022.77C163.057 1022.27 163.357 1021.64 163.357 1020.88V1020.67C163.357 1019.81 163.067 1019.14 162.487 1018.66C161.927 1018.18 161.147 1017.94 160.147 1017.94C159.187 1017.94 158.347 1018.16 157.627 1018.6C156.907 1019.04 156.287 1019.66 155.767 1020.46L153.217 1018.18C153.577 1017.7 153.977 1017.25 154.417 1016.83C154.877 1016.39 155.387 1016.02 155.947 1015.72C156.527 1015.4 157.167 1015.15 157.867 1014.97C158.567 1014.79 159.367 1014.7 160.267 1014.7C161.327 1014.7 162.297 1014.83 163.177 1015.09C164.077 1015.33 164.837 1015.69 165.457 1016.17C166.097 1016.65 166.587 1017.23 166.927 1017.91C167.287 1018.57 167.467 1019.32 167.467 1020.16C167.467 1020.82 167.357 1021.42 167.137 1021.96C166.917 1022.5 166.617 1022.97 166.237 1023.37C165.877 1023.77 165.447 1024.1 164.947 1024.36C164.467 1024.62 163.947 1024.81 163.387 1024.93V1025.08C164.007 1025.2 164.587 1025.4 165.127 1025.68C165.667 1025.94 166.137 1026.28 166.537 1026.7C166.937 1027.12 167.257 1027.63 167.497 1028.23C167.737 1028.81 167.857 1029.47 167.857 1030.21C167.857 1031.13 167.667 1031.97 167.287 1032.73C166.907 1033.49 166.367 1034.14 165.667 1034.68C164.987 1035.22 164.157 1035.64 163.177 1035.94C162.217 1036.22 161.137 1036.36 159.937 1036.36C158.937 1036.36 158.047 1036.25 157.267 1036.03C156.487 1035.83 155.797 1035.55 155.197 1035.19C154.597 1034.83 154.077 1034.42 153.637 1033.96C153.197 1033.48 152.807 1032.99 152.467 1032.49L155.377 1030.24C155.877 1031.08 156.467 1031.77 157.147 1032.31C157.847 1032.85 158.797 1033.12 159.997 1033.12C161.197 1033.12 162.117 1032.85 162.757 1032.31C163.417 1031.75 163.747 1030.98 163.747 1030V1029.76C163.747 1028.8 163.397 1028.07 162.697 1027.57C161.997 1027.05 161.007 1026.79 159.727 1026.79H157.627V1023.52H159.697ZM177.025 1023.52C178.285 1023.52 179.205 1023.27 179.785 1022.77C180.385 1022.27 180.685 1021.64 180.685 1020.88V1020.67C180.685 1019.81 180.395 1019.14 179.815 1018.66C179.255 1018.18 178.475 1017.94 177.475 1017.94C176.515 1017.94 175.675 1018.16 174.955 1018.6C174.235 1019.04 173.615 1019.66 173.095 1020.46L170.545 1018.18C170.905 1017.7 171.305 1017.25 171.745 1016.83C172.205 1016.39 172.715 1016.02 173.275 1015.72C173.855 1015.4 174.495 1015.15 175.195 1014.97C175.895 1014.79 176.695 1014.7 177.595 1014.7C178.655 1014.7 179.625 1014.83 180.505 1015.09C181.405 1015.33 182.165 1015.69 182.785 1016.17C183.425 1016.65 183.915 1017.23 184.255 1017.91C184.615 1018.57 184.795 1019.32 184.795 1020.16C184.795 1020.82 184.685 1021.42 184.465 1021.96C184.245 1022.5 183.945 1022.97 183.565 1023.37C183.205 1023.77 182.775 1024.1 182.275 1024.36C181.795 1024.62 181.275 1024.81 180.715 1024.93V1025.08C181.335 1025.2 181.915 1025.4 182.455 1025.68C182.995 1025.94 183.465 1026.28 183.865 1026.7C184.265 1027.12 184.585 1027.63 184.825 1028.23C185.065 1028.81 185.185 1029.47 185.185 1030.21C185.185 1031.13 184.995 1031.97 184.615 1032.73C184.235 1033.49 183.695 1034.14 182.995 1034.68C182.315 1035.22 181.485 1035.64 180.505 1035.94C179.545 1036.22 178.465 1036.36 177.265 1036.36C176.265 1036.36 175.375 1036.25 174.595 1036.03C173.815 1035.83 173.125 1035.55 172.525 1035.19C171.925 1034.83 171.405 1034.42 170.965 1033.96C170.525 1033.48 170.135 1032.99 169.795 1032.49L172.705 1030.24C173.205 1031.08 173.795 1031.77 174.475 1032.31C175.175 1032.85 176.125 1033.12 177.325 1033.12C178.525 1033.12 179.445 1032.85 180.085 1032.31C180.745 1031.75 181.075 1030.98 181.075 1030V1029.76C181.075 1028.8 180.725 1028.07 180.025 1027.57C179.325 1027.05 178.335 1026.79 177.055 1026.79H174.955V1023.52H177.025Z" fill="#101415"/>
<path d="M510.7 988L510.7 967.06H523.6V969.25H513.22V976.3H523.24V978.49H513.22V985.81H523.6V988H510.7ZM527.158 988L532.918 980.14L527.308 972.52H530.188L532.528 975.79L534.388 978.37H534.508L536.308 975.79L538.618 972.52H541.378L535.708 980.11L541.528 988H538.648L536.038 984.37L534.268 981.91H534.148L532.438 984.37L529.918 988H527.158ZM545.507 972.52H547.907V975.04H548.027C549.027 973.12 550.617 972.16 552.797 972.16C554.697 972.16 556.177 972.87 557.237 974.29C558.317 975.71 558.857 977.7 558.857 980.26C558.857 982.82 558.317 984.81 557.237 986.23C556.177 987.65 554.697 988.36 552.797 988.36C550.617 988.36 549.027 987.4 548.027 985.48H547.907V994H545.507V972.52ZM551.867 986.23C553.267 986.23 554.347 985.81 555.107 984.97C555.887 984.11 556.277 982.98 556.277 981.58V978.94C556.277 977.54 555.887 976.42 555.107 975.58C554.347 974.72 553.267 974.29 551.867 974.29C551.327 974.29 550.817 974.36 550.337 974.5C549.857 974.64 549.437 974.85 549.077 975.13C548.717 975.39 548.427 975.72 548.207 976.12C548.007 976.5 547.907 976.95 547.907 977.47V983.05C547.907 983.57 548.007 984.03 548.207 984.43C548.427 984.81 548.717 985.14 549.077 985.42C549.437 985.68 549.857 985.88 550.337 986.02C550.817 986.16 551.327 986.23 551.867 986.23ZM562.385 985.96H567.785V967.84H562.385V965.8H570.185V985.96H575.585V988H562.385V985.96ZM587.273 969.1C586.573 969.1 586.083 968.96 585.803 968.68C585.523 968.38 585.383 968.01 585.383 967.57V967.09C585.383 966.65 585.523 966.29 585.803 966.01C586.083 965.71 586.573 965.56 587.273 965.56C587.973 965.56 588.463 965.71 588.743 966.01C589.023 966.29 589.163 966.65 589.163 967.09V967.57C589.163 968.01 589.023 968.38 588.743 968.68C588.463 968.96 587.973 969.1 587.273 969.1ZM580.493 985.96H586.073V974.56H580.493V972.52H588.473V985.96H593.693V988H580.493V985.96ZM604.181 988.36C603.061 988.36 602.061 988.17 601.181 987.79C600.321 987.39 599.591 986.84 598.991 986.14C598.391 985.44 597.931 984.59 597.611 983.59C597.311 982.59 597.161 981.48 597.161 980.26C597.161 979.04 597.321 977.93 597.641 976.93C597.961 975.93 598.421 975.08 599.021 974.38C599.621 973.66 600.351 973.11 601.211 972.73C602.071 972.35 603.051 972.16 604.151 972.16C605.651 972.16 606.871 972.49 607.811 973.15C608.751 973.81 609.441 974.67 609.881 975.73L607.961 976.75C607.681 975.95 607.211 975.33 606.551 974.89C605.911 974.45 605.111 974.23 604.151 974.23C603.451 974.23 602.821 974.35 602.261 974.59C601.721 974.81 601.261 975.13 600.881 975.55C600.501 975.97 600.211 976.47 600.011 977.05C599.831 977.63 599.741 978.26 599.741 978.94V981.58C599.741 982.26 599.831 982.89 600.011 983.47C600.211 984.05 600.501 984.55 600.881 984.97C601.261 985.39 601.731 985.72 602.291 985.96C602.851 986.18 603.491 986.29 604.211 986.29C605.251 986.29 606.111 986.05 606.791 985.57C607.471 985.09 608.011 984.43 608.411 983.59L610.121 984.76C609.661 985.8 608.941 986.66 607.961 987.34C607.001 988.02 605.741 988.36 604.181 988.36ZM621.93 969.1C621.23 969.1 620.74 968.96 620.46 968.68C620.18 968.38 620.04 968.01 620.04 967.57V967.09C620.04 966.65 620.18 966.29 620.46 966.01C620.74 965.71 621.23 965.56 621.93 965.56C622.63 965.56 623.12 965.71 623.4 966.01C623.68 966.29 623.82 966.65 623.82 967.09V967.57C623.82 968.01 623.68 968.38 623.4 968.68C623.12 968.96 622.63 969.1 621.93 969.1ZM615.15 985.96H620.73V974.56H615.15V972.52H623.13V985.96H628.35V988H615.15V985.96ZM639.048 988C637.868 988 636.998 987.67 636.438 987.01C635.898 986.35 635.628 985.5 635.628 984.46V974.56H630.468V972.52H634.308C634.828 972.52 635.188 972.42 635.388 972.22C635.608 972 635.718 971.63 635.718 971.11V967.06H638.028V972.52H645.078V974.56H638.028V985.96H645.078V988H639.048ZM666.265 985.96H670.795V974.56H666.265V972.52H673.195V976.42H673.345C673.665 975.2 674.265 974.25 675.145 973.57C676.045 972.87 677.185 972.52 678.565 972.52H680.725V974.92H677.815C676.435 974.92 675.315 975.32 674.455 976.12C673.615 976.92 673.195 977.97 673.195 979.27V985.96L679.195 985.96V988L666.265 988V985.96ZM690.553 988.36C689.433 988.36 688.423 988.17 687.523 987.79C686.643 987.41 685.883 986.87 685.243 986.17C684.623 985.45 684.143 984.6 683.803 983.62C683.463 982.62 683.293 981.51 683.293 980.29C683.293 979.05 683.463 977.93 683.803 976.93C684.163 975.93 684.653 975.08 685.273 974.38C685.893 973.66 686.633 973.11 687.493 972.73C688.373 972.35 689.343 972.16 690.403 972.16C691.443 972.16 692.383 972.35 693.223 972.73C694.083 973.11 694.813 973.64 695.413 974.32C696.013 974.98 696.473 975.77 696.793 976.69C697.113 977.61 697.273 978.62 697.273 979.72V980.86H685.813V981.58C685.813 982.26 685.923 982.89 686.143 983.47C686.363 984.05 686.673 984.55 687.073 984.97C687.493 985.39 687.993 985.72 688.573 985.96C689.173 986.18 689.833 986.29 690.553 986.29C691.593 986.29 692.493 986.05 693.253 985.57C694.013 985.09 694.593 984.43 694.993 983.59L696.763 984.79C696.303 985.83 695.533 986.69 694.453 987.37C693.393 988.03 692.093 988.36 690.553 988.36ZM690.403 974.14C689.743 974.14 689.133 974.26 688.573 974.5C688.013 974.74 687.523 975.07 687.103 975.49C686.703 975.91 686.383 976.41 686.143 976.99C685.923 977.55 685.813 978.17 685.813 978.85V979.06H694.693V978.73C694.693 978.05 694.583 977.43 694.363 976.87C694.163 976.31 693.873 975.83 693.493 975.43C693.133 975.01 692.683 974.69 692.143 974.47C691.623 974.25 691.043 974.14 690.403 974.14ZM701.101 985.96H706.321V974.56H700.801V972.52H706.321V969.34C706.321 968.3 706.591 967.45 707.131 966.79C707.691 966.13 708.561 965.8 709.741 965.8H714.931V967.84H708.721V972.52H714.931V974.56H708.721V985.96H714.241V988H701.101V985.96ZM724.939 988.27C724.119 988.27 723.539 988.1 723.199 987.76C722.879 987.42 722.719 986.99 722.719 986.47V985.93C722.719 985.41 722.879 984.98 723.199 984.64C723.539 984.3 724.119 984.13 724.939 984.13C725.759 984.13 726.329 984.3 726.649 984.64C726.989 984.98 727.159 985.41 727.159 985.93V986.47C727.159 986.99 726.989 987.42 726.649 987.76C726.329 988.1 725.759 988.27 724.939 988.27Z" fill="#101415"/>
<path d="M520 1036.48C518.187 1036.48 516.613 1036.16 515.28 1035.52C513.947 1034.85 512.84 1033.91 511.96 1032.68C511.107 1031.45 510.467 1029.95 510.04 1028.16C509.64 1026.37 509.44 1024.33 509.44 1022.04C509.44 1019.77 509.64 1017.75 510.04 1015.96C510.467 1014.15 511.107 1012.63 511.96 1011.4C512.84 1010.17 513.947 1009.24 515.28 1008.6C516.613 1007.93 518.187 1007.6 520 1007.6C523.627 1007.6 526.293 1008.87 528 1011.4C529.707 1013.93 530.56 1017.48 530.56 1022.04C530.56 1026.6 529.707 1030.15 528 1032.68C526.293 1035.21 523.627 1036.48 520 1036.48ZM520 1032.28C521.92 1032.28 523.267 1031.6 524.04 1030.24C524.84 1028.85 525.24 1026.95 525.24 1024.52V1019.56C525.24 1017.13 524.84 1015.24 524.04 1013.88C523.267 1012.49 521.92 1011.8 520 1011.8C518.08 1011.8 516.72 1012.49 515.92 1013.88C515.147 1015.24 514.76 1017.13 514.76 1019.56V1024.52C514.76 1026.95 515.147 1028.85 515.92 1030.24C516.72 1031.6 518.08 1032.28 520 1032.28ZM520 1024.4C519.067 1024.4 518.413 1024.21 518.04 1023.84C517.693 1023.47 517.52 1023.01 517.52 1022.48V1021.6C517.52 1021.07 517.693 1020.61 518.04 1020.24C518.413 1019.87 519.067 1019.68 520 1019.68C520.933 1019.68 521.573 1019.87 521.92 1020.24C522.293 1020.61 522.48 1021.07 522.48 1021.6V1022.48C522.48 1023.01 522.293 1023.47 521.92 1023.84C521.573 1024.21 520.933 1024.4 520 1024.4ZM534.744 1036L534.744 1031.72H542.424V1011.88H542.064L535.984 1019.08L532.704 1016.32L539.624 1008.08L547.664 1008.08V1031.72H553.984L553.984 1036H534.744Z" fill="#101415"/>
</svg>
