<svg width="267" height="278" viewBox="0 0 267 278" fill="none" xmlns="http://www.w3.org/2000/svg">
<path d="M35.4238 45.4018C89.4718 -8.46727 177.024 -8.46727 231.072 45.4018" stroke="#E81700" stroke-width="10" stroke-linecap="round" stroke-linejoin="round"/>
<path d="M35.4238 232.078C89.4718 285.947 177.024 285.947 231.072 232.078" stroke="#E81700" stroke-width="10" stroke-linecap="round" stroke-linejoin="round"/>
<path d="M266.4 141.084C237.504 200.216 188.544 238.967 133.248 238.967C77.952 238.967 28.896 200.12 0 141.084C28.896 82.1439 77.664 43.3926 133.152 43.3926C188.64 43.3926 237.504 82.2396 266.304 141.084H266.4Z" fill="#E81700"/>
<path d="M133.152 164.24C145.929 164.24 156.288 153.916 156.288 141.181C156.288 128.445 145.929 118.121 133.152 118.121C120.374 118.121 110.016 128.445 110.016 141.181C110.016 153.916 120.374 164.24 133.152 164.24Z" fill="#101415"/>
</svg>
