<svg width="103" height="59" viewBox="0 0 103 59" fill="none" xmlns="http://www.w3.org/2000/svg">
<circle cx="24.2012" cy="43" r="13.75" fill="white" stroke="#101415" stroke-width="0.5"/>
<circle cx="71" cy="45" r="13.75" fill="white" stroke="#101415" stroke-width="0.5"/>
<ellipse cx="24.2012" cy="47.5" rx="10" ry="9.5" fill="#101415"/>
<ellipse cx="71" cy="49.5" rx="10" ry="9.5" fill="#101415"/>
<path d="M26.2011 3.91777C34.5717 1.93316 42.2012 7.91894 45.2047 10.416C41.7012 9.91895 35.4208 10.6562 32.2012 11.4189C25.762 12.9444 21.2012 15.9189 18.2013 17.4174C12.9111 20.0599 3.39167 20.8533 2.20143 19.4174C2.55536 19.7153 6.30892 18.3682 11.2047 13.916C16.7013 8.91741 19.8696 5.41895 26.2011 3.91777Z" fill="#101415"/>
<path d="M76.2627 6.33672C67.8922 4.3521 60.2627 10.3379 57.2592 12.835C60.7627 12.3379 67.0431 13.0751 70.2627 13.8379C76.7019 15.3634 81.2627 18.3379 84.2626 19.8364C89.5528 22.4789 99.0722 23.2722 100.262 21.8363C99.9085 22.1342 96.1549 20.7871 91.2592 16.335C85.7626 11.3364 82.5943 7.83789 76.2627 6.33672Z" fill="#101415"/>
</svg>
