<svg width="511" height="176" viewBox="0 0 511 176" fill="none" xmlns="http://www.w3.org/2000/svg">
<path d="M35.2 86.32C27.28 86.32 21.1567 83.7167 16.83 78.51C12.5033 73.3033 10.34 66.0067 10.34 56.62C10.34 47.2333 12.5033 39.9367 16.83 34.73C21.23 29.5233 27.3167 26.92 35.09 26.92C40.37 26.92 44.6967 28.13 48.07 30.55C51.4433 32.8967 53.8633 35.94 55.33 39.68L50.27 42.21C49.0967 39.0567 47.2267 36.6367 44.66 34.95C42.0933 33.2633 38.9033 32.42 35.09 32.42C29.2967 32.42 24.8233 34.29 21.67 38.03C18.59 41.6967 17.05 46.5733 17.05 52.66V60.58C17.05 66.6667 18.59 71.58 21.67 75.32C24.8233 78.9867 29.3333 80.82 35.2 80.82C39.2333 80.82 42.6067 79.9033 45.32 78.07C48.0333 76.2367 50.1233 73.67 51.59 70.37L56.21 73.34C54.5967 77.08 52.0667 80.1967 48.62 82.69C45.1733 85.11 40.7 86.32 35.2 86.32ZM96.537 86.32C88.7637 86.32 82.677 83.7167 78.277 78.51C73.9504 73.3033 71.787 66.0067 71.787 56.62C71.787 47.2333 73.9504 39.9367 78.277 34.73C82.677 29.5233 88.7637 26.92 96.537 26.92C104.31 26.92 110.36 29.5233 114.687 34.73C119.087 39.9367 121.287 47.2333 121.287 56.62C121.287 66.0067 119.087 73.3033 114.687 78.51C110.36 83.7167 104.31 86.32 96.537 86.32ZM96.537 80.82C102.11 80.82 106.51 79.06 109.737 75.54C112.964 72.02 114.577 66.8867 114.577 60.14V53.1C114.577 46.3533 112.964 41.22 109.737 37.7C106.51 34.18 102.11 32.42 96.537 32.42C90.9637 32.42 86.5637 34.18 83.337 37.7C80.1104 41.22 78.497 46.3533 78.497 53.1V60.14C78.497 66.8867 80.1104 72.02 83.337 75.54C86.5637 79.06 90.9637 80.82 96.537 80.82ZM175.034 75.98H174.704C173.091 79.06 170.817 81.5533 167.884 83.46C165.024 85.3667 161.431 86.32 157.104 86.32C149.991 86.32 144.454 83.79 140.494 78.73C136.534 73.5967 134.554 66.2267 134.554 56.62C134.554 47.0133 136.534 39.68 140.494 34.62C144.454 29.4867 149.991 26.92 157.104 26.92C161.431 26.92 165.024 27.8733 167.884 29.78C170.817 31.6867 173.091 34.18 174.704 37.26H175.034V3.6H181.304V85H175.034V75.98ZM159.194 80.71C161.321 80.71 163.337 80.4167 165.244 79.83C167.151 79.2433 168.837 78.4 170.304 77.3C171.771 76.2 172.907 74.8433 173.714 73.23C174.594 71.6167 175.034 69.82 175.034 67.84V45.4C175.034 43.42 174.594 41.6233 173.714 40.01C172.907 38.3967 171.771 37.04 170.304 35.94C168.837 34.84 167.151 33.9967 165.244 33.41C163.337 32.8233 161.321 32.53 159.194 32.53C153.474 32.53 149.037 34.3267 145.884 37.92C142.804 41.5133 141.264 46.4267 141.264 52.66V60.58C141.264 66.8133 142.804 71.7267 145.884 75.32C149.037 78.9133 153.474 80.71 159.194 80.71ZM227.131 13.06C225.151 13.06 223.721 12.6567 222.841 11.85C222.034 10.97 221.631 9.90666 221.631 8.66V7.23C221.631 5.98333 222.034 4.95666 222.841 4.15C223.721 3.27 225.151 2.83 227.131 2.83C229.111 2.83 230.504 3.27 231.311 4.15C232.191 4.95666 232.631 5.98333 232.631 7.23V8.66C232.631 9.90666 232.191 10.97 231.311 11.85C230.504 12.6567 229.111 13.06 227.131 13.06ZM202.711 79.61H224.051V33.63H202.711V28.24H230.321V79.61H250.231V85H202.711V79.61ZM289.348 86.32C281.428 86.32 275.305 83.7167 270.978 78.51C266.651 73.3033 264.488 66.0067 264.488 56.62C264.488 47.2333 266.651 39.9367 270.978 34.73C275.378 29.5233 281.465 26.92 289.238 26.92C294.518 26.92 298.845 28.13 302.218 30.55C305.591 32.8967 308.011 35.94 309.478 39.68L304.418 42.21C303.245 39.0567 301.375 36.6367 298.808 34.95C296.241 33.2633 293.051 32.42 289.238 32.42C283.445 32.42 278.971 34.29 275.818 38.03C272.738 41.6967 271.198 46.5733 271.198 52.66V60.58C271.198 66.6667 272.738 71.58 275.818 75.32C278.971 78.9867 283.481 80.82 289.348 80.82C293.381 80.82 296.755 79.9033 299.468 78.07C302.181 76.2367 304.271 73.67 305.738 70.37L310.358 73.34C308.745 77.08 306.215 80.1967 302.768 82.69C299.321 85.11 294.848 86.32 289.348 86.32ZM351.565 86.32C343.645 86.32 337.412 83.7533 332.865 78.62C328.392 73.4133 326.155 66.1167 326.155 56.73C326.155 52.0367 326.742 47.8567 327.915 44.19C329.088 40.45 330.738 37.3333 332.865 34.84C335.065 32.2733 337.705 30.33 340.785 29.01C343.865 27.6167 347.275 26.92 351.015 26.92C354.828 26.92 358.238 27.6167 361.245 29.01C364.252 30.33 366.782 32.2367 368.835 34.73C370.962 37.2233 372.575 40.1933 373.675 43.64C374.775 47.0867 375.325 50.9 375.325 55.08V57.83H332.755V60.58C332.755 66.6667 334.405 71.58 337.705 75.32C341.005 78.9867 345.625 80.82 351.565 80.82C355.745 80.82 359.302 79.8667 362.235 77.96C365.242 76.0533 367.552 73.23 369.165 69.49L373.895 72.46C372.208 76.64 369.458 80.0133 365.645 82.58C361.832 85.0733 357.138 86.32 351.565 86.32ZM351.015 32.2C348.228 32.2 345.698 32.7133 343.425 33.74C341.225 34.6933 339.318 36.05 337.705 37.81C336.165 39.57 334.955 41.6967 334.075 44.19C333.195 46.6833 332.755 49.4333 332.755 52.44V53.1H368.615V52.22C368.615 46.06 367.038 41.1833 363.885 37.59C360.805 33.9967 356.515 32.2 351.015 32.2ZM9.57 167.61H29.59V121.63H8.47V116.24H29.59V100.73C29.59 97.9433 30.2867 95.7433 31.68 94.13C33.1467 92.4433 35.42 91.6 38.5 91.6H59.4V96.99H35.86V116.24H59.4V121.63H35.86V167.61H56.87V173H9.57V167.61ZM96.537 174.32C88.7637 174.32 82.677 171.717 78.277 166.51C73.9504 161.303 71.787 154.007 71.787 144.62C71.787 135.233 73.9504 127.937 78.277 122.73C82.677 117.523 88.7637 114.92 96.537 114.92C104.31 114.92 110.36 117.523 114.687 122.73C119.087 127.937 121.287 135.233 121.287 144.62C121.287 154.007 119.087 161.303 114.687 166.51C110.36 171.717 104.31 174.32 96.537 174.32ZM96.537 168.82C102.11 168.82 106.51 167.06 109.737 163.54C112.964 160.02 114.577 154.887 114.577 148.14V141.1C114.577 134.353 112.964 129.22 109.737 125.7C106.51 122.18 102.11 120.42 96.537 120.42C90.9637 120.42 86.5637 122.18 83.337 125.7C80.1104 129.22 78.497 134.353 78.497 141.1V148.14C78.497 154.887 80.1104 160.02 83.337 163.54C86.5637 167.06 90.9637 168.82 96.537 168.82ZM136.314 167.61H156.994V96.99H136.314V91.6H163.264V167.61H183.834V173H136.314V167.61ZM203.591 91.6H209.861V145.28H210.301L221.411 135.16L242.531 116.24H250.341L226.031 138.46L253.201 173H245.391L221.191 142.2L209.861 152.21V173H203.591V91.6ZM263.388 167.61H284.068V96.99H263.388V91.6H290.338V167.61H310.908V173H263.388V167.61ZM350.685 174.32C342.912 174.32 336.825 171.717 332.425 166.51C328.098 161.303 325.935 154.007 325.935 144.62C325.935 135.233 328.098 127.937 332.425 122.73C336.825 117.523 342.912 114.92 350.685 114.92C358.458 114.92 364.508 117.523 368.835 122.73C373.235 127.937 375.435 135.233 375.435 144.62C375.435 154.007 373.235 161.303 368.835 166.51C364.508 171.717 358.458 174.32 350.685 174.32ZM350.685 168.82C356.258 168.82 360.658 167.06 363.885 163.54C367.112 160.02 368.725 154.887 368.725 148.14V141.1C368.725 134.353 367.112 129.22 363.885 125.7C360.658 122.18 356.258 120.42 350.685 120.42C345.112 120.42 340.712 122.18 337.485 125.7C334.258 129.22 332.645 134.353 332.645 141.1V148.14C332.645 154.887 334.258 160.02 337.485 163.54C340.712 167.06 345.112 168.82 350.685 168.82ZM389.802 167.61H407.622V121.63H389.802V116.24H413.892V129.22H414.332C415.579 125.26 417.706 122.107 420.712 119.76C423.792 117.413 427.826 116.24 432.812 116.24H442.602V122.4H430.942C425.809 122.4 421.666 123.94 418.512 127.02C415.432 130.027 413.892 134.097 413.892 139.23V167.61H436.992V173H389.802V167.61ZM478.639 174.32C470.719 174.32 464.486 171.753 459.939 166.62C455.466 161.413 453.229 154.117 453.229 144.73C453.229 140.037 453.816 135.857 454.989 132.19C456.163 128.45 457.813 125.333 459.939 122.84C462.139 120.273 464.779 118.33 467.859 117.01C470.939 115.617 474.349 114.92 478.089 114.92C481.903 114.92 485.313 115.617 488.319 117.01C491.326 118.33 493.856 120.237 495.909 122.73C498.036 125.223 499.649 128.193 500.749 131.64C501.849 135.087 502.399 138.9 502.399 143.08V145.83H459.829V148.58C459.829 154.667 461.479 159.58 464.779 163.32C468.079 166.987 472.699 168.82 478.639 168.82C482.819 168.82 486.376 167.867 489.309 165.96C492.316 164.053 494.626 161.23 496.239 157.49L500.969 160.46C499.283 164.64 496.533 168.013 492.719 170.58C488.906 173.073 484.213 174.32 478.639 174.32ZM478.089 120.2C475.303 120.2 472.773 120.713 470.499 121.74C468.299 122.693 466.393 124.05 464.779 125.81C463.239 127.57 462.029 129.697 461.149 132.19C460.269 134.683 459.829 137.433 459.829 140.44V141.1H495.689V140.22C495.689 134.06 494.113 129.183 490.959 125.59C487.879 121.997 483.589 120.2 478.089 120.2Z" fill="#FCFAF2"/>
<path d="M97.4817 58.003C100.988 58.676 103.747 57.7632 101.053 53.6311C98.0473 49.0206 92.0732 53.6353 90.1411 56.9818C87.4844 61.5834 93.8296 63.4027 97.2988 62.9847C101.022 62.5362 105.875 57.2004 102.564 53.6056C99.235 49.991 91.546 52.9568 90.5252 57.3532C89.4014 62.1927 92.8816 65.1254 97.7303 63.5331C101.515 62.2901 102.936 54.6435 99.2901 52.5383C95.1574 50.1523 89.6349 53.562 90.0629 58.2834C90.2628 60.4881 94.0685 63.9737 96.3727 63.4226C100.449 62.4476 101.458 52.7075 95.9223 54.4842C93.5309 55.2516 86.4879 62.6288 92.3171 62.8018C95.8356 62.9062 99.6505 57.8201 97.1558 54.4856C94.9507 51.5382 91.9159 58.2641 92.1011 59.8716C92.4767 63.131 95.984 65.1571 95.862 60.8085C95.7934 58.3649 95.0706 56.4775 93.2635 59.6075C92.1456 61.5438 94.3331 62.1832 93.499 59.0702" stroke="#FCFAF2" stroke-width="3" stroke-linecap="round"/>
<path d="M102.482 136.003C105.988 136.676 108.747 135.763 106.053 131.631C103.047 127.021 97.0732 131.635 95.1411 134.982C92.4844 139.583 98.8296 141.403 102.299 140.985C106.022 140.536 110.875 135.2 107.564 131.606C104.235 127.991 96.546 130.957 95.5252 135.353C94.4014 140.193 97.8816 143.125 102.73 141.533C106.515 140.29 107.936 132.644 104.29 130.538C100.157 128.152 94.6349 131.562 95.0629 136.283C95.2628 138.488 99.0685 141.974 101.373 141.423C105.449 140.448 106.458 130.707 100.922 132.484C98.5309 133.252 91.4879 140.629 97.3171 140.802C100.836 140.906 104.65 135.82 102.156 132.486C99.9507 129.538 96.9159 136.264 97.1011 137.872C97.4767 141.131 100.984 143.157 100.862 138.808C100.793 136.365 100.071 134.478 98.2635 137.608C97.1456 139.544 99.3331 140.183 98.499 137.07" stroke="#FCFAF2" stroke-width="3" stroke-linecap="round"/>
<path d="M356.482 156.003C359.988 156.676 362.747 155.763 360.053 151.631C357.047 147.021 351.073 151.635 349.141 154.982C346.484 159.583 352.83 161.403 356.299 160.985C360.022 160.536 364.875 155.2 361.564 151.606C358.235 147.991 350.546 150.957 349.525 155.353C348.401 160.193 351.882 163.125 356.73 161.533C360.515 160.29 361.936 152.644 358.29 150.538C354.157 148.152 348.635 151.562 349.063 156.283C349.263 158.488 353.069 161.974 355.373 161.423C359.449 160.448 360.458 150.707 354.922 152.484C352.531 153.252 345.488 160.629 351.317 160.802C354.836 160.906 358.65 155.82 356.156 152.486C353.951 149.538 350.916 156.264 351.101 157.872C351.477 161.131 354.984 163.157 354.862 158.808C354.793 156.365 354.071 154.478 352.264 157.608C351.146 159.544 353.333 160.183 352.499 157.07" stroke="#FCFAF2" stroke-width="3" stroke-linecap="round"/>
</svg>
