<svg width="456" height="403" viewBox="0 0 456 403" fill="none" xmlns="http://www.w3.org/2000/svg">
<path d="M447.472 279.881C447.472 312.354 421.19 338.638 388.721 338.638C379.065 338.638 369.953 336.292 361.895 332.178C347.955 357.136 321.265 374.002 290.665 374.002C266.56 374.002 244.902 363.529 230.01 346.901C224.264 375.804 198.73 397.6 168.165 397.6C139.945 397.6 116.077 379.068 108.019 353.532C100.335 356.864 91.8352 358.734 82.8933 358.734C48.0776 358.734 19.8579 330.478 19.8579 295.658C19.8579 271.074 33.8997 249.788 54.4016 239.383C51.0016 232.889 49.0976 225.476 49.0976 217.655C49.0976 208.577 51.6476 200.11 56.1015 192.935C54.8096 193.037 53.4836 193.105 52.1576 193.105C26.1138 193.105 5 171.989 5 145.943C5 124.147 19.7559 105.785 39.8157 100.379C38.1837 94.1561 37.2997 87.6275 37.2997 80.8949C37.2997 38.9691 71.2654 5 113.153 5C148.683 5 178.466 29.3802 186.762 62.3292C192.168 32.9845 217.872 10.8145 248.744 10.8145C266.152 10.8145 281.894 17.8532 293.317 29.2442C305.591 24.9258 318.783 22.5796 332.519 22.5796C397.731 22.5796 450.6 75.4544 450.6 140.672C450.6 174.539 436.354 205.074 413.506 226.598C433.566 235.949 447.472 256.283 447.472 279.881Z" fill="#E7914B" stroke="#101415" stroke-width="10" stroke-linecap="round" stroke-linejoin="round"/>
<path d="M81.3967 160.496C79.7307 155.701 78.8467 150.533 78.8467 145.16C78.8467 119.114 99.9605 97.998 126.004 97.998C152.048 97.998 173.162 119.114 173.162 145.16" fill="#E7914B"/>
<path d="M81.3967 160.496C79.7307 155.701 78.8467 150.533 78.8467 145.16C78.8467 119.114 99.9605 97.998 126.004 97.998C152.048 97.998 173.162 119.114 173.162 145.16" stroke="#101415" stroke-width="10" stroke-linecap="round" stroke-linejoin="round"/>
<path d="M162.385 95.9919C169.389 78.7524 186.321 66.6133 206.074 66.6133C232.118 66.6133 253.232 87.7292 253.232 113.776C253.232 137.68 235.484 157.402 212.432 160.53" fill="#E7914B"/>
<path d="M162.385 95.9919C169.389 78.7524 186.321 66.6133 206.074 66.6133C232.118 66.6133 253.232 87.7292 253.232 113.776C253.232 137.68 235.484 157.402 212.432 160.53" stroke="#101415" stroke-width="10" stroke-linecap="round" stroke-linejoin="round"/>
<path d="M148.818 171.547C157.08 160.292 170.408 152.981 185.436 152.981C210.494 152.981 230.826 173.315 230.826 198.376" fill="#E7914B"/>
<path d="M148.818 171.547C157.08 160.292 170.408 152.981 185.436 152.981C210.494 152.981 230.826 173.315 230.826 198.376" stroke="#101415" stroke-width="10" stroke-linecap="round" stroke-linejoin="round"/>
<path d="M54.0273 196.642C60.3853 184.231 72.3872 174.88 87.2451 172.499C96.527 171.003 105.605 172.431 113.527 176.138" stroke="#101415" stroke-width="10" stroke-linecap="round" stroke-linejoin="round"/>
<path d="M180.71 212.861C191.93 202.762 206.754 196.642 223.04 196.642C257.991 196.642 286.347 225 286.347 259.955C286.347 294.911 257.991 323.269 223.04 323.269C216.716 323.269 210.596 322.351 204.816 320.617" fill="#E7914B"/>
<path d="M180.71 212.861C191.93 202.762 206.754 196.642 223.04 196.642C257.991 196.642 286.347 225 286.347 259.955C286.347 294.911 257.991 323.269 223.04 323.269C216.716 323.269 210.596 322.351 204.816 320.617" stroke="#101415" stroke-width="10" stroke-linecap="round" stroke-linejoin="round"/>
<path d="M53.0078 239.928C61.2697 235.847 70.5857 233.535 80.4456 233.535C91.9375 233.535 102.715 236.663 111.929 242.138" stroke="#101415" stroke-width="10" stroke-linecap="round" stroke-linejoin="round"/>
<path d="M363.39 333.129C355.162 328.947 347.75 322.827 341.868 314.938C335.001 305.723 331.091 295.216 329.935 284.539" stroke="#101415" stroke-width="10" stroke-linecap="round" stroke-linejoin="round"/>
<path d="M29.8193 104.323C36.7893 100.446 44.6092 98.3722 52.8031 98.6102C62.357 98.8823 71.197 102.249 78.7109 107.893" stroke="#101415" stroke-width="10" stroke-linecap="round" stroke-linejoin="round"/>
<path d="M229.126 350.743C231.608 341.835 232.118 332.246 230.248 322.589" stroke="#101415" stroke-width="10" stroke-linecap="round" stroke-linejoin="round"/>
<path d="M414.764 225.34C405.108 233.977 393.276 241.559 379.846 247.34C364.173 254.106 348.227 257.541 333.505 257.949" stroke="#101415" stroke-width="10" stroke-linecap="round" stroke-linejoin="round"/>
<path d="M236.775 68.6533C245.105 58.6904 255.679 49.4076 268.157 41.6889C282.709 32.6781 297.975 26.8975 312.527 24.2793" stroke="#101415" stroke-width="10" stroke-linecap="round" stroke-linejoin="round"/>
</svg>
