<svg width="452" height="399" viewBox="0 0 452 399" fill="none" xmlns="http://www.w3.org/2000/svg">
<path d="M445.472 277.881C445.472 310.354 419.19 336.638 386.721 336.638C377.065 336.638 367.953 334.292 359.895 330.178C345.955 355.136 319.265 372.002 288.665 372.002C264.56 372.002 242.902 361.529 228.01 344.901C222.264 373.804 196.73 395.6 166.165 395.6C137.945 395.6 114.077 377.068 106.019 351.532C98.3351 354.864 89.8352 356.734 80.8933 356.734C46.0776 356.734 17.8579 328.478 17.8579 293.658C17.8579 269.074 31.8997 247.788 52.4016 237.383C49.0016 230.889 47.0976 223.476 47.0976 215.655C47.0976 206.577 49.6476 198.11 54.1015 190.935C52.8096 191.037 51.4836 191.105 50.1576 191.105C24.1138 191.105 3 169.989 3 143.943C3 122.147 17.7559 103.785 37.8157 98.3787C36.1837 92.1561 35.2997 85.6275 35.2997 78.8949C35.2997 36.9691 69.2654 3 111.153 3C146.683 3 176.466 27.3802 184.762 60.3292C190.168 30.9845 215.872 8.81453 246.744 8.81453C264.152 8.81453 279.894 15.8532 291.317 27.2442C303.591 22.9258 316.783 20.5796 330.519 20.5796C395.731 20.5796 448.6 73.4544 448.6 138.672C448.6 172.539 434.354 203.074 411.506 224.598C431.566 233.949 445.472 254.283 445.472 277.881Z" fill="#1FDFFF" stroke="#E7914B" stroke-width="6" stroke-linecap="round" stroke-linejoin="round"/>
<path d="M79.3967 158.496C77.7307 153.701 76.8467 148.533 76.8467 143.16C76.8467 117.114 97.9605 95.998 124.004 95.998C150.048 95.998 171.162 117.114 171.162 143.16" fill="#1FDFFF"/>
<path d="M79.3967 158.496C77.7307 153.701 76.8467 148.533 76.8467 143.16C76.8467 117.114 97.9605 95.998 124.004 95.998C150.048 95.998 171.162 117.114 171.162 143.16" stroke="#E7914B" stroke-width="6" stroke-linecap="round" stroke-linejoin="round"/>
<path d="M160.385 93.9919C167.389 76.7524 184.321 64.6133 204.074 64.6133C230.118 64.6133 251.232 85.7292 251.232 111.776C251.232 135.68 233.484 155.402 210.432 158.53" fill="#1FDFFF"/>
<path d="M160.385 93.9919C167.389 76.7524 184.321 64.6133 204.074 64.6133C230.118 64.6133 251.232 85.7292 251.232 111.776C251.232 135.68 233.484 155.402 210.432 158.53" stroke="#E7914B" stroke-width="6" stroke-linecap="round" stroke-linejoin="round"/>
<path d="M146.818 169.547C155.08 158.292 168.408 150.981 183.436 150.981C208.494 150.981 228.826 171.315 228.826 196.376" fill="#1FDFFF"/>
<path d="M146.818 169.547C155.08 158.292 168.408 150.981 183.436 150.981C208.494 150.981 228.826 171.315 228.826 196.376" stroke="#E7914B" stroke-width="6" stroke-linecap="round" stroke-linejoin="round"/>
<path d="M52.0273 194.642C58.3853 182.231 70.3872 172.88 85.2451 170.499C94.527 169.003 103.605 170.431 111.527 174.138" stroke="#E7914B" stroke-width="6" stroke-linecap="round" stroke-linejoin="round"/>
<path d="M178.71 210.861C189.93 200.762 204.754 194.642 221.04 194.642C255.991 194.642 284.347 223 284.347 257.955C284.347 292.911 255.991 321.269 221.04 321.269C214.716 321.269 208.596 320.351 202.816 318.617" fill="#1FDFFF"/>
<path d="M178.71 210.861C189.93 200.762 204.754 194.642 221.04 194.642C255.991 194.642 284.347 223 284.347 257.955C284.347 292.911 255.991 321.269 221.04 321.269C214.716 321.269 208.596 320.351 202.816 318.617" stroke="#E7914B" stroke-width="6" stroke-linecap="round" stroke-linejoin="round"/>
<path d="M51.0078 237.928C59.2697 233.847 68.5857 231.535 78.4456 231.535C89.9375 231.535 100.715 234.663 109.929 240.138" stroke="#E7914B" stroke-width="6" stroke-linecap="round" stroke-linejoin="round"/>
<path d="M361.39 331.129C353.162 326.947 345.75 320.827 339.868 312.938C333.001 303.723 329.091 293.216 327.935 282.539" stroke="#E7914B" stroke-width="6" stroke-linecap="round" stroke-linejoin="round"/>
<path d="M27.8193 102.323C34.7893 98.4464 42.6092 96.3722 50.8031 96.6102C60.357 96.8823 69.197 100.249 76.7109 105.893" stroke="#E7914B" stroke-width="6" stroke-linecap="round" stroke-linejoin="round"/>
<path d="M227.126 348.743C229.608 339.835 230.118 330.246 228.248 320.589" stroke="#E7914B" stroke-width="6" stroke-linecap="round" stroke-linejoin="round"/>
<path d="M412.764 223.34C403.108 231.977 391.276 239.559 377.846 245.34C362.173 252.106 346.227 255.541 331.505 255.949" stroke="#E7914B" stroke-width="6" stroke-linecap="round" stroke-linejoin="round"/>
<path d="M234.775 66.6533C243.105 56.6904 253.679 47.4076 266.157 39.6889C280.709 30.6781 295.975 24.8975 310.527 22.2793" stroke="#E7914B" stroke-width="6" stroke-linecap="round" stroke-linejoin="round"/>
</svg>
