<svg width="267" height="273" viewBox="0 0 267 273" fill="none" xmlns="http://www.w3.org/2000/svg">
<path d="M35.4238 43.4018C89.4718 -10.4673 177.024 -10.4673 231.072 43.4018" stroke="#0024CC" stroke-width="5" stroke-linecap="round" stroke-linejoin="round"/>
<path d="M35.4238 230.078C89.4718 283.947 177.024 283.947 231.072 230.078" stroke="#0024CC" stroke-width="5" stroke-linecap="round" stroke-linejoin="round"/>
<path d="M266.4 139.084C237.504 198.216 188.544 236.967 133.248 236.967C77.952 236.967 28.896 198.12 0 139.084C28.896 80.1439 77.664 41.3926 133.152 41.3926C188.64 41.3926 237.504 80.2396 266.304 139.084H266.4Z" fill="#0024CC"/>
<path d="M133.152 162.24C145.929 162.24 156.288 151.916 156.288 139.181C156.288 126.445 145.929 116.121 133.152 116.121C120.374 116.121 110.016 126.445 110.016 139.181C110.016 151.916 120.374 162.24 133.152 162.24Z" fill="#8F94B8"/>
</svg>
