<svg width="277" height="278" viewBox="0 0 277 278" fill="none" xmlns="http://www.w3.org/2000/svg">
<path d="M40.4238 45.4018C94.4718 -8.46727 182.024 -8.46727 236.072 45.4018" stroke="#8F94B8" stroke-width="10" stroke-linecap="round" stroke-linejoin="round"/>
<path d="M40.4238 232.078C94.4718 285.947 182.024 285.947 236.072 232.078" stroke="#8F94B8" stroke-width="10" stroke-linecap="round" stroke-linejoin="round"/>
<path d="M271.4 141.084C242.504 200.216 193.544 238.967 138.248 238.967C82.952 238.967 33.896 200.12 5 141.084C33.896 82.1439 82.664 43.3926 138.152 43.3926C193.64 43.3926 242.504 82.2396 271.304 141.084H271.4Z" fill="#8F94B8" stroke="#101415" stroke-width="10" stroke-linecap="round" stroke-linejoin="round"/>
<path d="M138.152 164.24C150.929 164.24 161.288 153.916 161.288 141.181C161.288 128.445 150.929 118.121 138.152 118.121C125.374 118.121 115.016 128.445 115.016 141.181C115.016 153.916 125.374 164.24 138.152 164.24Z" fill="#101415"/>
</svg>
