<svg width="30" height="30" viewBox="0 0 30 30" fill="none" xmlns="http://www.w3.org/2000/svg">
<path fill-rule="evenodd" clip-rule="evenodd" d="M17.2227 2.5C17.2227 1.11929 16.1034 0 14.7227 0C13.3419 0 12.2227 1.11929 12.2227 2.5V12.2222L2.5 12.2222C1.11929 12.2222 0 13.3415 0 14.7222C0 16.1029 1.11929 17.2222 2.5 17.2222H12.2227V27.5C12.2227 28.8807 13.3419 30 14.7227 30C16.1034 30 17.2227 28.8807 17.2227 27.5V17.2222H27.5C28.8807 17.2222 30 16.1029 30 14.7222C30 13.3415 28.8807 12.2222 27.5 12.2222L17.2227 12.2222V2.5Z" fill="#FCFAF2"/>
</svg>
