<svg width="32" height="32" viewBox="0 0 32 32" fill="none" xmlns="http://www.w3.org/2000/svg">
<path fill-rule="evenodd" clip-rule="evenodd" d="M19.2227 3.5C19.2227 1.567 17.6557 0 15.7227 0C13.7897 0 12.2227 1.567 12.2227 3.5V12.2222L3.5 12.2222C1.567 12.2222 0 13.7892 0 15.7222C0 17.6552 1.567 19.2222 3.5 19.2222H12.2227V28.5C12.2227 30.433 13.7897 32 15.7227 32C17.6557 32 19.2227 30.433 19.2227 28.5V19.2222H28.5C30.433 19.2222 32 17.6552 32 15.7222C32 13.7892 30.433 12.2222 28.5 12.2222L19.2227 12.2222V3.5Z" fill="#FCFAF2"/>
</svg>
