<svg width="24" height="24" viewBox="0 0 24 24" fill="none" xmlns="http://www.w3.org/2000/svg">
<path fill-rule="evenodd" clip-rule="evenodd" d="M13.7781 2C13.7781 0.895431 12.8827 0 11.7781 0C10.6736 0 9.77812 0.89543 9.77812 2V9.77773L2 9.77773C0.89543 9.77773 0 10.6732 0 11.7777C0 12.8823 0.89543 13.7777 2 13.7777L9.77812 13.7777V22C9.77812 23.1046 10.6736 24 11.7781 24C12.8827 24 13.7781 23.1046 13.7781 22V13.7777L22 13.7777C23.1046 13.7777 24 12.8823 24 11.7777C24 10.6732 23.1046 9.77773 22 9.77773L13.7781 9.77773V2Z" fill="#FCFAF2"/>
</svg>
