<svg width="1021" height="1119" viewBox="0 0 1021 1119" fill="none" xmlns="http://www.w3.org/2000/svg">
<path d="M52.4199 3.0001L52.4199 1.5001L53.9199 1.5001L267 1.50008L268.5 1.50008L268.5 3.00008L268.5 44.4083C268.5 60.1484 281.26 72.9083 297 72.9083L1017.5 72.9083L1019 72.9083L1019 74.4083L1019 1115.5L1019 1117L1017.5 1117L3.0001 1117L1.5001 1117L1.5001 1115.5L1.50001 74.4084L1.50001 72.9084L3.00001 72.9084L23.9199 72.9084C39.66 72.9083 52.4199 60.1485 52.4199 44.4084L52.4199 3.0001Z" fill="#E81700" stroke="#101415" stroke-width="3"/>
<path d="M148.511 243.58C154.891 268.22 169.411 285.05 195.151 291.32C193.171 293.19 190.751 296.71 189.431 299.02C162.701 291.43 148.071 273.28 140.481 245.34L148.511 243.58ZM98.9007 240.39H189.431V248.75H98.9007V240.39ZM95.4907 206.18H192.291V214.54H95.4907V206.18ZM138.831 208.49H147.521V234.12C147.521 257.33 142.571 283.84 98.4607 299.13C97.5807 297.04 95.1607 293.52 93.4007 291.87C134.541 277.9 138.831 254.25 138.831 234.12V208.49ZM206.701 202.44H214.511V270.97H206.701V202.44ZM210.881 202.44H238.821V265.47H210.881V257.88H231.121V209.81H210.881V202.44ZM210.771 229.06H235.081V236.43H210.771V229.06ZM243.551 202.22H292.831V209.59H243.551V202.22ZM290.191 202.22H298.111C298.111 202.22 298.111 204.31 298.001 205.41C296.901 221.36 295.911 227.96 293.491 230.49C291.841 232.25 289.861 232.8 287.001 233.02C284.471 233.24 279.631 233.24 274.571 233.02C274.351 230.93 273.581 228.07 272.481 226.09C277.211 226.53 281.721 226.64 283.481 226.64C285.131 226.64 286.121 226.42 286.891 225.65C288.541 224 289.421 218.39 290.191 203.32V202.22ZM262.691 204.53H270.941C268.961 220.59 263.571 231.15 244.651 236.87C243.881 235 241.791 232.14 240.031 230.71C256.861 226.09 261.261 217.51 262.691 204.53ZM254.661 245.34V262.06H286.781V245.34H254.661ZM246.851 238.41H294.921V268.99H246.851V238.41ZM233.981 276.36L241.571 275.48C243.001 282.63 244.211 291.76 244.321 297.26L236.181 298.47C236.181 292.86 235.301 283.51 233.981 276.36ZM257.521 276.03L265.221 274.6C268.191 281.42 271.161 290.66 272.261 296.38L264.121 298.14C263.131 292.53 260.381 283.07 257.521 276.03ZM279.961 275.37L287.331 272.4C292.611 279.55 298.991 289.34 301.741 295.5L293.821 299.02C291.291 292.86 285.131 282.74 279.961 275.37ZM215.721 273.17L223.531 275.37C219.681 283.62 214.181 293.08 209.121 299.35L201.201 295.94C206.261 290.33 211.981 281.2 215.721 273.17ZM310.981 229.28H407.671V237.64H310.981V229.28ZM364.551 232.58C371.701 259.2 386.661 281.42 409.541 290.88C407.451 292.75 404.701 296.27 403.271 298.58C379.511 287.36 364.551 264.15 356.301 234.56L364.551 232.58ZM354.871 197.71H363.781C363.341 226.53 363.121 276.69 315.051 298.69C313.731 296.49 311.091 293.52 308.781 291.87C355.531 271.52 354.651 224.11 354.871 197.71ZM487.421 206.18H511.731V213.55H494.901V298.8H487.421V206.18ZM507.881 206.18H515.251V273.5C515.251 277.13 514.591 279.55 512.281 280.98C509.861 282.41 506.451 282.52 500.731 282.52C500.511 280.43 499.411 277.02 498.311 274.93C502.161 274.93 505.241 274.93 506.451 274.93C507.441 274.93 507.881 274.6 507.881 273.39V206.18ZM452.221 197.6L459.701 199.03C456.951 210.91 452.551 222.68 447.271 230.49C445.841 229.39 442.651 227.3 440.781 226.42C446.061 219.27 450.021 208.38 452.221 197.6ZM452.111 209.48H483.021V216.96H449.691L452.111 209.48ZM443.201 234.23H483.681V241.71H443.201V234.23ZM465.311 255.13H483.021V262.39H465.311V255.13ZM446.171 250.07H452.771V286.92L446.171 288.35V250.07ZM439.901 285.38C451.011 283.95 468.391 281.42 485.221 278.89L485.441 285.82C470.041 288.57 453.651 291.1 441.881 292.97L439.901 285.38ZM462.121 212.45H469.381V284.61L462.121 286.04V212.45ZM433.521 197.6L441.001 200.46C435.611 209.26 427.031 219.16 419.221 225.76C418.231 224.11 416.031 221.03 414.711 219.6C421.751 213.88 429.561 204.86 433.521 197.6ZM435.831 219.71L443.091 222.24C436.821 235.22 427.251 249.08 418.341 258.1C417.461 256.45 414.931 252.6 413.501 250.95C421.751 243.03 430.331 231.26 435.831 219.71ZM427.911 239.73L435.391 232.14V232.36V298.69H427.911V239.73ZM570.581 238.41H618.761V245.67H570.581V238.41ZM570.361 260.19H619.971V267.67H570.361V260.19ZM590.051 197.6H597.971V298.8H590.051V197.6ZM566.401 216.74H622.611V271.85H614.801V224.22H574.101V272.4H566.401V216.74ZM525.371 218.28H558.591V225.87H525.371V218.28ZM540.441 197.71H548.471V222.02H540.441V197.71ZM549.351 243.25C552.321 245.45 562.441 254.8 564.861 257.22L560.021 263.93C556.831 259.86 548.141 250.84 544.621 247.43L549.351 243.25ZM555.621 218.28H557.381L558.811 217.95L563.431 220.92C555.841 240.94 540.221 259.42 525.591 269.65C524.821 267.56 522.731 263.71 521.301 262.28C535.051 253.37 549.461 236.65 555.621 220.04V218.28ZM540.441 251.39L548.471 241.49V298.69H540.441V251.39ZM139.821 422L133.991 401.54H109.571L103.741 422H91.2007L113.641 345.22H130.471L152.911 422H139.821ZM122.221 357.65H121.341L111.881 391.31H131.681L122.221 357.65ZM157.378 422V365.24H167.608V372.61H168.158C169.038 370.19 170.284 368.137 171.898 366.45C173.584 364.763 175.968 363.92 179.048 363.92C182.054 363.92 184.364 364.763 185.978 366.45C187.664 368.063 188.728 370.3 189.168 373.16H189.608C190.634 370.593 192.064 368.43 193.898 366.67C195.731 364.837 198.371 363.92 201.818 363.92C206.218 363.92 209.261 365.46 210.948 368.54C212.708 371.62 213.588 376.13 213.588 382.07V422H203.358V383.61C203.358 379.65 202.881 376.937 201.928 375.47C200.974 373.93 199.434 373.16 197.308 373.16C195.401 373.16 193.788 373.82 192.468 375.14C191.221 376.387 190.598 378.293 190.598 380.86V422H180.368V383.61C180.368 379.65 179.891 376.937 178.938 375.47C178.058 373.93 176.554 373.16 174.428 373.16C172.448 373.16 170.798 373.82 169.478 375.14C168.231 376.387 167.608 378.293 167.608 380.86V422H157.378ZM270.195 422C266.748 422 264.145 421.12 262.385 419.36C260.698 417.6 259.671 415.29 259.305 412.43H258.755C257.655 415.877 255.638 418.553 252.705 420.46C249.845 422.367 246.178 423.32 241.705 423.32C235.911 423.32 231.291 421.817 227.845 418.81C224.398 415.73 222.675 411.513 222.675 406.16C222.675 400.66 224.691 396.48 228.725 393.62C232.831 390.687 239.101 389.22 247.535 389.22H258.425V384.82C258.425 377.12 254.355 373.27 246.215 373.27C242.548 373.27 239.578 374.003 237.305 375.47C235.031 376.863 233.125 378.733 231.585 381.08L224.435 375.25C226.048 372.17 228.761 369.53 232.575 367.33C236.388 365.057 241.301 363.92 247.315 363.92C254.501 363.92 260.148 365.643 264.255 369.09C268.361 372.537 270.415 377.523 270.415 384.05V412.54H277.565V422H270.195ZM245.115 414.52C249.001 414.52 252.191 413.64 254.685 411.88C257.178 410.12 258.425 407.847 258.425 405.06V396.81H247.755C239.101 396.81 234.775 399.413 234.775 404.62V406.82C234.775 409.387 235.691 411.33 237.525 412.65C239.358 413.897 241.888 414.52 245.115 414.52ZM316.022 422C311.035 422 307.368 420.68 305.022 418.04C302.675 415.327 301.502 411.843 301.502 407.59V374.92H284.012V365.24H296.442C298.568 365.24 300.072 364.837 300.952 364.03C301.832 363.15 302.272 361.61 302.272 359.41V345.22H313.492V365.24H337.692V374.92H313.492V412.32H337.692V422H316.022ZM377.359 423.32C373.032 423.32 369.146 422.623 365.699 421.23C362.252 419.837 359.356 417.857 357.009 415.29C354.662 412.723 352.866 409.643 351.619 406.05C350.372 402.383 349.749 398.277 349.749 393.73C349.749 389.183 350.372 385.077 351.619 381.41C352.939 377.743 354.736 374.627 357.009 372.06C359.356 369.42 362.179 367.403 365.479 366.01C368.779 364.617 372.446 363.92 376.479 363.92C380.439 363.92 384.032 364.617 387.259 366.01C390.486 367.33 393.236 369.237 395.509 371.73C397.782 374.223 399.506 377.193 400.679 380.64C401.926 384.087 402.549 387.9 402.549 392.08V396.59H361.849V398.46C361.849 402.933 363.242 406.6 366.029 409.46C368.816 412.247 372.666 413.64 377.579 413.64C381.246 413.64 384.362 412.87 386.929 411.33C389.569 409.717 391.696 407.59 393.309 404.95L400.789 411.55C398.882 414.85 395.949 417.637 391.989 419.91C388.102 422.183 383.226 423.32 377.359 423.32ZM376.479 373.05C374.352 373.05 372.372 373.417 370.539 374.15C368.779 374.883 367.239 375.947 365.919 377.34C364.672 378.66 363.682 380.237 362.949 382.07C362.216 383.903 361.849 385.92 361.849 388.12V388.89H390.339V387.79C390.339 383.317 389.056 379.76 386.489 377.12C383.996 374.407 380.659 373.05 376.479 373.05ZM415.046 412.32H430.116V374.92H415.046V365.24H442.106V380.31H442.766C443.279 378.33 444.013 376.423 444.966 374.59C445.919 372.757 447.129 371.18 448.596 369.86C450.063 368.467 451.859 367.367 453.986 366.56C456.113 365.68 458.606 365.24 461.466 365.24H468.286V376.68H457.066C452.666 376.68 449.073 378 446.286 380.64C443.499 383.207 442.106 386.69 442.106 391.09V412.32H462.676V422H415.046V412.32ZM524.343 422C520.896 422 518.293 421.12 516.533 419.36C514.846 417.6 513.82 415.29 513.453 412.43H512.903C511.803 415.877 509.786 418.553 506.853 420.46C503.993 422.367 500.326 423.32 495.853 423.32C490.06 423.32 485.44 421.817 481.993 418.81C478.546 415.73 476.823 411.513 476.823 406.16C476.823 400.66 478.84 396.48 482.873 393.62C486.98 390.687 493.25 389.22 501.683 389.22H512.573V384.82C512.573 377.12 508.503 373.27 500.363 373.27C496.696 373.27 493.726 374.003 491.453 375.47C489.18 376.863 487.273 378.733 485.733 381.08L478.583 375.25C480.196 372.17 482.91 369.53 486.723 367.33C490.536 365.057 495.45 363.92 501.463 363.92C508.65 363.92 514.296 365.643 518.403 369.09C522.51 372.537 524.563 377.523 524.563 384.05V412.54H531.713V422H524.343ZM499.263 414.52C503.15 414.52 506.34 413.64 508.833 411.88C511.326 410.12 512.573 407.847 512.573 405.06V396.81H501.903C493.25 396.81 488.923 399.413 488.923 404.62V406.82C488.923 409.387 489.84 411.33 491.673 412.65C493.506 413.897 496.036 414.52 499.263 414.52ZM566.87 423.32C560.71 423.32 555.393 422.33 550.92 420.35C546.52 418.37 542.963 415.73 540.25 412.43L547.62 405.83C550.113 408.543 552.9 410.633 555.98 412.1C559.133 413.493 562.837 414.19 567.09 414.19C570.977 414.19 574.093 413.53 576.44 412.21C578.86 410.89 580.07 408.837 580.07 406.05C580.07 404.877 579.85 403.887 579.41 403.08C578.97 402.273 578.347 401.613 577.54 401.1C576.733 400.587 575.78 400.183 574.68 399.89C573.653 399.597 572.553 399.377 571.38 399.23L562.36 397.8C560.16 397.507 557.923 397.03 555.65 396.37C553.377 395.71 551.323 394.793 549.49 393.62C547.73 392.373 546.263 390.797 545.09 388.89C543.99 386.983 543.44 384.563 543.44 381.63C543.44 375.837 545.64 371.437 550.04 368.43C554.513 365.423 560.38 363.92 567.64 363.92C572.92 363.92 577.467 364.727 581.28 366.34C585.167 367.88 588.393 370.043 590.96 372.83L584.25 379.87C582.783 378.183 580.693 376.643 577.98 375.25C575.267 373.783 571.673 373.05 567.2 373.05C559.207 373.05 555.21 375.58 555.21 380.64C555.21 383.06 556.053 384.747 557.74 385.7C559.5 386.58 561.553 387.167 563.9 387.46L572.92 388.89C575.193 389.257 577.43 389.733 579.63 390.32C581.903 390.907 583.92 391.823 585.68 393.07C587.513 394.243 588.98 395.783 590.08 397.69C591.253 399.597 591.84 402.017 591.84 404.95C591.84 410.67 589.603 415.18 585.13 418.48C580.73 421.707 574.643 423.32 566.87 423.32ZM642.067 412.32H641.517C640.93 413.787 640.16 415.217 639.207 416.61C638.327 417.93 637.227 419.103 635.907 420.13C634.587 421.083 633.047 421.853 631.287 422.44C629.527 423.027 627.474 423.32 625.127 423.32C619.407 423.32 614.787 421.45 611.267 417.71C607.747 413.97 605.987 408.653 605.987 401.76V365.24H617.977V400C617.977 409.02 621.9 413.53 629.747 413.53C631.287 413.53 632.79 413.347 634.257 412.98C635.724 412.54 637.044 411.917 638.217 411.11C639.39 410.303 640.307 409.313 640.967 408.14C641.7 406.893 642.067 405.427 642.067 403.74V365.24H654.057V422H642.067V412.32Z" fill="#FCFAF2"/>
<path d="M161.495 47.5L159.375 40.06L150.495 40.06L148.375 47.5L143.815 47.5L151.975 19.58L158.095 19.58L166.255 47.5L161.495 47.5ZM155.095 24.1H154.775L151.335 36.34L158.535 36.34L155.095 24.1Z" fill="#FCFAF2"/>
<path d="M107.2 545.7C96.75 545.7 90.8 537.85 90.8 527.15C90.8 516.6 96.85 508.55 107.7 508.55C115.05 508.55 120.5 512.35 121.8 519.6H118.35C117.25 514.25 113.15 511.45 107.7 511.45C98.5 511.45 94.3 518.5 94.3 527.15C94.3 535.95 98.75 542.75 107.25 542.75C115.5 542.75 119.05 537.05 119.05 530.85V529.6H107.55V526.65H122.35V545H120L119.3 539.3H119.15C117.3 542.2 113.8 545.7 107.2 545.7ZM137.234 543.05C142.984 543.05 145.984 538.15 145.984 532.1C145.984 526.05 142.984 521.15 137.234 521.15C131.434 521.15 128.434 526.05 128.434 532.1C128.434 538.15 131.434 543.05 137.234 543.05ZM137.234 545.65C129.784 545.65 125.234 539.8 125.234 532.1C125.234 524.4 129.784 518.55 137.234 518.55C144.684 518.55 149.134 524.4 149.134 532.1C149.134 539.8 144.684 545.65 137.234 545.65ZM161.749 545.7C154.799 545.7 150.599 540.1 150.599 532.15C150.599 523.55 155.499 518.6 161.649 518.6C165.599 518.6 168.499 520.45 170.149 523.45H170.249V509.25H173.349V545H170.249V541.15H170.149C168.249 544.1 165.649 545.7 161.749 545.7ZM161.849 543.1C167.499 543.1 170.499 538.65 170.499 532.2C170.499 525.85 167.449 521.2 161.849 521.2C156.749 521.2 153.799 525.75 153.799 532.2C153.799 538.25 156.399 543.1 161.849 543.1ZM187.26 545.7C180.31 545.7 176.11 540.1 176.11 532.15C176.11 523.55 181.01 518.6 187.16 518.6C191.11 518.6 194.01 520.45 195.66 523.45H195.76V509.25H198.86V545H195.76V541.15H195.66C193.76 544.1 191.16 545.7 187.26 545.7ZM187.36 543.1C193.01 543.1 196.01 538.65 196.01 532.2C196.01 525.85 192.96 521.2 187.36 521.2C182.26 521.2 179.31 525.75 179.31 532.2C179.31 538.25 181.91 543.1 187.36 543.1ZM213.671 545.65C205.921 545.65 201.621 539.85 201.621 532.1C201.621 524.35 206.271 518.55 213.421 518.55C221.721 518.55 224.571 525.4 224.521 532.65H204.821C204.971 538.45 207.771 543 213.671 543C217.971 543 220.221 540.7 221.221 537.2H224.221C223.121 542.3 219.471 545.65 213.671 545.65ZM204.871 530.2H221.271C221.121 525.1 218.721 521.1 213.421 521.1C208.171 521.1 205.421 525.05 204.871 530.2ZM236.312 545.7C229.412 545.7 225.912 541.95 225.612 536.95H228.762C229.212 541.3 232.212 543.05 236.362 543.05C240.662 543.05 242.912 541.05 242.912 538.05C242.912 535.2 241.312 534.25 236.012 533.05C230.762 531.85 226.562 530.6 226.562 525.6C226.562 521.3 230.262 518.6 235.562 518.6C241.712 518.6 244.562 521.7 245.162 526.25H242.062C241.712 522.9 239.412 521.15 235.562 521.15C231.562 521.15 229.662 523.05 229.662 525.45C229.662 528.4 232.112 529.1 237.062 530.25C242.262 531.35 246.012 532.65 246.012 538C246.012 542.6 242.312 545.7 236.312 545.7ZM257.771 545.7C250.871 545.7 247.371 541.95 247.071 536.95H250.221C250.671 541.3 253.671 543.05 257.821 543.05C262.121 543.05 264.371 541.05 264.371 538.05C264.371 535.2 262.771 534.25 257.471 533.05C252.221 531.85 248.021 530.6 248.021 525.6C248.021 521.3 251.721 518.6 257.021 518.6C263.171 518.6 266.021 521.7 266.621 526.25H263.521C263.171 522.9 260.871 521.15 257.021 521.15C253.021 521.15 251.121 523.05 251.121 525.45C251.121 528.4 253.571 529.1 258.521 530.25C263.721 531.35 267.471 532.65 267.471 538C267.471 542.6 263.771 545.7 257.771 545.7ZM287.249 543.05C292.999 543.05 295.999 538.15 295.999 532.1C295.999 526.05 292.999 521.15 287.249 521.15C281.449 521.15 278.449 526.05 278.449 532.1C278.449 538.15 281.449 543.05 287.249 543.05ZM287.249 545.65C279.799 545.65 275.249 539.8 275.249 532.1C275.249 524.4 279.799 518.55 287.249 518.55C294.699 518.55 299.149 524.4 299.149 532.1C299.149 539.8 294.699 545.65 287.249 545.65ZM303.181 545V521.7H299.431V519.15H303.181V514.55C303.181 510.7 305.281 509 309.231 509C309.581 509 310.781 509.05 310.981 509.05V511.7H309.631C307.031 511.7 306.231 512.7 306.231 514.65V519.15H311.031V521.7H306.231V545H303.181ZM329.029 545.7C322.129 545.7 318.629 541.95 318.329 536.95H321.479C321.929 541.3 324.929 543.05 329.079 543.05C333.379 543.05 335.629 541.05 335.629 538.05C335.629 535.2 334.029 534.25 328.729 533.05C323.479 531.85 319.279 530.6 319.279 525.6C319.279 521.3 322.979 518.6 328.279 518.6C334.429 518.6 337.279 521.7 337.879 526.25H334.779C334.429 522.9 332.129 521.15 328.279 521.15C324.279 521.15 322.379 523.05 322.379 525.45C322.379 528.4 324.829 529.1 329.779 530.25C334.979 531.35 338.729 532.65 338.729 538C338.729 542.6 335.029 545.7 329.029 545.7ZM349.737 545.6C344.737 545.6 341.237 542.6 341.237 537.4V519.15H344.337V537.2C344.337 541.1 346.687 543 350.437 543C354.837 543 357.937 539.7 357.937 535.3V519.15H360.987V545H357.937V541.2H357.837C356.037 543.7 353.837 545.6 349.737 545.6ZM365.093 545V519.15H368.193V523.1H368.293C370.043 520.5 372.843 518.6 376.943 518.6C381.743 518.6 385.193 521.45 385.193 526.65V545H382.093V526.95C382.093 523.05 379.843 521.25 376.193 521.25C371.793 521.25 368.193 524.35 368.193 528.6V545H365.093Z" fill="#FCFAF2"/>
<path d="M513.7 991V970.06H526.6V972.25H516.22V979.3H526.24V981.49H516.22V988.81H526.6V991H513.7ZM530.158 991L535.918 983.14L530.308 975.52H533.188L535.528 978.79L537.388 981.37H537.508L539.308 978.79L541.618 975.52H544.378L538.708 983.11L544.528 991H541.648L539.038 987.37L537.268 984.91H537.148L535.438 987.37L532.918 991H530.158ZM548.507 975.52H550.907V978.04H551.027C552.027 976.12 553.617 975.16 555.797 975.16C557.697 975.16 559.177 975.87 560.237 977.29C561.317 978.71 561.857 980.7 561.857 983.26C561.857 985.82 561.317 987.81 560.237 989.23C559.177 990.65 557.697 991.36 555.797 991.36C553.617 991.36 552.027 990.4 551.027 988.48H550.907V997H548.507V975.52ZM554.867 989.23C556.267 989.23 557.347 988.81 558.107 987.97C558.887 987.11 559.277 985.98 559.277 984.58V981.94C559.277 980.54 558.887 979.42 558.107 978.58C557.347 977.72 556.267 977.29 554.867 977.29C554.327 977.29 553.817 977.36 553.337 977.5C552.857 977.64 552.437 977.85 552.077 978.13C551.717 978.39 551.427 978.72 551.207 979.12C551.007 979.5 550.907 979.95 550.907 980.47V986.05C550.907 986.57 551.007 987.03 551.207 987.43C551.427 987.81 551.717 988.14 552.077 988.42C552.437 988.68 552.857 988.88 553.337 989.02C553.817 989.16 554.327 989.23 554.867 989.23ZM565.385 988.96H570.785V970.84H565.385V968.8H573.185V988.96H578.585V991H565.385V988.96ZM590.273 972.1C589.573 972.1 589.083 971.96 588.803 971.68C588.523 971.38 588.383 971.01 588.383 970.57V970.09C588.383 969.65 588.523 969.29 588.803 969.01C589.083 968.71 589.573 968.56 590.273 968.56C590.973 968.56 591.463 968.71 591.743 969.01C592.023 969.29 592.163 969.65 592.163 970.09V970.57C592.163 971.01 592.023 971.38 591.743 971.68C591.463 971.96 590.973 972.1 590.273 972.1ZM583.493 988.96H589.073V977.56H583.493V975.52H591.473V988.96H596.693V991H583.493V988.96ZM607.181 991.36C606.061 991.36 605.061 991.17 604.181 990.79C603.321 990.39 602.591 989.84 601.991 989.14C601.391 988.44 600.931 987.59 600.611 986.59C600.311 985.59 600.161 984.48 600.161 983.26C600.161 982.04 600.321 980.93 600.641 979.93C600.961 978.93 601.421 978.08 602.021 977.38C602.621 976.66 603.351 976.11 604.211 975.73C605.071 975.35 606.051 975.16 607.151 975.16C608.651 975.16 609.871 975.49 610.811 976.15C611.751 976.81 612.441 977.67 612.881 978.73L610.961 979.75C610.681 978.95 610.211 978.33 609.551 977.89C608.911 977.45 608.111 977.23 607.151 977.23C606.451 977.23 605.821 977.35 605.261 977.59C604.721 977.81 604.261 978.13 603.881 978.55C603.501 978.97 603.211 979.47 603.011 980.05C602.831 980.63 602.741 981.26 602.741 981.94V984.58C602.741 985.26 602.831 985.89 603.011 986.47C603.211 987.05 603.501 987.55 603.881 987.97C604.261 988.39 604.731 988.72 605.291 988.96C605.851 989.18 606.491 989.29 607.211 989.29C608.251 989.29 609.111 989.05 609.791 988.57C610.471 988.09 611.011 987.43 611.411 986.59L613.121 987.76C612.661 988.8 611.941 989.66 610.961 990.34C610.001 991.02 608.741 991.36 607.181 991.36ZM624.93 972.1C624.23 972.1 623.74 971.96 623.46 971.68C623.18 971.38 623.04 971.01 623.04 970.57V970.09C623.04 969.65 623.18 969.29 623.46 969.01C623.74 968.71 624.23 968.56 624.93 968.56C625.63 968.56 626.12 968.71 626.4 969.01C626.68 969.29 626.82 969.65 626.82 970.09V970.57C626.82 971.01 626.68 971.38 626.4 971.68C626.12 971.96 625.63 972.1 624.93 972.1ZM618.15 988.96H623.73V977.56H618.15V975.52H626.13V988.96H631.35V991H618.15V988.96ZM642.048 991C640.868 991 639.998 990.67 639.438 990.01C638.898 989.35 638.628 988.5 638.628 987.46V977.56H633.468V975.52H637.308C637.828 975.52 638.188 975.42 638.388 975.22C638.608 975 638.718 974.63 638.718 974.11V970.06H641.028V975.52H648.078V977.56H641.028V988.96H648.078V991H642.048ZM669.265 988.96H673.795V977.56H669.265V975.52H676.195V979.42H676.345C676.665 978.2 677.265 977.25 678.145 976.57C679.045 975.87 680.185 975.52 681.565 975.52H683.725V977.92H680.815C679.435 977.92 678.315 978.32 677.455 979.12C676.615 979.92 676.195 980.97 676.195 982.27V988.96H682.195V991H669.265V988.96ZM693.553 991.36C692.433 991.36 691.423 991.17 690.523 990.79C689.643 990.41 688.883 989.87 688.243 989.17C687.623 988.45 687.143 987.6 686.803 986.62C686.463 985.62 686.293 984.51 686.293 983.29C686.293 982.05 686.463 980.93 686.803 979.93C687.163 978.93 687.653 978.08 688.273 977.38C688.893 976.66 689.633 976.11 690.493 975.73C691.373 975.35 692.343 975.16 693.403 975.16C694.443 975.16 695.383 975.35 696.223 975.73C697.083 976.11 697.813 976.64 698.413 977.32C699.013 977.98 699.473 978.77 699.793 979.69C700.113 980.61 700.273 981.62 700.273 982.72V983.86H688.813V984.58C688.813 985.26 688.923 985.89 689.143 986.47C689.363 987.05 689.673 987.55 690.073 987.97C690.493 988.39 690.993 988.72 691.573 988.96C692.173 989.18 692.833 989.29 693.553 989.29C694.593 989.29 695.493 989.05 696.253 988.57C697.013 988.09 697.593 987.43 697.993 986.59L699.763 987.79C699.303 988.83 698.533 989.69 697.453 990.37C696.393 991.03 695.093 991.36 693.553 991.36ZM693.403 977.14C692.743 977.14 692.133 977.26 691.573 977.5C691.013 977.74 690.523 978.07 690.103 978.49C689.703 978.91 689.383 979.41 689.143 979.99C688.923 980.55 688.813 981.17 688.813 981.85V982.06H697.693V981.73C697.693 981.05 697.583 980.43 697.363 979.87C697.163 979.31 696.873 978.83 696.493 978.43C696.133 978.01 695.683 977.69 695.143 977.47C694.623 977.25 694.043 977.14 693.403 977.14ZM704.101 988.96H709.321V977.56H703.801V975.52H709.321V972.34C709.321 971.3 709.591 970.45 710.131 969.79C710.691 969.13 711.561 968.8 712.741 968.8H717.931V970.84H711.721V975.52H717.931V977.56H711.721V988.96H717.241V991H704.101V988.96ZM727.939 991.27C727.119 991.27 726.539 991.1 726.199 990.76C725.879 990.42 725.719 989.99 725.719 989.47V988.93C725.719 988.41 725.879 987.98 726.199 987.64C726.539 987.3 727.119 987.13 727.939 987.13C728.759 987.13 729.329 987.3 729.649 987.64C729.989 987.98 730.159 988.41 730.159 988.93V989.47C730.159 989.99 729.989 990.42 729.649 990.76C729.329 991.1 728.759 991.27 727.939 991.27Z" fill="#FCFAF2"/>
<path d="M203.62 1039V1023.52H205.84V1025.32H205.96C206.2 1024.72 206.54 1024.21 206.98 1023.79C207.42 1023.37 208.07 1023.16 208.93 1023.16C209.83 1023.16 210.5 1023.39 210.94 1023.85C211.38 1024.29 211.65 1024.87 211.75 1025.59H211.84C212.12 1024.89 212.52 1024.31 213.04 1023.85C213.56 1023.39 214.28 1023.16 215.2 1023.16C216.46 1023.16 217.3 1023.6 217.72 1024.48C218.16 1025.36 218.38 1026.62 218.38 1028.26V1039H216.16V1028.65C216.16 1027.33 216.02 1026.42 215.74 1025.92C215.48 1025.4 214.99 1025.14 214.27 1025.14C213.63 1025.14 213.11 1025.35 212.71 1025.77C212.31 1026.17 212.11 1026.79 212.11 1027.63V1039H209.89V1028.65C209.89 1027.33 209.75 1026.42 209.47 1025.92C209.21 1025.4 208.73 1025.14 208.03 1025.14C207.39 1025.14 206.86 1025.35 206.44 1025.77C206.04 1026.17 205.84 1026.79 205.84 1027.63V1039H203.62ZM228.328 1039.36C227.248 1039.36 226.268 1039.17 225.388 1038.79C224.528 1038.41 223.788 1037.87 223.168 1037.17C222.568 1036.45 222.108 1035.6 221.788 1034.62C221.468 1033.62 221.308 1032.5 221.308 1031.26C221.308 1030.04 221.468 1028.93 221.788 1027.93C222.108 1026.93 222.568 1026.08 223.168 1025.38C223.788 1024.66 224.528 1024.11 225.388 1023.73C226.268 1023.35 227.248 1023.16 228.328 1023.16C229.408 1023.16 230.378 1023.35 231.238 1023.73C232.118 1024.11 232.858 1024.66 233.458 1025.38C234.078 1026.08 234.548 1026.93 234.868 1027.93C235.188 1028.93 235.348 1030.04 235.348 1031.26C235.348 1032.5 235.188 1033.62 234.868 1034.62C234.548 1035.6 234.078 1036.45 233.458 1037.17C232.858 1037.87 232.118 1038.41 231.238 1038.79C230.378 1039.17 229.408 1039.36 228.328 1039.36ZM228.328 1037.29C229.668 1037.29 230.748 1036.89 231.568 1036.09C232.388 1035.29 232.798 1034.05 232.798 1032.37V1030.15C232.798 1028.47 232.388 1027.23 231.568 1026.43C230.748 1025.63 229.668 1025.23 228.328 1025.23C226.988 1025.23 225.908 1025.63 225.088 1026.43C224.268 1027.23 223.858 1028.47 223.858 1030.15V1032.37C223.858 1034.05 224.268 1035.29 225.088 1036.09C225.908 1036.89 226.988 1037.29 228.328 1037.29ZM244.127 1039L238.577 1023.52H241.007L243.227 1030L245.627 1036.99H245.747L248.147 1030L250.367 1023.52H252.737L247.187 1039H244.127ZM263.945 1020.1C263.245 1020.1 262.755 1019.96 262.475 1019.68C262.195 1019.38 262.055 1019.01 262.055 1018.57V1018.09C262.055 1017.65 262.195 1017.29 262.475 1017.01C262.755 1016.71 263.245 1016.56 263.945 1016.56C264.645 1016.56 265.135 1016.71 265.415 1017.01C265.695 1017.29 265.835 1017.65 265.835 1018.09V1018.57C265.835 1019.01 265.695 1019.38 265.415 1019.68C265.135 1019.96 264.645 1020.1 263.945 1020.1ZM257.165 1036.96H262.745V1025.56H257.165V1023.52H265.145V1036.96H270.365V1039H257.165V1036.96ZM280.583 1039.36C279.463 1039.36 278.453 1039.17 277.553 1038.79C276.673 1038.41 275.913 1037.87 275.273 1037.17C274.653 1036.45 274.173 1035.6 273.833 1034.62C273.493 1033.62 273.323 1032.51 273.323 1031.29C273.323 1030.05 273.493 1028.93 273.833 1027.93C274.193 1026.93 274.683 1026.08 275.303 1025.38C275.923 1024.66 276.663 1024.11 277.523 1023.73C278.403 1023.35 279.373 1023.16 280.433 1023.16C281.473 1023.16 282.413 1023.35 283.253 1023.73C284.113 1024.11 284.843 1024.64 285.443 1025.32C286.043 1025.98 286.503 1026.77 286.823 1027.69C287.143 1028.61 287.303 1029.62 287.303 1030.72V1031.86H275.843V1032.58C275.843 1033.26 275.953 1033.89 276.173 1034.47C276.393 1035.05 276.703 1035.55 277.103 1035.97C277.523 1036.39 278.023 1036.72 278.603 1036.96C279.203 1037.18 279.863 1037.29 280.583 1037.29C281.623 1037.29 282.523 1037.05 283.283 1036.57C284.043 1036.09 284.623 1035.43 285.023 1034.59L286.793 1035.79C286.333 1036.83 285.563 1037.69 284.483 1038.37C283.423 1039.03 282.123 1039.36 280.583 1039.36ZM280.433 1025.14C279.773 1025.14 279.163 1025.26 278.603 1025.5C278.043 1025.74 277.553 1026.07 277.133 1026.49C276.733 1026.91 276.413 1027.41 276.173 1027.99C275.953 1028.55 275.843 1029.17 275.843 1029.85V1030.06H284.723V1029.73C284.723 1029.05 284.613 1028.43 284.393 1027.87C284.193 1027.31 283.903 1026.83 283.523 1026.43C283.163 1026.01 282.713 1025.69 282.173 1025.47C281.653 1025.25 281.073 1025.14 280.433 1025.14ZM297.821 1039.36C296.201 1039.36 294.801 1039.09 293.621 1038.55C292.461 1037.99 291.471 1037.25 290.651 1036.33L292.271 1034.92C293.011 1035.7 293.821 1036.3 294.701 1036.72C295.581 1037.14 296.641 1037.35 297.881 1037.35C299.081 1037.35 300.061 1037.14 300.821 1036.72C301.601 1036.28 301.991 1035.6 301.991 1034.68C301.991 1034.28 301.911 1033.95 301.751 1033.69C301.611 1033.41 301.411 1033.19 301.151 1033.03C300.891 1032.87 300.601 1032.75 300.281 1032.67C299.961 1032.57 299.621 1032.49 299.261 1032.43L296.831 1032.07C296.291 1031.99 295.701 1031.88 295.061 1031.74C294.441 1031.6 293.871 1031.38 293.351 1031.08C292.831 1030.76 292.391 1030.34 292.031 1029.82C291.691 1029.3 291.521 1028.62 291.521 1027.78C291.521 1027 291.671 1026.33 291.971 1025.77C292.291 1025.19 292.731 1024.71 293.291 1024.33C293.851 1023.93 294.511 1023.64 295.271 1023.46C296.031 1023.26 296.861 1023.16 297.761 1023.16C299.161 1023.16 300.371 1023.38 301.391 1023.82C302.431 1024.26 303.321 1024.87 304.061 1025.65L302.501 1027.12C302.321 1026.9 302.091 1026.68 301.811 1026.46C301.551 1026.22 301.221 1026.01 300.821 1025.83C300.441 1025.63 299.991 1025.47 299.471 1025.35C298.951 1025.23 298.351 1025.17 297.671 1025.17C296.451 1025.17 295.511 1025.38 294.851 1025.8C294.211 1026.22 293.891 1026.83 293.891 1027.63C293.891 1028.03 293.961 1028.37 294.101 1028.65C294.261 1028.91 294.471 1029.12 294.731 1029.28C294.991 1029.44 295.281 1029.57 295.601 1029.67C295.941 1029.75 296.281 1029.82 296.621 1029.88L299.051 1030.24C299.611 1030.32 300.201 1030.43 300.821 1030.57C301.441 1030.71 302.011 1030.94 302.531 1031.26C303.051 1031.56 303.481 1031.97 303.821 1032.49C304.181 1033.01 304.361 1033.69 304.361 1034.53C304.361 1036.07 303.761 1037.26 302.561 1038.1C301.381 1038.94 299.801 1039.36 297.821 1039.36Z" fill="#FCFAF2"/>
<path d="M91.7 991V970.06H99.32C101.26 970.06 102.74 970.59 103.76 971.65C104.78 972.71 105.29 974.19 105.29 976.09C105.29 977.99 104.78 979.47 103.76 980.53C102.74 981.59 101.26 982.12 99.32 982.12H94.22V991H91.7ZM94.22 979.93H99.26C100.32 979.93 101.14 979.67 101.72 979.15C102.32 978.61 102.62 977.85 102.62 976.87V975.31C102.62 974.33 102.32 973.58 101.72 973.06C101.14 972.52 100.32 972.25 99.26 972.25H94.22V979.93ZM108.638 988.96H113.168V977.56H108.638V975.52H115.568V979.42H115.718C116.038 978.2 116.638 977.25 117.518 976.57C118.418 975.87 119.558 975.52 120.938 975.52H123.098V977.92H120.188C118.808 977.92 117.688 978.32 116.828 979.12C115.988 979.92 115.568 980.97 115.568 982.27V988.96H121.568V991H108.638V988.96ZM132.927 991.36C131.807 991.36 130.797 991.17 129.897 990.79C129.017 990.41 128.257 989.87 127.617 989.17C126.997 988.45 126.517 987.6 126.177 986.62C125.837 985.62 125.667 984.51 125.667 983.29C125.667 982.05 125.837 980.93 126.177 979.93C126.537 978.93 127.027 978.08 127.647 977.38C128.267 976.66 129.007 976.11 129.867 975.73C130.747 975.35 131.717 975.16 132.777 975.16C133.817 975.16 134.757 975.35 135.597 975.73C136.457 976.11 137.187 976.64 137.787 977.32C138.387 977.98 138.847 978.77 139.167 979.69C139.487 980.61 139.647 981.62 139.647 982.72V983.86H128.187V984.58C128.187 985.26 128.297 985.89 128.517 986.47C128.737 987.05 129.047 987.55 129.447 987.97C129.867 988.39 130.367 988.72 130.947 988.96C131.547 989.18 132.207 989.29 132.927 989.29C133.967 989.29 134.867 989.05 135.627 988.57C136.387 988.09 136.967 987.43 137.367 986.59L139.137 987.79C138.677 988.83 137.907 989.69 136.827 990.37C135.767 991.03 134.467 991.36 132.927 991.36ZM132.777 977.14C132.117 977.14 131.507 977.26 130.947 977.5C130.387 977.74 129.897 978.07 129.477 978.49C129.077 978.91 128.757 979.41 128.517 979.99C128.297 980.55 128.187 981.17 128.187 981.85V982.06H137.067V981.73C137.067 981.05 136.957 980.43 136.737 979.87C136.537 979.31 136.247 978.83 135.867 978.43C135.507 978.01 135.057 977.69 134.517 977.47C133.997 977.25 133.417 977.14 132.777 977.14ZM150.165 991.36C148.545 991.36 147.145 991.09 145.965 990.55C144.805 989.99 143.815 989.25 142.995 988.33L144.615 986.92C145.355 987.7 146.165 988.3 147.045 988.72C147.925 989.14 148.985 989.35 150.225 989.35C151.425 989.35 152.405 989.14 153.165 988.72C153.945 988.28 154.335 987.6 154.335 986.68C154.335 986.28 154.255 985.95 154.095 985.69C153.955 985.41 153.755 985.19 153.495 985.03C153.235 984.87 152.945 984.75 152.625 984.67C152.305 984.57 151.965 984.49 151.605 984.43L149.175 984.07C148.635 983.99 148.045 983.88 147.405 983.74C146.785 983.6 146.215 983.38 145.695 983.08C145.175 982.76 144.735 982.34 144.375 981.82C144.035 981.3 143.865 980.62 143.865 979.78C143.865 979 144.015 978.33 144.315 977.77C144.635 977.19 145.075 976.71 145.635 976.33C146.195 975.93 146.855 975.64 147.615 975.46C148.375 975.26 149.205 975.16 150.105 975.16C151.505 975.16 152.715 975.38 153.735 975.82C154.775 976.26 155.665 976.87 156.405 977.65L154.845 979.12C154.665 978.9 154.435 978.68 154.155 978.46C153.895 978.22 153.565 978.01 153.165 977.83C152.785 977.63 152.335 977.47 151.815 977.35C151.295 977.23 150.695 977.17 150.015 977.17C148.795 977.17 147.855 977.38 147.195 977.8C146.555 978.22 146.235 978.83 146.235 979.63C146.235 980.03 146.305 980.37 146.445 980.65C146.605 980.91 146.815 981.12 147.075 981.28C147.335 981.44 147.625 981.57 147.945 981.67C148.285 981.75 148.625 981.82 148.965 981.88L151.395 982.24C151.955 982.32 152.545 982.43 153.165 982.57C153.785 982.71 154.355 982.94 154.875 983.26C155.395 983.56 155.825 983.97 156.165 984.49C156.525 985.01 156.705 985.69 156.705 986.53C156.705 988.07 156.105 989.26 154.905 990.1C153.725 990.94 152.145 991.36 150.165 991.36ZM167.583 991.36C166.463 991.36 165.453 991.17 164.553 990.79C163.673 990.41 162.913 989.87 162.273 989.17C161.653 988.45 161.173 987.6 160.833 986.62C160.493 985.62 160.323 984.51 160.323 983.29C160.323 982.05 160.493 980.93 160.833 979.93C161.193 978.93 161.683 978.08 162.303 977.38C162.923 976.66 163.663 976.11 164.523 975.73C165.403 975.35 166.373 975.16 167.433 975.16C168.473 975.16 169.413 975.35 170.253 975.73C171.113 976.11 171.843 976.64 172.443 977.32C173.043 977.98 173.503 978.77 173.823 979.69C174.143 980.61 174.303 981.62 174.303 982.72V983.86H162.843V984.58C162.843 985.26 162.953 985.89 163.173 986.47C163.393 987.05 163.703 987.55 164.103 987.97C164.523 988.39 165.023 988.72 165.603 988.96C166.203 989.18 166.863 989.29 167.583 989.29C168.623 989.29 169.523 989.05 170.283 988.57C171.043 988.09 171.623 987.43 172.023 986.59L173.793 987.79C173.333 988.83 172.563 989.69 171.483 990.37C170.423 991.03 169.123 991.36 167.583 991.36ZM167.433 977.14C166.773 977.14 166.163 977.26 165.603 977.5C165.043 977.74 164.553 978.07 164.133 978.49C163.733 978.91 163.413 979.41 163.173 979.99C162.953 980.55 162.843 981.17 162.843 981.85V982.06H171.723V981.73C171.723 981.05 171.613 980.43 171.393 979.87C171.193 979.31 170.903 978.83 170.523 978.43C170.163 978.01 169.713 977.69 169.173 977.47C168.653 977.25 168.073 977.14 167.433 977.14ZM178.581 991V975.52H180.981V978.04H181.101C181.261 977.66 181.461 977.3 181.701 976.96C181.941 976.6 182.231 976.29 182.571 976.03C182.931 975.77 183.351 975.56 183.831 975.4C184.311 975.24 184.871 975.16 185.511 975.16C187.131 975.16 188.431 975.68 189.411 976.72C190.391 977.74 190.881 979.19 190.881 981.07V991H188.481V981.49C188.481 980.07 188.171 979.02 187.551 978.34C186.931 977.64 186.021 977.29 184.821 977.29C184.341 977.29 183.871 977.35 183.411 977.47C182.951 977.59 182.541 977.77 182.181 978.01C181.821 978.25 181.531 978.56 181.311 978.94C181.091 979.32 180.981 979.76 180.981 980.26V991H178.581ZM202.72 991C201.54 991 200.67 990.67 200.11 990.01C199.57 989.35 199.3 988.5 199.3 987.46V977.56H194.14V975.52H197.98C198.5 975.52 198.86 975.42 199.06 975.22C199.28 975 199.39 974.63 199.39 974.11V970.06H201.7V975.52H208.75V977.56H201.7V988.96H208.75V991H202.72ZM237.586 972.1C236.886 972.1 236.396 971.96 236.116 971.68C235.836 971.38 235.696 971.01 235.696 970.57V970.09C235.696 969.65 235.836 969.29 236.116 969.01C236.396 968.71 236.886 968.56 237.586 968.56C238.286 968.56 238.776 968.71 239.056 969.01C239.336 969.29 239.476 969.65 239.476 970.09V970.57C239.476 971.01 239.336 971.38 239.056 971.68C238.776 971.96 238.286 972.1 237.586 972.1ZM230.806 988.96H236.386V977.56H230.806V975.52H238.786V988.96H244.006V991H230.806V988.96ZM247.895 991V975.52H250.295V978.04H250.415C250.575 977.66 250.775 977.3 251.015 976.96C251.255 976.6 251.545 976.29 251.885 976.03C252.245 975.77 252.665 975.56 253.145 975.4C253.625 975.24 254.185 975.16 254.825 975.16C256.445 975.16 257.745 975.68 258.725 976.72C259.705 977.74 260.195 979.19 260.195 981.07V991H257.795V981.49C257.795 980.07 257.485 979.02 256.865 978.34C256.245 977.64 255.335 977.29 254.135 977.29C253.655 977.29 253.185 977.35 252.725 977.47C252.265 977.59 251.855 977.77 251.495 978.01C251.135 978.25 250.845 978.56 250.625 978.94C250.405 979.32 250.295 979.76 250.295 980.26V991H247.895Z" fill="#FCFAF2"/>
<path d="M101 1039.48C99.1867 1039.48 97.6133 1039.16 96.28 1038.52C94.9467 1037.85 93.84 1036.91 92.96 1035.68C92.1067 1034.45 91.4667 1032.95 91.04 1031.16C90.64 1029.37 90.44 1027.33 90.44 1025.04C90.44 1022.77 90.64 1020.75 91.04 1018.96C91.4667 1017.15 92.1067 1015.63 92.96 1014.4C93.84 1013.17 94.9467 1012.24 96.28 1011.6C97.6133 1010.93 99.1867 1010.6 101 1010.6C104.627 1010.6 107.293 1011.87 109 1014.4C110.707 1016.93 111.56 1020.48 111.56 1025.04C111.56 1029.6 110.707 1033.15 109 1035.68C107.293 1038.21 104.627 1039.48 101 1039.48ZM101 1035.28C102.92 1035.28 104.267 1034.6 105.04 1033.24C105.84 1031.85 106.24 1029.95 106.24 1027.52V1022.56C106.24 1020.13 105.84 1018.24 105.04 1016.88C104.267 1015.49 102.92 1014.8 101 1014.8C99.08 1014.8 97.72 1015.49 96.92 1016.88C96.1467 1018.24 95.76 1020.13 95.76 1022.56V1027.52C95.76 1029.95 96.1467 1031.85 96.92 1033.24C97.72 1034.6 99.08 1035.28 101 1035.28ZM101 1027.4C100.067 1027.4 99.4133 1027.21 99.04 1026.84C98.6933 1026.47 98.52 1026.01 98.52 1025.48V1024.6C98.52 1024.07 98.6933 1023.61 99.04 1023.24C99.4133 1022.87 100.067 1022.68 101 1022.68C101.933 1022.68 102.573 1022.87 102.92 1023.24C103.293 1023.61 103.48 1024.07 103.48 1024.6V1025.48C103.48 1026.01 103.293 1026.47 102.92 1026.84C102.573 1027.21 101.933 1027.4 101 1027.4ZM124.224 1039.48C122.598 1039.48 121.144 1039.23 119.864 1038.72C118.611 1038.19 117.544 1037.45 116.664 1036.52C115.784 1035.56 115.104 1034.41 114.624 1033.08C114.171 1031.72 113.944 1030.2 113.944 1028.52C113.944 1026.52 114.251 1024.64 114.864 1022.88C115.478 1021.09 116.264 1019.47 117.224 1018C118.211 1016.51 119.304 1015.17 120.504 1014C121.704 1012.83 122.904 1011.85 124.104 1011.08H131.224C129.544 1012.25 128.038 1013.39 126.704 1014.48C125.398 1015.55 124.251 1016.64 123.264 1017.76C122.304 1018.88 121.491 1020.05 120.824 1021.28C120.184 1022.48 119.704 1023.8 119.384 1025.24L119.704 1025.32C119.971 1024.79 120.291 1024.28 120.664 1023.8C121.038 1023.29 121.478 1022.85 121.984 1022.48C122.518 1022.08 123.118 1021.77 123.784 1021.56C124.478 1021.32 125.278 1021.2 126.184 1021.2C127.358 1021.2 128.451 1021.4 129.464 1021.8C130.478 1022.2 131.344 1022.79 132.064 1023.56C132.811 1024.31 133.398 1025.21 133.824 1026.28C134.251 1027.35 134.464 1028.55 134.464 1029.88C134.464 1031.29 134.224 1032.59 133.744 1033.76C133.264 1034.93 132.571 1035.95 131.664 1036.8C130.784 1037.65 129.704 1038.32 128.424 1038.8C127.171 1039.25 125.771 1039.48 124.224 1039.48ZM124.184 1035.36C125.784 1035.36 126.998 1034.95 127.824 1034.12C128.651 1033.27 129.064 1032.07 129.064 1030.52V1030.04C129.064 1028.49 128.638 1027.31 127.784 1026.48C126.958 1025.65 125.758 1025.24 124.184 1025.24C122.664 1025.24 121.478 1025.65 120.624 1026.48C119.771 1027.31 119.344 1028.49 119.344 1030.04V1030.52C119.344 1032.07 119.758 1033.27 120.584 1034.12C121.411 1034.95 122.611 1035.36 124.184 1035.36ZM137.549 1043.14L147.419 1016.2H150.869L140.999 1043.14H137.549ZM160.697 1026.52C161.957 1026.52 162.877 1026.27 163.457 1025.77C164.057 1025.27 164.357 1024.64 164.357 1023.88V1023.67C164.357 1022.81 164.067 1022.14 163.487 1021.66C162.927 1021.18 162.147 1020.94 161.147 1020.94C160.187 1020.94 159.347 1021.16 158.627 1021.6C157.907 1022.04 157.287 1022.66 156.767 1023.46L154.217 1021.18C154.577 1020.7 154.977 1020.25 155.417 1019.83C155.877 1019.39 156.387 1019.02 156.947 1018.72C157.527 1018.4 158.167 1018.15 158.867 1017.97C159.567 1017.79 160.367 1017.7 161.267 1017.7C162.327 1017.7 163.297 1017.83 164.177 1018.09C165.077 1018.33 165.837 1018.69 166.457 1019.17C167.097 1019.65 167.587 1020.23 167.927 1020.91C168.287 1021.57 168.467 1022.32 168.467 1023.16C168.467 1023.82 168.357 1024.42 168.137 1024.96C167.917 1025.5 167.617 1025.97 167.237 1026.37C166.877 1026.77 166.447 1027.1 165.947 1027.36C165.467 1027.62 164.947 1027.81 164.387 1027.93V1028.08C165.007 1028.2 165.587 1028.4 166.127 1028.68C166.667 1028.94 167.137 1029.28 167.537 1029.7C167.937 1030.12 168.257 1030.63 168.497 1031.23C168.737 1031.81 168.857 1032.47 168.857 1033.21C168.857 1034.13 168.667 1034.97 168.287 1035.73C167.907 1036.49 167.367 1037.14 166.667 1037.68C165.987 1038.22 165.157 1038.64 164.177 1038.94C163.217 1039.22 162.137 1039.36 160.937 1039.36C159.937 1039.36 159.047 1039.25 158.267 1039.03C157.487 1038.83 156.797 1038.55 156.197 1038.19C155.597 1037.83 155.077 1037.42 154.637 1036.96C154.197 1036.48 153.807 1035.99 153.467 1035.49L156.377 1033.24C156.877 1034.08 157.467 1034.77 158.147 1035.31C158.847 1035.85 159.797 1036.12 160.997 1036.12C162.197 1036.12 163.117 1035.85 163.757 1035.31C164.417 1034.75 164.747 1033.98 164.747 1033V1032.76C164.747 1031.8 164.397 1031.07 163.697 1030.57C162.997 1030.05 162.007 1029.79 160.727 1029.79H158.627V1026.52H160.697ZM178.025 1026.52C179.285 1026.52 180.205 1026.27 180.785 1025.77C181.385 1025.27 181.685 1024.64 181.685 1023.88V1023.67C181.685 1022.81 181.395 1022.14 180.815 1021.66C180.255 1021.18 179.475 1020.94 178.475 1020.94C177.515 1020.94 176.675 1021.16 175.955 1021.6C175.235 1022.04 174.615 1022.66 174.095 1023.46L171.545 1021.18C171.905 1020.7 172.305 1020.25 172.745 1019.83C173.205 1019.39 173.715 1019.02 174.275 1018.72C174.855 1018.4 175.495 1018.15 176.195 1017.97C176.895 1017.79 177.695 1017.7 178.595 1017.7C179.655 1017.7 180.625 1017.83 181.505 1018.09C182.405 1018.33 183.165 1018.69 183.785 1019.17C184.425 1019.65 184.915 1020.23 185.255 1020.91C185.615 1021.57 185.795 1022.32 185.795 1023.16C185.795 1023.82 185.685 1024.42 185.465 1024.96C185.245 1025.5 184.945 1025.97 184.565 1026.37C184.205 1026.77 183.775 1027.1 183.275 1027.36C182.795 1027.62 182.275 1027.81 181.715 1027.93V1028.08C182.335 1028.2 182.915 1028.4 183.455 1028.68C183.995 1028.94 184.465 1029.28 184.865 1029.7C185.265 1030.12 185.585 1030.63 185.825 1031.23C186.065 1031.81 186.185 1032.47 186.185 1033.21C186.185 1034.13 185.995 1034.97 185.615 1035.73C185.235 1036.49 184.695 1037.14 183.995 1037.68C183.315 1038.22 182.485 1038.64 181.505 1038.94C180.545 1039.22 179.465 1039.36 178.265 1039.36C177.265 1039.36 176.375 1039.25 175.595 1039.03C174.815 1038.83 174.125 1038.55 173.525 1038.19C172.925 1037.83 172.405 1037.42 171.965 1036.96C171.525 1036.48 171.135 1035.99 170.795 1035.49L173.705 1033.24C174.205 1034.08 174.795 1034.77 175.475 1035.31C176.175 1035.85 177.125 1036.12 178.325 1036.12C179.525 1036.12 180.445 1035.85 181.085 1035.31C181.745 1034.75 182.075 1033.98 182.075 1033V1032.76C182.075 1031.8 181.725 1031.07 181.025 1030.57C180.325 1030.05 179.335 1029.79 178.055 1029.79H175.955V1026.52H178.025Z" fill="#FCFAF2"/>
<path d="M523 1039.48C521.187 1039.48 519.613 1039.16 518.28 1038.52C516.947 1037.85 515.84 1036.91 514.96 1035.68C514.107 1034.45 513.467 1032.95 513.04 1031.16C512.64 1029.37 512.44 1027.33 512.44 1025.04C512.44 1022.77 512.64 1020.75 513.04 1018.96C513.467 1017.15 514.107 1015.63 514.96 1014.4C515.84 1013.17 516.947 1012.24 518.28 1011.6C519.613 1010.93 521.187 1010.6 523 1010.6C526.627 1010.6 529.293 1011.87 531 1014.4C532.707 1016.93 533.56 1020.48 533.56 1025.04C533.56 1029.6 532.707 1033.15 531 1035.68C529.293 1038.21 526.627 1039.48 523 1039.48ZM523 1035.28C524.92 1035.28 526.267 1034.6 527.04 1033.24C527.84 1031.85 528.24 1029.95 528.24 1027.52V1022.56C528.24 1020.13 527.84 1018.24 527.04 1016.88C526.267 1015.49 524.92 1014.8 523 1014.8C521.08 1014.8 519.72 1015.49 518.92 1016.88C518.147 1018.24 517.76 1020.13 517.76 1022.56V1027.52C517.76 1029.95 518.147 1031.85 518.92 1033.24C519.72 1034.6 521.08 1035.28 523 1035.28ZM523 1027.4C522.067 1027.4 521.413 1027.21 521.04 1026.84C520.693 1026.47 520.52 1026.01 520.52 1025.48V1024.6C520.52 1024.07 520.693 1023.61 521.04 1023.24C521.413 1022.87 522.067 1022.68 523 1022.68C523.933 1022.68 524.573 1022.87 524.92 1023.24C525.293 1023.61 525.48 1024.07 525.48 1024.6V1025.48C525.48 1026.01 525.293 1026.47 524.92 1026.84C524.573 1027.21 523.933 1027.4 523 1027.4ZM537.744 1039V1034.72H545.424V1014.88H545.064L538.984 1022.08L535.704 1019.32L542.624 1011.08H550.664V1034.72H556.984V1039H537.744Z" fill="#FCFAF2"/>
</svg>
