<svg width="2003" height="1119" viewBox="0 0 2003 1119" fill="none" xmlns="http://www.w3.org/2000/svg">
<path d="M52.4302 3.00017L52.4302 1.50017L53.9302 1.50017L267.01 1.50015L268.51 1.50015L268.51 3.00015L268.51 44.4084C268.51 60.1485 281.27 72.9084 297.01 72.9084L2000 72.9083L2001.5 72.9083L2001.5 74.4083L2001.5 1115.5L2001.5 1117L2000 1117L3.01035 1117L1.51035 1117L1.51035 1115.5L1.51026 74.4085L1.51026 72.9085L3.01026 72.9085L23.9302 72.9084C39.6704 72.9084 52.4302 60.1485 52.4302 44.4084L52.4302 3.00017Z" fill="#E81700" stroke="#101415" stroke-width="3"/>
<path d="M168.496 47L166.376 39.56L157.496 39.56L155.376 47L150.816 47L158.976 19.08L165.096 19.08L173.256 47L168.496 47ZM162.096 23.6H161.776L158.336 35.84L165.536 35.84L162.096 23.6Z" fill="#FCFAF2"/>
</svg>
