<svg width="1021" height="1119" viewBox="0 0 1021 1119" fill="none" xmlns="http://www.w3.org/2000/svg">
<path d="M52.4199 3.0001L52.4199 1.5001L53.9199 1.5001L267 1.50008L268.5 1.50008L268.5 3.00008L268.5 44.4083C268.5 60.1484 281.26 72.9083 297 72.9083L1017.5 72.9083L1019 72.9083L1019 74.4083L1019 1115.5L1019 1117L1017.5 1117L3.0001 1117L1.5001 1117L1.5001 1115.5L1.50001 74.4084L1.50001 72.9084L3.00001 72.9084L23.9199 72.9084C39.66 72.9083 52.4199 60.1485 52.4199 44.4084L52.4199 3.0001Z" fill="#E81700" stroke="#101415" stroke-width="3"/>
<path d="M116.831 203.43H174.251V211.46H116.831V203.43ZM116.831 229.94H174.691V237.86H116.831V229.94ZM115.951 256.56H174.141V264.48H115.951V256.56ZM111.771 203.43H120.131V237.42C120.131 256.45 117.381 282.41 98.4607 298.91C97.2507 297.15 93.9507 294.18 92.1907 292.97C109.901 277.46 111.771 255.13 111.771 237.42V203.43ZM170.621 203.43H179.201V286.7C179.201 292.53 177.661 295.39 173.481 296.82C169.191 298.25 161.931 298.36 150.051 298.36C149.501 295.94 147.961 291.98 146.531 289.67C155.661 290 164.681 289.89 167.211 289.89C169.741 289.78 170.621 289.01 170.621 286.59V203.43ZM239.591 203.76H300.421V209.48H239.591V203.76ZM243.441 214.76H297.341V220.26H243.441V214.76ZM265.221 197.71H273.251V217.73H265.221V197.71ZM273.141 226.97H278.751V232.03C278.751 233.68 279.081 233.9 281.501 233.9C282.711 233.9 288.761 233.9 290.301 233.9C291.951 233.9 292.391 233.9 292.611 233.57C293.821 234.34 295.801 234.78 297.231 235C296.791 237.09 295.141 237.97 291.291 237.97C289.971 237.97 282.161 237.97 281.061 237.97C274.681 237.97 273.141 236.98 273.141 231.92V226.97ZM260.711 227.3H265.881C265.771 234.78 262.581 238.19 250.261 239.4C249.931 238.19 248.721 236.32 247.731 235.44C258.181 234.67 260.491 232.91 260.711 227.3ZM247.181 229.5V241.82H292.611V229.5H247.181ZM240.361 224.66H299.651V246.55H240.361V224.66ZM251.141 264.37V269.1H288.981V264.37H251.141ZM251.141 273.06V278.12H288.981V273.06H251.141ZM251.141 255.68V260.3H288.981V255.68H251.141ZM243.661 250.62H296.681V283.07H243.661V250.62ZM274.791 287.14L279.961 282.74C288.101 286.48 297.561 291.1 303.171 294.4L296.461 299.02C291.401 295.72 282.711 290.99 274.791 287.14ZM257.081 282.96L263.901 287.03C257.631 291.65 247.621 296.38 239.371 298.91C238.161 297.37 235.741 295.06 234.091 293.74C242.451 291.32 252.351 286.92 257.081 282.96ZM205.271 230.93H233.541V237.53H205.271V230.93ZM205.931 201.56H233.211V208.16H205.931V201.56ZM205.271 245.67H233.541V252.27H205.271V245.67ZM200.761 215.97H236.291V222.79H200.761V215.97ZM209.121 260.52H233.431V292.53H209.121V285.71H226.501V267.34H209.121V260.52ZM205.051 260.52H211.871V297.7H205.051V260.52ZM128.161 355.56V422H115.841V355.56H91.7507V345.22H152.251V355.56H128.161ZM185.648 423.32C179.488 423.32 174.171 422.33 169.698 420.35C165.298 418.37 161.741 415.73 159.028 412.43L166.398 405.83C168.891 408.543 171.678 410.633 174.758 412.1C177.911 413.493 181.614 414.19 185.868 414.19C189.754 414.19 192.871 413.53 195.218 412.21C197.638 410.89 198.848 408.837 198.848 406.05C198.848 404.877 198.628 403.887 198.188 403.08C197.748 402.273 197.124 401.613 196.318 401.1C195.511 400.587 194.558 400.183 193.458 399.89C192.431 399.597 191.331 399.377 190.158 399.23L181.138 397.8C178.938 397.507 176.701 397.03 174.428 396.37C172.154 395.71 170.101 394.793 168.268 393.62C166.508 392.373 165.041 390.797 163.868 388.89C162.768 386.983 162.218 384.563 162.218 381.63C162.218 375.837 164.418 371.437 168.818 368.43C173.291 365.423 179.158 363.92 186.418 363.92C191.698 363.92 196.244 364.727 200.058 366.34C203.944 367.88 207.171 370.043 209.738 372.83L203.028 379.87C201.561 378.183 199.471 376.643 196.758 375.25C194.044 373.783 190.451 373.05 185.978 373.05C177.984 373.05 173.988 375.58 173.988 380.64C173.988 383.06 174.831 384.747 176.518 385.7C178.278 386.58 180.331 387.167 182.678 387.46L191.698 388.89C193.971 389.257 196.208 389.733 198.408 390.32C200.681 390.907 202.698 391.823 204.458 393.07C206.291 394.243 207.758 395.783 208.858 397.69C210.031 399.597 210.618 402.017 210.618 404.95C210.618 410.67 208.381 415.18 203.908 418.48C199.508 421.707 193.421 423.32 185.648 423.32ZM260.845 412.32H260.295C259.708 413.787 258.938 415.217 257.985 416.61C257.105 417.93 256.005 419.103 254.685 420.13C253.365 421.083 251.825 421.853 250.065 422.44C248.305 423.027 246.251 423.32 243.905 423.32C238.185 423.32 233.565 421.45 230.045 417.71C226.525 413.97 224.765 408.653 224.765 401.76V365.24H236.755V400C236.755 409.02 240.678 413.53 248.525 413.53C250.065 413.53 251.568 413.347 253.035 412.98C254.501 412.54 255.821 411.917 256.995 411.11C258.168 410.303 259.085 409.313 259.745 408.14C260.478 406.893 260.845 405.427 260.845 403.74V365.24H272.835V422H260.845V412.32ZM289.292 340.6H301.282V389.77H301.832L310.742 380.64L326.692 365.24H340.882L317.892 387.57L343.412 422H329.002L309.202 394.39L301.282 401.76V422H289.292V340.6ZM387.919 412.32H387.369C386.782 413.787 386.012 415.217 385.059 416.61C384.179 417.93 383.079 419.103 381.759 420.13C380.439 421.083 378.899 421.853 377.139 422.44C375.379 423.027 373.326 423.32 370.979 423.32C365.259 423.32 360.639 421.45 357.119 417.71C353.599 413.97 351.839 408.653 351.839 401.76V365.24H363.829V400C363.829 409.02 367.752 413.53 375.599 413.53C377.139 413.53 378.642 413.347 380.109 412.98C381.576 412.54 382.896 411.917 384.069 411.11C385.242 410.303 386.159 409.313 386.819 408.14C387.552 406.893 387.919 405.427 387.919 403.74V365.24H399.909V422H387.919V412.32ZM456.296 365.24H468.396L440.896 433C439.429 436.667 437.486 439.417 435.066 441.25C432.719 443.083 429.309 444 424.836 444H415.266V434.32H428.686L433.856 421.23L410.976 365.24H423.516L432.536 389L439.576 408.47H440.236L447.276 389L456.296 365.24ZM503.223 423.32C499.043 423.32 495.266 422.623 491.893 421.23C488.593 419.837 485.77 417.857 483.423 415.29C481.15 412.723 479.39 409.607 478.143 405.94C476.896 402.273 476.273 398.167 476.273 393.62C476.273 389.073 476.896 384.967 478.143 381.3C479.39 377.633 481.15 374.517 483.423 371.95C485.77 369.383 488.593 367.403 491.893 366.01C495.266 364.617 499.043 363.92 503.223 363.92C507.403 363.92 511.143 364.617 514.443 366.01C517.816 367.403 520.64 369.383 522.913 371.95C525.26 374.517 527.056 377.633 528.303 381.3C529.55 384.967 530.173 389.073 530.173 393.62C530.173 398.167 529.55 402.273 528.303 405.94C527.056 409.607 525.26 412.723 522.913 415.29C520.64 417.857 517.816 419.837 514.443 421.23C511.143 422.623 507.403 423.32 503.223 423.32ZM503.223 413.86C507.623 413.86 511.106 412.54 513.673 409.9C516.313 407.187 517.633 403.19 517.633 397.91V389.33C517.633 384.05 516.313 380.09 513.673 377.45C511.106 374.737 507.623 373.38 503.223 373.38C498.823 373.38 495.303 374.737 492.663 377.45C490.096 380.09 488.813 384.05 488.813 389.33V397.91C488.813 403.19 490.096 407.187 492.663 409.9C495.303 412.54 498.823 413.86 503.223 413.86ZM538.6 422V365.24H548.83V372.61H549.38C550.26 370.19 551.507 368.137 553.12 366.45C554.807 364.763 557.19 363.92 560.27 363.92C563.277 363.92 565.587 364.763 567.2 366.45C568.887 368.063 569.95 370.3 570.39 373.16H570.83C571.857 370.593 573.287 368.43 575.12 366.67C576.953 364.837 579.593 363.92 583.04 363.92C587.44 363.92 590.483 365.46 592.17 368.54C593.93 371.62 594.81 376.13 594.81 382.07V422H584.58V383.61C584.58 379.65 584.103 376.937 583.15 375.47C582.197 373.93 580.657 373.16 578.53 373.16C576.623 373.16 575.01 373.82 573.69 375.14C572.443 376.387 571.82 378.293 571.82 380.86V422H561.59V383.61C561.59 379.65 561.113 376.937 560.16 375.47C559.28 373.93 557.777 373.16 555.65 373.16C553.67 373.16 552.02 373.82 550.7 375.14C549.453 376.387 548.83 378.293 548.83 380.86V422H538.6ZM633.817 354.9C630.737 354.9 628.574 354.277 627.327 353.03C626.154 351.783 625.567 350.243 625.567 348.41V346.1C625.567 344.267 626.154 342.727 627.327 341.48C628.574 340.233 630.7 339.61 633.707 339.61C636.787 339.61 638.914 340.233 640.087 341.48C641.334 342.727 641.957 344.267 641.957 346.1V348.41C641.957 350.243 641.334 351.783 640.087 353.03C638.914 354.277 636.824 354.9 633.817 354.9ZM608.407 412.32H627.767V374.92H608.407V365.24H639.757V412.32H657.907V422H608.407V412.32Z" fill="#FCFAF2"/>
<path d="M157.255 23.34L157.255 47.5L152.775 47.5L152.775 23.34L144.015 23.34V19.58L166.015 19.58V23.34L157.255 23.34Z" fill="#FCFAF2"/>
<path d="M107.2 545.7C96.75 545.7 90.8 537.85 90.8 527.15C90.8 516.6 96.85 508.55 107.7 508.55C115.05 508.55 120.5 512.35 121.8 519.6H118.35C117.25 514.25 113.15 511.45 107.7 511.45C98.5 511.45 94.3 518.5 94.3 527.15C94.3 535.95 98.75 542.75 107.25 542.75C115.5 542.75 119.05 537.05 119.05 530.85V529.6H107.55V526.65H122.35V545H120L119.3 539.3H119.15C117.3 542.2 113.8 545.7 107.2 545.7ZM137.234 543.05C142.984 543.05 145.984 538.15 145.984 532.1C145.984 526.05 142.984 521.15 137.234 521.15C131.434 521.15 128.434 526.05 128.434 532.1C128.434 538.15 131.434 543.05 137.234 543.05ZM137.234 545.65C129.784 545.65 125.234 539.8 125.234 532.1C125.234 524.4 129.784 518.55 137.234 518.55C144.684 518.55 149.134 524.4 149.134 532.1C149.134 539.8 144.684 545.65 137.234 545.65ZM161.749 545.7C154.799 545.7 150.599 540.1 150.599 532.15C150.599 523.55 155.499 518.6 161.649 518.6C165.599 518.6 168.499 520.45 170.149 523.45H170.249V509.25H173.349V545H170.249V541.15H170.149C168.249 544.1 165.649 545.7 161.749 545.7ZM161.849 543.1C167.499 543.1 170.499 538.65 170.499 532.2C170.499 525.85 167.449 521.2 161.849 521.2C156.749 521.2 153.799 525.75 153.799 532.2C153.799 538.25 156.399 543.1 161.849 543.1ZM194.53 543.05C200.28 543.05 203.28 538.15 203.28 532.1C203.28 526.05 200.28 521.15 194.53 521.15C188.73 521.15 185.73 526.05 185.73 532.1C185.73 538.15 188.73 543.05 194.53 543.05ZM194.53 545.65C187.08 545.65 182.53 539.8 182.53 532.1C182.53 524.4 187.08 518.55 194.53 518.55C201.98 518.55 206.43 524.4 206.43 532.1C206.43 539.8 201.98 545.65 194.53 545.65ZM210.462 545V521.7H206.712V519.15H210.462V514.55C210.462 510.7 212.562 509 216.512 509C216.862 509 218.062 509.05 218.262 509.05V511.7H216.912C214.312 511.7 213.512 512.7 213.512 514.65V519.15H218.312V521.7H213.512V545H210.462ZM234.359 545.2C231.409 545.2 229.409 543.85 229.409 540.55V521.7H225.509V519.15H229.409V511.2H232.509V519.15H237.309V521.7H232.509V540.05C232.509 541.9 233.359 542.5 235.009 542.5C235.709 542.5 236.609 542.3 237.059 542.1H237.209V544.75C236.359 545.05 235.459 545.2 234.359 545.2ZM240.421 545V509.25H243.521V523.1H243.621C245.371 520.5 248.171 518.6 252.271 518.6C257.071 518.6 260.521 521.45 260.521 526.65V545H257.421V526.95C257.421 523.05 255.171 521.25 251.521 521.25C247.121 521.25 243.521 524.35 243.521 528.6V545H240.421ZM275.115 545.65C267.365 545.65 263.065 539.85 263.065 532.1C263.065 524.35 267.715 518.55 274.865 518.55C283.165 518.55 286.015 525.4 285.965 532.65H266.265C266.415 538.45 269.215 543 275.115 543C279.415 543 281.665 540.7 282.665 537.2H285.665C284.565 542.3 280.915 545.65 275.115 545.65ZM266.315 530.2H282.715C282.565 525.1 280.165 521.1 274.865 521.1C269.615 521.1 266.865 525.05 266.315 530.2ZM295.125 545V519.15H298.225V523.05H298.325C299.975 520.45 302.475 518.6 306.175 518.6C309.325 518.6 312.025 520.2 313.075 523.3H313.175C314.875 520.35 317.825 518.6 321.475 518.6C325.875 518.6 329.275 521.45 329.275 526.65V545H326.225V526.9C326.225 523.05 323.925 521.25 320.775 521.25C316.975 521.25 313.775 523.95 313.775 528.55V545H310.675V526.9C310.675 523.05 308.475 521.25 305.475 521.25C301.775 521.25 298.225 524.35 298.225 528.55V545H295.125ZM343.884 543.05C349.634 543.05 352.634 538.15 352.634 532.1C352.634 526.05 349.634 521.15 343.884 521.15C338.084 521.15 335.084 526.05 335.084 532.1C335.084 538.15 338.084 543.05 343.884 543.05ZM343.884 545.65C336.434 545.65 331.884 539.8 331.884 532.1C331.884 524.4 336.434 518.55 343.884 518.55C351.334 518.55 355.784 524.4 355.784 532.1C355.784 539.8 351.334 545.65 343.884 545.65ZM369.249 543.05C374.999 543.05 377.999 538.15 377.999 532.1C377.999 526.05 374.999 521.15 369.249 521.15C363.449 521.15 360.449 526.05 360.449 532.1C360.449 538.15 363.449 543.05 369.249 543.05ZM369.249 545.65C361.799 545.65 357.249 539.8 357.249 532.1C357.249 524.4 361.799 518.55 369.249 518.55C376.699 518.55 381.149 524.4 381.149 532.1C381.149 539.8 376.699 545.65 369.249 545.65ZM383.964 545V519.15H387.064V523.1H387.164C388.914 520.5 391.714 518.6 395.814 518.6C400.614 518.6 404.064 521.45 404.064 526.65V545H400.964V526.95C400.964 523.05 398.714 521.25 395.064 521.25C390.664 521.25 387.064 524.35 387.064 528.6V545H383.964ZM407.461 550.4V548.6C408.411 548.25 409.161 547.5 409.161 545.2V545H407.461V540.65H411.261V545.15C411.261 548.45 409.761 549.95 407.461 550.4ZM428.289 545.6C423.489 545.6 419.839 543.2 419.839 538.4C419.839 532.25 424.639 531 430.489 530.3C435.589 529.7 437.439 529.4 437.439 526.8V526.3C437.439 522.8 435.239 521.1 431.239 521.1C426.639 521.1 424.239 523 423.989 526.85H420.939C421.289 521.85 424.589 518.6 431.239 518.6C436.889 518.6 440.389 520.95 440.389 526.6V540.65C440.389 542.2 440.989 542.85 442.089 542.9C442.439 542.9 442.789 542.8 443.239 542.7H443.389V544.95C442.939 545.15 442.289 545.35 441.289 545.35C439.039 545.35 437.639 544.2 437.489 541.7V541.15H437.339C435.889 543.2 433.239 545.6 428.289 545.6ZM428.839 543.1C434.489 543.1 437.489 539.2 437.489 535.65V531C435.839 531.9 433.289 532.35 430.789 532.7C426.439 533.3 423.089 533.95 423.089 538.4C423.089 542 425.789 543.1 428.839 543.1ZM451.559 553.3V519.15H454.659V523.6H454.759C456.559 520.55 459.409 518.6 463.509 518.6C469.709 518.6 474.209 523.5 474.209 532.1C474.209 540.05 470.109 545.65 463.309 545.65C459.359 545.65 456.709 544.1 454.759 541.25H454.659V553.3H451.559ZM463.159 543.05C468.459 543.05 471.059 538.15 471.059 532.15C471.059 525.7 468.259 521.2 463.109 521.2C457.409 521.2 454.409 526.05 454.409 532.2C454.409 538.55 457.259 543.05 463.159 543.05ZM476.973 545V519.15H480.073V523.95H480.173C481.773 520.95 484.473 518.95 488.073 518.95C488.473 518.95 488.723 519 488.923 519.05V522.1C487.073 521.8 485.023 522.2 483.423 523.35C481.423 524.85 480.073 527.25 480.073 530.3V545H476.973ZM500.634 543.05C506.384 543.05 509.384 538.15 509.384 532.1C509.384 526.05 506.384 521.15 500.634 521.15C494.834 521.15 491.834 526.05 491.834 532.1C491.834 538.15 494.834 543.05 500.634 543.05ZM500.634 545.65C493.184 545.65 488.634 539.8 488.634 532.1C488.634 524.4 493.184 518.55 500.634 518.55C508.084 518.55 512.534 524.4 512.534 532.1C512.534 539.8 508.084 545.65 500.634 545.65ZM523.649 545.6C518.649 545.6 515.149 542.6 515.149 537.4V519.15H518.249V537.2C518.249 541.1 520.599 543 524.349 543C528.749 543 531.849 539.7 531.849 535.3V519.15H534.899V545H531.849V541.2H531.749C529.949 543.7 527.749 545.6 523.649 545.6ZM548.805 545.7C541.855 545.7 537.655 540.1 537.655 532.15C537.655 523.55 542.555 518.6 548.705 518.6C552.655 518.6 555.555 520.45 557.205 523.45H557.305V509.25H560.405V545H557.305V541.15H557.205C555.305 544.1 552.705 545.7 548.805 545.7ZM548.905 543.1C554.555 543.1 557.555 538.65 557.555 532.2C557.555 525.85 554.505 521.2 548.905 521.2C543.805 521.2 540.855 525.75 540.855 532.2C540.855 538.25 543.455 543.1 548.905 543.1ZM580.736 545.7C573.786 545.7 569.586 540.1 569.586 532.15C569.586 523.55 574.486 518.6 580.636 518.6C584.586 518.6 587.486 520.45 589.136 523.45H589.236V509.25H592.336V545H589.236V541.15H589.136C587.236 544.1 584.636 545.7 580.736 545.7ZM580.836 543.1C586.486 543.1 589.486 538.65 589.486 532.2C589.486 525.85 586.436 521.2 580.836 521.2C575.736 521.2 572.786 525.75 572.786 532.2C572.786 538.25 575.386 543.1 580.836 543.1ZM607.147 545.65C599.397 545.65 595.097 539.85 595.097 532.1C595.097 524.35 599.747 518.55 606.897 518.55C615.197 518.55 618.047 525.4 617.997 532.65H598.297C598.447 538.45 601.247 543 607.147 543C611.447 543 613.697 540.7 614.697 537.2H617.697C616.597 542.3 612.947 545.65 607.147 545.65ZM598.347 530.2H614.747C614.597 525.1 612.197 521.1 606.897 521.1C601.647 521.1 598.897 525.05 598.347 530.2ZM620.838 545V519.15H623.938V545H620.838ZM620.838 513.65V509.25H623.938V513.65H620.838ZM635.185 545.2C632.235 545.2 630.235 543.85 630.235 540.55V521.7H626.335V519.15H630.235V511.2H633.335V519.15H638.135V521.7H633.335V540.05C633.335 541.9 634.185 542.5 635.835 542.5C636.535 542.5 637.435 542.3 637.885 542.1H638.035V544.75C637.185 545.05 636.285 545.2 635.185 545.2ZM643.796 553.55C642.646 553.55 641.946 553.4 641.146 553.15V550.4H641.296C641.746 550.55 642.446 550.75 643.646 550.75C645.596 550.75 646.996 549.9 647.946 547.25L648.796 544.95L638.846 519.15H642.146L648.346 535.85C649.246 538.25 650.396 541.75 650.396 541.75H650.496C650.496 541.75 651.596 538.25 652.446 535.85L658.396 519.15H661.596L650.946 547.7C649.196 552.35 647.146 553.55 643.796 553.55ZM680.504 543.05C686.254 543.05 689.254 538.15 689.254 532.1C689.254 526.05 686.254 521.15 680.504 521.15C674.704 521.15 671.704 526.05 671.704 532.1C671.704 538.15 674.704 543.05 680.504 543.05ZM680.504 545.65C673.054 545.65 668.504 539.8 668.504 532.1C668.504 524.4 673.054 518.55 680.504 518.55C687.954 518.55 692.404 524.4 692.404 532.1C692.404 539.8 687.954 545.65 680.504 545.65ZM696.436 545V521.7H692.686V519.15H696.436V514.55C696.436 510.7 698.536 509 702.486 509C702.836 509 704.036 509.05 704.236 509.05V511.7H702.886C700.286 511.7 699.486 512.7 699.486 514.65V519.15H704.286V521.7H699.486V545H696.436ZM723.883 543.05C729.633 543.05 732.633 538.15 732.633 532.1C732.633 526.05 729.633 521.15 723.883 521.15C718.083 521.15 715.083 526.05 715.083 532.1C715.083 538.15 718.083 543.05 723.883 543.05ZM723.883 545.65C716.433 545.65 711.883 539.8 711.883 532.1C711.883 524.4 716.433 518.55 723.883 518.55C731.333 518.55 735.783 524.4 735.783 532.1C735.783 539.8 731.333 545.65 723.883 545.65ZM738.598 545V519.15H741.698V523.95H741.798C743.398 520.95 746.098 518.95 749.698 518.95C750.098 518.95 750.348 519 750.548 519.05V522.1C748.698 521.8 746.648 522.2 745.048 523.35C743.048 524.85 741.698 527.25 741.698 530.3V545H738.598ZM761.409 545.7C754.459 545.7 750.259 540.1 750.259 532.15C750.259 523.55 755.159 518.6 761.309 518.6C765.259 518.6 768.159 520.45 769.809 523.45H769.909V509.25H773.009V545H769.909V541.15H769.809C767.909 544.1 765.309 545.7 761.409 545.7ZM761.509 543.1C767.159 543.1 770.159 538.65 770.159 532.2C770.159 525.85 767.109 521.2 761.509 521.2C756.409 521.2 753.459 525.75 753.459 532.2C753.459 538.25 756.059 543.1 761.509 543.1ZM787.821 545.65C780.071 545.65 775.771 539.85 775.771 532.1C775.771 524.35 780.421 518.55 787.571 518.55C795.871 518.55 798.721 525.4 798.671 532.65H778.971C779.121 538.45 781.921 543 787.821 543C792.121 543 794.371 540.7 795.371 537.2H798.371C797.271 542.3 793.621 545.65 787.821 545.65ZM779.021 530.2H795.421C795.271 525.1 792.871 521.1 787.571 521.1C782.321 521.1 779.571 525.05 779.021 530.2ZM801.411 545V519.15H804.511V523.95H804.611C806.211 520.95 808.911 518.95 812.511 518.95C812.911 518.95 813.161 519 813.361 519.05V522.1C811.511 521.8 809.461 522.2 807.861 523.35C805.861 524.85 804.511 527.25 804.511 530.3V545H801.411ZM98.6 600.6C93.8 600.6 90.15 598.2 90.15 593.4C90.15 587.25 94.95 586 100.8 585.3C105.9 584.7 107.75 584.4 107.75 581.8V581.3C107.75 577.8 105.55 576.1 101.55 576.1C96.95 576.1 94.55 578 94.3 581.85H91.25C91.6 576.85 94.9 573.6 101.55 573.6C107.2 573.6 110.7 575.95 110.7 581.6V595.65C110.7 597.2 111.3 597.85 112.4 597.9C112.75 597.9 113.1 597.8 113.55 597.7H113.7V599.95C113.25 600.15 112.6 600.35 111.6 600.35C109.35 600.35 107.95 599.2 107.8 596.7V596.15H107.65C106.2 598.2 103.55 600.6 98.6 600.6ZM99.15 598.1C104.8 598.1 107.8 594.2 107.8 590.65V586C106.15 586.9 103.6 587.35 101.1 587.7C96.75 588.3 93.4 588.95 93.4 593.4C93.4 597 96.1 598.1 99.15 598.1ZM115.451 600V574.15H118.551V578.1H118.651C120.401 575.5 123.201 573.6 127.301 573.6C132.101 573.6 135.551 576.45 135.551 581.65V600H132.451V581.95C132.451 578.05 130.201 576.25 126.551 576.25C122.151 576.25 118.551 579.35 118.551 583.6V600H115.451ZM149.249 600.7C142.299 600.7 138.099 595.1 138.099 587.15C138.099 578.55 142.999 573.6 149.149 573.6C153.099 573.6 155.999 575.45 157.649 578.45H157.749V564.25H160.849V600H157.749V596.15H157.649C155.749 599.1 153.149 600.7 149.249 600.7ZM149.349 598.1C154.999 598.1 157.999 593.65 157.999 587.2C157.999 580.85 154.949 576.2 149.349 576.2C144.249 576.2 141.299 580.75 141.299 587.2C141.299 593.25 143.899 598.1 149.349 598.1ZM183.13 600.7C179.18 600.7 176.58 599.15 174.58 596.1H174.48V600H171.38V564.25H174.48V578.6H174.58C176.38 575.6 179.23 573.6 183.33 573.6C189.53 573.6 193.98 578.55 193.98 587.15C193.98 595.1 189.93 600.7 183.13 600.7ZM182.98 598.1C188.28 598.1 190.83 593.25 190.83 587.2C190.83 580.75 188.08 576.2 182.93 576.2C177.23 576.2 174.23 581.05 174.23 587.2C174.23 593.65 177.23 598.1 182.98 598.1ZM207.493 600.65C199.743 600.65 195.443 594.85 195.443 587.1C195.443 579.35 200.093 573.55 207.243 573.55C215.543 573.55 218.393 580.4 218.343 587.65H198.643C198.793 593.45 201.593 598 207.493 598C211.793 598 214.043 595.7 215.043 592.2H218.043C216.943 597.3 213.293 600.65 207.493 600.65ZM198.693 585.2H215.093C214.943 580.1 212.543 576.1 207.243 576.1C201.993 576.1 199.243 580.05 198.693 585.2ZM228.084 600.6C223.284 600.6 219.634 598.2 219.634 593.4C219.634 587.25 224.434 586 230.284 585.3C235.384 584.7 237.234 584.4 237.234 581.8V581.3C237.234 577.8 235.034 576.1 231.034 576.1C226.434 576.1 224.034 578 223.784 581.85H220.734C221.084 576.85 224.384 573.6 231.034 573.6C236.684 573.6 240.184 575.95 240.184 581.6V595.65C240.184 597.2 240.784 597.85 241.884 597.9C242.234 597.9 242.584 597.8 243.034 597.7H243.184V599.95C242.734 600.15 242.084 600.35 241.084 600.35C238.834 600.35 237.434 599.2 237.284 596.7V596.15H237.134C235.684 598.2 233.034 600.6 228.084 600.6ZM228.634 598.1C234.284 598.1 237.284 594.2 237.284 590.65V586C235.634 586.9 233.084 587.35 230.584 587.7C226.234 588.3 222.884 588.95 222.884 593.4C222.884 597 225.584 598.1 228.634 598.1ZM253.235 600.6C248.235 600.6 244.735 597.6 244.735 592.4V574.15H247.835V592.2C247.835 596.1 250.185 598 253.935 598C258.335 598 261.435 594.7 261.435 590.3V574.15H264.485V600H261.435V596.2H261.335C259.535 598.7 257.335 600.6 253.235 600.6ZM275.691 600.2C272.741 600.2 270.741 598.85 270.741 595.55V576.7H266.841V574.15H270.741V566.2H273.841V574.15H278.641V576.7H273.841V595.05C273.841 596.9 274.691 597.5 276.341 597.5C277.041 597.5 277.941 597.3 278.391 597.1H278.541V599.75C277.691 600.05 276.791 600.2 275.691 600.2ZM284.302 608.55C283.152 608.55 282.452 608.4 281.652 608.15V605.4H281.802C282.252 605.55 282.952 605.75 284.152 605.75C286.102 605.75 287.502 604.9 288.452 602.25L289.302 599.95L279.352 574.15H282.652L288.852 590.85C289.752 593.25 290.902 596.75 290.902 596.75H291.002C291.002 596.75 292.102 593.25 292.952 590.85L298.902 574.15H302.102L291.452 602.7C289.702 607.35 287.652 608.55 284.302 608.55Z" fill="#FCFAF2"/>
<path d="M513.7 991V970.06H526.6V972.25H516.22V979.3H526.24V981.49H516.22V988.81H526.6V991H513.7ZM530.158 991L535.918 983.14L530.308 975.52H533.188L535.528 978.79L537.388 981.37H537.508L539.308 978.79L541.618 975.52H544.378L538.708 983.11L544.528 991H541.648L539.038 987.37L537.268 984.91H537.148L535.438 987.37L532.918 991H530.158ZM548.507 975.52H550.907V978.04H551.027C552.027 976.12 553.617 975.16 555.797 975.16C557.697 975.16 559.177 975.87 560.237 977.29C561.317 978.71 561.857 980.7 561.857 983.26C561.857 985.82 561.317 987.81 560.237 989.23C559.177 990.65 557.697 991.36 555.797 991.36C553.617 991.36 552.027 990.4 551.027 988.48H550.907V997H548.507V975.52ZM554.867 989.23C556.267 989.23 557.347 988.81 558.107 987.97C558.887 987.11 559.277 985.98 559.277 984.58V981.94C559.277 980.54 558.887 979.42 558.107 978.58C557.347 977.72 556.267 977.29 554.867 977.29C554.327 977.29 553.817 977.36 553.337 977.5C552.857 977.64 552.437 977.85 552.077 978.13C551.717 978.39 551.427 978.72 551.207 979.12C551.007 979.5 550.907 979.95 550.907 980.47V986.05C550.907 986.57 551.007 987.03 551.207 987.43C551.427 987.81 551.717 988.14 552.077 988.42C552.437 988.68 552.857 988.88 553.337 989.02C553.817 989.16 554.327 989.23 554.867 989.23ZM565.385 988.96H570.785V970.84H565.385V968.8H573.185V988.96H578.585V991H565.385V988.96ZM590.273 972.1C589.573 972.1 589.083 971.96 588.803 971.68C588.523 971.38 588.383 971.01 588.383 970.57V970.09C588.383 969.65 588.523 969.29 588.803 969.01C589.083 968.71 589.573 968.56 590.273 968.56C590.973 968.56 591.463 968.71 591.743 969.01C592.023 969.29 592.163 969.65 592.163 970.09V970.57C592.163 971.01 592.023 971.38 591.743 971.68C591.463 971.96 590.973 972.1 590.273 972.1ZM583.493 988.96H589.073V977.56H583.493V975.52H591.473V988.96H596.693V991H583.493V988.96ZM607.181 991.36C606.061 991.36 605.061 991.17 604.181 990.79C603.321 990.39 602.591 989.84 601.991 989.14C601.391 988.44 600.931 987.59 600.611 986.59C600.311 985.59 600.161 984.48 600.161 983.26C600.161 982.04 600.321 980.93 600.641 979.93C600.961 978.93 601.421 978.08 602.021 977.38C602.621 976.66 603.351 976.11 604.211 975.73C605.071 975.35 606.051 975.16 607.151 975.16C608.651 975.16 609.871 975.49 610.811 976.15C611.751 976.81 612.441 977.67 612.881 978.73L610.961 979.75C610.681 978.95 610.211 978.33 609.551 977.89C608.911 977.45 608.111 977.23 607.151 977.23C606.451 977.23 605.821 977.35 605.261 977.59C604.721 977.81 604.261 978.13 603.881 978.55C603.501 978.97 603.211 979.47 603.011 980.05C602.831 980.63 602.741 981.26 602.741 981.94V984.58C602.741 985.26 602.831 985.89 603.011 986.47C603.211 987.05 603.501 987.55 603.881 987.97C604.261 988.39 604.731 988.72 605.291 988.96C605.851 989.18 606.491 989.29 607.211 989.29C608.251 989.29 609.111 989.05 609.791 988.57C610.471 988.09 611.011 987.43 611.411 986.59L613.121 987.76C612.661 988.8 611.941 989.66 610.961 990.34C610.001 991.02 608.741 991.36 607.181 991.36ZM624.93 972.1C624.23 972.1 623.74 971.96 623.46 971.68C623.18 971.38 623.04 971.01 623.04 970.57V970.09C623.04 969.65 623.18 969.29 623.46 969.01C623.74 968.71 624.23 968.56 624.93 968.56C625.63 968.56 626.12 968.71 626.4 969.01C626.68 969.29 626.82 969.65 626.82 970.09V970.57C626.82 971.01 626.68 971.38 626.4 971.68C626.12 971.96 625.63 972.1 624.93 972.1ZM618.15 988.96H623.73V977.56H618.15V975.52H626.13V988.96H631.35V991H618.15V988.96ZM642.048 991C640.868 991 639.998 990.67 639.438 990.01C638.898 989.35 638.628 988.5 638.628 987.46V977.56H633.468V975.52H637.308C637.828 975.52 638.188 975.42 638.388 975.22C638.608 975 638.718 974.63 638.718 974.11V970.06H641.028V975.52H648.078V977.56H641.028V988.96H648.078V991H642.048ZM669.265 988.96H673.795V977.56H669.265V975.52H676.195V979.42H676.345C676.665 978.2 677.265 977.25 678.145 976.57C679.045 975.87 680.185 975.52 681.565 975.52H683.725V977.92H680.815C679.435 977.92 678.315 978.32 677.455 979.12C676.615 979.92 676.195 980.97 676.195 982.27V988.96H682.195V991H669.265V988.96ZM693.553 991.36C692.433 991.36 691.423 991.17 690.523 990.79C689.643 990.41 688.883 989.87 688.243 989.17C687.623 988.45 687.143 987.6 686.803 986.62C686.463 985.62 686.293 984.51 686.293 983.29C686.293 982.05 686.463 980.93 686.803 979.93C687.163 978.93 687.653 978.08 688.273 977.38C688.893 976.66 689.633 976.11 690.493 975.73C691.373 975.35 692.343 975.16 693.403 975.16C694.443 975.16 695.383 975.35 696.223 975.73C697.083 976.11 697.813 976.64 698.413 977.32C699.013 977.98 699.473 978.77 699.793 979.69C700.113 980.61 700.273 981.62 700.273 982.72V983.86H688.813V984.58C688.813 985.26 688.923 985.89 689.143 986.47C689.363 987.05 689.673 987.55 690.073 987.97C690.493 988.39 690.993 988.72 691.573 988.96C692.173 989.18 692.833 989.29 693.553 989.29C694.593 989.29 695.493 989.05 696.253 988.57C697.013 988.09 697.593 987.43 697.993 986.59L699.763 987.79C699.303 988.83 698.533 989.69 697.453 990.37C696.393 991.03 695.093 991.36 693.553 991.36ZM693.403 977.14C692.743 977.14 692.133 977.26 691.573 977.5C691.013 977.74 690.523 978.07 690.103 978.49C689.703 978.91 689.383 979.41 689.143 979.99C688.923 980.55 688.813 981.17 688.813 981.85V982.06H697.693V981.73C697.693 981.05 697.583 980.43 697.363 979.87C697.163 979.31 696.873 978.83 696.493 978.43C696.133 978.01 695.683 977.69 695.143 977.47C694.623 977.25 694.043 977.14 693.403 977.14ZM704.101 988.96H709.321V977.56H703.801V975.52H709.321V972.34C709.321 971.3 709.591 970.45 710.131 969.79C710.691 969.13 711.561 968.8 712.741 968.8H717.931V970.84H711.721V975.52H717.931V977.56H711.721V988.96H717.241V991H704.101V988.96ZM727.939 991.27C727.119 991.27 726.539 991.1 726.199 990.76C725.879 990.42 725.719 989.99 725.719 989.47V988.93C725.719 988.41 725.879 987.98 726.199 987.64C726.539 987.3 727.119 987.13 727.939 987.13C728.759 987.13 729.329 987.3 729.649 987.64C729.989 987.98 730.159 988.41 730.159 988.93V989.47C730.159 989.99 729.989 990.42 729.649 990.76C729.329 991.1 728.759 991.27 727.939 991.27Z" fill="#FCFAF2"/>
<path d="M203.62 1039V1023.52H205.84V1025.32H205.96C206.2 1024.72 206.54 1024.21 206.98 1023.79C207.42 1023.37 208.07 1023.16 208.93 1023.16C209.83 1023.16 210.5 1023.39 210.94 1023.85C211.38 1024.29 211.65 1024.87 211.75 1025.59H211.84C212.12 1024.89 212.52 1024.31 213.04 1023.85C213.56 1023.39 214.28 1023.16 215.2 1023.16C216.46 1023.16 217.3 1023.6 217.72 1024.48C218.16 1025.36 218.38 1026.62 218.38 1028.26V1039H216.16V1028.65C216.16 1027.33 216.02 1026.42 215.74 1025.92C215.48 1025.4 214.99 1025.14 214.27 1025.14C213.63 1025.14 213.11 1025.35 212.71 1025.77C212.31 1026.17 212.11 1026.79 212.11 1027.63V1039H209.89V1028.65C209.89 1027.33 209.75 1026.42 209.47 1025.92C209.21 1025.4 208.73 1025.14 208.03 1025.14C207.39 1025.14 206.86 1025.35 206.44 1025.77C206.04 1026.17 205.84 1026.79 205.84 1027.63V1039H203.62ZM228.328 1039.36C227.248 1039.36 226.268 1039.17 225.388 1038.79C224.528 1038.41 223.788 1037.87 223.168 1037.17C222.568 1036.45 222.108 1035.6 221.788 1034.62C221.468 1033.62 221.308 1032.5 221.308 1031.26C221.308 1030.04 221.468 1028.93 221.788 1027.93C222.108 1026.93 222.568 1026.08 223.168 1025.38C223.788 1024.66 224.528 1024.11 225.388 1023.73C226.268 1023.35 227.248 1023.16 228.328 1023.16C229.408 1023.16 230.378 1023.35 231.238 1023.73C232.118 1024.11 232.858 1024.66 233.458 1025.38C234.078 1026.08 234.548 1026.93 234.868 1027.93C235.188 1028.93 235.348 1030.04 235.348 1031.26C235.348 1032.5 235.188 1033.62 234.868 1034.62C234.548 1035.6 234.078 1036.45 233.458 1037.17C232.858 1037.87 232.118 1038.41 231.238 1038.79C230.378 1039.17 229.408 1039.36 228.328 1039.36ZM228.328 1037.29C229.668 1037.29 230.748 1036.89 231.568 1036.09C232.388 1035.29 232.798 1034.05 232.798 1032.37V1030.15C232.798 1028.47 232.388 1027.23 231.568 1026.43C230.748 1025.63 229.668 1025.23 228.328 1025.23C226.988 1025.23 225.908 1025.63 225.088 1026.43C224.268 1027.23 223.858 1028.47 223.858 1030.15V1032.37C223.858 1034.05 224.268 1035.29 225.088 1036.09C225.908 1036.89 226.988 1037.29 228.328 1037.29ZM244.127 1039L238.577 1023.52H241.007L243.227 1030L245.627 1036.99H245.747L248.147 1030L250.367 1023.52H252.737L247.187 1039H244.127ZM263.945 1020.1C263.245 1020.1 262.755 1019.96 262.475 1019.68C262.195 1019.38 262.055 1019.01 262.055 1018.57V1018.09C262.055 1017.65 262.195 1017.29 262.475 1017.01C262.755 1016.71 263.245 1016.56 263.945 1016.56C264.645 1016.56 265.135 1016.71 265.415 1017.01C265.695 1017.29 265.835 1017.65 265.835 1018.09V1018.57C265.835 1019.01 265.695 1019.38 265.415 1019.68C265.135 1019.96 264.645 1020.1 263.945 1020.1ZM257.165 1036.96H262.745V1025.56H257.165V1023.52H265.145V1036.96H270.365V1039H257.165V1036.96ZM280.583 1039.36C279.463 1039.36 278.453 1039.17 277.553 1038.79C276.673 1038.41 275.913 1037.87 275.273 1037.17C274.653 1036.45 274.173 1035.6 273.833 1034.62C273.493 1033.62 273.323 1032.51 273.323 1031.29C273.323 1030.05 273.493 1028.93 273.833 1027.93C274.193 1026.93 274.683 1026.08 275.303 1025.38C275.923 1024.66 276.663 1024.11 277.523 1023.73C278.403 1023.35 279.373 1023.16 280.433 1023.16C281.473 1023.16 282.413 1023.35 283.253 1023.73C284.113 1024.11 284.843 1024.64 285.443 1025.32C286.043 1025.98 286.503 1026.77 286.823 1027.69C287.143 1028.61 287.303 1029.62 287.303 1030.72V1031.86H275.843V1032.58C275.843 1033.26 275.953 1033.89 276.173 1034.47C276.393 1035.05 276.703 1035.55 277.103 1035.97C277.523 1036.39 278.023 1036.72 278.603 1036.96C279.203 1037.18 279.863 1037.29 280.583 1037.29C281.623 1037.29 282.523 1037.05 283.283 1036.57C284.043 1036.09 284.623 1035.43 285.023 1034.59L286.793 1035.79C286.333 1036.83 285.563 1037.69 284.483 1038.37C283.423 1039.03 282.123 1039.36 280.583 1039.36ZM280.433 1025.14C279.773 1025.14 279.163 1025.26 278.603 1025.5C278.043 1025.74 277.553 1026.07 277.133 1026.49C276.733 1026.91 276.413 1027.41 276.173 1027.99C275.953 1028.55 275.843 1029.17 275.843 1029.85V1030.06H284.723V1029.73C284.723 1029.05 284.613 1028.43 284.393 1027.87C284.193 1027.31 283.903 1026.83 283.523 1026.43C283.163 1026.01 282.713 1025.69 282.173 1025.47C281.653 1025.25 281.073 1025.14 280.433 1025.14ZM297.821 1039.36C296.201 1039.36 294.801 1039.09 293.621 1038.55C292.461 1037.99 291.471 1037.25 290.651 1036.33L292.271 1034.92C293.011 1035.7 293.821 1036.3 294.701 1036.72C295.581 1037.14 296.641 1037.35 297.881 1037.35C299.081 1037.35 300.061 1037.14 300.821 1036.72C301.601 1036.28 301.991 1035.6 301.991 1034.68C301.991 1034.28 301.911 1033.95 301.751 1033.69C301.611 1033.41 301.411 1033.19 301.151 1033.03C300.891 1032.87 300.601 1032.75 300.281 1032.67C299.961 1032.57 299.621 1032.49 299.261 1032.43L296.831 1032.07C296.291 1031.99 295.701 1031.88 295.061 1031.74C294.441 1031.6 293.871 1031.38 293.351 1031.08C292.831 1030.76 292.391 1030.34 292.031 1029.82C291.691 1029.3 291.521 1028.62 291.521 1027.78C291.521 1027 291.671 1026.33 291.971 1025.77C292.291 1025.19 292.731 1024.71 293.291 1024.33C293.851 1023.93 294.511 1023.64 295.271 1023.46C296.031 1023.26 296.861 1023.16 297.761 1023.16C299.161 1023.16 300.371 1023.38 301.391 1023.82C302.431 1024.26 303.321 1024.87 304.061 1025.65L302.501 1027.12C302.321 1026.9 302.091 1026.68 301.811 1026.46C301.551 1026.22 301.221 1026.01 300.821 1025.83C300.441 1025.63 299.991 1025.47 299.471 1025.35C298.951 1025.23 298.351 1025.17 297.671 1025.17C296.451 1025.17 295.511 1025.38 294.851 1025.8C294.211 1026.22 293.891 1026.83 293.891 1027.63C293.891 1028.03 293.961 1028.37 294.101 1028.65C294.261 1028.91 294.471 1029.12 294.731 1029.28C294.991 1029.44 295.281 1029.57 295.601 1029.67C295.941 1029.75 296.281 1029.82 296.621 1029.88L299.051 1030.24C299.611 1030.32 300.201 1030.43 300.821 1030.57C301.441 1030.71 302.011 1030.94 302.531 1031.26C303.051 1031.56 303.481 1031.97 303.821 1032.49C304.181 1033.01 304.361 1033.69 304.361 1034.53C304.361 1036.07 303.761 1037.26 302.561 1038.1C301.381 1038.94 299.801 1039.36 297.821 1039.36Z" fill="#FCFAF2"/>
<path d="M91.7 991V970.06H99.32C101.26 970.06 102.74 970.59 103.76 971.65C104.78 972.71 105.29 974.19 105.29 976.09C105.29 977.99 104.78 979.47 103.76 980.53C102.74 981.59 101.26 982.12 99.32 982.12H94.22V991H91.7ZM94.22 979.93H99.26C100.32 979.93 101.14 979.67 101.72 979.15C102.32 978.61 102.62 977.85 102.62 976.87V975.31C102.62 974.33 102.32 973.58 101.72 973.06C101.14 972.52 100.32 972.25 99.26 972.25H94.22V979.93ZM108.638 988.96H113.168V977.56H108.638V975.52H115.568V979.42H115.718C116.038 978.2 116.638 977.25 117.518 976.57C118.418 975.87 119.558 975.52 120.938 975.52H123.098V977.92H120.188C118.808 977.92 117.688 978.32 116.828 979.12C115.988 979.92 115.568 980.97 115.568 982.27V988.96H121.568V991H108.638V988.96ZM132.927 991.36C131.807 991.36 130.797 991.17 129.897 990.79C129.017 990.41 128.257 989.87 127.617 989.17C126.997 988.45 126.517 987.6 126.177 986.62C125.837 985.62 125.667 984.51 125.667 983.29C125.667 982.05 125.837 980.93 126.177 979.93C126.537 978.93 127.027 978.08 127.647 977.38C128.267 976.66 129.007 976.11 129.867 975.73C130.747 975.35 131.717 975.16 132.777 975.16C133.817 975.16 134.757 975.35 135.597 975.73C136.457 976.11 137.187 976.64 137.787 977.32C138.387 977.98 138.847 978.77 139.167 979.69C139.487 980.61 139.647 981.62 139.647 982.72V983.86H128.187V984.58C128.187 985.26 128.297 985.89 128.517 986.47C128.737 987.05 129.047 987.55 129.447 987.97C129.867 988.39 130.367 988.72 130.947 988.96C131.547 989.18 132.207 989.29 132.927 989.29C133.967 989.29 134.867 989.05 135.627 988.57C136.387 988.09 136.967 987.43 137.367 986.59L139.137 987.79C138.677 988.83 137.907 989.69 136.827 990.37C135.767 991.03 134.467 991.36 132.927 991.36ZM132.777 977.14C132.117 977.14 131.507 977.26 130.947 977.5C130.387 977.74 129.897 978.07 129.477 978.49C129.077 978.91 128.757 979.41 128.517 979.99C128.297 980.55 128.187 981.17 128.187 981.85V982.06H137.067V981.73C137.067 981.05 136.957 980.43 136.737 979.87C136.537 979.31 136.247 978.83 135.867 978.43C135.507 978.01 135.057 977.69 134.517 977.47C133.997 977.25 133.417 977.14 132.777 977.14ZM150.165 991.36C148.545 991.36 147.145 991.09 145.965 990.55C144.805 989.99 143.815 989.25 142.995 988.33L144.615 986.92C145.355 987.7 146.165 988.3 147.045 988.72C147.925 989.14 148.985 989.35 150.225 989.35C151.425 989.35 152.405 989.14 153.165 988.72C153.945 988.28 154.335 987.6 154.335 986.68C154.335 986.28 154.255 985.95 154.095 985.69C153.955 985.41 153.755 985.19 153.495 985.03C153.235 984.87 152.945 984.75 152.625 984.67C152.305 984.57 151.965 984.49 151.605 984.43L149.175 984.07C148.635 983.99 148.045 983.88 147.405 983.74C146.785 983.6 146.215 983.38 145.695 983.08C145.175 982.76 144.735 982.34 144.375 981.82C144.035 981.3 143.865 980.62 143.865 979.78C143.865 979 144.015 978.33 144.315 977.77C144.635 977.19 145.075 976.71 145.635 976.33C146.195 975.93 146.855 975.64 147.615 975.46C148.375 975.26 149.205 975.16 150.105 975.16C151.505 975.16 152.715 975.38 153.735 975.82C154.775 976.26 155.665 976.87 156.405 977.65L154.845 979.12C154.665 978.9 154.435 978.68 154.155 978.46C153.895 978.22 153.565 978.01 153.165 977.83C152.785 977.63 152.335 977.47 151.815 977.35C151.295 977.23 150.695 977.17 150.015 977.17C148.795 977.17 147.855 977.38 147.195 977.8C146.555 978.22 146.235 978.83 146.235 979.63C146.235 980.03 146.305 980.37 146.445 980.65C146.605 980.91 146.815 981.12 147.075 981.28C147.335 981.44 147.625 981.57 147.945 981.67C148.285 981.75 148.625 981.82 148.965 981.88L151.395 982.24C151.955 982.32 152.545 982.43 153.165 982.57C153.785 982.71 154.355 982.94 154.875 983.26C155.395 983.56 155.825 983.97 156.165 984.49C156.525 985.01 156.705 985.69 156.705 986.53C156.705 988.07 156.105 989.26 154.905 990.1C153.725 990.94 152.145 991.36 150.165 991.36ZM167.583 991.36C166.463 991.36 165.453 991.17 164.553 990.79C163.673 990.41 162.913 989.87 162.273 989.17C161.653 988.45 161.173 987.6 160.833 986.62C160.493 985.62 160.323 984.51 160.323 983.29C160.323 982.05 160.493 980.93 160.833 979.93C161.193 978.93 161.683 978.08 162.303 977.38C162.923 976.66 163.663 976.11 164.523 975.73C165.403 975.35 166.373 975.16 167.433 975.16C168.473 975.16 169.413 975.35 170.253 975.73C171.113 976.11 171.843 976.64 172.443 977.32C173.043 977.98 173.503 978.77 173.823 979.69C174.143 980.61 174.303 981.62 174.303 982.72V983.86H162.843V984.58C162.843 985.26 162.953 985.89 163.173 986.47C163.393 987.05 163.703 987.55 164.103 987.97C164.523 988.39 165.023 988.72 165.603 988.96C166.203 989.18 166.863 989.29 167.583 989.29C168.623 989.29 169.523 989.05 170.283 988.57C171.043 988.09 171.623 987.43 172.023 986.59L173.793 987.79C173.333 988.83 172.563 989.69 171.483 990.37C170.423 991.03 169.123 991.36 167.583 991.36ZM167.433 977.14C166.773 977.14 166.163 977.26 165.603 977.5C165.043 977.74 164.553 978.07 164.133 978.49C163.733 978.91 163.413 979.41 163.173 979.99C162.953 980.55 162.843 981.17 162.843 981.85V982.06H171.723V981.73C171.723 981.05 171.613 980.43 171.393 979.87C171.193 979.31 170.903 978.83 170.523 978.43C170.163 978.01 169.713 977.69 169.173 977.47C168.653 977.25 168.073 977.14 167.433 977.14ZM178.581 991V975.52H180.981V978.04H181.101C181.261 977.66 181.461 977.3 181.701 976.96C181.941 976.6 182.231 976.29 182.571 976.03C182.931 975.77 183.351 975.56 183.831 975.4C184.311 975.24 184.871 975.16 185.511 975.16C187.131 975.16 188.431 975.68 189.411 976.72C190.391 977.74 190.881 979.19 190.881 981.07V991H188.481V981.49C188.481 980.07 188.171 979.02 187.551 978.34C186.931 977.64 186.021 977.29 184.821 977.29C184.341 977.29 183.871 977.35 183.411 977.47C182.951 977.59 182.541 977.77 182.181 978.01C181.821 978.25 181.531 978.56 181.311 978.94C181.091 979.32 180.981 979.76 180.981 980.26V991H178.581ZM202.72 991C201.54 991 200.67 990.67 200.11 990.01C199.57 989.35 199.3 988.5 199.3 987.46V977.56H194.14V975.52H197.98C198.5 975.52 198.86 975.42 199.06 975.22C199.28 975 199.39 974.63 199.39 974.11V970.06H201.7V975.52H208.75V977.56H201.7V988.96H208.75V991H202.72ZM237.586 972.1C236.886 972.1 236.396 971.96 236.116 971.68C235.836 971.38 235.696 971.01 235.696 970.57V970.09C235.696 969.65 235.836 969.29 236.116 969.01C236.396 968.71 236.886 968.56 237.586 968.56C238.286 968.56 238.776 968.71 239.056 969.01C239.336 969.29 239.476 969.65 239.476 970.09V970.57C239.476 971.01 239.336 971.38 239.056 971.68C238.776 971.96 238.286 972.1 237.586 972.1ZM230.806 988.96H236.386V977.56H230.806V975.52H238.786V988.96H244.006V991H230.806V988.96ZM247.895 991V975.52H250.295V978.04H250.415C250.575 977.66 250.775 977.3 251.015 976.96C251.255 976.6 251.545 976.29 251.885 976.03C252.245 975.77 252.665 975.56 253.145 975.4C253.625 975.24 254.185 975.16 254.825 975.16C256.445 975.16 257.745 975.68 258.725 976.72C259.705 977.74 260.195 979.19 260.195 981.07V991H257.795V981.49C257.795 980.07 257.485 979.02 256.865 978.34C256.245 977.64 255.335 977.29 254.135 977.29C253.655 977.29 253.185 977.35 252.725 977.47C252.265 977.59 251.855 977.77 251.495 978.01C251.135 978.25 250.845 978.56 250.625 978.94C250.405 979.32 250.295 979.76 250.295 980.26V991H247.895Z" fill="#FCFAF2"/>
<path d="M92.64 1039V1034.72H100.32V1014.88H99.96L93.88 1022.08L90.6 1019.32L97.52 1011.08H105.56V1034.72H111.88V1039H92.64ZM124.104 1039.48C122.451 1039.48 120.984 1039.28 119.704 1038.88C118.424 1038.45 117.344 1037.88 116.464 1037.16C115.584 1036.44 114.918 1035.59 114.464 1034.6C114.011 1033.61 113.784 1032.53 113.784 1031.36C113.784 1029.52 114.291 1028.04 115.304 1026.92C116.344 1025.8 117.704 1025.01 119.384 1024.56V1024.24C117.944 1023.73 116.784 1022.95 115.904 1021.88C115.051 1020.81 114.624 1019.47 114.624 1017.84C114.624 1016.77 114.838 1015.8 115.264 1014.92C115.691 1014.01 116.304 1013.24 117.104 1012.6C117.904 1011.96 118.891 1011.47 120.064 1011.12C121.238 1010.77 122.584 1010.6 124.104 1010.6C125.624 1010.6 126.971 1010.77 128.144 1011.12C129.318 1011.47 130.304 1011.96 131.104 1012.6C131.904 1013.24 132.518 1014.01 132.944 1014.92C133.371 1015.8 133.584 1016.77 133.584 1017.84C133.584 1019.47 133.144 1020.81 132.264 1021.88C131.411 1022.95 130.264 1023.73 128.824 1024.24V1024.56C130.504 1025.01 131.851 1025.8 132.864 1026.92C133.904 1028.04 134.424 1029.52 134.424 1031.36C134.424 1032.53 134.198 1033.61 133.744 1034.6C133.291 1035.59 132.624 1036.44 131.744 1037.16C130.864 1037.88 129.784 1038.45 128.504 1038.88C127.224 1039.28 125.758 1039.48 124.104 1039.48ZM124.104 1035.4C125.678 1035.4 126.878 1035.05 127.704 1034.36C128.558 1033.64 128.984 1032.65 128.984 1031.4V1030.6C128.984 1029.32 128.571 1028.33 127.744 1027.64C126.918 1026.92 125.704 1026.56 124.104 1026.56C122.504 1026.56 121.291 1026.92 120.464 1027.64C119.638 1028.33 119.224 1029.32 119.224 1030.6V1031.4C119.224 1032.65 119.638 1033.64 120.464 1034.36C121.318 1035.05 122.531 1035.4 124.104 1035.4ZM124.104 1022.68C125.571 1022.68 126.691 1022.35 127.464 1021.68C128.238 1021.01 128.624 1020.09 128.624 1018.92V1018.36C128.624 1017.21 128.238 1016.32 127.464 1015.68C126.691 1015.01 125.571 1014.68 124.104 1014.68C122.638 1014.68 121.518 1015.01 120.744 1015.68C119.971 1016.32 119.584 1017.21 119.584 1018.36V1018.92C119.584 1020.09 119.971 1021.01 120.744 1021.68C121.518 1022.35 122.638 1022.68 124.104 1022.68ZM137.549 1043.14L147.419 1016.2H150.869L140.999 1043.14H137.549ZM160.697 1026.52C161.957 1026.52 162.877 1026.27 163.457 1025.77C164.057 1025.27 164.357 1024.64 164.357 1023.88V1023.67C164.357 1022.81 164.067 1022.14 163.487 1021.66C162.927 1021.18 162.147 1020.94 161.147 1020.94C160.187 1020.94 159.347 1021.16 158.627 1021.6C157.907 1022.04 157.287 1022.66 156.767 1023.46L154.217 1021.18C154.577 1020.7 154.977 1020.25 155.417 1019.83C155.877 1019.39 156.387 1019.02 156.947 1018.72C157.527 1018.4 158.167 1018.15 158.867 1017.97C159.567 1017.79 160.367 1017.7 161.267 1017.7C162.327 1017.7 163.297 1017.83 164.177 1018.09C165.077 1018.33 165.837 1018.69 166.457 1019.17C167.097 1019.65 167.587 1020.23 167.927 1020.91C168.287 1021.57 168.467 1022.32 168.467 1023.16C168.467 1023.82 168.357 1024.42 168.137 1024.96C167.917 1025.5 167.617 1025.97 167.237 1026.37C166.877 1026.77 166.447 1027.1 165.947 1027.36C165.467 1027.62 164.947 1027.81 164.387 1027.93V1028.08C165.007 1028.2 165.587 1028.4 166.127 1028.68C166.667 1028.94 167.137 1029.28 167.537 1029.7C167.937 1030.12 168.257 1030.63 168.497 1031.23C168.737 1031.81 168.857 1032.47 168.857 1033.21C168.857 1034.13 168.667 1034.97 168.287 1035.73C167.907 1036.49 167.367 1037.14 166.667 1037.68C165.987 1038.22 165.157 1038.64 164.177 1038.94C163.217 1039.22 162.137 1039.36 160.937 1039.36C159.937 1039.36 159.047 1039.25 158.267 1039.03C157.487 1038.83 156.797 1038.55 156.197 1038.19C155.597 1037.83 155.077 1037.42 154.637 1036.96C154.197 1036.48 153.807 1035.99 153.467 1035.49L156.377 1033.24C156.877 1034.08 157.467 1034.77 158.147 1035.31C158.847 1035.85 159.797 1036.12 160.997 1036.12C162.197 1036.12 163.117 1035.85 163.757 1035.31C164.417 1034.75 164.747 1033.98 164.747 1033V1032.76C164.747 1031.8 164.397 1031.07 163.697 1030.57C162.997 1030.05 162.007 1029.79 160.727 1029.79H158.627V1026.52H160.697ZM178.025 1026.52C179.285 1026.52 180.205 1026.27 180.785 1025.77C181.385 1025.27 181.685 1024.64 181.685 1023.88V1023.67C181.685 1022.81 181.395 1022.14 180.815 1021.66C180.255 1021.18 179.475 1020.94 178.475 1020.94C177.515 1020.94 176.675 1021.16 175.955 1021.6C175.235 1022.04 174.615 1022.66 174.095 1023.46L171.545 1021.18C171.905 1020.7 172.305 1020.25 172.745 1019.83C173.205 1019.39 173.715 1019.02 174.275 1018.72C174.855 1018.4 175.495 1018.15 176.195 1017.97C176.895 1017.79 177.695 1017.7 178.595 1017.7C179.655 1017.7 180.625 1017.83 181.505 1018.09C182.405 1018.33 183.165 1018.69 183.785 1019.17C184.425 1019.65 184.915 1020.23 185.255 1020.91C185.615 1021.57 185.795 1022.32 185.795 1023.16C185.795 1023.82 185.685 1024.42 185.465 1024.96C185.245 1025.5 184.945 1025.97 184.565 1026.37C184.205 1026.77 183.775 1027.1 183.275 1027.36C182.795 1027.62 182.275 1027.81 181.715 1027.93V1028.08C182.335 1028.2 182.915 1028.4 183.455 1028.68C183.995 1028.94 184.465 1029.28 184.865 1029.7C185.265 1030.12 185.585 1030.63 185.825 1031.23C186.065 1031.81 186.185 1032.47 186.185 1033.21C186.185 1034.13 185.995 1034.97 185.615 1035.73C185.235 1036.49 184.695 1037.14 183.995 1037.68C183.315 1038.22 182.485 1038.64 181.505 1038.94C180.545 1039.22 179.465 1039.36 178.265 1039.36C177.265 1039.36 176.375 1039.25 175.595 1039.03C174.815 1038.83 174.125 1038.55 173.525 1038.19C172.925 1037.83 172.405 1037.42 171.965 1036.96C171.525 1036.48 171.135 1035.99 170.795 1035.49L173.705 1033.24C174.205 1034.08 174.795 1034.77 175.475 1035.31C176.175 1035.85 177.125 1036.12 178.325 1036.12C179.525 1036.12 180.445 1035.85 181.085 1035.31C181.745 1034.75 182.075 1033.98 182.075 1033V1032.76C182.075 1031.8 181.725 1031.07 181.025 1030.57C180.325 1030.05 179.335 1029.79 178.055 1029.79H175.955V1026.52H178.025Z" fill="#FCFAF2"/>
<path d="M523 1039.48C521.187 1039.48 519.613 1039.16 518.28 1038.52C516.947 1037.85 515.84 1036.91 514.96 1035.68C514.107 1034.45 513.467 1032.95 513.04 1031.16C512.64 1029.37 512.44 1027.33 512.44 1025.04C512.44 1022.77 512.64 1020.75 513.04 1018.96C513.467 1017.15 514.107 1015.63 514.96 1014.4C515.84 1013.17 516.947 1012.24 518.28 1011.6C519.613 1010.93 521.187 1010.6 523 1010.6C526.627 1010.6 529.293 1011.87 531 1014.4C532.707 1016.93 533.56 1020.48 533.56 1025.04C533.56 1029.6 532.707 1033.15 531 1035.68C529.293 1038.21 526.627 1039.48 523 1039.48ZM523 1035.28C524.92 1035.28 526.267 1034.6 527.04 1033.24C527.84 1031.85 528.24 1029.95 528.24 1027.52V1022.56C528.24 1020.13 527.84 1018.24 527.04 1016.88C526.267 1015.49 524.92 1014.8 523 1014.8C521.08 1014.8 519.72 1015.49 518.92 1016.88C518.147 1018.24 517.76 1020.13 517.76 1022.56V1027.52C517.76 1029.95 518.147 1031.85 518.92 1033.24C519.72 1034.6 521.08 1035.28 523 1035.28ZM523 1027.4C522.067 1027.4 521.413 1027.21 521.04 1026.84C520.693 1026.47 520.52 1026.01 520.52 1025.48V1024.6C520.52 1024.07 520.693 1023.61 521.04 1023.24C521.413 1022.87 522.067 1022.68 523 1022.68C523.933 1022.68 524.573 1022.87 524.92 1023.24C525.293 1023.61 525.48 1024.07 525.48 1024.6V1025.48C525.48 1026.01 525.293 1026.47 524.92 1026.84C524.573 1027.21 523.933 1027.4 523 1027.4ZM537.744 1039V1034.72H545.424V1014.88H545.064L538.984 1022.08L535.704 1019.32L542.624 1011.08H550.664V1034.72H556.984V1039H537.744Z" fill="#FCFAF2"/>
</svg>
